%TF.GenerationSoftware,KiCad,Pcbnew,9.0.7*%
%TF.CreationDate,2026-02-26T22:16:59-05:00*%
%TF.ProjectId,EE4737_Actutation_Slice,45453437-3337-45f4-9163-747574617469,rev?*%
%TF.SameCoordinates,Original*%
%TF.FileFunction,Copper,L1,Top*%
%TF.FilePolarity,Positive*%
%FSLAX46Y46*%
G04 Gerber Fmt 4.6, Leading zero omitted, Abs format (unit mm)*
G04 Created by KiCad (PCBNEW 9.0.7) date 2026-02-26 22:16:59*
%MOMM*%
%LPD*%
G01*
G04 APERTURE LIST*
G04 Aperture macros list*
%AMRoundRect*
0 Rectangle with rounded corners*
0 $1 Rounding radius*
0 $2 $3 $4 $5 $6 $7 $8 $9 X,Y pos of 4 corners*
0 Add a 4 corners polygon primitive as box body*
4,1,4,$2,$3,$4,$5,$6,$7,$8,$9,$2,$3,0*
0 Add four circle primitives for the rounded corners*
1,1,$1+$1,$2,$3*
1,1,$1+$1,$4,$5*
1,1,$1+$1,$6,$7*
1,1,$1+$1,$8,$9*
0 Add four rect primitives between the rounded corners*
20,1,$1+$1,$2,$3,$4,$5,0*
20,1,$1+$1,$4,$5,$6,$7,0*
20,1,$1+$1,$6,$7,$8,$9,0*
20,1,$1+$1,$8,$9,$2,$3,0*%
G04 Aperture macros list end*
%TA.AperFunction,ConnectorPad*%
%ADD10RoundRect,0.190500X0.444500X-3.809500X0.444500X3.809500X-0.444500X3.809500X-0.444500X-3.809500X0*%
%TD*%
%TA.AperFunction,ComponentPad*%
%ADD11C,1.700000*%
%TD*%
%TA.AperFunction,ComponentPad*%
%ADD12R,1.700000X1.700000*%
%TD*%
%TA.AperFunction,ComponentPad*%
%ADD13R,1.530000X1.530000*%
%TD*%
%TA.AperFunction,ComponentPad*%
%ADD14C,1.530000*%
%TD*%
%TA.AperFunction,ComponentPad*%
%ADD15C,2.600000*%
%TD*%
%TA.AperFunction,ComponentPad*%
%ADD16RoundRect,0.250000X-1.050000X-1.050000X1.050000X-1.050000X1.050000X1.050000X-1.050000X1.050000X0*%
%TD*%
%TA.AperFunction,SMDPad,CuDef*%
%ADD17RoundRect,0.150000X-0.150000X0.825000X-0.150000X-0.825000X0.150000X-0.825000X0.150000X0.825000X0*%
%TD*%
%TA.AperFunction,SMDPad,CuDef*%
%ADD18RoundRect,0.250000X-0.350000X-0.450000X0.350000X-0.450000X0.350000X0.450000X-0.350000X0.450000X0*%
%TD*%
%TA.AperFunction,SMDPad,CuDef*%
%ADD19RoundRect,0.250000X-0.450000X0.350000X-0.450000X-0.350000X0.450000X-0.350000X0.450000X0.350000X0*%
%TD*%
%TA.AperFunction,SMDPad,CuDef*%
%ADD20RoundRect,0.150000X0.150000X-0.587500X0.150000X0.587500X-0.150000X0.587500X-0.150000X-0.587500X0*%
%TD*%
%TA.AperFunction,ComponentPad*%
%ADD21RoundRect,0.249999X0.850001X0.850001X-0.850001X0.850001X-0.850001X-0.850001X0.850001X-0.850001X0*%
%TD*%
%TA.AperFunction,ComponentPad*%
%ADD22C,2.200000*%
%TD*%
%TA.AperFunction,SMDPad,CuDef*%
%ADD23RoundRect,0.250000X-0.337500X-0.475000X0.337500X-0.475000X0.337500X0.475000X-0.337500X0.475000X0*%
%TD*%
%TA.AperFunction,SMDPad,CuDef*%
%ADD24RoundRect,0.250000X-0.475000X0.337500X-0.475000X-0.337500X0.475000X-0.337500X0.475000X0.337500X0*%
%TD*%
%TA.AperFunction,SMDPad,CuDef*%
%ADD25RoundRect,0.250000X0.337500X0.475000X-0.337500X0.475000X-0.337500X-0.475000X0.337500X-0.475000X0*%
%TD*%
%TA.AperFunction,ViaPad*%
%ADD26C,0.600000*%
%TD*%
%TA.AperFunction,Conductor*%
%ADD27C,0.200000*%
%TD*%
%TA.AperFunction,Conductor*%
%ADD28C,0.500000*%
%TD*%
G04 APERTURE END LIST*
D10*
%TO.P,J1,18,Pin_18*%
%TO.N,EXT5*%
X142080000Y-139087500D03*
D11*
X142065000Y-61807500D03*
D10*
%TO.P,J1,17,Pin_17*%
%TO.N,EXT4*%
X139540000Y-139087500D03*
D11*
X139525000Y-61807500D03*
D10*
%TO.P,J1,16,Pin_16*%
%TO.N,EXT3*%
X137000000Y-139087500D03*
D11*
X136985000Y-61807500D03*
D10*
%TO.P,J1,15,Pin_15*%
%TO.N,EXT2*%
X134460000Y-139087500D03*
D11*
X134445000Y-61807500D03*
D10*
%TO.P,J1,14,Pin_14*%
%TO.N,EXT1*%
X131920000Y-139087500D03*
D11*
X131905000Y-61807500D03*
D10*
%TO.P,J1,13,Pin_13*%
%TO.N,GND*%
X129380000Y-139087500D03*
D11*
X129365000Y-61807500D03*
D10*
%TO.P,J1,12,Pin_12*%
%TO.N,5V*%
X126840000Y-139087500D03*
D11*
X126825000Y-61807500D03*
D10*
%TO.P,J1,11,Pin_11*%
%TO.N,GND*%
X124300000Y-139087500D03*
D11*
X124285000Y-61807500D03*
D10*
%TO.P,J1,10,Pin_10*%
%TO.N,DETECT*%
X121760000Y-139087500D03*
D11*
X121745000Y-61807500D03*
D10*
%TO.P,J1,9,Pin_9*%
%TO.N,GND*%
X119220000Y-139087500D03*
D11*
X119205000Y-61807500D03*
D10*
%TO.P,J1,8,Pin_8*%
%TO.N,SDA*%
X116680000Y-139087500D03*
D11*
X116665000Y-61807500D03*
D10*
%TO.P,J1,7,Pin_7*%
%TO.N,GND*%
X114140000Y-139087500D03*
D11*
X114125000Y-61807500D03*
D10*
%TO.P,J1,6,Pin_6*%
%TO.N,SCL*%
X111600000Y-139087500D03*
D11*
X111585000Y-61807500D03*
D10*
%TO.P,J1,5,Pin_5*%
%TO.N,GND*%
X109060000Y-139087500D03*
D11*
X109045000Y-61807500D03*
D10*
%TO.P,J1,4,Pin_4*%
%TO.N,3V3*%
X106520000Y-139087500D03*
D11*
X106505000Y-61807500D03*
D10*
%TO.P,J1,3,Pin_3*%
X103980000Y-139087500D03*
D11*
X103965000Y-61807500D03*
D10*
%TO.P,J1,2,Pin_2*%
%TO.N,GND*%
X101440000Y-139087500D03*
D11*
X101425000Y-61807500D03*
D10*
%TO.P,J1,1,Pin_1*%
X98900000Y-139087500D03*
D12*
X98885000Y-61807500D03*
%TD*%
D13*
%TO.P,A1,3.1,PA9*%
%TO.N,PA9*%
X63080000Y-79647500D03*
D14*
%TO.P,A1,3.2,PA10*%
%TO.N,PA10*%
X63080000Y-82187500D03*
%TO.P,A1,3.3,NRST*%
%TO.N,NRST*%
X63080000Y-84727500D03*
%TO.P,A1,3.4,GND*%
%TO.N,GND*%
X63080000Y-87267500D03*
%TO.P,A1,3.5,PA12*%
%TO.N,EXT1*%
X63080000Y-89807500D03*
%TO.P,A1,3.6,PB0*%
%TO.N,EXT2*%
X63080000Y-92347500D03*
%TO.P,A1,3.7,PB7*%
%TO.N,EXT3*%
X63080000Y-94887500D03*
%TO.P,A1,3.8,PB6*%
%TO.N,EXT4*%
X63080000Y-97427500D03*
%TO.P,A1,3.9,PB1*%
%TO.N,MotorPWM*%
X63080000Y-99967500D03*
%TO.P,A1,3.10,PF0*%
%TO.N,PF0*%
X63080000Y-102507500D03*
%TO.P,A1,3.11,PF1*%
%TO.N,unconnected-(A1A-PF1-Pad3.11)*%
X63080000Y-105047500D03*
%TO.P,A1,3.12,PA8*%
%TO.N,PWM_1*%
X63080000Y-107587500D03*
%TO.P,A1,3.13,PA11*%
%TO.N,PWM_2*%
X63080000Y-110127500D03*
%TO.P,A1,3.14,PB5*%
%TO.N,PWM_3*%
X63080000Y-112667500D03*
%TO.P,A1,3.15,PB4*%
%TO.N,EXT5*%
X63080000Y-115207500D03*
D13*
%TO.P,A1,4.1,VIN*%
%TO.N,VIN*%
X78320000Y-79647500D03*
D14*
%TO.P,A1,4.2,GND*%
%TO.N,GND*%
X78320000Y-82187500D03*
%TO.P,A1,4.3,NRST*%
%TO.N,NRST*%
X78320000Y-84727500D03*
%TO.P,A1,4.4,5V*%
%TO.N,5V*%
X78320000Y-87267500D03*
%TO.P,A1,4.5,PA2*%
%TO.N,DETECT*%
X78320000Y-89807500D03*
%TO.P,A1,4.6,PA7*%
%TO.N,PA7*%
X78320000Y-92347500D03*
%TO.P,A1,4.7,PA6*%
%TO.N,SCL*%
X78320000Y-94887500D03*
%TO.P,A1,4.8,PA5*%
%TO.N,SDA*%
X78320000Y-97427500D03*
%TO.P,A1,4.9,PA4*%
%TO.N,PA4*%
X78320000Y-99967500D03*
%TO.P,A1,4.10,PA3*%
%TO.N,ZC_1*%
X78320000Y-102507500D03*
%TO.P,A1,4.11,PA1*%
%TO.N,ZC_2*%
X78320000Y-105047500D03*
%TO.P,A1,4.12,PA0*%
%TO.N,ZC_3*%
X78320000Y-107587500D03*
%TO.P,A1,4.13,VDDA*%
%TO.N,VDDA*%
X78320000Y-110127500D03*
%TO.P,A1,4.14,VDD*%
%TO.N,3V3*%
X78320000Y-112667500D03*
%TO.P,A1,4.15,PB3*%
%TO.N,PB3*%
X78320000Y-115207500D03*
%TD*%
D15*
%TO.P,J_motor1,4,Pin_4*%
%TO.N,CS+19V5*%
X162800000Y-66400000D03*
%TO.P,J_motor1,3,Pin_3*%
%TO.N,EXT_19V5_-*%
X157800000Y-66400000D03*
%TO.P,J_motor1,2,Pin_2*%
%TO.N,CS-19V5*%
X152800000Y-66400000D03*
D16*
%TO.P,J_motor1,1,Pin_1*%
%TO.N,MTR_-*%
X147800000Y-66400000D03*
%TD*%
D17*
%TO.P,U1,1,IP+*%
%TO.N,CS+19V5*%
X168605000Y-79625000D03*
%TO.P,U1,2,IP+*%
X167335000Y-79625000D03*
%TO.P,U1,3,IP-*%
%TO.N,CS-19V5*%
X166065000Y-79625000D03*
%TO.P,U1,4,IP-*%
X164795000Y-79625000D03*
%TO.P,U1,5,GND*%
%TO.N,GND*%
X164795000Y-84575000D03*
%TO.P,U1,6,FILTER*%
%TO.N,Net-(U1-FILTER)*%
X166065000Y-84575000D03*
%TO.P,U1,7,VIOUT*%
%TO.N,PA4*%
X167335000Y-84575000D03*
%TO.P,U1,8,VCC*%
%TO.N,3V3*%
X168605000Y-84575000D03*
%TD*%
D18*
%TO.P,R_MPD2,1*%
%TO.N,EXT_19V5_-*%
X159950000Y-75400000D03*
%TO.P,R_MPD2,2*%
%TO.N,GND*%
X161950000Y-75400000D03*
%TD*%
D19*
%TO.P,100K,1*%
%TO.N,Net-(Q_Motor1-G)*%
X147150000Y-93850000D03*
%TO.P,100K,2*%
%TO.N,GND*%
X147150000Y-95850000D03*
%TD*%
D18*
%TO.P,33,1*%
%TO.N,MotorPWM*%
X145250000Y-90650000D03*
%TO.P,33,2*%
%TO.N,Net-(Q_Motor1-G)*%
X147250000Y-90650000D03*
%TD*%
D20*
%TO.P,Q_Motor1,1,G*%
%TO.N,Net-(Q_Motor1-G)*%
X149750000Y-90650000D03*
%TO.P,Q_Motor1,2,D*%
%TO.N,MTR_-*%
X151650000Y-90650000D03*
%TO.P,Q_Motor1,3,S*%
%TO.N,EXT_19V5_-*%
X150700000Y-88775000D03*
%TD*%
D21*
%TO.P,D_FLYBACK1,1,K*%
%TO.N,CS-19V5*%
X154010000Y-76250000D03*
D22*
%TO.P,D_FLYBACK1,2,A*%
%TO.N,MTR_-*%
X146390000Y-76250000D03*
%TD*%
D23*
%TO.P,C_Motor1,1*%
%TO.N,CS+19V5*%
X167000000Y-66350000D03*
%TO.P,C_Motor1,2*%
%TO.N,GND*%
X169075000Y-66350000D03*
%TD*%
D24*
%TO.P,C4,1*%
%TO.N,3V3*%
X170700000Y-85625000D03*
%TO.P,C4,2*%
%TO.N,GND*%
X170700000Y-87700000D03*
%TD*%
D25*
%TO.P,C3,1*%
%TO.N,Net-(U1-FILTER)*%
X165475000Y-87500000D03*
%TO.P,C3,2*%
%TO.N,GND*%
X163400000Y-87500000D03*
%TD*%
D23*
%TO.P,C1,1*%
%TO.N,3V3*%
X83425000Y-112500000D03*
%TO.P,C1,2*%
%TO.N,GND*%
X85500000Y-112500000D03*
%TD*%
D12*
%TO.P,J3,1,Pin_1*%
%TO.N,PWM_2*%
X181000000Y-97920000D03*
D11*
%TO.P,J3,2,Pin_2*%
%TO.N,ZC_2*%
X181000000Y-100460000D03*
%TO.P,J3,3,Pin_3*%
%TO.N,GND*%
X181000000Y-103000000D03*
%TO.P,J3,4,Pin_4*%
%TO.N,3V3*%
X181000000Y-105540000D03*
%TD*%
D12*
%TO.P,J5,1,Pin_1*%
%TO.N,VIN*%
X79890000Y-65500000D03*
D11*
%TO.P,J5,2,Pin_2*%
%TO.N,PA7*%
X77350000Y-65500000D03*
%TO.P,J5,3,Pin_3*%
%TO.N,PF0*%
X74810000Y-65500000D03*
%TO.P,J5,4,Pin_4*%
%TO.N,VDDA*%
X72270000Y-65500000D03*
%TO.P,J5,5,Pin_5*%
%TO.N,PB3*%
X69730000Y-65500000D03*
%TO.P,J5,6,Pin_6*%
%TO.N,NRST*%
X67190000Y-65500000D03*
%TO.P,J5,7,Pin_7*%
%TO.N,PA10*%
X64650000Y-65500000D03*
%TO.P,J5,8,Pin_8*%
%TO.N,PA9*%
X62110000Y-65500000D03*
%TD*%
D12*
%TO.P,J2,1,Pin_1*%
%TO.N,PWM_1*%
X181000000Y-78460000D03*
D11*
%TO.P,J2,2,Pin_2*%
%TO.N,ZC_1*%
X181000000Y-81000000D03*
%TO.P,J2,3,Pin_3*%
%TO.N,GND*%
X181000000Y-83540000D03*
%TO.P,J2,4,Pin_4*%
%TO.N,3V3*%
X181000000Y-86080000D03*
%TD*%
D12*
%TO.P,J4,1,Pin_1*%
%TO.N,PWM_3*%
X181000000Y-117380000D03*
D11*
%TO.P,J4,2,Pin_2*%
%TO.N,ZC_3*%
X181000000Y-119920000D03*
%TO.P,J4,3,Pin_3*%
%TO.N,GND*%
X181000000Y-122460000D03*
%TO.P,J4,4,Pin_4*%
%TO.N,3V3*%
X181000000Y-125000000D03*
%TD*%
D23*
%TO.P,C2,1*%
%TO.N,5V*%
X82925000Y-87000000D03*
%TO.P,C2,2*%
%TO.N,GND*%
X85000000Y-87000000D03*
%TD*%
D26*
%TO.N,EXT3*%
X65500000Y-121900000D03*
X136985000Y-121900000D03*
%TO.N,EXT5*%
X63000000Y-123000000D03*
X142080000Y-123500000D03*
%TO.N,EXT4*%
X64500000Y-122500000D03*
X139525000Y-122500000D03*
%TO.N,EXT_19V5_-*%
X149150000Y-85600000D03*
X159750000Y-78050000D03*
%TO.N,PA4*%
X167200000Y-87500000D03*
X82250000Y-99950000D03*
%TO.N,MotorPWM*%
X144350000Y-92600000D03*
X60750000Y-99950000D03*
%TO.N,PF0*%
X73850000Y-100100000D03*
X60250000Y-102800000D03*
%TO.N,5V*%
X126840000Y-85500000D03*
X83100000Y-85700000D03*
%TO.N,EXT2*%
X66500000Y-121000000D03*
X134445000Y-121000000D03*
%TO.N,DETECT*%
X83000000Y-90000000D03*
X121760000Y-90000000D03*
%TO.N,3V3*%
X106500000Y-125000000D03*
%TO.N,SDA*%
X86500000Y-97500000D03*
X116680000Y-97500000D03*
%TO.N,EXT1*%
X131905000Y-120000000D03*
X67500000Y-120000000D03*
%TO.N,SCL*%
X86500000Y-95000000D03*
X111600000Y-95000000D03*
%TD*%
D27*
%TO.N,EXT3*%
X65500000Y-97307500D02*
X65500000Y-121900000D01*
X63080000Y-94887500D02*
X65500000Y-97307500D01*
X136985000Y-139072500D02*
X136985000Y-61807500D01*
X137000000Y-139087500D02*
X136985000Y-139072500D01*
%TO.N,EXT5*%
X63080000Y-115207500D02*
X63080000Y-122920000D01*
X63080000Y-122920000D02*
X63000000Y-123000000D01*
X142080000Y-139087500D02*
X142080000Y-123500000D01*
X142080000Y-123500000D02*
X142080000Y-61822500D01*
X142080000Y-61822500D02*
X142065000Y-61807500D01*
%TO.N,EXT4*%
X64500000Y-98847500D02*
X64500000Y-122500000D01*
X63080000Y-97427500D02*
X64500000Y-98847500D01*
X139525000Y-61807500D02*
X139525000Y-122500000D01*
X139525000Y-122500000D02*
X139525000Y-139072500D01*
X139525000Y-139072500D02*
X139540000Y-139087500D01*
%TO.N,SDA*%
X86500000Y-97500000D02*
X86427500Y-97427500D01*
X86427500Y-97427500D02*
X78320000Y-97427500D01*
%TO.N,5V*%
X82925000Y-85875000D02*
X82925000Y-87000000D01*
X83100000Y-85700000D02*
X82925000Y-85875000D01*
D28*
%TO.N,EXT_19V5_-*%
X159950000Y-77850000D02*
X159750000Y-78050000D01*
X159950000Y-75400000D02*
X159950000Y-77850000D01*
X149150000Y-87225000D02*
X150700000Y-88775000D01*
X149150000Y-85600000D02*
X149150000Y-87225000D01*
D27*
%TO.N,Net-(Q_Motor1-G)*%
X147250000Y-90650000D02*
X147250000Y-93750000D01*
X147250000Y-93750000D02*
X147150000Y-93850000D01*
X149750000Y-90650000D02*
X147250000Y-90650000D01*
D28*
%TO.N,MTR_-*%
X146390000Y-76250000D02*
X151650000Y-81510000D01*
X151650000Y-81510000D02*
X151650000Y-90650000D01*
X146390000Y-67810000D02*
X147800000Y-66400000D01*
%TO.N,EXT_19V5_-*%
X159950000Y-68550000D02*
X159950000Y-75400000D01*
X157800000Y-66400000D02*
X159950000Y-68550000D01*
%TO.N,MTR_-*%
X146390000Y-76250000D02*
X146390000Y-67810000D01*
%TO.N,CS-19V5*%
X154010000Y-76250000D02*
X154010000Y-67610000D01*
X154010000Y-67610000D02*
X152800000Y-66400000D01*
X164795000Y-79625000D02*
X157385000Y-79625000D01*
X157385000Y-79625000D02*
X154010000Y-76250000D01*
X166065000Y-79625000D02*
X164795000Y-79625000D01*
%TO.N,CS+19V5*%
X167335000Y-79625000D02*
X168605000Y-79625000D01*
X167335000Y-70935000D02*
X162800000Y-66400000D01*
X167335000Y-70935000D02*
X167335000Y-79625000D01*
X167000000Y-66350000D02*
X162850000Y-66350000D01*
D27*
X162850000Y-66350000D02*
X162800000Y-66400000D01*
%TO.N,3V3*%
X170700000Y-85625000D02*
X170775000Y-85625000D01*
X171230000Y-86080000D02*
X181000000Y-86080000D01*
X170775000Y-85625000D02*
X171230000Y-86080000D01*
X168605000Y-84575000D02*
X169655000Y-85625000D01*
X169655000Y-85625000D02*
X170700000Y-85625000D01*
%TO.N,Net-(U1-FILTER)*%
X166065000Y-84575000D02*
X166065000Y-86910000D01*
X166065000Y-86910000D02*
X165475000Y-87500000D01*
%TO.N,PA4*%
X167200000Y-87500000D02*
X167335000Y-87365000D01*
X167335000Y-87365000D02*
X167335000Y-84575000D01*
X78320000Y-99967500D02*
X82232500Y-99967500D01*
X82232500Y-99967500D02*
X82250000Y-99950000D01*
%TO.N,MotorPWM*%
X144350000Y-92600000D02*
X145250000Y-91700000D01*
X63080000Y-99967500D02*
X60767500Y-99967500D01*
X60767500Y-99967500D02*
X60750000Y-99950000D01*
X145250000Y-91700000D02*
X145250000Y-90650000D01*
%TO.N,PF0*%
X63080000Y-102507500D02*
X60542500Y-102507500D01*
X60542500Y-102507500D02*
X60250000Y-102800000D01*
X73850000Y-100100000D02*
X74810000Y-99140000D01*
X74810000Y-99140000D02*
X74810000Y-65500000D01*
%TO.N,5V*%
X78587500Y-87000000D02*
X78320000Y-87267500D01*
X82925000Y-87000000D02*
X78587500Y-87000000D01*
X126840000Y-61822500D02*
X126825000Y-61807500D01*
X126840000Y-139087500D02*
X126840000Y-85500000D01*
X126840000Y-85500000D02*
X126840000Y-61822500D01*
%TO.N,PA9*%
X63080000Y-66470000D02*
X63080000Y-79647500D01*
X62110000Y-65500000D02*
X63080000Y-66470000D01*
%TO.N,VIN*%
X78320000Y-67070000D02*
X79890000Y-65500000D01*
X78320000Y-79647500D02*
X78320000Y-67070000D01*
%TO.N,VDDA*%
X72270000Y-65500000D02*
X72270000Y-104077500D01*
X72270000Y-104077500D02*
X78320000Y-110127500D01*
%TO.N,PB3*%
X69730000Y-65500000D02*
X69730000Y-106617500D01*
X69730000Y-106617500D02*
X78320000Y-115207500D01*
%TO.N,PA10*%
X64650000Y-80617500D02*
X64650000Y-65500000D01*
X63080000Y-82187500D02*
X64650000Y-80617500D01*
%TO.N,NRST*%
X67190000Y-80617500D02*
X63080000Y-84727500D01*
X67190000Y-65500000D02*
X67190000Y-80617500D01*
%TO.N,EXT2*%
X134445000Y-121000000D02*
X134445000Y-139072500D01*
X134445000Y-139072500D02*
X134460000Y-139087500D01*
X134445000Y-61807500D02*
X134445000Y-121000000D01*
X63080000Y-92347500D02*
X66500000Y-95767500D01*
X66500000Y-95767500D02*
X66500000Y-121000000D01*
%TO.N,DETECT*%
X121760000Y-90000000D02*
X121760000Y-61822500D01*
X121760000Y-61822500D02*
X121745000Y-61807500D01*
X121760000Y-139087500D02*
X121760000Y-90000000D01*
X82807500Y-89807500D02*
X83000000Y-90000000D01*
X78320000Y-89807500D02*
X82807500Y-89807500D01*
%TO.N,3V3*%
X106520000Y-127500000D02*
X106520000Y-124520000D01*
X106520000Y-127500000D02*
X106520000Y-139087500D01*
X106520000Y-61822500D02*
X106505000Y-61807500D01*
X106520000Y-139087500D02*
X106520000Y-61822500D01*
X103980000Y-133055000D02*
X103980000Y-139087500D01*
X103980000Y-139087500D02*
X106520000Y-139087500D01*
X103965000Y-61807500D02*
X106505000Y-61807500D01*
X106520000Y-125020000D02*
X106520000Y-127500000D01*
X182500000Y-123500000D02*
X182500000Y-107040000D01*
X181000000Y-125000000D02*
X182500000Y-123500000D01*
X182500000Y-87580000D02*
X181000000Y-86080000D01*
X182500000Y-107040000D02*
X182500000Y-87580000D01*
X106500000Y-125000000D02*
X106520000Y-125020000D01*
X78487500Y-112500000D02*
X78320000Y-112667500D01*
X182500000Y-107040000D02*
X181000000Y-105540000D01*
X83425000Y-112500000D02*
X103980000Y-133055000D01*
X83425000Y-112500000D02*
X78487500Y-112500000D01*
%TO.N,PA7*%
X77350000Y-65500000D02*
X76500000Y-66350000D01*
X76500000Y-66350000D02*
X76500000Y-90527500D01*
X76500000Y-90527500D02*
X78320000Y-92347500D01*
%TO.N,SDA*%
X116680000Y-139087500D02*
X116680000Y-97500000D01*
X116680000Y-61822500D02*
X116665000Y-61807500D01*
X116680000Y-97500000D02*
X116680000Y-61822500D01*
%TO.N,EXT1*%
X67500000Y-94227500D02*
X67500000Y-120000000D01*
X131905000Y-61807500D02*
X131905000Y-120000000D01*
X131905000Y-139072500D02*
X131920000Y-139087500D01*
X63080000Y-89807500D02*
X67500000Y-94227500D01*
X131905000Y-120000000D02*
X131905000Y-139072500D01*
%TO.N,SCL*%
X111600000Y-139087500D02*
X111600000Y-95000000D01*
X111600000Y-95000000D02*
X111600000Y-61822500D01*
X78432500Y-95000000D02*
X78320000Y-94887500D01*
X84500000Y-95000000D02*
X78432500Y-95000000D01*
X111600000Y-61822500D02*
X111585000Y-61807500D01*
X84500000Y-95000000D02*
X86500000Y-95000000D01*
%TD*%
%TA.AperFunction,Conductor*%
%TO.N,GND*%
G36*
X97751883Y-60296643D02*
G01*
X97781873Y-60303167D01*
X97785104Y-60306398D01*
X97789486Y-60307685D01*
X97809571Y-60330865D01*
X97831279Y-60352572D01*
X97832250Y-60357037D01*
X97835241Y-60360489D01*
X97839607Y-60390855D01*
X97846131Y-60420845D01*
X97844534Y-60425124D01*
X97845185Y-60429647D01*
X97832436Y-60457561D01*
X97821715Y-60486309D01*
X97817285Y-60490738D01*
X97816160Y-60493203D01*
X97796759Y-60511266D01*
X97677809Y-60600312D01*
X97591649Y-60715406D01*
X97591645Y-60715413D01*
X97541403Y-60850120D01*
X97541401Y-60850127D01*
X97535000Y-60909655D01*
X97535000Y-61557500D01*
X98451988Y-61557500D01*
X98419075Y-61614507D01*
X98385000Y-61741674D01*
X98385000Y-61873326D01*
X98419075Y-62000493D01*
X98451988Y-62057500D01*
X97535000Y-62057500D01*
X97535000Y-62705344D01*
X97541401Y-62764872D01*
X97541403Y-62764879D01*
X97591645Y-62899586D01*
X97591649Y-62899593D01*
X97677809Y-63014687D01*
X97677812Y-63014690D01*
X97792906Y-63100850D01*
X97792913Y-63100854D01*
X97927620Y-63151096D01*
X97927627Y-63151098D01*
X97987155Y-63157499D01*
X97987172Y-63157500D01*
X98635000Y-63157500D01*
X98635000Y-62240512D01*
X98692007Y-62273425D01*
X98819174Y-62307500D01*
X98950826Y-62307500D01*
X99077993Y-62273425D01*
X99135000Y-62240512D01*
X99135000Y-63157500D01*
X99782828Y-63157500D01*
X99782844Y-63157499D01*
X99842372Y-63151098D01*
X99842379Y-63151096D01*
X99977086Y-63100854D01*
X99977093Y-63100850D01*
X100092187Y-63014690D01*
X100092190Y-63014687D01*
X100178350Y-62899593D01*
X100178354Y-62899586D01*
X100200529Y-62840132D01*
X100239319Y-62666890D01*
X100239682Y-62666234D01*
X100239642Y-62665484D01*
X100272642Y-62606302D01*
X100942037Y-61936908D01*
X100959075Y-62000493D01*
X101024901Y-62114507D01*
X101117993Y-62207599D01*
X101232007Y-62273425D01*
X101295590Y-62290462D01*
X100663282Y-62922769D01*
X100663282Y-62922770D01*
X100717449Y-62962124D01*
X100906782Y-63058595D01*
X101108870Y-63124257D01*
X101318754Y-63157500D01*
X101531246Y-63157500D01*
X101741127Y-63124257D01*
X101741130Y-63124257D01*
X101943217Y-63058595D01*
X102132554Y-62962122D01*
X102186716Y-62922770D01*
X102186717Y-62922770D01*
X101554408Y-62290462D01*
X101617993Y-62273425D01*
X101732007Y-62207599D01*
X101825099Y-62114507D01*
X101890925Y-62000493D01*
X101907962Y-61936909D01*
X102540270Y-62569217D01*
X102540270Y-62569216D01*
X102579622Y-62515055D01*
X102584232Y-62506007D01*
X102632205Y-62455209D01*
X102700025Y-62438412D01*
X102766161Y-62460947D01*
X102805204Y-62506004D01*
X102809949Y-62515317D01*
X102934890Y-62687286D01*
X103085213Y-62837609D01*
X103257179Y-62962548D01*
X103257181Y-62962549D01*
X103257184Y-62962551D01*
X103446588Y-63059057D01*
X103648757Y-63124746D01*
X103858713Y-63158000D01*
X103858714Y-63158000D01*
X104071286Y-63158000D01*
X104071287Y-63158000D01*
X104281243Y-63124746D01*
X104483412Y-63059057D01*
X104672816Y-62962551D01*
X104759471Y-62899593D01*
X104844786Y-62837609D01*
X104844788Y-62837606D01*
X104844792Y-62837604D01*
X104995104Y-62687292D01*
X104995106Y-62687288D01*
X104995109Y-62687286D01*
X105120048Y-62515320D01*
X105120047Y-62515320D01*
X105120051Y-62515316D01*
X105124514Y-62506555D01*
X105172488Y-62455759D01*
X105240308Y-62438963D01*
X105306444Y-62461499D01*
X105345486Y-62506556D01*
X105349951Y-62515320D01*
X105474890Y-62687286D01*
X105625213Y-62837609D01*
X105797182Y-62962550D01*
X105797184Y-62962551D01*
X105836793Y-62982733D01*
X105851794Y-62990376D01*
X105902590Y-63038350D01*
X105919500Y-63100861D01*
X105919500Y-124397059D01*
X105899815Y-124464098D01*
X105883181Y-124484740D01*
X105878213Y-124489707D01*
X105878210Y-124489711D01*
X105790609Y-124620814D01*
X105790602Y-124620827D01*
X105730264Y-124766498D01*
X105730261Y-124766510D01*
X105699500Y-124921153D01*
X105699500Y-125078846D01*
X105730261Y-125233489D01*
X105730264Y-125233501D01*
X105790602Y-125379172D01*
X105790609Y-125379185D01*
X105858602Y-125480942D01*
X105878211Y-125510289D01*
X105883178Y-125515256D01*
X105916665Y-125576575D01*
X105919500Y-125602940D01*
X105919500Y-134511599D01*
X105899815Y-134578638D01*
X105847011Y-134624393D01*
X105832398Y-134629981D01*
X105789822Y-134643249D01*
X105789819Y-134643250D01*
X105646222Y-134730056D01*
X105646217Y-134730060D01*
X105527560Y-134848717D01*
X105527556Y-134848722D01*
X105440750Y-134992319D01*
X105440750Y-134992320D01*
X105440749Y-134992322D01*
X105418464Y-135063838D01*
X105390826Y-135152532D01*
X105384500Y-135222155D01*
X105384500Y-138363000D01*
X105381949Y-138371685D01*
X105383238Y-138380647D01*
X105372259Y-138404687D01*
X105364815Y-138430039D01*
X105357974Y-138435966D01*
X105354213Y-138444203D01*
X105331978Y-138458492D01*
X105312011Y-138475794D01*
X105301496Y-138478081D01*
X105295435Y-138481977D01*
X105260500Y-138487000D01*
X105239499Y-138487000D01*
X105172460Y-138467315D01*
X105126705Y-138414511D01*
X105115499Y-138363000D01*
X105115499Y-135222145D01*
X105109174Y-135152533D01*
X105109171Y-135152522D01*
X105059252Y-134992324D01*
X105059250Y-134992320D01*
X104972443Y-134848722D01*
X104972439Y-134848717D01*
X104853782Y-134730060D01*
X104853777Y-134730056D01*
X104710180Y-134643250D01*
X104710179Y-134643249D01*
X104710178Y-134643249D01*
X104667608Y-134629983D01*
X104609462Y-134591247D01*
X104581488Y-134527222D01*
X104580500Y-134511599D01*
X104580500Y-133144060D01*
X104580501Y-133144047D01*
X104580501Y-132975944D01*
X104580501Y-132975943D01*
X104539577Y-132823216D01*
X104539573Y-132823209D01*
X104460524Y-132686290D01*
X104460518Y-132686282D01*
X95153408Y-123379172D01*
X85710914Y-113936679D01*
X85677430Y-113875357D01*
X85682414Y-113805665D01*
X85724286Y-113749732D01*
X85789750Y-113725315D01*
X85798596Y-113724999D01*
X85887472Y-113724999D01*
X85887486Y-113724998D01*
X85990197Y-113714505D01*
X86156619Y-113659358D01*
X86156624Y-113659356D01*
X86305845Y-113567315D01*
X86429815Y-113443345D01*
X86521856Y-113294124D01*
X86521858Y-113294119D01*
X86577005Y-113127697D01*
X86577006Y-113127690D01*
X86587499Y-113024986D01*
X86587500Y-113024973D01*
X86587500Y-112750000D01*
X85624000Y-112750000D01*
X85556961Y-112730315D01*
X85511206Y-112677511D01*
X85500000Y-112626000D01*
X85500000Y-112500000D01*
X85374000Y-112500000D01*
X85306961Y-112480315D01*
X85261206Y-112427511D01*
X85250000Y-112376000D01*
X85250000Y-112250000D01*
X85750000Y-112250000D01*
X86587499Y-112250000D01*
X86587499Y-111975028D01*
X86587498Y-111975013D01*
X86577005Y-111872302D01*
X86521858Y-111705880D01*
X86521856Y-111705875D01*
X86429815Y-111556654D01*
X86305845Y-111432684D01*
X86156624Y-111340643D01*
X86156619Y-111340641D01*
X85990197Y-111285494D01*
X85990190Y-111285493D01*
X85887486Y-111275000D01*
X85750000Y-111275000D01*
X85750000Y-112250000D01*
X85250000Y-112250000D01*
X85250000Y-111275000D01*
X85112527Y-111275000D01*
X85112512Y-111275001D01*
X85009802Y-111285494D01*
X84843380Y-111340641D01*
X84843375Y-111340643D01*
X84694154Y-111432684D01*
X84570183Y-111556655D01*
X84570179Y-111556660D01*
X84568326Y-111559665D01*
X84566518Y-111561290D01*
X84565702Y-111562323D01*
X84565525Y-111562183D01*
X84516374Y-111606385D01*
X84447411Y-111617601D01*
X84383331Y-111589752D01*
X84357253Y-111559653D01*
X84357237Y-111559628D01*
X84355212Y-111556344D01*
X84231156Y-111432288D01*
X84081834Y-111340186D01*
X83915297Y-111285001D01*
X83915295Y-111285000D01*
X83812510Y-111274500D01*
X83037498Y-111274500D01*
X83037480Y-111274501D01*
X82934703Y-111285000D01*
X82934700Y-111285001D01*
X82768168Y-111340185D01*
X82768163Y-111340187D01*
X82618842Y-111432289D01*
X82494789Y-111556342D01*
X82402687Y-111705663D01*
X82402685Y-111705668D01*
X82366621Y-111814504D01*
X82326848Y-111871949D01*
X82262333Y-111898772D01*
X82248915Y-111899500D01*
X79389440Y-111899500D01*
X79322401Y-111879815D01*
X79289123Y-111848387D01*
X79285269Y-111843082D01*
X79144418Y-111702231D01*
X78983266Y-111585147D01*
X78831827Y-111507985D01*
X78781031Y-111460010D01*
X78764236Y-111392189D01*
X78786773Y-111326054D01*
X78831827Y-111287015D01*
X78855406Y-111275001D01*
X78983266Y-111209853D01*
X79144418Y-111092769D01*
X79285269Y-110951918D01*
X79402353Y-110790766D01*
X79492785Y-110613283D01*
X79554339Y-110423839D01*
X79585500Y-110227097D01*
X79585500Y-110027903D01*
X79554339Y-109831161D01*
X79554338Y-109831157D01*
X79554338Y-109831156D01*
X79492786Y-109641719D01*
X79402352Y-109464233D01*
X79285269Y-109303082D01*
X79144418Y-109162231D01*
X78983266Y-109045147D01*
X78831827Y-108967985D01*
X78781031Y-108920010D01*
X78764236Y-108852189D01*
X78786773Y-108786054D01*
X78831827Y-108747015D01*
X78871428Y-108726837D01*
X78983266Y-108669853D01*
X79144418Y-108552769D01*
X79285269Y-108411918D01*
X79402353Y-108250766D01*
X79492785Y-108073283D01*
X79554339Y-107883839D01*
X79585500Y-107687097D01*
X79585500Y-107487903D01*
X79554339Y-107291161D01*
X79554338Y-107291157D01*
X79554338Y-107291156D01*
X79492786Y-107101719D01*
X79421057Y-106960943D01*
X79402353Y-106924234D01*
X79285269Y-106763082D01*
X79144418Y-106622231D01*
X78983266Y-106505147D01*
X78831827Y-106427985D01*
X78781031Y-106380010D01*
X78764236Y-106312189D01*
X78786773Y-106246054D01*
X78831827Y-106207015D01*
X78841116Y-106202281D01*
X78983266Y-106129853D01*
X79144418Y-106012769D01*
X79285269Y-105871918D01*
X79402353Y-105710766D01*
X79492785Y-105533283D01*
X79554339Y-105343839D01*
X79585500Y-105147097D01*
X79585500Y-104947903D01*
X79554339Y-104751161D01*
X79554338Y-104751157D01*
X79554338Y-104751156D01*
X79492786Y-104561719D01*
X79402352Y-104384233D01*
X79285269Y-104223082D01*
X79144418Y-104082231D01*
X78983266Y-103965147D01*
X78831827Y-103887985D01*
X78781031Y-103840010D01*
X78764236Y-103772189D01*
X78786773Y-103706054D01*
X78831827Y-103667015D01*
X78841116Y-103662281D01*
X78983266Y-103589853D01*
X79144418Y-103472769D01*
X79285269Y-103331918D01*
X79402353Y-103170766D01*
X79492785Y-102993283D01*
X79554339Y-102803839D01*
X79585500Y-102607097D01*
X79585500Y-102407903D01*
X79554339Y-102211161D01*
X79554338Y-102211157D01*
X79554338Y-102211156D01*
X79492786Y-102021719D01*
X79473000Y-101982887D01*
X79402353Y-101844234D01*
X79285269Y-101683082D01*
X79144418Y-101542231D01*
X78983266Y-101425147D01*
X78831827Y-101347985D01*
X78781031Y-101300010D01*
X78764236Y-101232189D01*
X78786773Y-101166054D01*
X78831827Y-101127015D01*
X78841116Y-101122281D01*
X78983266Y-101049853D01*
X79144418Y-100932769D01*
X79285269Y-100791918D01*
X79402353Y-100630766D01*
X79402357Y-100630756D01*
X79404534Y-100627207D01*
X79456348Y-100580333D01*
X79510260Y-100568000D01*
X81696425Y-100568000D01*
X81763464Y-100587685D01*
X81765316Y-100588898D01*
X81870814Y-100659390D01*
X81870827Y-100659397D01*
X82016498Y-100719735D01*
X82016503Y-100719737D01*
X82171153Y-100750499D01*
X82171156Y-100750500D01*
X82171158Y-100750500D01*
X82328844Y-100750500D01*
X82328845Y-100750499D01*
X82483497Y-100719737D01*
X82629179Y-100659394D01*
X82760289Y-100571789D01*
X82871789Y-100460289D01*
X82959394Y-100329179D01*
X83019737Y-100183497D01*
X83050500Y-100028842D01*
X83050500Y-99871158D01*
X83050500Y-99871155D01*
X83050499Y-99871153D01*
X83020596Y-99720821D01*
X83019737Y-99716503D01*
X82984210Y-99630732D01*
X82959397Y-99570827D01*
X82959390Y-99570814D01*
X82871789Y-99439711D01*
X82871786Y-99439707D01*
X82760292Y-99328213D01*
X82760288Y-99328210D01*
X82629185Y-99240609D01*
X82629172Y-99240602D01*
X82483501Y-99180264D01*
X82483489Y-99180261D01*
X82328845Y-99149500D01*
X82328842Y-99149500D01*
X82171158Y-99149500D01*
X82171155Y-99149500D01*
X82016510Y-99180261D01*
X82016498Y-99180264D01*
X81870827Y-99240602D01*
X81870814Y-99240609D01*
X81739711Y-99328210D01*
X81739707Y-99328213D01*
X81737240Y-99330681D01*
X81735628Y-99331560D01*
X81735001Y-99332076D01*
X81734903Y-99331956D01*
X81675917Y-99364166D01*
X81649559Y-99367000D01*
X79510260Y-99367000D01*
X79443221Y-99347315D01*
X79404534Y-99307793D01*
X79402352Y-99304233D01*
X79285269Y-99143082D01*
X79144418Y-99002231D01*
X78983266Y-98885147D01*
X78831827Y-98807985D01*
X78781031Y-98760010D01*
X78764236Y-98692189D01*
X78786773Y-98626054D01*
X78831827Y-98587015D01*
X78841116Y-98582281D01*
X78983266Y-98509853D01*
X79144418Y-98392769D01*
X79285269Y-98251918D01*
X79402353Y-98090766D01*
X79402357Y-98090756D01*
X79404534Y-98087207D01*
X79456348Y-98040333D01*
X79510260Y-98028000D01*
X85844560Y-98028000D01*
X85911599Y-98047685D01*
X85932236Y-98064314D01*
X85966325Y-98098403D01*
X85989712Y-98121790D01*
X86120814Y-98209390D01*
X86120827Y-98209397D01*
X86266498Y-98269735D01*
X86266503Y-98269737D01*
X86421153Y-98300499D01*
X86421156Y-98300500D01*
X86421158Y-98300500D01*
X86578844Y-98300500D01*
X86578845Y-98300499D01*
X86733497Y-98269737D01*
X86879179Y-98209394D01*
X87010289Y-98121789D01*
X87121789Y-98010289D01*
X87209394Y-97879179D01*
X87269737Y-97733497D01*
X87300500Y-97578842D01*
X87300500Y-97421158D01*
X87300500Y-97421155D01*
X87300499Y-97421153D01*
X87269738Y-97266510D01*
X87269737Y-97266503D01*
X87239382Y-97193218D01*
X87209397Y-97120827D01*
X87209390Y-97120814D01*
X87121789Y-96989711D01*
X87121786Y-96989707D01*
X87010292Y-96878213D01*
X87010288Y-96878210D01*
X86879185Y-96790609D01*
X86879172Y-96790602D01*
X86733501Y-96730264D01*
X86733489Y-96730261D01*
X86578845Y-96699500D01*
X86578842Y-96699500D01*
X86421158Y-96699500D01*
X86421155Y-96699500D01*
X86266510Y-96730261D01*
X86266498Y-96730264D01*
X86120825Y-96790603D01*
X86120823Y-96790604D01*
X86097630Y-96806102D01*
X86030952Y-96826980D01*
X86028739Y-96827000D01*
X79510260Y-96827000D01*
X79443221Y-96807315D01*
X79404534Y-96767793D01*
X79402352Y-96764233D01*
X79377672Y-96730264D01*
X79285269Y-96603082D01*
X79144418Y-96462231D01*
X78983266Y-96345147D01*
X78831827Y-96267985D01*
X78781031Y-96220010D01*
X78764236Y-96152189D01*
X78786773Y-96086054D01*
X78831827Y-96047015D01*
X78843163Y-96041239D01*
X78983266Y-95969853D01*
X79144418Y-95852769D01*
X79285269Y-95711918D01*
X79329083Y-95651613D01*
X79384412Y-95608949D01*
X79429400Y-95600500D01*
X84420943Y-95600500D01*
X85920234Y-95600500D01*
X85987273Y-95620185D01*
X85989125Y-95621398D01*
X86120814Y-95709390D01*
X86120827Y-95709397D01*
X86266498Y-95769735D01*
X86266503Y-95769737D01*
X86421153Y-95800499D01*
X86421156Y-95800500D01*
X86421158Y-95800500D01*
X86578844Y-95800500D01*
X86578845Y-95800499D01*
X86733497Y-95769737D01*
X86873083Y-95711919D01*
X86879172Y-95709397D01*
X86879172Y-95709396D01*
X86879179Y-95709394D01*
X87010289Y-95621789D01*
X87121789Y-95510289D01*
X87209394Y-95379179D01*
X87211838Y-95373280D01*
X87247584Y-95286980D01*
X87269737Y-95233497D01*
X87300500Y-95078842D01*
X87300500Y-94921158D01*
X87300500Y-94921155D01*
X87300499Y-94921153D01*
X87274950Y-94792712D01*
X87269737Y-94766503D01*
X87268150Y-94762671D01*
X87209397Y-94620827D01*
X87209390Y-94620814D01*
X87121789Y-94489711D01*
X87121786Y-94489707D01*
X87010292Y-94378213D01*
X87010288Y-94378210D01*
X86879185Y-94290609D01*
X86879172Y-94290602D01*
X86733501Y-94230264D01*
X86733489Y-94230261D01*
X86578845Y-94199500D01*
X86578842Y-94199500D01*
X86421158Y-94199500D01*
X86421155Y-94199500D01*
X86266510Y-94230261D01*
X86266498Y-94230264D01*
X86120827Y-94290602D01*
X86120814Y-94290609D01*
X85989125Y-94378602D01*
X85922447Y-94399480D01*
X85920234Y-94399500D01*
X79567643Y-94399500D01*
X79500604Y-94379815D01*
X79457158Y-94331795D01*
X79415491Y-94250019D01*
X79402353Y-94224234D01*
X79285269Y-94063082D01*
X79144418Y-93922231D01*
X78983266Y-93805147D01*
X78831827Y-93727985D01*
X78781031Y-93680010D01*
X78764236Y-93612189D01*
X78786773Y-93546054D01*
X78831827Y-93507015D01*
X78841116Y-93502281D01*
X78983266Y-93429853D01*
X79144418Y-93312769D01*
X79285269Y-93171918D01*
X79402353Y-93010766D01*
X79492785Y-92833283D01*
X79500478Y-92809605D01*
X79554338Y-92643843D01*
X79554338Y-92643842D01*
X79554339Y-92643839D01*
X79585500Y-92447097D01*
X79585500Y-92247903D01*
X79554339Y-92051161D01*
X79554338Y-92051157D01*
X79554338Y-92051156D01*
X79492786Y-91861719D01*
X79459337Y-91796072D01*
X79402353Y-91684234D01*
X79285269Y-91523082D01*
X79144418Y-91382231D01*
X78983266Y-91265147D01*
X78831827Y-91187985D01*
X78781031Y-91140010D01*
X78764236Y-91072189D01*
X78786773Y-91006054D01*
X78831827Y-90967015D01*
X78871428Y-90946837D01*
X78983266Y-90889853D01*
X79144418Y-90772769D01*
X79285269Y-90631918D01*
X79402353Y-90470766D01*
X79402357Y-90470756D01*
X79404534Y-90467207D01*
X79456348Y-90420333D01*
X79510260Y-90408000D01*
X82243585Y-90408000D01*
X82310624Y-90427685D01*
X82346688Y-90463111D01*
X82378209Y-90510287D01*
X82378213Y-90510292D01*
X82489707Y-90621786D01*
X82489711Y-90621789D01*
X82620814Y-90709390D01*
X82620827Y-90709397D01*
X82741269Y-90759285D01*
X82766503Y-90769737D01*
X82921153Y-90800499D01*
X82921156Y-90800500D01*
X82921158Y-90800500D01*
X83078844Y-90800500D01*
X83078845Y-90800499D01*
X83233497Y-90769737D01*
X83379179Y-90709394D01*
X83510289Y-90621789D01*
X83621789Y-90510289D01*
X83709394Y-90379179D01*
X83769737Y-90233497D01*
X83800500Y-90078842D01*
X83800500Y-89921158D01*
X83800500Y-89921155D01*
X83800499Y-89921153D01*
X83792446Y-89880668D01*
X83769737Y-89766503D01*
X83754390Y-89729452D01*
X83709397Y-89620827D01*
X83709390Y-89620814D01*
X83621789Y-89489711D01*
X83621786Y-89489707D01*
X83510292Y-89378213D01*
X83510288Y-89378210D01*
X83379185Y-89290609D01*
X83379172Y-89290602D01*
X83233501Y-89230264D01*
X83233489Y-89230261D01*
X83078845Y-89199500D01*
X83078842Y-89199500D01*
X82921158Y-89199500D01*
X82921157Y-89199500D01*
X82907300Y-89202256D01*
X82895437Y-89204616D01*
X82871247Y-89206999D01*
X82728443Y-89206999D01*
X82728439Y-89206999D01*
X82720832Y-89207000D01*
X82720831Y-89206999D01*
X82720831Y-89207000D01*
X79510260Y-89207000D01*
X79443221Y-89187315D01*
X79404534Y-89147793D01*
X79402352Y-89144233D01*
X79285269Y-88983082D01*
X79144418Y-88842231D01*
X78983266Y-88725147D01*
X78831827Y-88647985D01*
X78781031Y-88600010D01*
X78764236Y-88532189D01*
X78786773Y-88466054D01*
X78831827Y-88427015D01*
X78841116Y-88422281D01*
X78983266Y-88349853D01*
X79144418Y-88232769D01*
X79285269Y-88091918D01*
X79402353Y-87930766D01*
X79492785Y-87753283D01*
X79499214Y-87733497D01*
X79514588Y-87686182D01*
X79554025Y-87628507D01*
X79618384Y-87601308D01*
X79632519Y-87600500D01*
X81748915Y-87600500D01*
X81815954Y-87620185D01*
X81861709Y-87672989D01*
X81866618Y-87685489D01*
X81889082Y-87753280D01*
X81902685Y-87794331D01*
X81902687Y-87794336D01*
X81937569Y-87850888D01*
X81994788Y-87943656D01*
X82118844Y-88067712D01*
X82268166Y-88159814D01*
X82434703Y-88214999D01*
X82537491Y-88225500D01*
X83312508Y-88225499D01*
X83312516Y-88225498D01*
X83312519Y-88225498D01*
X83368802Y-88219748D01*
X83415297Y-88214999D01*
X83581834Y-88159814D01*
X83731156Y-88067712D01*
X83855212Y-87943656D01*
X83857252Y-87940347D01*
X83859245Y-87938555D01*
X83859693Y-87937989D01*
X83859789Y-87938065D01*
X83909194Y-87893623D01*
X83978156Y-87882395D01*
X84042240Y-87910234D01*
X84068329Y-87940339D01*
X84070181Y-87943341D01*
X84070183Y-87943344D01*
X84194154Y-88067315D01*
X84343375Y-88159356D01*
X84343380Y-88159358D01*
X84509802Y-88214505D01*
X84509809Y-88214506D01*
X84612519Y-88224999D01*
X84749999Y-88224999D01*
X85250000Y-88224999D01*
X85387472Y-88224999D01*
X85387486Y-88224998D01*
X85490197Y-88214505D01*
X85656619Y-88159358D01*
X85656624Y-88159356D01*
X85805845Y-88067315D01*
X85929815Y-87943345D01*
X86021856Y-87794124D01*
X86021858Y-87794119D01*
X86077005Y-87627697D01*
X86077006Y-87627690D01*
X86087499Y-87524986D01*
X86087500Y-87524973D01*
X86087500Y-87250000D01*
X85250000Y-87250000D01*
X85250000Y-88224999D01*
X84749999Y-88224999D01*
X84750000Y-88224998D01*
X84750000Y-86750000D01*
X85250000Y-86750000D01*
X86087499Y-86750000D01*
X86087499Y-86475028D01*
X86087498Y-86475013D01*
X86077005Y-86372302D01*
X86021858Y-86205880D01*
X86021856Y-86205875D01*
X85929815Y-86056654D01*
X85805845Y-85932684D01*
X85656624Y-85840643D01*
X85656619Y-85840641D01*
X85490197Y-85785494D01*
X85490190Y-85785493D01*
X85387486Y-85775000D01*
X85250000Y-85775000D01*
X85250000Y-86750000D01*
X84750000Y-86750000D01*
X84750000Y-85775000D01*
X84612527Y-85775000D01*
X84612512Y-85775001D01*
X84509802Y-85785494D01*
X84343380Y-85840641D01*
X84343375Y-85840643D01*
X84194157Y-85932682D01*
X84078431Y-86048408D01*
X84017108Y-86081892D01*
X83947416Y-86076908D01*
X83891483Y-86035036D01*
X83867066Y-85969572D01*
X83869133Y-85936534D01*
X83900500Y-85778844D01*
X83900500Y-85621155D01*
X83900499Y-85621153D01*
X83893035Y-85583631D01*
X83869737Y-85466503D01*
X83850955Y-85421158D01*
X83809397Y-85320827D01*
X83809390Y-85320814D01*
X83721789Y-85189711D01*
X83721786Y-85189707D01*
X83610292Y-85078213D01*
X83610288Y-85078210D01*
X83479185Y-84990609D01*
X83479172Y-84990602D01*
X83333501Y-84930264D01*
X83333489Y-84930261D01*
X83178845Y-84899500D01*
X83178842Y-84899500D01*
X83021158Y-84899500D01*
X83021155Y-84899500D01*
X82866510Y-84930261D01*
X82866498Y-84930264D01*
X82720827Y-84990602D01*
X82720814Y-84990609D01*
X82589711Y-85078210D01*
X82589707Y-85078213D01*
X82478213Y-85189707D01*
X82478210Y-85189711D01*
X82390609Y-85320814D01*
X82390602Y-85320827D01*
X82330264Y-85466498D01*
X82330261Y-85466510D01*
X82299500Y-85621153D01*
X82299500Y-85751652D01*
X82279815Y-85818691D01*
X82240598Y-85857189D01*
X82203716Y-85879939D01*
X82118842Y-85932289D01*
X81994789Y-86056342D01*
X81902687Y-86205663D01*
X81902685Y-86205668D01*
X81902615Y-86205880D01*
X81870688Y-86302231D01*
X81866621Y-86314504D01*
X81826848Y-86371949D01*
X81762333Y-86398772D01*
X81748915Y-86399500D01*
X79293049Y-86399500D01*
X79226010Y-86379815D01*
X79205368Y-86363181D01*
X79144420Y-86302233D01*
X79144418Y-86302231D01*
X78983266Y-86185147D01*
X78873597Y-86129268D01*
X78831827Y-86107985D01*
X78781031Y-86060010D01*
X78764236Y-85992189D01*
X78786773Y-85926054D01*
X78831827Y-85887015D01*
X78866308Y-85869446D01*
X78983266Y-85809853D01*
X79144418Y-85692769D01*
X79285269Y-85551918D01*
X79402353Y-85390766D01*
X79492785Y-85213283D01*
X79536672Y-85078213D01*
X79554338Y-85023843D01*
X79554338Y-85023842D01*
X79554339Y-85023839D01*
X79585500Y-84827097D01*
X79585500Y-84627903D01*
X79554339Y-84431161D01*
X79554338Y-84431157D01*
X79554338Y-84431156D01*
X79492786Y-84241719D01*
X79402352Y-84064233D01*
X79397981Y-84058217D01*
X79285269Y-83903082D01*
X79144418Y-83762231D01*
X78983266Y-83645147D01*
X78983262Y-83645145D01*
X78831277Y-83567704D01*
X78780481Y-83519729D01*
X78763686Y-83451908D01*
X78786224Y-83385773D01*
X78831277Y-83346734D01*
X78983005Y-83269424D01*
X79020863Y-83241918D01*
X79020863Y-83241917D01*
X78457574Y-82678628D01*
X78516853Y-82662745D01*
X78633147Y-82595602D01*
X78728102Y-82500647D01*
X78795245Y-82384353D01*
X78811128Y-82325074D01*
X79374417Y-82888363D01*
X79374418Y-82888363D01*
X79401924Y-82850505D01*
X79492320Y-82673094D01*
X79553852Y-82483722D01*
X79585000Y-82287063D01*
X79585000Y-82087936D01*
X79553852Y-81891277D01*
X79492320Y-81701905D01*
X79401924Y-81524494D01*
X79374417Y-81486635D01*
X79374417Y-81486634D01*
X78811128Y-82049924D01*
X78795245Y-81990647D01*
X78728102Y-81874353D01*
X78633147Y-81779398D01*
X78516853Y-81712255D01*
X78457574Y-81696371D01*
X79020864Y-81133081D01*
X79020572Y-81129377D01*
X78984029Y-81081988D01*
X78978049Y-81012375D01*
X79010655Y-80950580D01*
X79071493Y-80916222D01*
X79099579Y-80912999D01*
X79132872Y-80912999D01*
X79192483Y-80906591D01*
X79327331Y-80856296D01*
X79442546Y-80770046D01*
X79528796Y-80654831D01*
X79579091Y-80519983D01*
X79585500Y-80460373D01*
X79585499Y-78834628D01*
X79579091Y-78775017D01*
X79563909Y-78734313D01*
X79528797Y-78640171D01*
X79528793Y-78640164D01*
X79442547Y-78524955D01*
X79442544Y-78524952D01*
X79327335Y-78438706D01*
X79327328Y-78438702D01*
X79192482Y-78388408D01*
X79192483Y-78388408D01*
X79132883Y-78382001D01*
X79132881Y-78382000D01*
X79132873Y-78382000D01*
X79132865Y-78382000D01*
X79044500Y-78382000D01*
X78977461Y-78362315D01*
X78931706Y-78309511D01*
X78920500Y-78258000D01*
X78920500Y-67370096D01*
X78940185Y-67303057D01*
X78956815Y-67282419D01*
X79352416Y-66886817D01*
X79413739Y-66853333D01*
X79440097Y-66850499D01*
X80787871Y-66850499D01*
X80787872Y-66850499D01*
X80847483Y-66844091D01*
X80982331Y-66793796D01*
X81097546Y-66707546D01*
X81183796Y-66592331D01*
X81234091Y-66457483D01*
X81240500Y-66397873D01*
X81240499Y-64602128D01*
X81234091Y-64542517D01*
X81232810Y-64539083D01*
X81183797Y-64407671D01*
X81183793Y-64407664D01*
X81097547Y-64292455D01*
X81097544Y-64292452D01*
X80982335Y-64206206D01*
X80982328Y-64206202D01*
X80847482Y-64155908D01*
X80847483Y-64155908D01*
X80787883Y-64149501D01*
X80787881Y-64149500D01*
X80787873Y-64149500D01*
X80787864Y-64149500D01*
X78992129Y-64149500D01*
X78992123Y-64149501D01*
X78932516Y-64155908D01*
X78797671Y-64206202D01*
X78797664Y-64206206D01*
X78682455Y-64292452D01*
X78682452Y-64292455D01*
X78596206Y-64407664D01*
X78596203Y-64407669D01*
X78547189Y-64539083D01*
X78505317Y-64595016D01*
X78439853Y-64619433D01*
X78371580Y-64604581D01*
X78343326Y-64583430D01*
X78229786Y-64469890D01*
X78057820Y-64344951D01*
X77868414Y-64248444D01*
X77868413Y-64248443D01*
X77868412Y-64248443D01*
X77666243Y-64182754D01*
X77666241Y-64182753D01*
X77666240Y-64182753D01*
X77504957Y-64157208D01*
X77456287Y-64149500D01*
X77243713Y-64149500D01*
X77195042Y-64157208D01*
X77033760Y-64182753D01*
X76831585Y-64248444D01*
X76642179Y-64344951D01*
X76470213Y-64469890D01*
X76319890Y-64620213D01*
X76194949Y-64792182D01*
X76190484Y-64800946D01*
X76142509Y-64851742D01*
X76074688Y-64868536D01*
X76008553Y-64845998D01*
X75969516Y-64800946D01*
X75965050Y-64792182D01*
X75840109Y-64620213D01*
X75689786Y-64469890D01*
X75517820Y-64344951D01*
X75328414Y-64248444D01*
X75328413Y-64248443D01*
X75328412Y-64248443D01*
X75126243Y-64182754D01*
X75126241Y-64182753D01*
X75126240Y-64182753D01*
X74964957Y-64157208D01*
X74916287Y-64149500D01*
X74703713Y-64149500D01*
X74655042Y-64157208D01*
X74493760Y-64182753D01*
X74291585Y-64248444D01*
X74102179Y-64344951D01*
X73930213Y-64469890D01*
X73779890Y-64620213D01*
X73654949Y-64792182D01*
X73650484Y-64800946D01*
X73602509Y-64851742D01*
X73534688Y-64868536D01*
X73468553Y-64845998D01*
X73429516Y-64800946D01*
X73425050Y-64792182D01*
X73300109Y-64620213D01*
X73149786Y-64469890D01*
X72977820Y-64344951D01*
X72788414Y-64248444D01*
X72788413Y-64248443D01*
X72788412Y-64248443D01*
X72586243Y-64182754D01*
X72586241Y-64182753D01*
X72586240Y-64182753D01*
X72424957Y-64157208D01*
X72376287Y-64149500D01*
X72163713Y-64149500D01*
X72115042Y-64157208D01*
X71953760Y-64182753D01*
X71751585Y-64248444D01*
X71562179Y-64344951D01*
X71390213Y-64469890D01*
X71239890Y-64620213D01*
X71114949Y-64792182D01*
X71110484Y-64800946D01*
X71062509Y-64851742D01*
X70994688Y-64868536D01*
X70928553Y-64845998D01*
X70889516Y-64800946D01*
X70885050Y-64792182D01*
X70760109Y-64620213D01*
X70609786Y-64469890D01*
X70437820Y-64344951D01*
X70248414Y-64248444D01*
X70248413Y-64248443D01*
X70248412Y-64248443D01*
X70046243Y-64182754D01*
X70046241Y-64182753D01*
X70046240Y-64182753D01*
X69884957Y-64157208D01*
X69836287Y-64149500D01*
X69623713Y-64149500D01*
X69575042Y-64157208D01*
X69413760Y-64182753D01*
X69211585Y-64248444D01*
X69022179Y-64344951D01*
X68850213Y-64469890D01*
X68699890Y-64620213D01*
X68574949Y-64792182D01*
X68570484Y-64800946D01*
X68522509Y-64851742D01*
X68454688Y-64868536D01*
X68388553Y-64845998D01*
X68349516Y-64800946D01*
X68345050Y-64792182D01*
X68220109Y-64620213D01*
X68069786Y-64469890D01*
X67897820Y-64344951D01*
X67708414Y-64248444D01*
X67708413Y-64248443D01*
X67708412Y-64248443D01*
X67506243Y-64182754D01*
X67506241Y-64182753D01*
X67506240Y-64182753D01*
X67344957Y-64157208D01*
X67296287Y-64149500D01*
X67083713Y-64149500D01*
X67035042Y-64157208D01*
X66873760Y-64182753D01*
X66671585Y-64248444D01*
X66482179Y-64344951D01*
X66310213Y-64469890D01*
X66159890Y-64620213D01*
X66034949Y-64792182D01*
X66030484Y-64800946D01*
X65982509Y-64851742D01*
X65914688Y-64868536D01*
X65848553Y-64845998D01*
X65809516Y-64800946D01*
X65805050Y-64792182D01*
X65680109Y-64620213D01*
X65529786Y-64469890D01*
X65357820Y-64344951D01*
X65168414Y-64248444D01*
X65168413Y-64248443D01*
X65168412Y-64248443D01*
X64966243Y-64182754D01*
X64966241Y-64182753D01*
X64966240Y-64182753D01*
X64804957Y-64157208D01*
X64756287Y-64149500D01*
X64543713Y-64149500D01*
X64495042Y-64157208D01*
X64333760Y-64182753D01*
X64131585Y-64248444D01*
X63942179Y-64344951D01*
X63770213Y-64469890D01*
X63619890Y-64620213D01*
X63494949Y-64792182D01*
X63490484Y-64800946D01*
X63442509Y-64851742D01*
X63374688Y-64868536D01*
X63308553Y-64845998D01*
X63269516Y-64800946D01*
X63265050Y-64792182D01*
X63140109Y-64620213D01*
X62989786Y-64469890D01*
X62817820Y-64344951D01*
X62628414Y-64248444D01*
X62628413Y-64248443D01*
X62628412Y-64248443D01*
X62426243Y-64182754D01*
X62426241Y-64182753D01*
X62426240Y-64182753D01*
X62264957Y-64157208D01*
X62216287Y-64149500D01*
X62003713Y-64149500D01*
X61955042Y-64157208D01*
X61793760Y-64182753D01*
X61591585Y-64248444D01*
X61402179Y-64344951D01*
X61230213Y-64469890D01*
X61079890Y-64620213D01*
X60954951Y-64792179D01*
X60858444Y-64981585D01*
X60858443Y-64981587D01*
X60858443Y-64981588D01*
X60842497Y-65030666D01*
X60792753Y-65183760D01*
X60777148Y-65282288D01*
X60759500Y-65393713D01*
X60759500Y-65606287D01*
X60792754Y-65816243D01*
X60795608Y-65825028D01*
X60858444Y-66018414D01*
X60954951Y-66207820D01*
X61079890Y-66379786D01*
X61230213Y-66530109D01*
X61402179Y-66655048D01*
X61402181Y-66655049D01*
X61402184Y-66655051D01*
X61591588Y-66751557D01*
X61793757Y-66817246D01*
X62003713Y-66850500D01*
X62003714Y-66850500D01*
X62216286Y-66850500D01*
X62216287Y-66850500D01*
X62336102Y-66831523D01*
X62405396Y-66840478D01*
X62458848Y-66885474D01*
X62479487Y-66952225D01*
X62479500Y-66953996D01*
X62479500Y-78258000D01*
X62459815Y-78325039D01*
X62407011Y-78370794D01*
X62355501Y-78382000D01*
X62267130Y-78382000D01*
X62267123Y-78382001D01*
X62207516Y-78388408D01*
X62072671Y-78438702D01*
X62072664Y-78438706D01*
X61957455Y-78524952D01*
X61957452Y-78524955D01*
X61871206Y-78640164D01*
X61871202Y-78640171D01*
X61820908Y-78775017D01*
X61816337Y-78817539D01*
X61814501Y-78834623D01*
X61814500Y-78834635D01*
X61814500Y-80460370D01*
X61814501Y-80460376D01*
X61820908Y-80519983D01*
X61871202Y-80654828D01*
X61871206Y-80654835D01*
X61957452Y-80770044D01*
X61957455Y-80770047D01*
X62072664Y-80856293D01*
X62072671Y-80856297D01*
X62207517Y-80906591D01*
X62207516Y-80906591D01*
X62214444Y-80907335D01*
X62267127Y-80913000D01*
X62299568Y-80912999D01*
X62366605Y-80932682D01*
X62412361Y-80985484D01*
X62422306Y-81054643D01*
X62393283Y-81118199D01*
X62372455Y-81137316D01*
X62255582Y-81222230D01*
X62114733Y-81363079D01*
X62114733Y-81363080D01*
X62114731Y-81363082D01*
X62069245Y-81425688D01*
X61997647Y-81524233D01*
X61907213Y-81701719D01*
X61845661Y-81891156D01*
X61845661Y-81891159D01*
X61829904Y-81990647D01*
X61814500Y-82087903D01*
X61814500Y-82287097D01*
X61821737Y-82332788D01*
X61845661Y-82483840D01*
X61845661Y-82483843D01*
X61907213Y-82673280D01*
X61988309Y-82832439D01*
X61997647Y-82850766D01*
X62114731Y-83011918D01*
X62255582Y-83152769D01*
X62416734Y-83269853D01*
X62486453Y-83305377D01*
X62568172Y-83347015D01*
X62618968Y-83394990D01*
X62635763Y-83462811D01*
X62613225Y-83528946D01*
X62568172Y-83567985D01*
X62416733Y-83645147D01*
X62324790Y-83711947D01*
X62255582Y-83762231D01*
X62255580Y-83762233D01*
X62255579Y-83762233D01*
X62114733Y-83903079D01*
X62114733Y-83903080D01*
X62114731Y-83903082D01*
X62064447Y-83972290D01*
X61997647Y-84064233D01*
X61907213Y-84241719D01*
X61845661Y-84431156D01*
X61845661Y-84431159D01*
X61818494Y-84602685D01*
X61814500Y-84627903D01*
X61814500Y-84827097D01*
X61815002Y-84830264D01*
X61845661Y-85023840D01*
X61845661Y-85023843D01*
X61907213Y-85213280D01*
X61997647Y-85390766D01*
X62114731Y-85551918D01*
X62255582Y-85692769D01*
X62416734Y-85809853D01*
X62463138Y-85833497D01*
X62568722Y-85887295D01*
X62619518Y-85935270D01*
X62636313Y-86003091D01*
X62613776Y-86069226D01*
X62568723Y-86108264D01*
X62416993Y-86185575D01*
X62379135Y-86213080D01*
X62379135Y-86213081D01*
X62942425Y-86776371D01*
X62883147Y-86792255D01*
X62766853Y-86859398D01*
X62671898Y-86954353D01*
X62604755Y-87070647D01*
X62588871Y-87129925D01*
X62025581Y-86566635D01*
X62025580Y-86566635D01*
X61998077Y-86604490D01*
X61907679Y-86781905D01*
X61846147Y-86971277D01*
X61815000Y-87167936D01*
X61815000Y-87367063D01*
X61846147Y-87563722D01*
X61907679Y-87753094D01*
X61998077Y-87930508D01*
X62025580Y-87968363D01*
X62025581Y-87968364D01*
X62588871Y-87405074D01*
X62604755Y-87464353D01*
X62671898Y-87580647D01*
X62766853Y-87675602D01*
X62883147Y-87742745D01*
X62942425Y-87758628D01*
X62379134Y-88321917D01*
X62416994Y-88349424D01*
X62568722Y-88426734D01*
X62619518Y-88474709D01*
X62636313Y-88542530D01*
X62613776Y-88608665D01*
X62568723Y-88647703D01*
X62416735Y-88725145D01*
X62345356Y-88777006D01*
X62255582Y-88842231D01*
X62255580Y-88842233D01*
X62255579Y-88842233D01*
X62114733Y-88983079D01*
X62114733Y-88983080D01*
X62114731Y-88983082D01*
X62064447Y-89052290D01*
X61997647Y-89144233D01*
X61907213Y-89321719D01*
X61845661Y-89511156D01*
X61845661Y-89511159D01*
X61814500Y-89707903D01*
X61814500Y-89907096D01*
X61845661Y-90103840D01*
X61845661Y-90103843D01*
X61907213Y-90293280D01*
X61950981Y-90379179D01*
X61997647Y-90470766D01*
X62114731Y-90631918D01*
X62255582Y-90772769D01*
X62416734Y-90889853D01*
X62486453Y-90925377D01*
X62568172Y-90967015D01*
X62618968Y-91014990D01*
X62635763Y-91082811D01*
X62613225Y-91148946D01*
X62568172Y-91187985D01*
X62416733Y-91265147D01*
X62364357Y-91303201D01*
X62255582Y-91382231D01*
X62255580Y-91382233D01*
X62255579Y-91382233D01*
X62114733Y-91523079D01*
X62114733Y-91523080D01*
X62114731Y-91523082D01*
X62081619Y-91568657D01*
X61997647Y-91684233D01*
X61907213Y-91861719D01*
X61845661Y-92051156D01*
X61845661Y-92051159D01*
X61814500Y-92247903D01*
X61814500Y-92447096D01*
X61845661Y-92643840D01*
X61845661Y-92643843D01*
X61907213Y-92833280D01*
X61907324Y-92833497D01*
X61997647Y-93010766D01*
X62114731Y-93171918D01*
X62255582Y-93312769D01*
X62416734Y-93429853D01*
X62456259Y-93449992D01*
X62568172Y-93507015D01*
X62618968Y-93554990D01*
X62635763Y-93622811D01*
X62613225Y-93688946D01*
X62568172Y-93727985D01*
X62416733Y-93805147D01*
X62342909Y-93858784D01*
X62255582Y-93922231D01*
X62255580Y-93922233D01*
X62255579Y-93922233D01*
X62114733Y-94063079D01*
X62114733Y-94063080D01*
X62114731Y-94063082D01*
X62064447Y-94132290D01*
X61997647Y-94224233D01*
X61907213Y-94401719D01*
X61845661Y-94591156D01*
X61845661Y-94591159D01*
X61835832Y-94653218D01*
X61814500Y-94787903D01*
X61814500Y-94987097D01*
X61821557Y-95031654D01*
X61845661Y-95183840D01*
X61845661Y-95183843D01*
X61907213Y-95373280D01*
X61910219Y-95379179D01*
X61997647Y-95550766D01*
X62114731Y-95711918D01*
X62255582Y-95852769D01*
X62416734Y-95969853D01*
X62436484Y-95979916D01*
X62568172Y-96047015D01*
X62618968Y-96094990D01*
X62635763Y-96162811D01*
X62613225Y-96228946D01*
X62568172Y-96267985D01*
X62416733Y-96345147D01*
X62324790Y-96411947D01*
X62255582Y-96462231D01*
X62255580Y-96462233D01*
X62255579Y-96462233D01*
X62114733Y-96603079D01*
X62114733Y-96603080D01*
X62114731Y-96603082D01*
X62083488Y-96646084D01*
X61997647Y-96764233D01*
X61907213Y-96941719D01*
X61845661Y-97131156D01*
X61845661Y-97131159D01*
X61814500Y-97327903D01*
X61814500Y-97527096D01*
X61845661Y-97723840D01*
X61845661Y-97723843D01*
X61907213Y-97913280D01*
X61965666Y-98028000D01*
X61997647Y-98090766D01*
X62114731Y-98251918D01*
X62255582Y-98392769D01*
X62416734Y-98509853D01*
X62486453Y-98545377D01*
X62568172Y-98587015D01*
X62618968Y-98634990D01*
X62635763Y-98702811D01*
X62613225Y-98768946D01*
X62568172Y-98807985D01*
X62416733Y-98885147D01*
X62324790Y-98951947D01*
X62255582Y-99002231D01*
X62255580Y-99002233D01*
X62255579Y-99002233D01*
X62114733Y-99143079D01*
X62114733Y-99143080D01*
X62114731Y-99143082D01*
X62087717Y-99180264D01*
X61997647Y-99304233D01*
X61995466Y-99307793D01*
X61943652Y-99354667D01*
X61889740Y-99367000D01*
X61350441Y-99367000D01*
X61283402Y-99347315D01*
X61262760Y-99330681D01*
X61260292Y-99328213D01*
X61260288Y-99328210D01*
X61129185Y-99240609D01*
X61129172Y-99240602D01*
X60983501Y-99180264D01*
X60983489Y-99180261D01*
X60828845Y-99149500D01*
X60828842Y-99149500D01*
X60671158Y-99149500D01*
X60671155Y-99149500D01*
X60516510Y-99180261D01*
X60516498Y-99180264D01*
X60370827Y-99240602D01*
X60370814Y-99240609D01*
X60239711Y-99328210D01*
X60239707Y-99328213D01*
X60128213Y-99439707D01*
X60128210Y-99439711D01*
X60040609Y-99570814D01*
X60040602Y-99570827D01*
X59980264Y-99716498D01*
X59980261Y-99716510D01*
X59949500Y-99871153D01*
X59949500Y-100028846D01*
X59980261Y-100183489D01*
X59980264Y-100183501D01*
X60040602Y-100329172D01*
X60040609Y-100329185D01*
X60128210Y-100460288D01*
X60128213Y-100460292D01*
X60239707Y-100571786D01*
X60239711Y-100571789D01*
X60370814Y-100659390D01*
X60370827Y-100659397D01*
X60516498Y-100719735D01*
X60516503Y-100719737D01*
X60671153Y-100750499D01*
X60671156Y-100750500D01*
X60671158Y-100750500D01*
X60828844Y-100750500D01*
X60828845Y-100750499D01*
X60983497Y-100719737D01*
X61129179Y-100659394D01*
X61177350Y-100627207D01*
X61234684Y-100588898D01*
X61301361Y-100568020D01*
X61303575Y-100568000D01*
X61889740Y-100568000D01*
X61956779Y-100587685D01*
X61995466Y-100627207D01*
X61997647Y-100630766D01*
X62114731Y-100791918D01*
X62255582Y-100932769D01*
X62416734Y-101049853D01*
X62486453Y-101085377D01*
X62568172Y-101127015D01*
X62618968Y-101174990D01*
X62635763Y-101242811D01*
X62613225Y-101308946D01*
X62568172Y-101347985D01*
X62416733Y-101425147D01*
X62327322Y-101490109D01*
X62255582Y-101542231D01*
X62255580Y-101542233D01*
X62255579Y-101542233D01*
X62114733Y-101683079D01*
X62114733Y-101683080D01*
X62114731Y-101683082D01*
X62094043Y-101711557D01*
X61997647Y-101844233D01*
X61995466Y-101847793D01*
X61943652Y-101894667D01*
X61889740Y-101907000D01*
X60463440Y-101907000D01*
X60422519Y-101917964D01*
X60422519Y-101917965D01*
X60385251Y-101927951D01*
X60310714Y-101947923D01*
X60310713Y-101947924D01*
X60278462Y-101966544D01*
X60250154Y-101982887D01*
X60188157Y-101999500D01*
X60171155Y-101999500D01*
X60016510Y-102030261D01*
X60016498Y-102030264D01*
X59870827Y-102090602D01*
X59870814Y-102090609D01*
X59739711Y-102178210D01*
X59739707Y-102178213D01*
X59628213Y-102289707D01*
X59628210Y-102289711D01*
X59540609Y-102420814D01*
X59540602Y-102420827D01*
X59480264Y-102566498D01*
X59480261Y-102566510D01*
X59449500Y-102721153D01*
X59449500Y-102878846D01*
X59480261Y-103033489D01*
X59480264Y-103033501D01*
X59540602Y-103179172D01*
X59540609Y-103179185D01*
X59628210Y-103310288D01*
X59628213Y-103310292D01*
X59739707Y-103421786D01*
X59739711Y-103421789D01*
X59870814Y-103509390D01*
X59870827Y-103509397D01*
X60016498Y-103569735D01*
X60016503Y-103569737D01*
X60171153Y-103600499D01*
X60171156Y-103600500D01*
X60171158Y-103600500D01*
X60328844Y-103600500D01*
X60328845Y-103600499D01*
X60483497Y-103569737D01*
X60629179Y-103509394D01*
X60760289Y-103421789D01*
X60871789Y-103310289D01*
X60959394Y-103179179D01*
X60959397Y-103179172D01*
X60962262Y-103173813D01*
X60964768Y-103175152D01*
X61000917Y-103130209D01*
X61067190Y-103108083D01*
X61071731Y-103108000D01*
X61889740Y-103108000D01*
X61956779Y-103127685D01*
X61995466Y-103167207D01*
X61997647Y-103170766D01*
X62114731Y-103331918D01*
X62255582Y-103472769D01*
X62416734Y-103589853D01*
X62486453Y-103625377D01*
X62568172Y-103667015D01*
X62618968Y-103714990D01*
X62635763Y-103782811D01*
X62613225Y-103848946D01*
X62568172Y-103887985D01*
X62416733Y-103965147D01*
X62370906Y-103998443D01*
X62255582Y-104082231D01*
X62255580Y-104082233D01*
X62255579Y-104082233D01*
X62114733Y-104223079D01*
X62114733Y-104223080D01*
X62114731Y-104223082D01*
X62076989Y-104275029D01*
X61997647Y-104384233D01*
X61907213Y-104561719D01*
X61845661Y-104751156D01*
X61845661Y-104751159D01*
X61814500Y-104947903D01*
X61814500Y-105147096D01*
X61845661Y-105343840D01*
X61845661Y-105343843D01*
X61907213Y-105533280D01*
X61907215Y-105533283D01*
X61997647Y-105710766D01*
X62114731Y-105871918D01*
X62255582Y-106012769D01*
X62416734Y-106129853D01*
X62486453Y-106165377D01*
X62568172Y-106207015D01*
X62618968Y-106254990D01*
X62635763Y-106322811D01*
X62613225Y-106388946D01*
X62568172Y-106427985D01*
X62416733Y-106505147D01*
X62327322Y-106570109D01*
X62255582Y-106622231D01*
X62255580Y-106622233D01*
X62255579Y-106622233D01*
X62114733Y-106763079D01*
X62114733Y-106763080D01*
X62114731Y-106763082D01*
X62094044Y-106791555D01*
X61997647Y-106924233D01*
X61907213Y-107101719D01*
X61845661Y-107291156D01*
X61845661Y-107291159D01*
X61814500Y-107487903D01*
X61814500Y-107687096D01*
X61845661Y-107883840D01*
X61845661Y-107883843D01*
X61907213Y-108073280D01*
X61907215Y-108073283D01*
X61997647Y-108250766D01*
X62114731Y-108411918D01*
X62255582Y-108552769D01*
X62416734Y-108669853D01*
X62486453Y-108705377D01*
X62568172Y-108747015D01*
X62618968Y-108794990D01*
X62635763Y-108862811D01*
X62613225Y-108928946D01*
X62568172Y-108967985D01*
X62416733Y-109045147D01*
X62324790Y-109111947D01*
X62255582Y-109162231D01*
X62255580Y-109162233D01*
X62255579Y-109162233D01*
X62114733Y-109303079D01*
X62114733Y-109303080D01*
X62114731Y-109303082D01*
X62064447Y-109372290D01*
X61997647Y-109464233D01*
X61907213Y-109641719D01*
X61845661Y-109831156D01*
X61845661Y-109831159D01*
X61814500Y-110027903D01*
X61814500Y-110227096D01*
X61845661Y-110423840D01*
X61845661Y-110423843D01*
X61907213Y-110613280D01*
X61907215Y-110613283D01*
X61997647Y-110790766D01*
X62114731Y-110951918D01*
X62255582Y-111092769D01*
X62416734Y-111209853D01*
X62486453Y-111245377D01*
X62568172Y-111287015D01*
X62618968Y-111334990D01*
X62635763Y-111402811D01*
X62613225Y-111468946D01*
X62568172Y-111507985D01*
X62416733Y-111585147D01*
X62324790Y-111651947D01*
X62255582Y-111702231D01*
X62255580Y-111702233D01*
X62255579Y-111702233D01*
X62114733Y-111843079D01*
X62114733Y-111843080D01*
X62114731Y-111843082D01*
X62088043Y-111879815D01*
X61997647Y-112004233D01*
X61907213Y-112181719D01*
X61845661Y-112371156D01*
X61845661Y-112371159D01*
X61814500Y-112567903D01*
X61814500Y-112767096D01*
X61845661Y-112963840D01*
X61845661Y-112963843D01*
X61907213Y-113153280D01*
X61923628Y-113185496D01*
X61997647Y-113330766D01*
X62114731Y-113491918D01*
X62255582Y-113632769D01*
X62416734Y-113749853D01*
X62440217Y-113761818D01*
X62568172Y-113827015D01*
X62618968Y-113874990D01*
X62635763Y-113942811D01*
X62613225Y-114008946D01*
X62568172Y-114047985D01*
X62416733Y-114125147D01*
X62324790Y-114191947D01*
X62255582Y-114242231D01*
X62255580Y-114242233D01*
X62255579Y-114242233D01*
X62114733Y-114383079D01*
X62114733Y-114383080D01*
X62114731Y-114383082D01*
X62064447Y-114452290D01*
X61997647Y-114544233D01*
X61907213Y-114721719D01*
X61845661Y-114911156D01*
X61845661Y-114911159D01*
X61814500Y-115107903D01*
X61814500Y-115307096D01*
X61845661Y-115503840D01*
X61845661Y-115503843D01*
X61907213Y-115693280D01*
X61907215Y-115693283D01*
X61997647Y-115870766D01*
X62114731Y-116031918D01*
X62255582Y-116172769D01*
X62416734Y-116289853D01*
X62416744Y-116289858D01*
X62420273Y-116292020D01*
X62467157Y-116343825D01*
X62479500Y-116397758D01*
X62479500Y-122337059D01*
X62459815Y-122404098D01*
X62443181Y-122424740D01*
X62378213Y-122489707D01*
X62378210Y-122489711D01*
X62290609Y-122620814D01*
X62290602Y-122620827D01*
X62230264Y-122766498D01*
X62230261Y-122766510D01*
X62199500Y-122921153D01*
X62199500Y-123078846D01*
X62230261Y-123233489D01*
X62230264Y-123233501D01*
X62290602Y-123379172D01*
X62290609Y-123379185D01*
X62378210Y-123510288D01*
X62378213Y-123510292D01*
X62489707Y-123621786D01*
X62489711Y-123621789D01*
X62620814Y-123709390D01*
X62620827Y-123709397D01*
X62715094Y-123748443D01*
X62766503Y-123769737D01*
X62921153Y-123800499D01*
X62921156Y-123800500D01*
X62921158Y-123800500D01*
X63078844Y-123800500D01*
X63078845Y-123800499D01*
X63233497Y-123769737D01*
X63379179Y-123709394D01*
X63510289Y-123621789D01*
X63621789Y-123510289D01*
X63709394Y-123379179D01*
X63769737Y-123233497D01*
X63779508Y-123184373D01*
X63811892Y-123122464D01*
X63872607Y-123087890D01*
X63942377Y-123091629D01*
X63984696Y-123118295D01*
X63985001Y-123117924D01*
X63987957Y-123120350D01*
X63988806Y-123120885D01*
X63989707Y-123121786D01*
X63989711Y-123121789D01*
X64120814Y-123209390D01*
X64120827Y-123209397D01*
X64221907Y-123251265D01*
X64266503Y-123269737D01*
X64421153Y-123300499D01*
X64421156Y-123300500D01*
X64421158Y-123300500D01*
X64578844Y-123300500D01*
X64578845Y-123300499D01*
X64733497Y-123269737D01*
X64879179Y-123209394D01*
X65010289Y-123121789D01*
X65121789Y-123010289D01*
X65209394Y-122879179D01*
X65209395Y-122879176D01*
X65209397Y-122879173D01*
X65254947Y-122769203D01*
X65298787Y-122714799D01*
X65365081Y-122692734D01*
X65393697Y-122695037D01*
X65421158Y-122700500D01*
X65578844Y-122700500D01*
X65578845Y-122700499D01*
X65733497Y-122669737D01*
X65851592Y-122620821D01*
X65879172Y-122609397D01*
X65879172Y-122609396D01*
X65879179Y-122609394D01*
X66010289Y-122521789D01*
X66121789Y-122410289D01*
X66209394Y-122279179D01*
X66269737Y-122133497D01*
X66300500Y-121978842D01*
X66300500Y-121924500D01*
X66320185Y-121857461D01*
X66372989Y-121811706D01*
X66424500Y-121800500D01*
X66578844Y-121800500D01*
X66578845Y-121800499D01*
X66733497Y-121769737D01*
X66879179Y-121709394D01*
X67010289Y-121621789D01*
X67121789Y-121510289D01*
X67209394Y-121379179D01*
X67269737Y-121233497D01*
X67300500Y-121078842D01*
X67300500Y-120924500D01*
X67320185Y-120857461D01*
X67372989Y-120811706D01*
X67424500Y-120800500D01*
X67578844Y-120800500D01*
X67578845Y-120800499D01*
X67733497Y-120769737D01*
X67879179Y-120709394D01*
X68010289Y-120621789D01*
X68121789Y-120510289D01*
X68209394Y-120379179D01*
X68269737Y-120233497D01*
X68300500Y-120078842D01*
X68300500Y-119921158D01*
X68300500Y-119921155D01*
X68300499Y-119921153D01*
X68269737Y-119766503D01*
X68269735Y-119766498D01*
X68209397Y-119620827D01*
X68209390Y-119620814D01*
X68121398Y-119489125D01*
X68100520Y-119422447D01*
X68100500Y-119420234D01*
X68100500Y-94316559D01*
X68100501Y-94316546D01*
X68100501Y-94148445D01*
X68100501Y-94148443D01*
X68059577Y-93995715D01*
X68013457Y-93915833D01*
X67980520Y-93858784D01*
X67868716Y-93746980D01*
X67868715Y-93746979D01*
X67864385Y-93742649D01*
X67864374Y-93742639D01*
X64346257Y-90224522D01*
X64312772Y-90163199D01*
X64313368Y-90107878D01*
X64314332Y-90103858D01*
X64314339Y-90103839D01*
X64345500Y-89907097D01*
X64345500Y-89707903D01*
X64314339Y-89511161D01*
X64314338Y-89511157D01*
X64314338Y-89511156D01*
X64252786Y-89321719D01*
X64190512Y-89199500D01*
X64162353Y-89144234D01*
X64045269Y-88983082D01*
X63904418Y-88842231D01*
X63743266Y-88725147D01*
X63736807Y-88721856D01*
X63591277Y-88647704D01*
X63540481Y-88599729D01*
X63523686Y-88531908D01*
X63546224Y-88465773D01*
X63591277Y-88426734D01*
X63743005Y-88349424D01*
X63780863Y-88321918D01*
X63780863Y-88321917D01*
X63217574Y-87758628D01*
X63276853Y-87742745D01*
X63393147Y-87675602D01*
X63488102Y-87580647D01*
X63555245Y-87464353D01*
X63571128Y-87405074D01*
X64134417Y-87968363D01*
X64134418Y-87968363D01*
X64161924Y-87930505D01*
X64252320Y-87753094D01*
X64313852Y-87563722D01*
X64345000Y-87367063D01*
X64345000Y-87167936D01*
X64313852Y-86971277D01*
X64252320Y-86781905D01*
X64161924Y-86604494D01*
X64134417Y-86566635D01*
X64134417Y-86566634D01*
X63571128Y-87129924D01*
X63555245Y-87070647D01*
X63488102Y-86954353D01*
X63393147Y-86859398D01*
X63276853Y-86792255D01*
X63217574Y-86776371D01*
X63780864Y-86213081D01*
X63780863Y-86213080D01*
X63743008Y-86185577D01*
X63591277Y-86108265D01*
X63540481Y-86060290D01*
X63523686Y-85992469D01*
X63546224Y-85926334D01*
X63591277Y-85887295D01*
X63607194Y-85879185D01*
X63743266Y-85809853D01*
X63904418Y-85692769D01*
X64045269Y-85551918D01*
X64162353Y-85390766D01*
X64252785Y-85213283D01*
X64296672Y-85078213D01*
X64314338Y-85023843D01*
X64314338Y-85023842D01*
X64314339Y-85023839D01*
X64345500Y-84827097D01*
X64345500Y-84627903D01*
X64314339Y-84431161D01*
X64314333Y-84431144D01*
X64313366Y-84427114D01*
X64316851Y-84357331D01*
X64346255Y-84310478D01*
X67670520Y-80986216D01*
X67749577Y-80849284D01*
X67790501Y-80696557D01*
X67790501Y-80538442D01*
X67790501Y-80530847D01*
X67790500Y-80530829D01*
X67790500Y-66785718D01*
X67810185Y-66718679D01*
X67858207Y-66675233D01*
X67897815Y-66655052D01*
X67897815Y-66655051D01*
X67897816Y-66655051D01*
X68048673Y-66545448D01*
X68069786Y-66530109D01*
X68069788Y-66530106D01*
X68069792Y-66530104D01*
X68220104Y-66379792D01*
X68220106Y-66379788D01*
X68220109Y-66379786D01*
X68345048Y-66207820D01*
X68345047Y-66207820D01*
X68345051Y-66207816D01*
X68349514Y-66199054D01*
X68397488Y-66148259D01*
X68465308Y-66131463D01*
X68531444Y-66153999D01*
X68570486Y-66199056D01*
X68574951Y-66207820D01*
X68699890Y-66379786D01*
X68850213Y-66530109D01*
X69022184Y-66655051D01*
X69022184Y-66655052D01*
X69061793Y-66675233D01*
X69112590Y-66723206D01*
X69129500Y-66785718D01*
X69129500Y-106530830D01*
X69129499Y-106530848D01*
X69129499Y-106696554D01*
X69129498Y-106696554D01*
X69168339Y-106841511D01*
X69170423Y-106849285D01*
X69175020Y-106857246D01*
X69194218Y-106890498D01*
X69194220Y-106890501D01*
X69249479Y-106986214D01*
X69249481Y-106986217D01*
X69368349Y-107105085D01*
X69368355Y-107105090D01*
X77053741Y-114790477D01*
X77087226Y-114851800D01*
X77086637Y-114907092D01*
X77085661Y-114911157D01*
X77054500Y-115107903D01*
X77054500Y-115307096D01*
X77085661Y-115503840D01*
X77085661Y-115503843D01*
X77147213Y-115693280D01*
X77147215Y-115693283D01*
X77237647Y-115870766D01*
X77354731Y-116031918D01*
X77495582Y-116172769D01*
X77656734Y-116289853D01*
X77834217Y-116380285D01*
X77834219Y-116380286D01*
X78023657Y-116441838D01*
X78023658Y-116441838D01*
X78023661Y-116441839D01*
X78220403Y-116473000D01*
X78220404Y-116473000D01*
X78419596Y-116473000D01*
X78419597Y-116473000D01*
X78616339Y-116441839D01*
X78616342Y-116441838D01*
X78616343Y-116441838D01*
X78805780Y-116380286D01*
X78805780Y-116380285D01*
X78805783Y-116380285D01*
X78983266Y-116289853D01*
X79144418Y-116172769D01*
X79285269Y-116031918D01*
X79402353Y-115870766D01*
X79492785Y-115693283D01*
X79554339Y-115503839D01*
X79585500Y-115307097D01*
X79585500Y-115107903D01*
X79554339Y-114911161D01*
X79554338Y-114911157D01*
X79554338Y-114911156D01*
X79492786Y-114721719D01*
X79402352Y-114544233D01*
X79285269Y-114383082D01*
X79144418Y-114242231D01*
X78983266Y-114125147D01*
X78831827Y-114047985D01*
X78781031Y-114000010D01*
X78764236Y-113932189D01*
X78786773Y-113866054D01*
X78831827Y-113827015D01*
X78841116Y-113822281D01*
X78983266Y-113749853D01*
X79144418Y-113632769D01*
X79285269Y-113491918D01*
X79402353Y-113330766D01*
X79485182Y-113168205D01*
X79533157Y-113117409D01*
X79595667Y-113100500D01*
X82248915Y-113100500D01*
X82315954Y-113120185D01*
X82361709Y-113172989D01*
X82366618Y-113185489D01*
X82402686Y-113294334D01*
X82494788Y-113443656D01*
X82618844Y-113567712D01*
X82768166Y-113659814D01*
X82934703Y-113714999D01*
X83037491Y-113725500D01*
X83749901Y-113725499D01*
X83816940Y-113745183D01*
X83837582Y-113761818D01*
X103343181Y-133267416D01*
X103376666Y-133328739D01*
X103379500Y-133355097D01*
X103379500Y-134511599D01*
X103359815Y-134578638D01*
X103307011Y-134624393D01*
X103292398Y-134629981D01*
X103249822Y-134643249D01*
X103249819Y-134643250D01*
X103106222Y-134730056D01*
X103106217Y-134730060D01*
X102987560Y-134848717D01*
X102987556Y-134848722D01*
X102900750Y-134992319D01*
X102900750Y-134992320D01*
X102900749Y-134992322D01*
X102878464Y-135063838D01*
X102850826Y-135152532D01*
X102850818Y-135152623D01*
X102844500Y-135222153D01*
X102844500Y-138837500D01*
X102844501Y-142363000D01*
X102841950Y-142371685D01*
X102843239Y-142380647D01*
X102832260Y-142404687D01*
X102824816Y-142430039D01*
X102817975Y-142435966D01*
X102814214Y-142444203D01*
X102791979Y-142458492D01*
X102772012Y-142475794D01*
X102761497Y-142478081D01*
X102755436Y-142481977D01*
X102720501Y-142487000D01*
X102699000Y-142487000D01*
X102631961Y-142467315D01*
X102586206Y-142414511D01*
X102575000Y-142363000D01*
X102575000Y-139337500D01*
X100305001Y-139337500D01*
X100305001Y-142363000D01*
X100302450Y-142371685D01*
X100303739Y-142380647D01*
X100292760Y-142404687D01*
X100285316Y-142430039D01*
X100278475Y-142435966D01*
X100274714Y-142444203D01*
X100252479Y-142458492D01*
X100232512Y-142475794D01*
X100221997Y-142478081D01*
X100215936Y-142481977D01*
X100181001Y-142487000D01*
X100159000Y-142487000D01*
X100091961Y-142467315D01*
X100046206Y-142414511D01*
X100035000Y-142363000D01*
X100035000Y-139337500D01*
X97765001Y-139337500D01*
X97765001Y-142363000D01*
X97745316Y-142430039D01*
X97692512Y-142475794D01*
X97641001Y-142487000D01*
X96994500Y-142487000D01*
X96927461Y-142467315D01*
X96881706Y-142414511D01*
X96870500Y-142363000D01*
X96870500Y-135222201D01*
X97765000Y-135222201D01*
X97765000Y-138837500D01*
X98650000Y-138837500D01*
X99150000Y-138837500D01*
X100034999Y-138837500D01*
X100034999Y-135222201D01*
X100305000Y-135222201D01*
X100305000Y-138837500D01*
X101190000Y-138837500D01*
X101690000Y-138837500D01*
X102574999Y-138837500D01*
X102574999Y-135222191D01*
X102568678Y-135152624D01*
X102568676Y-135152616D01*
X102518791Y-134992529D01*
X102518790Y-134992527D01*
X102432045Y-134849032D01*
X102432042Y-134849028D01*
X102313471Y-134730457D01*
X102313467Y-134730454D01*
X102169973Y-134643710D01*
X102009876Y-134593822D01*
X101940298Y-134587500D01*
X101690000Y-134587500D01*
X101690000Y-138837500D01*
X101190000Y-138837500D01*
X101190000Y-134587500D01*
X100939691Y-134587500D01*
X100870123Y-134593821D01*
X100870116Y-134593823D01*
X100710029Y-134643708D01*
X100710027Y-134643709D01*
X100566532Y-134730454D01*
X100566528Y-134730457D01*
X100447957Y-134849028D01*
X100447954Y-134849032D01*
X100361210Y-134992526D01*
X100311322Y-135152623D01*
X100305000Y-135222201D01*
X100034999Y-135222201D01*
X100034999Y-135222191D01*
X100028678Y-135152624D01*
X100028676Y-135152616D01*
X99978791Y-134992529D01*
X99978790Y-134992527D01*
X99892045Y-134849032D01*
X99892042Y-134849028D01*
X99773471Y-134730457D01*
X99773467Y-134730454D01*
X99629973Y-134643710D01*
X99469876Y-134593822D01*
X99400298Y-134587500D01*
X99150000Y-134587500D01*
X99150000Y-138837500D01*
X98650000Y-138837500D01*
X98650000Y-134587500D01*
X98399691Y-134587500D01*
X98330123Y-134593821D01*
X98330116Y-134593823D01*
X98170029Y-134643708D01*
X98170027Y-134643709D01*
X98026532Y-134730454D01*
X98026528Y-134730457D01*
X97907957Y-134849028D01*
X97907954Y-134849032D01*
X97821210Y-134992526D01*
X97771322Y-135152623D01*
X97765000Y-135222201D01*
X96870500Y-135222201D01*
X96870500Y-134721610D01*
X96870500Y-134721608D01*
X96836392Y-134594314D01*
X96836107Y-134593821D01*
X96797656Y-134527222D01*
X96770500Y-134480186D01*
X96677314Y-134387000D01*
X96620250Y-134354054D01*
X96563187Y-134321108D01*
X96499539Y-134304054D01*
X96435892Y-134287000D01*
X96435891Y-134287000D01*
X60502706Y-134287000D01*
X60497297Y-134286882D01*
X60113249Y-134270114D01*
X60102473Y-134269171D01*
X59724042Y-134219349D01*
X59713389Y-134217471D01*
X59340727Y-134134854D01*
X59330278Y-134132054D01*
X58966244Y-134017275D01*
X58956078Y-134013575D01*
X58603427Y-133867502D01*
X58593623Y-133862930D01*
X58255057Y-133686683D01*
X58245689Y-133681275D01*
X57923755Y-133476181D01*
X57914894Y-133469976D01*
X57612069Y-133237610D01*
X57603782Y-133230656D01*
X57322364Y-132972784D01*
X57314715Y-132965135D01*
X57056843Y-132683717D01*
X57049889Y-132675430D01*
X56817523Y-132372605D01*
X56811318Y-132363744D01*
X56606224Y-132041810D01*
X56600816Y-132032442D01*
X56424569Y-131693876D01*
X56419997Y-131684072D01*
X56273924Y-131331421D01*
X56270224Y-131321255D01*
X56155442Y-130957210D01*
X56152648Y-130946784D01*
X56070025Y-130574097D01*
X56068152Y-130563471D01*
X56018326Y-130185006D01*
X56017386Y-130174271D01*
X56000618Y-129790202D01*
X56000500Y-129784793D01*
X56000500Y-64790206D01*
X56000618Y-64784797D01*
X56007838Y-64619433D01*
X56017386Y-64400726D01*
X56018326Y-64389995D01*
X56068152Y-64011525D01*
X56070025Y-64000905D01*
X56152649Y-63628209D01*
X56155440Y-63617795D01*
X56270230Y-63253727D01*
X56273917Y-63243595D01*
X56420003Y-62890912D01*
X56424561Y-62881138D01*
X56600822Y-62542545D01*
X56606217Y-62533200D01*
X56811325Y-62211244D01*
X56817515Y-62202405D01*
X57049905Y-61899548D01*
X57056834Y-61891291D01*
X57314726Y-61609852D01*
X57322352Y-61602226D01*
X57603791Y-61344334D01*
X57612060Y-61337396D01*
X57914905Y-61105015D01*
X57923744Y-61098825D01*
X58245700Y-60893717D01*
X58255045Y-60888322D01*
X58593638Y-60712061D01*
X58603412Y-60707503D01*
X58956095Y-60561417D01*
X58966227Y-60557730D01*
X59330295Y-60442940D01*
X59340709Y-60440149D01*
X59713405Y-60357525D01*
X59724025Y-60355652D01*
X60102495Y-60305826D01*
X60113226Y-60304886D01*
X60497297Y-60288117D01*
X60502706Y-60288000D01*
X60565892Y-60288000D01*
X97722447Y-60288000D01*
X97751883Y-60296643D01*
G37*
%TD.AperFunction*%
%TA.AperFunction,Conductor*%
G36*
X108579075Y-62000493D02*
G01*
X108644901Y-62114507D01*
X108737993Y-62207599D01*
X108852007Y-62273425D01*
X108915590Y-62290462D01*
X108283282Y-62922769D01*
X108283282Y-62922770D01*
X108337449Y-62962124D01*
X108526782Y-63058595D01*
X108728870Y-63124257D01*
X108938754Y-63157500D01*
X109151246Y-63157500D01*
X109361127Y-63124257D01*
X109361130Y-63124257D01*
X109563217Y-63058595D01*
X109752554Y-62962122D01*
X109806716Y-62922770D01*
X109806717Y-62922770D01*
X109174408Y-62290462D01*
X109237993Y-62273425D01*
X109352007Y-62207599D01*
X109445099Y-62114507D01*
X109510925Y-62000493D01*
X109527962Y-61936909D01*
X110160270Y-62569217D01*
X110160270Y-62569216D01*
X110199622Y-62515055D01*
X110204232Y-62506007D01*
X110252205Y-62455209D01*
X110320025Y-62438412D01*
X110386161Y-62460947D01*
X110425204Y-62506004D01*
X110429949Y-62515317D01*
X110554890Y-62687286D01*
X110705213Y-62837609D01*
X110877182Y-62962550D01*
X110877184Y-62962551D01*
X110916793Y-62982733D01*
X110931794Y-62990376D01*
X110982590Y-63038350D01*
X110999500Y-63100861D01*
X110999500Y-94420234D01*
X110979815Y-94487273D01*
X110978602Y-94489125D01*
X110890609Y-94620814D01*
X110890602Y-94620827D01*
X110830264Y-94766498D01*
X110830261Y-94766510D01*
X110799500Y-94921153D01*
X110799500Y-95078846D01*
X110830261Y-95233489D01*
X110830264Y-95233501D01*
X110890602Y-95379172D01*
X110890609Y-95379185D01*
X110978602Y-95510874D01*
X110999480Y-95577551D01*
X110999500Y-95579765D01*
X110999500Y-134511599D01*
X110979815Y-134578638D01*
X110927011Y-134624393D01*
X110912398Y-134629981D01*
X110869822Y-134643249D01*
X110869819Y-134643250D01*
X110726222Y-134730056D01*
X110726217Y-134730060D01*
X110607560Y-134848717D01*
X110607556Y-134848722D01*
X110520750Y-134992319D01*
X110520750Y-134992320D01*
X110520749Y-134992322D01*
X110498464Y-135063838D01*
X110470826Y-135152532D01*
X110470818Y-135152623D01*
X110464500Y-135222153D01*
X110464500Y-138837500D01*
X110464501Y-142363000D01*
X110461950Y-142371685D01*
X110463239Y-142380647D01*
X110452260Y-142404687D01*
X110444816Y-142430039D01*
X110437975Y-142435966D01*
X110434214Y-142444203D01*
X110411979Y-142458492D01*
X110392012Y-142475794D01*
X110381497Y-142478081D01*
X110375436Y-142481977D01*
X110340501Y-142487000D01*
X110319000Y-142487000D01*
X110251961Y-142467315D01*
X110206206Y-142414511D01*
X110195000Y-142363000D01*
X110195000Y-139337500D01*
X107925001Y-139337500D01*
X107925001Y-142363000D01*
X107922450Y-142371685D01*
X107923739Y-142380647D01*
X107912760Y-142404687D01*
X107905316Y-142430039D01*
X107898475Y-142435966D01*
X107894714Y-142444203D01*
X107872479Y-142458492D01*
X107852512Y-142475794D01*
X107841997Y-142478081D01*
X107835936Y-142481977D01*
X107801001Y-142487000D01*
X107779500Y-142487000D01*
X107712461Y-142467315D01*
X107666706Y-142414511D01*
X107655500Y-142363000D01*
X107655499Y-135222201D01*
X107925000Y-135222201D01*
X107925000Y-138837500D01*
X108810000Y-138837500D01*
X109310000Y-138837500D01*
X110194999Y-138837500D01*
X110194999Y-135222191D01*
X110188678Y-135152624D01*
X110188676Y-135152616D01*
X110138791Y-134992529D01*
X110138790Y-134992527D01*
X110052045Y-134849032D01*
X110052042Y-134849028D01*
X109933471Y-134730457D01*
X109933467Y-134730454D01*
X109789973Y-134643710D01*
X109629876Y-134593822D01*
X109560298Y-134587500D01*
X109310000Y-134587500D01*
X109310000Y-138837500D01*
X108810000Y-138837500D01*
X108810000Y-134587500D01*
X108559691Y-134587500D01*
X108490123Y-134593821D01*
X108490116Y-134593823D01*
X108330029Y-134643708D01*
X108330027Y-134643709D01*
X108186532Y-134730454D01*
X108186528Y-134730457D01*
X108067957Y-134849028D01*
X108067954Y-134849032D01*
X107981210Y-134992526D01*
X107931322Y-135152623D01*
X107925000Y-135222201D01*
X107655499Y-135222201D01*
X107655499Y-135222145D01*
X107649174Y-135152533D01*
X107649171Y-135152522D01*
X107599252Y-134992324D01*
X107599250Y-134992320D01*
X107512443Y-134848722D01*
X107512439Y-134848717D01*
X107393782Y-134730060D01*
X107393777Y-134730056D01*
X107250180Y-134643250D01*
X107250179Y-134643249D01*
X107250178Y-134643249D01*
X107207608Y-134629983D01*
X107149462Y-134591247D01*
X107121488Y-134527222D01*
X107120500Y-134511599D01*
X107120500Y-125549833D01*
X107140185Y-125482794D01*
X107141398Y-125480942D01*
X107209394Y-125379179D01*
X107269737Y-125233497D01*
X107300500Y-125078842D01*
X107300500Y-124921158D01*
X107300500Y-124921155D01*
X107300499Y-124921153D01*
X107269738Y-124766510D01*
X107269737Y-124766503D01*
X107217950Y-124641476D01*
X107209397Y-124620827D01*
X107209390Y-124620814D01*
X107141398Y-124519057D01*
X107120520Y-124452379D01*
X107120500Y-124450166D01*
X107120500Y-63085575D01*
X107140185Y-63018536D01*
X107188205Y-62975090D01*
X107212816Y-62962551D01*
X107324893Y-62881123D01*
X107384786Y-62837609D01*
X107384788Y-62837606D01*
X107384792Y-62837604D01*
X107535104Y-62687292D01*
X107535106Y-62687288D01*
X107535109Y-62687286D01*
X107620890Y-62569217D01*
X107660051Y-62515316D01*
X107664793Y-62506008D01*
X107712763Y-62455211D01*
X107780583Y-62438411D01*
X107846719Y-62460945D01*
X107885763Y-62506000D01*
X107890373Y-62515047D01*
X107929728Y-62569216D01*
X108562037Y-61936908D01*
X108579075Y-62000493D01*
G37*
%TD.AperFunction*%
%TA.AperFunction,Conductor*%
G36*
X113659075Y-62000493D02*
G01*
X113724901Y-62114507D01*
X113817993Y-62207599D01*
X113932007Y-62273425D01*
X113995590Y-62290462D01*
X113363282Y-62922769D01*
X113363282Y-62922770D01*
X113417449Y-62962124D01*
X113606782Y-63058595D01*
X113808870Y-63124257D01*
X114018754Y-63157500D01*
X114231246Y-63157500D01*
X114441127Y-63124257D01*
X114441130Y-63124257D01*
X114643217Y-63058595D01*
X114832554Y-62962122D01*
X114886716Y-62922770D01*
X114886717Y-62922770D01*
X114254408Y-62290462D01*
X114317993Y-62273425D01*
X114432007Y-62207599D01*
X114525099Y-62114507D01*
X114590925Y-62000493D01*
X114607962Y-61936909D01*
X115240270Y-62569217D01*
X115240270Y-62569216D01*
X115279622Y-62515055D01*
X115284232Y-62506007D01*
X115332205Y-62455209D01*
X115400025Y-62438412D01*
X115466161Y-62460947D01*
X115505204Y-62506004D01*
X115509949Y-62515317D01*
X115634890Y-62687286D01*
X115785213Y-62837609D01*
X115957182Y-62962550D01*
X115957184Y-62962551D01*
X115996793Y-62982733D01*
X116011794Y-62990376D01*
X116062590Y-63038350D01*
X116079500Y-63100861D01*
X116079500Y-96920234D01*
X116059815Y-96987273D01*
X116058602Y-96989125D01*
X115970609Y-97120814D01*
X115970602Y-97120827D01*
X115910264Y-97266498D01*
X115910261Y-97266510D01*
X115879500Y-97421153D01*
X115879500Y-97578846D01*
X115910261Y-97733489D01*
X115910264Y-97733501D01*
X115970602Y-97879172D01*
X115970609Y-97879185D01*
X116058602Y-98010874D01*
X116079480Y-98077551D01*
X116079500Y-98079765D01*
X116079500Y-134511599D01*
X116059815Y-134578638D01*
X116007011Y-134624393D01*
X115992398Y-134629981D01*
X115949822Y-134643249D01*
X115949819Y-134643250D01*
X115806222Y-134730056D01*
X115806217Y-134730060D01*
X115687560Y-134848717D01*
X115687556Y-134848722D01*
X115600750Y-134992319D01*
X115600750Y-134992320D01*
X115600749Y-134992322D01*
X115578464Y-135063838D01*
X115550826Y-135152532D01*
X115550818Y-135152623D01*
X115544500Y-135222153D01*
X115544500Y-138837500D01*
X115544501Y-142363000D01*
X115541950Y-142371685D01*
X115543239Y-142380647D01*
X115532260Y-142404687D01*
X115524816Y-142430039D01*
X115517975Y-142435966D01*
X115514214Y-142444203D01*
X115491979Y-142458492D01*
X115472012Y-142475794D01*
X115461497Y-142478081D01*
X115455436Y-142481977D01*
X115420501Y-142487000D01*
X115399000Y-142487000D01*
X115331961Y-142467315D01*
X115286206Y-142414511D01*
X115275000Y-142363000D01*
X115275000Y-139337500D01*
X113005001Y-139337500D01*
X113005001Y-142363000D01*
X113002450Y-142371685D01*
X113003739Y-142380647D01*
X112992760Y-142404687D01*
X112985316Y-142430039D01*
X112978475Y-142435966D01*
X112974714Y-142444203D01*
X112952479Y-142458492D01*
X112932512Y-142475794D01*
X112921997Y-142478081D01*
X112915936Y-142481977D01*
X112881001Y-142487000D01*
X112859500Y-142487000D01*
X112792461Y-142467315D01*
X112746706Y-142414511D01*
X112735500Y-142363000D01*
X112735499Y-135222201D01*
X113005000Y-135222201D01*
X113005000Y-138837500D01*
X113890000Y-138837500D01*
X114390000Y-138837500D01*
X115274999Y-138837500D01*
X115274999Y-135222191D01*
X115268678Y-135152624D01*
X115268676Y-135152616D01*
X115218791Y-134992529D01*
X115218790Y-134992527D01*
X115132045Y-134849032D01*
X115132042Y-134849028D01*
X115013471Y-134730457D01*
X115013467Y-134730454D01*
X114869973Y-134643710D01*
X114709876Y-134593822D01*
X114640298Y-134587500D01*
X114390000Y-134587500D01*
X114390000Y-138837500D01*
X113890000Y-138837500D01*
X113890000Y-134587500D01*
X113639691Y-134587500D01*
X113570123Y-134593821D01*
X113570116Y-134593823D01*
X113410029Y-134643708D01*
X113410027Y-134643709D01*
X113266532Y-134730454D01*
X113266528Y-134730457D01*
X113147957Y-134849028D01*
X113147954Y-134849032D01*
X113061210Y-134992526D01*
X113011322Y-135152623D01*
X113005000Y-135222201D01*
X112735499Y-135222201D01*
X112735499Y-135222145D01*
X112729174Y-135152533D01*
X112729171Y-135152522D01*
X112679252Y-134992324D01*
X112679250Y-134992320D01*
X112592443Y-134848722D01*
X112592439Y-134848717D01*
X112473782Y-134730060D01*
X112473777Y-134730056D01*
X112330180Y-134643250D01*
X112330179Y-134643249D01*
X112330178Y-134643249D01*
X112287608Y-134629983D01*
X112229462Y-134591247D01*
X112201488Y-134527222D01*
X112200500Y-134511599D01*
X112200500Y-95579765D01*
X112220185Y-95512726D01*
X112221398Y-95510874D01*
X112309390Y-95379185D01*
X112309390Y-95379184D01*
X112309394Y-95379179D01*
X112311838Y-95373280D01*
X112347584Y-95286980D01*
X112369737Y-95233497D01*
X112400500Y-95078842D01*
X112400500Y-94921158D01*
X112400500Y-94921155D01*
X112400499Y-94921153D01*
X112374950Y-94792712D01*
X112369737Y-94766503D01*
X112368150Y-94762671D01*
X112309397Y-94620827D01*
X112309390Y-94620814D01*
X112221398Y-94489125D01*
X112200520Y-94422447D01*
X112200500Y-94420234D01*
X112200500Y-63085575D01*
X112220185Y-63018536D01*
X112268205Y-62975090D01*
X112292816Y-62962551D01*
X112404893Y-62881123D01*
X112464786Y-62837609D01*
X112464788Y-62837606D01*
X112464792Y-62837604D01*
X112615104Y-62687292D01*
X112615106Y-62687288D01*
X112615109Y-62687286D01*
X112700890Y-62569217D01*
X112740051Y-62515316D01*
X112744793Y-62506008D01*
X112792763Y-62455211D01*
X112860583Y-62438411D01*
X112926719Y-62460945D01*
X112965763Y-62506000D01*
X112970373Y-62515047D01*
X113009728Y-62569216D01*
X113642037Y-61936908D01*
X113659075Y-62000493D01*
G37*
%TD.AperFunction*%
%TA.AperFunction,Conductor*%
G36*
X120320270Y-62569217D02*
G01*
X120320270Y-62569216D01*
X120359622Y-62515055D01*
X120364232Y-62506007D01*
X120412205Y-62455209D01*
X120480025Y-62438412D01*
X120546161Y-62460947D01*
X120585204Y-62506004D01*
X120589949Y-62515317D01*
X120714890Y-62687286D01*
X120865213Y-62837609D01*
X121037182Y-62962550D01*
X121037184Y-62962551D01*
X121076793Y-62982733D01*
X121091794Y-62990376D01*
X121142590Y-63038350D01*
X121159500Y-63100861D01*
X121159500Y-89420234D01*
X121139815Y-89487273D01*
X121138602Y-89489125D01*
X121050609Y-89620814D01*
X121050602Y-89620827D01*
X120990264Y-89766498D01*
X120990261Y-89766510D01*
X120959500Y-89921153D01*
X120959500Y-90078846D01*
X120990261Y-90233489D01*
X120990264Y-90233501D01*
X121050602Y-90379172D01*
X121050609Y-90379185D01*
X121138602Y-90510874D01*
X121159480Y-90577551D01*
X121159500Y-90579765D01*
X121159500Y-134511599D01*
X121139815Y-134578638D01*
X121087011Y-134624393D01*
X121072398Y-134629981D01*
X121029822Y-134643249D01*
X121029819Y-134643250D01*
X120886222Y-134730056D01*
X120886217Y-134730060D01*
X120767560Y-134848717D01*
X120767556Y-134848722D01*
X120680750Y-134992319D01*
X120680750Y-134992320D01*
X120680749Y-134992322D01*
X120658464Y-135063838D01*
X120630826Y-135152532D01*
X120630818Y-135152623D01*
X120624500Y-135222153D01*
X120624500Y-138837500D01*
X120624501Y-142363000D01*
X120621950Y-142371685D01*
X120623239Y-142380647D01*
X120612260Y-142404687D01*
X120604816Y-142430039D01*
X120597975Y-142435966D01*
X120594214Y-142444203D01*
X120571979Y-142458492D01*
X120552012Y-142475794D01*
X120541497Y-142478081D01*
X120535436Y-142481977D01*
X120500501Y-142487000D01*
X120479000Y-142487000D01*
X120411961Y-142467315D01*
X120366206Y-142414511D01*
X120355000Y-142363000D01*
X120355000Y-139337500D01*
X118085001Y-139337500D01*
X118085001Y-142363000D01*
X118082450Y-142371685D01*
X118083739Y-142380647D01*
X118072760Y-142404687D01*
X118065316Y-142430039D01*
X118058475Y-142435966D01*
X118054714Y-142444203D01*
X118032479Y-142458492D01*
X118012512Y-142475794D01*
X118001997Y-142478081D01*
X117995936Y-142481977D01*
X117961001Y-142487000D01*
X117939500Y-142487000D01*
X117872461Y-142467315D01*
X117826706Y-142414511D01*
X117815500Y-142363000D01*
X117815499Y-135222201D01*
X118085000Y-135222201D01*
X118085000Y-138837500D01*
X118970000Y-138837500D01*
X119470000Y-138837500D01*
X120354999Y-138837500D01*
X120354999Y-135222191D01*
X120348678Y-135152624D01*
X120348676Y-135152616D01*
X120298791Y-134992529D01*
X120298790Y-134992527D01*
X120212045Y-134849032D01*
X120212042Y-134849028D01*
X120093471Y-134730457D01*
X120093467Y-134730454D01*
X119949973Y-134643710D01*
X119789876Y-134593822D01*
X119720298Y-134587500D01*
X119470000Y-134587500D01*
X119470000Y-138837500D01*
X118970000Y-138837500D01*
X118970000Y-134587500D01*
X118719691Y-134587500D01*
X118650123Y-134593821D01*
X118650116Y-134593823D01*
X118490029Y-134643708D01*
X118490027Y-134643709D01*
X118346532Y-134730454D01*
X118346528Y-134730457D01*
X118227957Y-134849028D01*
X118227954Y-134849032D01*
X118141210Y-134992526D01*
X118091322Y-135152623D01*
X118085000Y-135222201D01*
X117815499Y-135222201D01*
X117815499Y-135222145D01*
X117809174Y-135152533D01*
X117809171Y-135152522D01*
X117759252Y-134992324D01*
X117759250Y-134992320D01*
X117672443Y-134848722D01*
X117672439Y-134848717D01*
X117553782Y-134730060D01*
X117553777Y-134730056D01*
X117410180Y-134643250D01*
X117410179Y-134643249D01*
X117410178Y-134643249D01*
X117367608Y-134629983D01*
X117309462Y-134591247D01*
X117281488Y-134527222D01*
X117280500Y-134511599D01*
X117280500Y-98079765D01*
X117300185Y-98012726D01*
X117301398Y-98010874D01*
X117389390Y-97879185D01*
X117389390Y-97879184D01*
X117389394Y-97879179D01*
X117449737Y-97733497D01*
X117480500Y-97578842D01*
X117480500Y-97421158D01*
X117480500Y-97421155D01*
X117480499Y-97421153D01*
X117449738Y-97266510D01*
X117449737Y-97266503D01*
X117419382Y-97193218D01*
X117389397Y-97120827D01*
X117389390Y-97120814D01*
X117301398Y-96989125D01*
X117280520Y-96922447D01*
X117280500Y-96920234D01*
X117280500Y-63085575D01*
X117300185Y-63018536D01*
X117348205Y-62975090D01*
X117372816Y-62962551D01*
X117484893Y-62881123D01*
X117544786Y-62837609D01*
X117544788Y-62837606D01*
X117544792Y-62837604D01*
X117695104Y-62687292D01*
X117695106Y-62687288D01*
X117695109Y-62687286D01*
X117780890Y-62569217D01*
X117820051Y-62515316D01*
X117824793Y-62506008D01*
X117872763Y-62455211D01*
X117940583Y-62438411D01*
X118006719Y-62460945D01*
X118045763Y-62506000D01*
X118050373Y-62515047D01*
X118089728Y-62569216D01*
X118722037Y-61936908D01*
X118739075Y-62000493D01*
X118804901Y-62114507D01*
X118897993Y-62207599D01*
X119012007Y-62273425D01*
X119075590Y-62290462D01*
X118443282Y-62922769D01*
X118443282Y-62922770D01*
X118497449Y-62962124D01*
X118686782Y-63058595D01*
X118888870Y-63124257D01*
X119098754Y-63157500D01*
X119311246Y-63157500D01*
X119521127Y-63124257D01*
X119521130Y-63124257D01*
X119723217Y-63058595D01*
X119912554Y-62962122D01*
X119966716Y-62922770D01*
X119966717Y-62922770D01*
X119334408Y-62290462D01*
X119397993Y-62273425D01*
X119512007Y-62207599D01*
X119605099Y-62114507D01*
X119670925Y-62000493D01*
X119687962Y-61936908D01*
X120320270Y-62569217D01*
G37*
%TD.AperFunction*%
%TA.AperFunction,Conductor*%
G36*
X125400270Y-62569217D02*
G01*
X125400270Y-62569216D01*
X125439622Y-62515055D01*
X125444232Y-62506007D01*
X125492205Y-62455209D01*
X125560025Y-62438412D01*
X125626161Y-62460947D01*
X125665204Y-62506004D01*
X125669949Y-62515317D01*
X125794890Y-62687286D01*
X125945213Y-62837609D01*
X126117182Y-62962550D01*
X126117184Y-62962551D01*
X126156793Y-62982733D01*
X126171794Y-62990376D01*
X126222590Y-63038350D01*
X126239500Y-63100861D01*
X126239500Y-84920234D01*
X126219815Y-84987273D01*
X126218602Y-84989125D01*
X126130609Y-85120814D01*
X126130602Y-85120827D01*
X126070264Y-85266498D01*
X126070261Y-85266510D01*
X126039500Y-85421153D01*
X126039500Y-85578846D01*
X126070261Y-85733489D01*
X126070264Y-85733501D01*
X126130602Y-85879172D01*
X126130609Y-85879185D01*
X126206117Y-85992189D01*
X126212672Y-86002000D01*
X126218602Y-86010874D01*
X126239480Y-86077551D01*
X126239500Y-86079765D01*
X126239500Y-134511599D01*
X126219815Y-134578638D01*
X126167011Y-134624393D01*
X126152398Y-134629981D01*
X126109822Y-134643249D01*
X126109819Y-134643250D01*
X125966222Y-134730056D01*
X125966217Y-134730060D01*
X125847560Y-134848717D01*
X125847556Y-134848722D01*
X125760750Y-134992319D01*
X125760750Y-134992320D01*
X125760749Y-134992322D01*
X125738464Y-135063838D01*
X125710826Y-135152532D01*
X125710818Y-135152623D01*
X125704500Y-135222153D01*
X125704500Y-138837500D01*
X125704501Y-142363000D01*
X125701950Y-142371685D01*
X125703239Y-142380647D01*
X125692260Y-142404687D01*
X125684816Y-142430039D01*
X125677975Y-142435966D01*
X125674214Y-142444203D01*
X125651979Y-142458492D01*
X125632012Y-142475794D01*
X125621497Y-142478081D01*
X125615436Y-142481977D01*
X125580501Y-142487000D01*
X125559000Y-142487000D01*
X125491961Y-142467315D01*
X125446206Y-142414511D01*
X125435000Y-142363000D01*
X125435000Y-139337500D01*
X123165001Y-139337500D01*
X123165001Y-142363000D01*
X123162450Y-142371685D01*
X123163739Y-142380647D01*
X123152760Y-142404687D01*
X123145316Y-142430039D01*
X123138475Y-142435966D01*
X123134714Y-142444203D01*
X123112479Y-142458492D01*
X123092512Y-142475794D01*
X123081997Y-142478081D01*
X123075936Y-142481977D01*
X123041001Y-142487000D01*
X123019500Y-142487000D01*
X122952461Y-142467315D01*
X122906706Y-142414511D01*
X122895500Y-142363000D01*
X122895499Y-135222201D01*
X123165000Y-135222201D01*
X123165000Y-138837500D01*
X124050000Y-138837500D01*
X124550000Y-138837500D01*
X125434999Y-138837500D01*
X125434999Y-135222191D01*
X125428678Y-135152624D01*
X125428676Y-135152616D01*
X125378791Y-134992529D01*
X125378790Y-134992527D01*
X125292045Y-134849032D01*
X125292042Y-134849028D01*
X125173471Y-134730457D01*
X125173467Y-134730454D01*
X125029973Y-134643710D01*
X124869876Y-134593822D01*
X124800298Y-134587500D01*
X124550000Y-134587500D01*
X124550000Y-138837500D01*
X124050000Y-138837500D01*
X124050000Y-134587500D01*
X123799691Y-134587500D01*
X123730123Y-134593821D01*
X123730116Y-134593823D01*
X123570029Y-134643708D01*
X123570027Y-134643709D01*
X123426532Y-134730454D01*
X123426528Y-134730457D01*
X123307957Y-134849028D01*
X123307954Y-134849032D01*
X123221210Y-134992526D01*
X123171322Y-135152623D01*
X123165000Y-135222201D01*
X122895499Y-135222201D01*
X122895499Y-135222145D01*
X122889174Y-135152533D01*
X122889171Y-135152522D01*
X122839252Y-134992324D01*
X122839250Y-134992320D01*
X122752443Y-134848722D01*
X122752439Y-134848717D01*
X122633782Y-134730060D01*
X122633777Y-134730056D01*
X122490180Y-134643250D01*
X122490179Y-134643249D01*
X122490178Y-134643249D01*
X122447608Y-134629983D01*
X122389462Y-134591247D01*
X122361488Y-134527222D01*
X122360500Y-134511599D01*
X122360500Y-90579765D01*
X122380185Y-90512726D01*
X122381398Y-90510874D01*
X122410576Y-90467207D01*
X122469394Y-90379179D01*
X122529737Y-90233497D01*
X122560500Y-90078842D01*
X122560500Y-89921158D01*
X122560500Y-89921155D01*
X122560499Y-89921153D01*
X122552446Y-89880668D01*
X122529737Y-89766503D01*
X122514390Y-89729452D01*
X122469397Y-89620827D01*
X122469390Y-89620814D01*
X122381398Y-89489125D01*
X122360520Y-89422447D01*
X122360500Y-89420234D01*
X122360500Y-63085575D01*
X122380185Y-63018536D01*
X122428205Y-62975090D01*
X122452816Y-62962551D01*
X122564893Y-62881123D01*
X122624786Y-62837609D01*
X122624788Y-62837606D01*
X122624792Y-62837604D01*
X122775104Y-62687292D01*
X122775106Y-62687288D01*
X122775109Y-62687286D01*
X122860890Y-62569217D01*
X122900051Y-62515316D01*
X122904793Y-62506008D01*
X122952763Y-62455211D01*
X123020583Y-62438411D01*
X123086719Y-62460945D01*
X123125763Y-62506000D01*
X123130373Y-62515047D01*
X123169728Y-62569216D01*
X123802037Y-61936908D01*
X123819075Y-62000493D01*
X123884901Y-62114507D01*
X123977993Y-62207599D01*
X124092007Y-62273425D01*
X124155590Y-62290462D01*
X123523282Y-62922769D01*
X123523282Y-62922770D01*
X123577449Y-62962124D01*
X123766782Y-63058595D01*
X123968870Y-63124257D01*
X124178754Y-63157500D01*
X124391246Y-63157500D01*
X124601127Y-63124257D01*
X124601130Y-63124257D01*
X124803217Y-63058595D01*
X124992554Y-62962122D01*
X125046716Y-62922770D01*
X125046717Y-62922770D01*
X124414408Y-62290462D01*
X124477993Y-62273425D01*
X124592007Y-62207599D01*
X124685099Y-62114507D01*
X124750925Y-62000493D01*
X124767962Y-61936908D01*
X125400270Y-62569217D01*
G37*
%TD.AperFunction*%
%TA.AperFunction,Conductor*%
G36*
X128899075Y-62000493D02*
G01*
X128964901Y-62114507D01*
X129057993Y-62207599D01*
X129172007Y-62273425D01*
X129235590Y-62290462D01*
X128603282Y-62922769D01*
X128603282Y-62922770D01*
X128657449Y-62962124D01*
X128846782Y-63058595D01*
X129048870Y-63124257D01*
X129258754Y-63157500D01*
X129471246Y-63157500D01*
X129681127Y-63124257D01*
X129681130Y-63124257D01*
X129883217Y-63058595D01*
X130072554Y-62962122D01*
X130126716Y-62922770D01*
X130126717Y-62922770D01*
X129494408Y-62290462D01*
X129557993Y-62273425D01*
X129672007Y-62207599D01*
X129765099Y-62114507D01*
X129830925Y-62000493D01*
X129847962Y-61936909D01*
X130480270Y-62569217D01*
X130480270Y-62569216D01*
X130519622Y-62515055D01*
X130524232Y-62506007D01*
X130572205Y-62455209D01*
X130640025Y-62438412D01*
X130706161Y-62460947D01*
X130745204Y-62506004D01*
X130749949Y-62515317D01*
X130874890Y-62687286D01*
X131025213Y-62837609D01*
X131197184Y-62962551D01*
X131197184Y-62962552D01*
X131236793Y-62982733D01*
X131287590Y-63030706D01*
X131304500Y-63093218D01*
X131304500Y-119420234D01*
X131284815Y-119487273D01*
X131283602Y-119489125D01*
X131195609Y-119620814D01*
X131195602Y-119620827D01*
X131135264Y-119766498D01*
X131135261Y-119766510D01*
X131104500Y-119921153D01*
X131104500Y-120078846D01*
X131135261Y-120233489D01*
X131135264Y-120233501D01*
X131195602Y-120379172D01*
X131195609Y-120379185D01*
X131283602Y-120510874D01*
X131304480Y-120577551D01*
X131304500Y-120579765D01*
X131304500Y-134516273D01*
X131284815Y-134583312D01*
X131232011Y-134629067D01*
X131217390Y-134634658D01*
X131189824Y-134643247D01*
X131189820Y-134643249D01*
X131046222Y-134730056D01*
X131046217Y-134730060D01*
X130927560Y-134848717D01*
X130927556Y-134848722D01*
X130840750Y-134992319D01*
X130840750Y-134992320D01*
X130840749Y-134992322D01*
X130818464Y-135063838D01*
X130790826Y-135152532D01*
X130790818Y-135152623D01*
X130784500Y-135222153D01*
X130784500Y-138837500D01*
X130784501Y-142363000D01*
X130781950Y-142371685D01*
X130783239Y-142380647D01*
X130772260Y-142404687D01*
X130764816Y-142430039D01*
X130757975Y-142435966D01*
X130754214Y-142444203D01*
X130731979Y-142458492D01*
X130712012Y-142475794D01*
X130701497Y-142478081D01*
X130695436Y-142481977D01*
X130660501Y-142487000D01*
X130639000Y-142487000D01*
X130571961Y-142467315D01*
X130526206Y-142414511D01*
X130515000Y-142363000D01*
X130515000Y-139337500D01*
X128245001Y-139337500D01*
X128245001Y-142363000D01*
X128242450Y-142371685D01*
X128243739Y-142380647D01*
X128232760Y-142404687D01*
X128225316Y-142430039D01*
X128218475Y-142435966D01*
X128214714Y-142444203D01*
X128192479Y-142458492D01*
X128172512Y-142475794D01*
X128161997Y-142478081D01*
X128155936Y-142481977D01*
X128121001Y-142487000D01*
X128099500Y-142487000D01*
X128032461Y-142467315D01*
X127986706Y-142414511D01*
X127975500Y-142363000D01*
X127975499Y-135222201D01*
X128245000Y-135222201D01*
X128245000Y-138837500D01*
X129130000Y-138837500D01*
X129630000Y-138837500D01*
X130514999Y-138837500D01*
X130514999Y-135222191D01*
X130508678Y-135152624D01*
X130508676Y-135152616D01*
X130458791Y-134992529D01*
X130458790Y-134992527D01*
X130372045Y-134849032D01*
X130372042Y-134849028D01*
X130253471Y-134730457D01*
X130253467Y-134730454D01*
X130109973Y-134643710D01*
X129949876Y-134593822D01*
X129880298Y-134587500D01*
X129630000Y-134587500D01*
X129630000Y-138837500D01*
X129130000Y-138837500D01*
X129130000Y-134587500D01*
X128879691Y-134587500D01*
X128810123Y-134593821D01*
X128810116Y-134593823D01*
X128650029Y-134643708D01*
X128650027Y-134643709D01*
X128506532Y-134730454D01*
X128506528Y-134730457D01*
X128387957Y-134849028D01*
X128387954Y-134849032D01*
X128301210Y-134992526D01*
X128251322Y-135152623D01*
X128245000Y-135222201D01*
X127975499Y-135222201D01*
X127975499Y-135222145D01*
X127969174Y-135152533D01*
X127969171Y-135152522D01*
X127919252Y-134992324D01*
X127919250Y-134992320D01*
X127832443Y-134848722D01*
X127832439Y-134848717D01*
X127713782Y-134730060D01*
X127713777Y-134730056D01*
X127570180Y-134643250D01*
X127570179Y-134643249D01*
X127570178Y-134643249D01*
X127527608Y-134629983D01*
X127469462Y-134591247D01*
X127441488Y-134527222D01*
X127440500Y-134511599D01*
X127440500Y-86079765D01*
X127460185Y-86012726D01*
X127461398Y-86010874D01*
X127466599Y-86003091D01*
X127549394Y-85879179D01*
X127609737Y-85733497D01*
X127640500Y-85578842D01*
X127640500Y-85421158D01*
X127640500Y-85421155D01*
X127640499Y-85421153D01*
X127634455Y-85390766D01*
X127609737Y-85266503D01*
X127597723Y-85237498D01*
X127549397Y-85120827D01*
X127549390Y-85120814D01*
X127461398Y-84989125D01*
X127440520Y-84922447D01*
X127440500Y-84920234D01*
X127440500Y-63085575D01*
X127460185Y-63018536D01*
X127508205Y-62975090D01*
X127532816Y-62962551D01*
X127644893Y-62881123D01*
X127704786Y-62837609D01*
X127704788Y-62837606D01*
X127704792Y-62837604D01*
X127855104Y-62687292D01*
X127855106Y-62687288D01*
X127855109Y-62687286D01*
X127940890Y-62569217D01*
X127980051Y-62515316D01*
X127984793Y-62506008D01*
X128032763Y-62455211D01*
X128100583Y-62438411D01*
X128166719Y-62460945D01*
X128205763Y-62506000D01*
X128210373Y-62515047D01*
X128249728Y-62569216D01*
X128882037Y-61936908D01*
X128899075Y-62000493D01*
G37*
%TD.AperFunction*%
%TA.AperFunction,Conductor*%
G36*
X180502702Y-60288117D02*
G01*
X180886771Y-60304886D01*
X180897506Y-60305826D01*
X181275971Y-60355652D01*
X181286597Y-60357525D01*
X181659284Y-60440148D01*
X181669710Y-60442942D01*
X182033765Y-60557727D01*
X182043911Y-60561420D01*
X182396578Y-60707500D01*
X182406369Y-60712066D01*
X182671568Y-60850120D01*
X182744942Y-60888316D01*
X182754310Y-60893724D01*
X183076244Y-61098818D01*
X183085105Y-61105023D01*
X183387930Y-61337389D01*
X183396217Y-61344343D01*
X183677635Y-61602215D01*
X183685284Y-61609864D01*
X183943156Y-61891282D01*
X183950110Y-61899569D01*
X184182476Y-62202394D01*
X184188681Y-62211255D01*
X184393775Y-62533189D01*
X184399183Y-62542557D01*
X184575430Y-62881123D01*
X184580002Y-62890927D01*
X184726075Y-63243578D01*
X184729775Y-63253744D01*
X184844554Y-63617778D01*
X184847354Y-63628227D01*
X184929971Y-64000889D01*
X184931849Y-64011542D01*
X184981671Y-64389973D01*
X184982614Y-64400749D01*
X184999382Y-64784797D01*
X184999500Y-64790206D01*
X184999500Y-129784793D01*
X184999382Y-129790202D01*
X184982614Y-130174250D01*
X184981671Y-130185026D01*
X184931849Y-130563457D01*
X184929971Y-130574110D01*
X184847354Y-130946772D01*
X184844554Y-130957221D01*
X184729775Y-131321255D01*
X184726075Y-131331421D01*
X184580002Y-131684072D01*
X184575430Y-131693876D01*
X184399183Y-132032442D01*
X184393775Y-132041810D01*
X184188681Y-132363744D01*
X184182476Y-132372605D01*
X183950110Y-132675430D01*
X183943156Y-132683717D01*
X183685284Y-132965135D01*
X183677635Y-132972784D01*
X183396217Y-133230656D01*
X183387930Y-133237610D01*
X183085105Y-133469976D01*
X183076244Y-133476181D01*
X182754310Y-133681275D01*
X182744942Y-133686683D01*
X182406376Y-133862930D01*
X182396572Y-133867502D01*
X182043921Y-134013575D01*
X182033755Y-134017275D01*
X181669721Y-134132054D01*
X181659272Y-134134854D01*
X181286610Y-134217471D01*
X181275957Y-134219349D01*
X180897526Y-134269171D01*
X180886750Y-134270114D01*
X180502703Y-134286882D01*
X180497294Y-134287000D01*
X144564108Y-134287000D01*
X144436812Y-134321108D01*
X144322686Y-134387000D01*
X144322683Y-134387002D01*
X144229502Y-134480183D01*
X144229500Y-134480186D01*
X144163608Y-134594312D01*
X144129500Y-134721608D01*
X144129500Y-142363000D01*
X144109815Y-142430039D01*
X144057011Y-142475794D01*
X144005500Y-142487000D01*
X143339500Y-142487000D01*
X143272461Y-142467315D01*
X143226706Y-142414511D01*
X143215500Y-142363000D01*
X143215499Y-135222145D01*
X143209174Y-135152533D01*
X143209171Y-135152522D01*
X143159252Y-134992324D01*
X143159250Y-134992320D01*
X143072443Y-134848722D01*
X143072439Y-134848717D01*
X142953782Y-134730060D01*
X142953777Y-134730056D01*
X142810180Y-134643250D01*
X142810179Y-134643249D01*
X142810178Y-134643249D01*
X142767608Y-134629983D01*
X142709462Y-134591247D01*
X142681488Y-134527222D01*
X142680500Y-134511599D01*
X142680500Y-124079765D01*
X142700185Y-124012726D01*
X142701398Y-124010874D01*
X142714857Y-123990732D01*
X142789394Y-123879179D01*
X142793728Y-123868717D01*
X142805539Y-123840202D01*
X142849737Y-123733497D01*
X142880500Y-123578842D01*
X142880500Y-123421158D01*
X142880500Y-123421155D01*
X142880499Y-123421153D01*
X142849738Y-123266510D01*
X142849737Y-123266503D01*
X142789421Y-123120885D01*
X142789397Y-123120827D01*
X142789390Y-123120814D01*
X142701398Y-122989125D01*
X142680520Y-122922447D01*
X142680500Y-122920234D01*
X142680500Y-96249986D01*
X145950001Y-96249986D01*
X145960494Y-96352697D01*
X146015641Y-96519119D01*
X146015643Y-96519124D01*
X146107684Y-96668345D01*
X146231654Y-96792315D01*
X146380875Y-96884356D01*
X146380880Y-96884358D01*
X146547302Y-96939505D01*
X146547309Y-96939506D01*
X146650019Y-96949999D01*
X146899999Y-96949999D01*
X147400000Y-96949999D01*
X147649972Y-96949999D01*
X147649986Y-96949998D01*
X147752697Y-96939505D01*
X147919119Y-96884358D01*
X147919124Y-96884356D01*
X148068345Y-96792315D01*
X148192315Y-96668345D01*
X148284356Y-96519124D01*
X148284358Y-96519119D01*
X148339505Y-96352697D01*
X148339506Y-96352690D01*
X148349999Y-96249986D01*
X148350000Y-96249973D01*
X148350000Y-96100000D01*
X147400000Y-96100000D01*
X147400000Y-96949999D01*
X146899999Y-96949999D01*
X146900000Y-96949998D01*
X146900000Y-96100000D01*
X145950001Y-96100000D01*
X145950001Y-96249986D01*
X142680500Y-96249986D01*
X142680500Y-92521153D01*
X143549500Y-92521153D01*
X143549500Y-92678846D01*
X143580261Y-92833489D01*
X143580264Y-92833501D01*
X143640602Y-92979172D01*
X143640609Y-92979185D01*
X143728210Y-93110288D01*
X143728213Y-93110292D01*
X143839707Y-93221786D01*
X143839711Y-93221789D01*
X143970814Y-93309390D01*
X143970827Y-93309397D01*
X144062103Y-93347204D01*
X144116503Y-93369737D01*
X144271153Y-93400499D01*
X144271156Y-93400500D01*
X144271158Y-93400500D01*
X144428844Y-93400500D01*
X144428845Y-93400499D01*
X144583497Y-93369737D01*
X144729179Y-93309394D01*
X144860289Y-93221789D01*
X144971789Y-93110289D01*
X145059394Y-92979179D01*
X145119737Y-92833497D01*
X145144136Y-92710835D01*
X145150638Y-92678150D01*
X145183023Y-92616239D01*
X145184522Y-92614712D01*
X145608506Y-92190727D01*
X145608511Y-92190724D01*
X145618714Y-92180520D01*
X145618716Y-92180520D01*
X145730520Y-92068716D01*
X145799349Y-91949500D01*
X145809577Y-91931785D01*
X145826174Y-91869840D01*
X145827987Y-91864839D01*
X145845636Y-91840796D01*
X145861160Y-91815328D01*
X145866716Y-91812080D01*
X145869333Y-91808516D01*
X145879474Y-91804624D01*
X145905566Y-91789376D01*
X145919334Y-91784814D01*
X146068656Y-91692712D01*
X146162319Y-91599049D01*
X146223642Y-91565564D01*
X146293334Y-91570548D01*
X146337681Y-91599049D01*
X146431344Y-91692712D01*
X146580666Y-91784814D01*
X146580667Y-91784814D01*
X146586813Y-91788605D01*
X146585706Y-91790399D01*
X146630337Y-91829687D01*
X146649500Y-91895908D01*
X146649500Y-92637837D01*
X146629815Y-92704876D01*
X146577011Y-92750631D01*
X146551459Y-92759089D01*
X146547207Y-92759999D01*
X146380668Y-92815185D01*
X146380663Y-92815187D01*
X146231342Y-92907289D01*
X146107289Y-93031342D01*
X146015187Y-93180663D01*
X146015186Y-93180666D01*
X145960001Y-93347203D01*
X145960001Y-93347204D01*
X145960000Y-93347204D01*
X145949500Y-93449983D01*
X145949500Y-94250001D01*
X145949501Y-94250019D01*
X145960000Y-94352796D01*
X145960001Y-94352799D01*
X146015185Y-94519331D01*
X146015187Y-94519336D01*
X146050069Y-94575888D01*
X146086217Y-94634495D01*
X146107289Y-94668657D01*
X146201304Y-94762672D01*
X146234789Y-94823995D01*
X146229805Y-94893687D01*
X146201305Y-94938034D01*
X146107682Y-95031657D01*
X146015643Y-95180875D01*
X146015641Y-95180880D01*
X145960494Y-95347302D01*
X145960493Y-95347309D01*
X145950000Y-95450013D01*
X145950000Y-95600000D01*
X148349999Y-95600000D01*
X148349999Y-95450028D01*
X148349998Y-95450013D01*
X148339505Y-95347302D01*
X148284358Y-95180880D01*
X148284356Y-95180875D01*
X148192315Y-95031654D01*
X148098695Y-94938034D01*
X148065210Y-94876711D01*
X148070194Y-94807019D01*
X148098691Y-94762676D01*
X148192712Y-94668656D01*
X148284814Y-94519334D01*
X148339999Y-94352797D01*
X148350500Y-94250009D01*
X148350499Y-93449992D01*
X148339999Y-93347203D01*
X148284814Y-93180666D01*
X148192712Y-93031344D01*
X148068656Y-92907288D01*
X147919334Y-92815186D01*
X147919332Y-92815185D01*
X147913187Y-92811395D01*
X147914290Y-92809605D01*
X147869649Y-92770290D01*
X147850500Y-92704091D01*
X147850500Y-91895908D01*
X147870185Y-91828869D01*
X147914271Y-91790363D01*
X147913187Y-91788605D01*
X147919332Y-91784814D01*
X147919334Y-91784814D01*
X148068656Y-91692712D01*
X148192712Y-91568656D01*
X148284814Y-91419334D01*
X148312595Y-91335495D01*
X148352368Y-91278051D01*
X148416884Y-91251228D01*
X148430301Y-91250500D01*
X148833278Y-91250500D01*
X148900317Y-91270185D01*
X148946072Y-91322989D01*
X148952354Y-91339905D01*
X148998254Y-91497893D01*
X148998255Y-91497896D01*
X149081917Y-91639362D01*
X149081923Y-91639370D01*
X149198129Y-91755576D01*
X149198133Y-91755579D01*
X149198135Y-91755581D01*
X149339602Y-91839244D01*
X149344944Y-91840796D01*
X149497426Y-91885097D01*
X149497429Y-91885097D01*
X149497431Y-91885098D01*
X149534306Y-91888000D01*
X149534314Y-91888000D01*
X149965686Y-91888000D01*
X149965694Y-91888000D01*
X150002569Y-91885098D01*
X150002571Y-91885097D01*
X150002573Y-91885097D01*
X150083046Y-91861717D01*
X150160398Y-91839244D01*
X150301865Y-91755581D01*
X150418081Y-91639365D01*
X150501744Y-91497898D01*
X150547598Y-91340069D01*
X150550500Y-91303194D01*
X150550500Y-90137000D01*
X150553050Y-90128314D01*
X150551762Y-90119353D01*
X150562740Y-90095312D01*
X150570185Y-90069961D01*
X150577025Y-90064033D01*
X150580787Y-90055797D01*
X150603021Y-90041507D01*
X150622989Y-90024206D01*
X150633503Y-90021918D01*
X150639565Y-90018023D01*
X150674500Y-90013000D01*
X150725500Y-90013000D01*
X150792539Y-90032685D01*
X150838294Y-90085489D01*
X150849500Y-90137000D01*
X150849500Y-91303201D01*
X150852401Y-91340067D01*
X150852402Y-91340073D01*
X150898254Y-91497893D01*
X150898255Y-91497896D01*
X150981917Y-91639362D01*
X150981923Y-91639370D01*
X151098129Y-91755576D01*
X151098133Y-91755579D01*
X151098135Y-91755581D01*
X151239602Y-91839244D01*
X151244944Y-91840796D01*
X151397426Y-91885097D01*
X151397429Y-91885097D01*
X151397431Y-91885098D01*
X151434306Y-91888000D01*
X151434314Y-91888000D01*
X151865686Y-91888000D01*
X151865694Y-91888000D01*
X151902569Y-91885098D01*
X151902571Y-91885097D01*
X151902573Y-91885097D01*
X151983046Y-91861717D01*
X152060398Y-91839244D01*
X152201865Y-91755581D01*
X152318081Y-91639365D01*
X152401744Y-91497898D01*
X152447598Y-91340069D01*
X152450500Y-91303194D01*
X152450500Y-89996806D01*
X152447598Y-89959931D01*
X152447597Y-89959926D01*
X152405424Y-89814765D01*
X152400500Y-89780170D01*
X152400500Y-88024986D01*
X162312501Y-88024986D01*
X162322994Y-88127697D01*
X162378141Y-88294119D01*
X162378143Y-88294124D01*
X162470184Y-88443345D01*
X162594154Y-88567315D01*
X162743375Y-88659356D01*
X162743380Y-88659358D01*
X162909802Y-88714505D01*
X162909809Y-88714506D01*
X163012519Y-88724999D01*
X163149999Y-88724999D01*
X163150000Y-88724998D01*
X163150000Y-87750000D01*
X162312501Y-87750000D01*
X162312501Y-88024986D01*
X152400500Y-88024986D01*
X152400500Y-86975013D01*
X162312500Y-86975013D01*
X162312500Y-87250000D01*
X163150000Y-87250000D01*
X163150000Y-86275000D01*
X163650000Y-86275000D01*
X163650000Y-88724999D01*
X163787472Y-88724999D01*
X163787486Y-88724998D01*
X163890197Y-88714505D01*
X164056619Y-88659358D01*
X164056624Y-88659356D01*
X164205845Y-88567315D01*
X164329818Y-88443342D01*
X164331665Y-88440348D01*
X164333469Y-88438724D01*
X164334298Y-88437677D01*
X164334476Y-88437818D01*
X164383610Y-88393621D01*
X164452573Y-88382396D01*
X164516656Y-88410236D01*
X164542743Y-88440341D01*
X164544788Y-88443656D01*
X164668844Y-88567712D01*
X164818166Y-88659814D01*
X164984703Y-88714999D01*
X165087491Y-88725500D01*
X165862508Y-88725499D01*
X165862516Y-88725498D01*
X165862519Y-88725498D01*
X165918802Y-88719748D01*
X165965297Y-88714999D01*
X166131834Y-88659814D01*
X166281156Y-88567712D01*
X166405212Y-88443656D01*
X166497314Y-88294334D01*
X166527787Y-88202372D01*
X166567558Y-88144928D01*
X166632074Y-88118105D01*
X166700850Y-88130420D01*
X166714383Y-88138275D01*
X166820814Y-88209390D01*
X166820827Y-88209397D01*
X166966498Y-88269735D01*
X166966503Y-88269737D01*
X167090160Y-88294334D01*
X167121153Y-88300499D01*
X167121156Y-88300500D01*
X167121158Y-88300500D01*
X167278844Y-88300500D01*
X167278845Y-88300499D01*
X167433497Y-88269737D01*
X167565650Y-88214998D01*
X167579172Y-88209397D01*
X167579172Y-88209396D01*
X167579179Y-88209394D01*
X167710289Y-88121789D01*
X167744592Y-88087486D01*
X169475001Y-88087486D01*
X169485494Y-88190197D01*
X169540641Y-88356619D01*
X169540643Y-88356624D01*
X169632684Y-88505845D01*
X169756654Y-88629815D01*
X169905875Y-88721856D01*
X169905880Y-88721858D01*
X170072302Y-88777005D01*
X170072309Y-88777006D01*
X170175019Y-88787499D01*
X170449999Y-88787499D01*
X170950000Y-88787499D01*
X171224972Y-88787499D01*
X171224986Y-88787498D01*
X171327697Y-88777005D01*
X171494119Y-88721858D01*
X171494124Y-88721856D01*
X171643345Y-88629815D01*
X171767315Y-88505845D01*
X171859356Y-88356624D01*
X171859358Y-88356619D01*
X171914505Y-88190197D01*
X171914506Y-88190190D01*
X171924999Y-88087486D01*
X171925000Y-88087473D01*
X171925000Y-87950000D01*
X170950000Y-87950000D01*
X170950000Y-88787499D01*
X170449999Y-88787499D01*
X170450000Y-88787498D01*
X170450000Y-87950000D01*
X169475001Y-87950000D01*
X169475001Y-88087486D01*
X167744592Y-88087486D01*
X167821789Y-88010289D01*
X167909394Y-87879179D01*
X167969737Y-87733497D01*
X168000500Y-87578842D01*
X168000500Y-87421158D01*
X168000500Y-87421155D01*
X168000499Y-87421153D01*
X167969739Y-87266511D01*
X167969738Y-87266510D01*
X167969737Y-87266503D01*
X167944937Y-87206629D01*
X167935500Y-87159182D01*
X167935500Y-86065906D01*
X167955185Y-85998867D01*
X168007989Y-85953112D01*
X168077147Y-85943168D01*
X168122617Y-85959172D01*
X168194602Y-86001744D01*
X168232402Y-86012726D01*
X168352426Y-86047597D01*
X168352429Y-86047597D01*
X168352431Y-86047598D01*
X168389306Y-86050500D01*
X168389314Y-86050500D01*
X168820686Y-86050500D01*
X168820694Y-86050500D01*
X168857569Y-86047598D01*
X168857571Y-86047597D01*
X168857573Y-86047597D01*
X168907261Y-86033161D01*
X169015398Y-86001744D01*
X169037617Y-85988603D01*
X169105340Y-85971421D01*
X169171602Y-85993581D01*
X169188418Y-86007654D01*
X169286284Y-86105520D01*
X169373095Y-86155639D01*
X169423215Y-86184577D01*
X169461367Y-86194799D01*
X169470546Y-86198942D01*
X169489718Y-86215405D01*
X169511293Y-86228556D01*
X169517599Y-86239347D01*
X169523554Y-86244460D01*
X169526650Y-86254832D01*
X169537245Y-86272960D01*
X169540184Y-86281831D01*
X169540186Y-86281834D01*
X169632288Y-86431156D01*
X169756344Y-86555212D01*
X169758690Y-86556659D01*
X169759653Y-86557253D01*
X169761445Y-86559246D01*
X169762011Y-86559693D01*
X169761934Y-86559789D01*
X169806379Y-86609199D01*
X169817603Y-86678161D01*
X169789761Y-86742244D01*
X169759665Y-86768326D01*
X169756660Y-86770179D01*
X169756655Y-86770183D01*
X169632684Y-86894154D01*
X169540643Y-87043375D01*
X169540641Y-87043380D01*
X169485494Y-87209802D01*
X169485493Y-87209809D01*
X169475000Y-87312513D01*
X169475000Y-87450000D01*
X171924999Y-87450000D01*
X171924999Y-87312528D01*
X171924998Y-87312513D01*
X171914505Y-87209802D01*
X171859358Y-87043380D01*
X171859356Y-87043375D01*
X171767315Y-86894154D01*
X171765342Y-86892181D01*
X171764419Y-86890492D01*
X171762839Y-86888493D01*
X171763180Y-86888222D01*
X171731857Y-86830858D01*
X171736841Y-86761166D01*
X171778713Y-86705233D01*
X171844177Y-86680816D01*
X171853023Y-86680500D01*
X179714281Y-86680500D01*
X179781320Y-86700185D01*
X179824765Y-86748205D01*
X179844947Y-86787814D01*
X179844948Y-86787815D01*
X179969890Y-86959786D01*
X180120213Y-87110109D01*
X180292179Y-87235048D01*
X180292181Y-87235049D01*
X180292184Y-87235051D01*
X180481588Y-87331557D01*
X180683757Y-87397246D01*
X180893713Y-87430500D01*
X180893714Y-87430500D01*
X181106286Y-87430500D01*
X181106287Y-87430500D01*
X181316243Y-87397246D01*
X181358523Y-87383507D01*
X181428362Y-87381511D01*
X181484522Y-87413757D01*
X181863181Y-87792416D01*
X181896666Y-87853739D01*
X181899500Y-87880097D01*
X181899500Y-96445500D01*
X181879815Y-96512539D01*
X181827011Y-96558294D01*
X181775500Y-96569500D01*
X180102129Y-96569500D01*
X180102123Y-96569501D01*
X180042516Y-96575908D01*
X179907671Y-96626202D01*
X179907664Y-96626206D01*
X179792455Y-96712452D01*
X179792452Y-96712455D01*
X179706206Y-96827664D01*
X179706202Y-96827671D01*
X179655908Y-96962517D01*
X179649501Y-97022116D01*
X179649500Y-97022135D01*
X179649500Y-98817870D01*
X179649501Y-98817876D01*
X179655908Y-98877483D01*
X179706202Y-99012328D01*
X179706206Y-99012335D01*
X179792452Y-99127544D01*
X179792455Y-99127547D01*
X179907664Y-99213793D01*
X179907671Y-99213797D01*
X180039082Y-99262810D01*
X180095016Y-99304681D01*
X180119433Y-99370145D01*
X180104582Y-99438418D01*
X180083431Y-99466673D01*
X179969889Y-99580215D01*
X179844951Y-99752179D01*
X179748444Y-99941585D01*
X179682753Y-100143760D01*
X179663734Y-100263843D01*
X179649500Y-100353713D01*
X179649500Y-100566287D01*
X179651725Y-100580333D01*
X179678676Y-100750500D01*
X179682754Y-100776243D01*
X179723127Y-100900499D01*
X179748444Y-100978414D01*
X179844951Y-101167820D01*
X179969890Y-101339786D01*
X180120213Y-101490109D01*
X180292179Y-101615048D01*
X180292181Y-101615049D01*
X180292184Y-101615051D01*
X180301493Y-101619794D01*
X180352290Y-101667766D01*
X180369087Y-101735587D01*
X180346552Y-101801722D01*
X180301505Y-101840760D01*
X180292446Y-101845376D01*
X180292440Y-101845380D01*
X180238282Y-101884727D01*
X180238282Y-101884728D01*
X180870591Y-102517037D01*
X180807007Y-102534075D01*
X180692993Y-102599901D01*
X180599901Y-102692993D01*
X180534075Y-102807007D01*
X180517037Y-102870591D01*
X179884728Y-102238282D01*
X179884727Y-102238282D01*
X179845380Y-102292439D01*
X179748904Y-102481782D01*
X179683242Y-102683869D01*
X179683242Y-102683872D01*
X179650000Y-102893753D01*
X179650000Y-103106246D01*
X179683242Y-103316127D01*
X179683242Y-103316130D01*
X179748904Y-103518217D01*
X179845375Y-103707550D01*
X179884728Y-103761716D01*
X180517037Y-103129408D01*
X180534075Y-103192993D01*
X180599901Y-103307007D01*
X180692993Y-103400099D01*
X180807007Y-103465925D01*
X180870589Y-103482962D01*
X180238282Y-104115269D01*
X180238282Y-104115270D01*
X180292452Y-104154626D01*
X180292451Y-104154626D01*
X180301495Y-104159234D01*
X180352292Y-104207208D01*
X180369087Y-104275029D01*
X180346550Y-104341164D01*
X180301499Y-104380202D01*
X180292182Y-104384949D01*
X180120213Y-104509890D01*
X179969890Y-104660213D01*
X179844951Y-104832179D01*
X179748444Y-105021585D01*
X179682753Y-105223760D01*
X179663734Y-105343843D01*
X179649500Y-105433713D01*
X179649500Y-105646287D01*
X179682754Y-105856243D01*
X179687847Y-105871919D01*
X179748444Y-106058414D01*
X179844951Y-106247820D01*
X179969890Y-106419786D01*
X180120213Y-106570109D01*
X180292179Y-106695048D01*
X180292181Y-106695049D01*
X180292184Y-106695051D01*
X180481588Y-106791557D01*
X180683757Y-106857246D01*
X180893713Y-106890500D01*
X180893714Y-106890500D01*
X181106286Y-106890500D01*
X181106287Y-106890500D01*
X181316243Y-106857246D01*
X181358523Y-106843507D01*
X181428362Y-106841511D01*
X181484522Y-106873757D01*
X181863181Y-107252416D01*
X181896666Y-107313739D01*
X181899500Y-107340097D01*
X181899500Y-115905500D01*
X181879815Y-115972539D01*
X181827011Y-116018294D01*
X181775500Y-116029500D01*
X180102129Y-116029500D01*
X180102123Y-116029501D01*
X180042516Y-116035908D01*
X179907671Y-116086202D01*
X179907664Y-116086206D01*
X179792455Y-116172452D01*
X179792452Y-116172455D01*
X179706206Y-116287664D01*
X179706202Y-116287671D01*
X179655908Y-116422517D01*
X179649501Y-116482116D01*
X179649500Y-116482135D01*
X179649500Y-118277870D01*
X179649501Y-118277876D01*
X179655908Y-118337483D01*
X179706202Y-118472328D01*
X179706206Y-118472335D01*
X179792452Y-118587544D01*
X179792455Y-118587547D01*
X179907664Y-118673793D01*
X179907671Y-118673797D01*
X180039082Y-118722810D01*
X180095016Y-118764681D01*
X180119433Y-118830145D01*
X180104582Y-118898418D01*
X180083431Y-118926673D01*
X179969889Y-119040215D01*
X179844951Y-119212179D01*
X179748444Y-119401585D01*
X179682753Y-119603760D01*
X179649500Y-119813713D01*
X179649500Y-120026286D01*
X179682753Y-120236239D01*
X179748444Y-120438414D01*
X179844951Y-120627820D01*
X179969890Y-120799786D01*
X180120213Y-120950109D01*
X180292179Y-121075048D01*
X180292181Y-121075049D01*
X180292184Y-121075051D01*
X180301493Y-121079794D01*
X180352290Y-121127766D01*
X180369087Y-121195587D01*
X180346552Y-121261722D01*
X180301505Y-121300760D01*
X180292446Y-121305376D01*
X180292440Y-121305380D01*
X180238282Y-121344727D01*
X180238282Y-121344728D01*
X180870591Y-121977037D01*
X180807007Y-121994075D01*
X180692993Y-122059901D01*
X180599901Y-122152993D01*
X180534075Y-122267007D01*
X180517037Y-122330591D01*
X179884728Y-121698282D01*
X179884727Y-121698282D01*
X179845380Y-121752439D01*
X179748904Y-121941782D01*
X179683242Y-122143869D01*
X179683242Y-122143872D01*
X179650000Y-122353753D01*
X179650000Y-122566246D01*
X179683242Y-122776127D01*
X179683242Y-122776130D01*
X179748904Y-122978217D01*
X179845375Y-123167550D01*
X179884728Y-123221716D01*
X180517037Y-122589408D01*
X180534075Y-122652993D01*
X180599901Y-122767007D01*
X180692993Y-122860099D01*
X180807007Y-122925925D01*
X180870589Y-122942962D01*
X180238282Y-123575269D01*
X180238282Y-123575270D01*
X180292452Y-123614626D01*
X180292451Y-123614626D01*
X180301495Y-123619234D01*
X180352292Y-123667208D01*
X180369087Y-123735029D01*
X180346550Y-123801164D01*
X180301499Y-123840202D01*
X180292182Y-123844949D01*
X180120213Y-123969890D01*
X179969890Y-124120213D01*
X179844951Y-124292179D01*
X179748444Y-124481585D01*
X179748443Y-124481587D01*
X179748443Y-124481588D01*
X179745805Y-124489707D01*
X179682753Y-124683760D01*
X179682753Y-124683762D01*
X179649500Y-124893713D01*
X179649500Y-125106287D01*
X179682754Y-125316243D01*
X179746222Y-125511578D01*
X179748444Y-125518414D01*
X179844951Y-125707820D01*
X179969890Y-125879786D01*
X180120213Y-126030109D01*
X180292179Y-126155048D01*
X180292181Y-126155049D01*
X180292184Y-126155051D01*
X180481588Y-126251557D01*
X180683757Y-126317246D01*
X180893713Y-126350500D01*
X180893714Y-126350500D01*
X181106286Y-126350500D01*
X181106287Y-126350500D01*
X181316243Y-126317246D01*
X181518412Y-126251557D01*
X181707816Y-126155051D01*
X181729789Y-126139086D01*
X181879786Y-126030109D01*
X181879788Y-126030106D01*
X181879792Y-126030104D01*
X182030104Y-125879792D01*
X182030106Y-125879788D01*
X182030109Y-125879786D01*
X182155048Y-125707820D01*
X182155047Y-125707820D01*
X182155051Y-125707816D01*
X182251557Y-125518412D01*
X182317246Y-125316243D01*
X182350500Y-125106287D01*
X182350500Y-124893713D01*
X182317246Y-124683757D01*
X182303506Y-124641473D01*
X182301512Y-124571635D01*
X182333755Y-124515478D01*
X182858506Y-123990728D01*
X182858511Y-123990724D01*
X182868714Y-123980520D01*
X182868716Y-123980520D01*
X182980520Y-123868716D01*
X183059577Y-123731784D01*
X183100500Y-123579057D01*
X183100500Y-106960943D01*
X183100500Y-106960942D01*
X183100500Y-87500943D01*
X183059577Y-87348216D01*
X183012976Y-87267500D01*
X182980524Y-87211290D01*
X182980521Y-87211286D01*
X182980520Y-87211284D01*
X182868716Y-87099480D01*
X182868715Y-87099479D01*
X182864385Y-87095149D01*
X182864374Y-87095139D01*
X182333757Y-86564522D01*
X182300272Y-86503199D01*
X182303507Y-86438523D01*
X182317246Y-86396243D01*
X182350500Y-86186287D01*
X182350500Y-85973713D01*
X182317246Y-85763757D01*
X182251557Y-85561588D01*
X182155051Y-85372184D01*
X182155049Y-85372181D01*
X182155048Y-85372179D01*
X182030109Y-85200213D01*
X181879786Y-85049890D01*
X181707817Y-84924949D01*
X181698504Y-84920204D01*
X181647707Y-84872230D01*
X181630912Y-84804409D01*
X181653449Y-84738274D01*
X181698507Y-84699232D01*
X181707555Y-84694622D01*
X181761716Y-84655270D01*
X181761717Y-84655270D01*
X181129408Y-84022962D01*
X181192993Y-84005925D01*
X181307007Y-83940099D01*
X181400099Y-83847007D01*
X181465925Y-83732993D01*
X181482962Y-83669408D01*
X182115270Y-84301717D01*
X182115270Y-84301716D01*
X182154622Y-84247554D01*
X182251095Y-84058217D01*
X182316757Y-83856130D01*
X182316757Y-83856127D01*
X182350000Y-83646246D01*
X182350000Y-83433753D01*
X182316757Y-83223872D01*
X182316757Y-83223869D01*
X182251095Y-83021782D01*
X182154624Y-82832449D01*
X182115270Y-82778282D01*
X182115269Y-82778282D01*
X181482962Y-83410590D01*
X181465925Y-83347007D01*
X181400099Y-83232993D01*
X181307007Y-83139901D01*
X181192993Y-83074075D01*
X181129409Y-83057037D01*
X181761716Y-82424728D01*
X181707547Y-82385373D01*
X181707547Y-82385372D01*
X181698500Y-82380763D01*
X181647706Y-82332788D01*
X181630912Y-82264966D01*
X181653451Y-82198832D01*
X181698508Y-82159793D01*
X181707816Y-82155051D01*
X181800238Y-82087903D01*
X181879786Y-82030109D01*
X181879788Y-82030106D01*
X181879792Y-82030104D01*
X182030104Y-81879792D01*
X182030106Y-81879788D01*
X182030109Y-81879786D01*
X182155048Y-81707820D01*
X182155047Y-81707820D01*
X182155051Y-81707816D01*
X182251557Y-81518412D01*
X182317246Y-81316243D01*
X182350500Y-81106287D01*
X182350500Y-80893713D01*
X182317246Y-80683757D01*
X182251557Y-80481588D01*
X182155051Y-80292184D01*
X182155049Y-80292181D01*
X182155048Y-80292179D01*
X182030109Y-80120213D01*
X181916569Y-80006673D01*
X181883084Y-79945350D01*
X181888068Y-79875658D01*
X181929940Y-79819725D01*
X181960915Y-79802810D01*
X182092331Y-79753796D01*
X182207546Y-79667546D01*
X182293796Y-79552331D01*
X182344091Y-79417483D01*
X182350500Y-79357873D01*
X182350499Y-77562128D01*
X182344091Y-77502517D01*
X182337221Y-77484098D01*
X182293797Y-77367671D01*
X182293793Y-77367664D01*
X182207547Y-77252455D01*
X182207544Y-77252452D01*
X182092335Y-77166206D01*
X182092328Y-77166202D01*
X181957482Y-77115908D01*
X181957483Y-77115908D01*
X181897883Y-77109501D01*
X181897881Y-77109500D01*
X181897873Y-77109500D01*
X181897864Y-77109500D01*
X180102129Y-77109500D01*
X180102123Y-77109501D01*
X180042516Y-77115908D01*
X179907671Y-77166202D01*
X179907664Y-77166206D01*
X179792455Y-77252452D01*
X179792452Y-77252455D01*
X179706206Y-77367664D01*
X179706202Y-77367671D01*
X179655908Y-77502517D01*
X179651910Y-77539707D01*
X179649501Y-77562123D01*
X179649500Y-77562135D01*
X179649500Y-79357870D01*
X179649501Y-79357876D01*
X179655908Y-79417483D01*
X179706202Y-79552328D01*
X179706206Y-79552335D01*
X179792452Y-79667544D01*
X179792455Y-79667547D01*
X179907664Y-79753793D01*
X179907671Y-79753797D01*
X180039082Y-79802810D01*
X180095016Y-79844681D01*
X180119433Y-79910145D01*
X180104582Y-79978418D01*
X180083431Y-80006673D01*
X179969889Y-80120215D01*
X179844951Y-80292179D01*
X179748444Y-80481585D01*
X179682753Y-80683760D01*
X179649500Y-80893713D01*
X179649500Y-81106286D01*
X179678769Y-81291087D01*
X179682754Y-81316243D01*
X179721692Y-81436082D01*
X179748444Y-81518414D01*
X179844951Y-81707820D01*
X179969890Y-81879786D01*
X180120213Y-82030109D01*
X180292179Y-82155048D01*
X180292181Y-82155049D01*
X180292184Y-82155051D01*
X180301493Y-82159794D01*
X180352290Y-82207766D01*
X180369087Y-82275587D01*
X180346552Y-82341722D01*
X180301505Y-82380760D01*
X180292446Y-82385376D01*
X180292440Y-82385380D01*
X180238282Y-82424727D01*
X180238282Y-82424728D01*
X180870591Y-83057037D01*
X180807007Y-83074075D01*
X180692993Y-83139901D01*
X180599901Y-83232993D01*
X180534075Y-83347007D01*
X180517037Y-83410591D01*
X179884728Y-82778282D01*
X179884727Y-82778282D01*
X179845380Y-82832439D01*
X179748904Y-83021782D01*
X179683242Y-83223869D01*
X179683242Y-83223872D01*
X179650000Y-83433753D01*
X179650000Y-83646246D01*
X179683242Y-83856127D01*
X179683242Y-83856130D01*
X179748904Y-84058217D01*
X179845375Y-84247550D01*
X179884728Y-84301716D01*
X180517037Y-83669408D01*
X180534075Y-83732993D01*
X180599901Y-83847007D01*
X180692993Y-83940099D01*
X180807007Y-84005925D01*
X180870590Y-84022962D01*
X180238282Y-84655269D01*
X180238282Y-84655270D01*
X180292452Y-84694626D01*
X180292451Y-84694626D01*
X180301495Y-84699234D01*
X180352292Y-84747208D01*
X180369087Y-84815029D01*
X180346550Y-84881164D01*
X180301499Y-84920202D01*
X180292182Y-84924949D01*
X180120213Y-85049890D01*
X179969890Y-85200213D01*
X179844948Y-85372184D01*
X179844947Y-85372185D01*
X179824765Y-85411795D01*
X179776791Y-85462591D01*
X179714281Y-85479500D01*
X172049499Y-85479500D01*
X171982460Y-85459815D01*
X171936705Y-85407011D01*
X171925499Y-85355500D01*
X171925499Y-85237498D01*
X171925498Y-85237481D01*
X171914999Y-85134703D01*
X171914998Y-85134700D01*
X171893395Y-85069508D01*
X171859814Y-84968166D01*
X171767712Y-84818844D01*
X171643656Y-84694788D01*
X171494334Y-84602686D01*
X171327797Y-84547501D01*
X171327795Y-84547500D01*
X171225010Y-84537000D01*
X170174998Y-84537000D01*
X170174980Y-84537001D01*
X170072203Y-84547500D01*
X170072200Y-84547501D01*
X169905668Y-84602685D01*
X169905663Y-84602687D01*
X169756336Y-84694793D01*
X169752853Y-84698276D01*
X169744913Y-84702610D01*
X169739492Y-84709852D01*
X169714725Y-84719089D01*
X169691526Y-84731754D01*
X169682503Y-84731107D01*
X169674028Y-84734269D01*
X169648200Y-84728650D01*
X169621835Y-84726762D01*
X169612787Y-84720946D01*
X169605755Y-84719417D01*
X169577501Y-84698266D01*
X169441819Y-84562584D01*
X169408334Y-84501261D01*
X169405500Y-84474903D01*
X169405500Y-83684313D01*
X169405499Y-83684298D01*
X169402598Y-83647432D01*
X169402597Y-83647426D01*
X169356745Y-83489606D01*
X169356744Y-83489602D01*
X169273081Y-83348135D01*
X169273079Y-83348133D01*
X169273076Y-83348129D01*
X169156870Y-83231923D01*
X169156862Y-83231917D01*
X169023024Y-83152766D01*
X169015398Y-83148256D01*
X169015397Y-83148255D01*
X169015396Y-83148255D01*
X169015393Y-83148254D01*
X168857573Y-83102402D01*
X168857567Y-83102401D01*
X168820701Y-83099500D01*
X168820694Y-83099500D01*
X168389306Y-83099500D01*
X168389298Y-83099500D01*
X168352432Y-83102401D01*
X168352426Y-83102402D01*
X168194606Y-83148254D01*
X168194603Y-83148255D01*
X168053137Y-83231917D01*
X168046969Y-83236702D01*
X168045072Y-83234256D01*
X167996358Y-83260857D01*
X167926666Y-83255873D01*
X167894296Y-83235069D01*
X167893031Y-83236702D01*
X167886862Y-83231917D01*
X167753024Y-83152766D01*
X167745398Y-83148256D01*
X167745397Y-83148255D01*
X167745396Y-83148255D01*
X167745393Y-83148254D01*
X167587573Y-83102402D01*
X167587567Y-83102401D01*
X167550701Y-83099500D01*
X167550694Y-83099500D01*
X167119306Y-83099500D01*
X167119298Y-83099500D01*
X167082432Y-83102401D01*
X167082426Y-83102402D01*
X166924606Y-83148254D01*
X166924603Y-83148255D01*
X166783137Y-83231917D01*
X166776969Y-83236702D01*
X166775072Y-83234256D01*
X166726358Y-83260857D01*
X166656666Y-83255873D01*
X166624296Y-83235069D01*
X166623031Y-83236702D01*
X166616862Y-83231917D01*
X166483024Y-83152766D01*
X166475398Y-83148256D01*
X166475397Y-83148255D01*
X166475396Y-83148255D01*
X166475393Y-83148254D01*
X166317573Y-83102402D01*
X166317567Y-83102401D01*
X166280701Y-83099500D01*
X166280694Y-83099500D01*
X165849306Y-83099500D01*
X165849298Y-83099500D01*
X165812432Y-83102401D01*
X165812426Y-83102402D01*
X165654606Y-83148254D01*
X165654603Y-83148255D01*
X165513140Y-83231915D01*
X165506974Y-83236699D01*
X165505174Y-83234379D01*
X165455913Y-83261230D01*
X165386225Y-83256193D01*
X165353992Y-83235461D01*
X165352722Y-83237100D01*
X165346552Y-83232314D01*
X165205196Y-83148717D01*
X165205193Y-83148716D01*
X165047494Y-83102900D01*
X165047497Y-83102900D01*
X165045000Y-83102703D01*
X165045000Y-86047296D01*
X165068811Y-86069307D01*
X165104677Y-86129268D01*
X165102432Y-86199102D01*
X165062789Y-86256636D01*
X164998333Y-86283603D01*
X164997242Y-86283720D01*
X164984702Y-86285001D01*
X164984700Y-86285001D01*
X164818168Y-86340185D01*
X164818163Y-86340187D01*
X164668842Y-86432289D01*
X164544788Y-86556343D01*
X164544783Y-86556349D01*
X164542741Y-86559661D01*
X164540747Y-86561453D01*
X164540307Y-86562011D01*
X164540211Y-86561935D01*
X164490791Y-86606383D01*
X164421828Y-86617602D01*
X164357747Y-86589755D01*
X164331668Y-86559656D01*
X164329819Y-86556659D01*
X164329816Y-86556655D01*
X164205845Y-86432684D01*
X164056624Y-86340643D01*
X164056619Y-86340641D01*
X163890197Y-86285494D01*
X163890190Y-86285493D01*
X163787486Y-86275000D01*
X163650000Y-86275000D01*
X163150000Y-86275000D01*
X163012527Y-86275000D01*
X163012512Y-86275001D01*
X162909802Y-86285494D01*
X162743380Y-86340641D01*
X162743375Y-86340643D01*
X162594154Y-86432684D01*
X162470184Y-86556654D01*
X162378143Y-86705875D01*
X162378141Y-86705880D01*
X162322994Y-86872302D01*
X162322993Y-86872309D01*
X162312500Y-86975013D01*
X152400500Y-86975013D01*
X152400500Y-85465649D01*
X163995000Y-85465649D01*
X163997899Y-85502489D01*
X163997900Y-85502495D01*
X164043716Y-85660193D01*
X164043717Y-85660196D01*
X164127314Y-85801552D01*
X164127321Y-85801561D01*
X164243438Y-85917678D01*
X164243447Y-85917685D01*
X164384801Y-86001281D01*
X164542514Y-86047100D01*
X164542511Y-86047100D01*
X164544998Y-86047295D01*
X164545000Y-86047295D01*
X164545000Y-84825000D01*
X163995000Y-84825000D01*
X163995000Y-85465649D01*
X152400500Y-85465649D01*
X152400500Y-83684350D01*
X163995000Y-83684350D01*
X163995000Y-84325000D01*
X164545000Y-84325000D01*
X164545000Y-83102703D01*
X164542503Y-83102900D01*
X164384806Y-83148716D01*
X164384803Y-83148717D01*
X164243447Y-83232314D01*
X164243438Y-83232321D01*
X164127321Y-83348438D01*
X164127314Y-83348447D01*
X164043717Y-83489803D01*
X164043716Y-83489806D01*
X163997900Y-83647504D01*
X163997899Y-83647510D01*
X163995000Y-83684350D01*
X152400500Y-83684350D01*
X152400500Y-81436079D01*
X152371659Y-81291092D01*
X152371658Y-81291091D01*
X152371658Y-81291087D01*
X152343137Y-81222230D01*
X152315087Y-81154511D01*
X152315080Y-81154498D01*
X152232952Y-81031585D01*
X152186851Y-80985484D01*
X152128416Y-80927049D01*
X150051867Y-78850500D01*
X147974181Y-76772813D01*
X147940696Y-76711490D01*
X147943932Y-76646811D01*
X147951090Y-76624785D01*
X147990500Y-76375962D01*
X147990500Y-76124038D01*
X147951090Y-75875215D01*
X147873241Y-75635621D01*
X147873239Y-75635618D01*
X147873239Y-75635616D01*
X147831747Y-75554184D01*
X147758870Y-75411155D01*
X147714425Y-75349982D01*
X147610798Y-75207350D01*
X147610794Y-75207345D01*
X147432654Y-75029205D01*
X147432649Y-75029201D01*
X147228848Y-74881131D01*
X147208203Y-74870612D01*
X147157408Y-74822637D01*
X147140500Y-74760128D01*
X147140500Y-68324499D01*
X147160185Y-68257460D01*
X147212989Y-68211705D01*
X147264500Y-68200499D01*
X148900002Y-68200499D01*
X148900008Y-68200499D01*
X149002797Y-68189999D01*
X149169334Y-68134814D01*
X149318656Y-68042712D01*
X149442712Y-67918656D01*
X149534814Y-67769334D01*
X149589999Y-67602797D01*
X149600500Y-67500009D01*
X149600499Y-66281995D01*
X150999500Y-66281995D01*
X150999500Y-66518004D01*
X150999501Y-66518020D01*
X151030246Y-66751557D01*
X151030307Y-66752014D01*
X151041503Y-66793797D01*
X151091394Y-66979993D01*
X151181714Y-67198045D01*
X151181719Y-67198056D01*
X151236735Y-67293345D01*
X151299727Y-67402450D01*
X151299729Y-67402453D01*
X151299730Y-67402454D01*
X151443406Y-67589697D01*
X151443412Y-67589704D01*
X151610295Y-67756587D01*
X151610302Y-67756593D01*
X151626909Y-67769336D01*
X151797550Y-67900273D01*
X151913211Y-67967050D01*
X152001943Y-68018280D01*
X152001948Y-68018282D01*
X152001951Y-68018284D01*
X152220007Y-68108606D01*
X152447986Y-68169693D01*
X152681989Y-68200500D01*
X152681996Y-68200500D01*
X152918004Y-68200500D01*
X152918011Y-68200500D01*
X153119317Y-68173997D01*
X153188349Y-68184762D01*
X153240605Y-68231142D01*
X153259500Y-68296936D01*
X153259500Y-74525500D01*
X153239815Y-74592539D01*
X153187011Y-74638294D01*
X153135500Y-74649500D01*
X153109982Y-74649500D01*
X153007203Y-74660000D01*
X153007202Y-74660001D01*
X152924669Y-74687349D01*
X152840667Y-74715185D01*
X152840662Y-74715187D01*
X152691342Y-74807289D01*
X152567289Y-74931342D01*
X152475187Y-75080662D01*
X152475186Y-75080665D01*
X152420001Y-75247202D01*
X152420001Y-75247203D01*
X152420000Y-75247203D01*
X152409500Y-75349982D01*
X152409500Y-77150017D01*
X152420000Y-77252796D01*
X152458066Y-77367671D01*
X152475186Y-77419335D01*
X152567288Y-77568656D01*
X152691344Y-77692712D01*
X152840665Y-77784814D01*
X153007202Y-77839999D01*
X153109990Y-77850500D01*
X154497770Y-77850500D01*
X154564809Y-77870185D01*
X154585451Y-77886819D01*
X156906586Y-80207954D01*
X156931028Y-80224284D01*
X156967695Y-80248784D01*
X157029505Y-80290084D01*
X157029506Y-80290084D01*
X157029507Y-80290085D01*
X157095454Y-80317401D01*
X157166087Y-80346658D01*
X157166091Y-80346658D01*
X157166092Y-80346659D01*
X157311079Y-80375500D01*
X157311082Y-80375500D01*
X157311083Y-80375500D01*
X157458918Y-80375500D01*
X163870500Y-80375500D01*
X163937539Y-80395185D01*
X163983294Y-80447989D01*
X163994500Y-80499500D01*
X163994500Y-80515701D01*
X163997401Y-80552567D01*
X163997402Y-80552573D01*
X164043254Y-80710393D01*
X164043255Y-80710396D01*
X164125392Y-80849284D01*
X164126918Y-80851864D01*
X164126923Y-80851870D01*
X164243129Y-80968076D01*
X164243133Y-80968079D01*
X164243135Y-80968081D01*
X164384602Y-81051744D01*
X164426224Y-81063836D01*
X164542426Y-81097597D01*
X164542429Y-81097597D01*
X164542431Y-81097598D01*
X164579306Y-81100500D01*
X164579314Y-81100500D01*
X165010686Y-81100500D01*
X165010694Y-81100500D01*
X165047569Y-81097598D01*
X165047571Y-81097597D01*
X165047573Y-81097597D01*
X165101298Y-81081988D01*
X165205398Y-81051744D01*
X165346865Y-80968081D01*
X165346870Y-80968075D01*
X165353031Y-80963298D01*
X165354933Y-80965750D01*
X165403579Y-80939155D01*
X165473274Y-80944104D01*
X165505695Y-80964940D01*
X165506969Y-80963298D01*
X165513132Y-80968078D01*
X165513135Y-80968081D01*
X165654602Y-81051744D01*
X165696224Y-81063836D01*
X165812426Y-81097597D01*
X165812429Y-81097597D01*
X165812431Y-81097598D01*
X165849306Y-81100500D01*
X165849314Y-81100500D01*
X166280686Y-81100500D01*
X166280694Y-81100500D01*
X166317569Y-81097598D01*
X166317571Y-81097597D01*
X166317573Y-81097597D01*
X166371298Y-81081988D01*
X166475398Y-81051744D01*
X166616865Y-80968081D01*
X166616870Y-80968075D01*
X166623031Y-80963298D01*
X166624933Y-80965750D01*
X166673579Y-80939155D01*
X166743274Y-80944104D01*
X166775695Y-80964940D01*
X166776969Y-80963298D01*
X166783132Y-80968078D01*
X166783135Y-80968081D01*
X166924602Y-81051744D01*
X166966224Y-81063836D01*
X167082426Y-81097597D01*
X167082429Y-81097597D01*
X167082431Y-81097598D01*
X167119306Y-81100500D01*
X167119314Y-81100500D01*
X167550686Y-81100500D01*
X167550694Y-81100500D01*
X167587569Y-81097598D01*
X167587571Y-81097597D01*
X167587573Y-81097597D01*
X167641298Y-81081988D01*
X167745398Y-81051744D01*
X167886865Y-80968081D01*
X167886870Y-80968075D01*
X167893031Y-80963298D01*
X167894933Y-80965750D01*
X167943579Y-80939155D01*
X168013274Y-80944104D01*
X168045695Y-80964940D01*
X168046969Y-80963298D01*
X168053132Y-80968078D01*
X168053135Y-80968081D01*
X168194602Y-81051744D01*
X168236224Y-81063836D01*
X168352426Y-81097597D01*
X168352429Y-81097597D01*
X168352431Y-81097598D01*
X168389306Y-81100500D01*
X168389314Y-81100500D01*
X168820686Y-81100500D01*
X168820694Y-81100500D01*
X168857569Y-81097598D01*
X168857571Y-81097597D01*
X168857573Y-81097597D01*
X168911298Y-81081988D01*
X169015398Y-81051744D01*
X169156865Y-80968081D01*
X169273081Y-80851865D01*
X169356744Y-80710398D01*
X169402598Y-80552569D01*
X169405500Y-80515694D01*
X169405500Y-78734306D01*
X169402598Y-78697431D01*
X169395148Y-78671789D01*
X169356745Y-78539606D01*
X169356744Y-78539603D01*
X169356744Y-78539602D01*
X169273081Y-78398135D01*
X169273079Y-78398133D01*
X169273076Y-78398129D01*
X169156870Y-78281923D01*
X169156862Y-78281917D01*
X169078681Y-78235681D01*
X169015398Y-78198256D01*
X169015397Y-78198255D01*
X169015396Y-78198255D01*
X169015393Y-78198254D01*
X168857573Y-78152402D01*
X168857567Y-78152401D01*
X168820701Y-78149500D01*
X168820694Y-78149500D01*
X168389306Y-78149500D01*
X168389298Y-78149500D01*
X168352432Y-78152401D01*
X168352426Y-78152402D01*
X168244095Y-78183876D01*
X168174225Y-78183677D01*
X168115555Y-78145735D01*
X168086712Y-78082096D01*
X168085500Y-78064800D01*
X168085500Y-70861081D01*
X168079763Y-70832242D01*
X168079763Y-70832240D01*
X168056660Y-70716095D01*
X168056659Y-70716088D01*
X168002408Y-70585117D01*
X168000764Y-70580522D01*
X167917954Y-70456588D01*
X167917953Y-70456587D01*
X167917951Y-70456584D01*
X167813416Y-70352049D01*
X166322234Y-68860867D01*
X164773549Y-67312181D01*
X164740064Y-67250858D01*
X164745048Y-67181166D01*
X164786920Y-67125233D01*
X164852384Y-67100816D01*
X164861230Y-67100500D01*
X165881442Y-67100500D01*
X165948481Y-67120185D01*
X165986979Y-67159401D01*
X166069788Y-67293656D01*
X166193844Y-67417712D01*
X166343166Y-67509814D01*
X166509703Y-67564999D01*
X166612491Y-67575500D01*
X167387508Y-67575499D01*
X167387516Y-67575498D01*
X167387519Y-67575498D01*
X167443802Y-67569748D01*
X167490297Y-67564999D01*
X167656834Y-67509814D01*
X167806156Y-67417712D01*
X167930212Y-67293656D01*
X167932252Y-67290347D01*
X167934245Y-67288555D01*
X167934693Y-67287989D01*
X167934789Y-67288065D01*
X167984194Y-67243623D01*
X168053156Y-67232395D01*
X168117240Y-67260234D01*
X168143329Y-67290339D01*
X168145181Y-67293341D01*
X168145183Y-67293344D01*
X168269154Y-67417315D01*
X168418375Y-67509356D01*
X168418380Y-67509358D01*
X168584802Y-67564505D01*
X168584809Y-67564506D01*
X168687519Y-67574999D01*
X168824999Y-67574999D01*
X169325000Y-67574999D01*
X169462472Y-67574999D01*
X169462486Y-67574998D01*
X169565197Y-67564505D01*
X169731619Y-67509358D01*
X169731624Y-67509356D01*
X169880845Y-67417315D01*
X170004815Y-67293345D01*
X170096856Y-67144124D01*
X170096858Y-67144119D01*
X170152005Y-66977697D01*
X170152006Y-66977690D01*
X170162499Y-66874986D01*
X170162500Y-66874973D01*
X170162500Y-66600000D01*
X169325000Y-66600000D01*
X169325000Y-67574999D01*
X168824999Y-67574999D01*
X168825000Y-67574998D01*
X168825000Y-66100000D01*
X169325000Y-66100000D01*
X170162499Y-66100000D01*
X170162499Y-65825028D01*
X170162498Y-65825013D01*
X170152005Y-65722302D01*
X170096858Y-65555880D01*
X170096856Y-65555875D01*
X170004815Y-65406654D01*
X169880845Y-65282684D01*
X169731624Y-65190643D01*
X169731619Y-65190641D01*
X169565197Y-65135494D01*
X169565190Y-65135493D01*
X169462486Y-65125000D01*
X169325000Y-65125000D01*
X169325000Y-66100000D01*
X168825000Y-66100000D01*
X168825000Y-65125000D01*
X168687527Y-65125000D01*
X168687512Y-65125001D01*
X168584802Y-65135494D01*
X168418380Y-65190641D01*
X168418375Y-65190643D01*
X168269154Y-65282684D01*
X168145183Y-65406655D01*
X168145179Y-65406660D01*
X168143326Y-65409665D01*
X168141518Y-65411290D01*
X168140702Y-65412323D01*
X168140525Y-65412183D01*
X168091374Y-65456385D01*
X168022411Y-65467601D01*
X167958331Y-65439752D01*
X167932253Y-65409653D01*
X167932237Y-65409628D01*
X167930212Y-65406344D01*
X167806156Y-65282288D01*
X167713388Y-65225069D01*
X167656836Y-65190187D01*
X167656831Y-65190185D01*
X167655362Y-65189698D01*
X167490297Y-65135001D01*
X167490295Y-65135000D01*
X167387510Y-65124500D01*
X166612498Y-65124500D01*
X166612480Y-65124501D01*
X166509703Y-65135000D01*
X166509700Y-65135001D01*
X166343168Y-65190185D01*
X166343163Y-65190187D01*
X166193842Y-65282289D01*
X166069789Y-65406342D01*
X165986981Y-65540597D01*
X165935033Y-65587321D01*
X165881442Y-65599500D01*
X164488460Y-65599500D01*
X164421421Y-65579815D01*
X164381073Y-65537500D01*
X164308721Y-65412183D01*
X164300273Y-65397550D01*
X164225414Y-65299992D01*
X164156593Y-65210302D01*
X164156587Y-65210295D01*
X163989704Y-65043412D01*
X163989697Y-65043406D01*
X163802454Y-64899730D01*
X163802453Y-64899729D01*
X163802450Y-64899727D01*
X163709389Y-64845998D01*
X163598056Y-64781719D01*
X163598045Y-64781714D01*
X163379993Y-64691394D01*
X163152010Y-64630306D01*
X162918020Y-64599501D01*
X162918017Y-64599500D01*
X162918011Y-64599500D01*
X162681989Y-64599500D01*
X162681983Y-64599500D01*
X162681979Y-64599501D01*
X162447989Y-64630306D01*
X162220006Y-64691394D01*
X162001954Y-64781714D01*
X162001943Y-64781719D01*
X161797545Y-64899730D01*
X161610302Y-65043406D01*
X161610295Y-65043412D01*
X161443412Y-65210295D01*
X161443406Y-65210302D01*
X161299730Y-65397545D01*
X161181719Y-65601943D01*
X161181714Y-65601954D01*
X161091394Y-65820006D01*
X161030306Y-66047989D01*
X160999501Y-66281979D01*
X160999500Y-66281995D01*
X160999500Y-66518004D01*
X160999501Y-66518020D01*
X161030246Y-66751557D01*
X161030307Y-66752014D01*
X161041503Y-66793797D01*
X161091394Y-66979993D01*
X161181714Y-67198045D01*
X161181719Y-67198056D01*
X161236735Y-67293345D01*
X161299727Y-67402450D01*
X161299729Y-67402453D01*
X161299730Y-67402454D01*
X161443406Y-67589697D01*
X161443412Y-67589704D01*
X161610295Y-67756587D01*
X161610302Y-67756593D01*
X161626909Y-67769336D01*
X161797550Y-67900273D01*
X161913211Y-67967050D01*
X162001943Y-68018280D01*
X162001948Y-68018282D01*
X162001951Y-68018284D01*
X162220007Y-68108606D01*
X162447986Y-68169693D01*
X162681989Y-68200500D01*
X162681996Y-68200500D01*
X162918004Y-68200500D01*
X162918011Y-68200500D01*
X163152014Y-68169693D01*
X163363877Y-68112924D01*
X163433725Y-68114587D01*
X163483650Y-68145018D01*
X166548181Y-71209548D01*
X166581666Y-71270871D01*
X166584500Y-71297229D01*
X166584500Y-78064800D01*
X166564815Y-78131839D01*
X166512011Y-78177594D01*
X166442853Y-78187538D01*
X166425905Y-78183876D01*
X166317573Y-78152402D01*
X166317567Y-78152401D01*
X166280701Y-78149500D01*
X166280694Y-78149500D01*
X165849306Y-78149500D01*
X165849298Y-78149500D01*
X165812432Y-78152401D01*
X165812426Y-78152402D01*
X165654606Y-78198254D01*
X165654603Y-78198255D01*
X165513137Y-78281917D01*
X165506969Y-78286702D01*
X165505072Y-78284256D01*
X165456358Y-78310857D01*
X165386666Y-78305873D01*
X165354296Y-78285069D01*
X165353031Y-78286702D01*
X165346862Y-78281917D01*
X165268681Y-78235681D01*
X165205398Y-78198256D01*
X165205397Y-78198255D01*
X165205396Y-78198255D01*
X165205393Y-78198254D01*
X165047573Y-78152402D01*
X165047567Y-78152401D01*
X165010701Y-78149500D01*
X165010694Y-78149500D01*
X164579306Y-78149500D01*
X164579298Y-78149500D01*
X164542432Y-78152401D01*
X164542426Y-78152402D01*
X164384606Y-78198254D01*
X164384603Y-78198255D01*
X164243137Y-78281917D01*
X164243129Y-78281923D01*
X164126923Y-78398129D01*
X164126917Y-78398137D01*
X164043255Y-78539603D01*
X164043254Y-78539606D01*
X163997402Y-78697426D01*
X163997401Y-78697432D01*
X163994500Y-78734298D01*
X163994500Y-78750500D01*
X163974815Y-78817539D01*
X163922011Y-78863294D01*
X163870500Y-78874500D01*
X160356941Y-78874500D01*
X160289902Y-78854815D01*
X160244147Y-78802011D01*
X160234203Y-78732853D01*
X160263228Y-78669297D01*
X160269260Y-78662819D01*
X160371786Y-78560292D01*
X160371789Y-78560289D01*
X160385611Y-78539603D01*
X160459394Y-78429179D01*
X160463255Y-78419856D01*
X160469191Y-78405527D01*
X160486212Y-78376414D01*
X160490805Y-78370561D01*
X160532952Y-78328416D01*
X160582186Y-78254729D01*
X160615084Y-78205495D01*
X160640330Y-78144544D01*
X160652954Y-78114070D01*
X160671657Y-78068916D01*
X160671659Y-78068912D01*
X160700500Y-77923917D01*
X160700500Y-77776082D01*
X160700500Y-76553957D01*
X160720185Y-76486918D01*
X160739847Y-76463349D01*
X160748880Y-76454909D01*
X160768656Y-76442712D01*
X160864178Y-76347189D01*
X160865700Y-76345768D01*
X160895092Y-76330991D01*
X160923994Y-76315210D01*
X160926173Y-76315365D01*
X160928125Y-76314385D01*
X160960848Y-76317845D01*
X160993686Y-76320194D01*
X160995780Y-76321539D01*
X160997607Y-76321733D01*
X161003724Y-76326645D01*
X161038034Y-76348695D01*
X161131654Y-76442315D01*
X161280875Y-76534356D01*
X161280880Y-76534358D01*
X161447302Y-76589505D01*
X161447309Y-76589506D01*
X161550019Y-76599999D01*
X161699999Y-76599999D01*
X162200000Y-76599999D01*
X162349972Y-76599999D01*
X162349986Y-76599998D01*
X162452697Y-76589505D01*
X162619119Y-76534358D01*
X162619124Y-76534356D01*
X162768345Y-76442315D01*
X162892315Y-76318345D01*
X162984356Y-76169124D01*
X162984358Y-76169119D01*
X163039505Y-76002697D01*
X163039506Y-76002690D01*
X163049999Y-75899986D01*
X163050000Y-75899973D01*
X163050000Y-75650000D01*
X162200000Y-75650000D01*
X162200000Y-76599999D01*
X161699999Y-76599999D01*
X161700000Y-76599998D01*
X161700000Y-75150000D01*
X162200000Y-75150000D01*
X163049999Y-75150000D01*
X163049999Y-74900028D01*
X163049998Y-74900013D01*
X163039505Y-74797302D01*
X162984358Y-74630880D01*
X162984356Y-74630875D01*
X162892315Y-74481654D01*
X162768345Y-74357684D01*
X162619124Y-74265643D01*
X162619119Y-74265641D01*
X162452697Y-74210494D01*
X162452690Y-74210493D01*
X162349986Y-74200000D01*
X162200000Y-74200000D01*
X162200000Y-75150000D01*
X161700000Y-75150000D01*
X161700000Y-74200000D01*
X161550027Y-74200000D01*
X161550012Y-74200001D01*
X161447302Y-74210494D01*
X161280880Y-74265641D01*
X161280875Y-74265643D01*
X161131657Y-74357682D01*
X161038034Y-74451305D01*
X161031952Y-74454625D01*
X161027992Y-74460309D01*
X161001684Y-74471152D01*
X160976710Y-74484789D01*
X160969799Y-74484294D01*
X160963394Y-74486935D01*
X160935401Y-74481834D01*
X160907019Y-74479805D01*
X160899826Y-74475352D01*
X160894656Y-74474411D01*
X160872843Y-74458652D01*
X160865700Y-74454231D01*
X160864163Y-74452795D01*
X160768656Y-74357288D01*
X160748882Y-74345091D01*
X160739847Y-74336650D01*
X160728108Y-74316788D01*
X160712678Y-74299632D01*
X160709372Y-74285084D01*
X160704299Y-74276500D01*
X160704740Y-74264703D01*
X160700500Y-74246042D01*
X160700500Y-68476079D01*
X160671659Y-68331092D01*
X160671658Y-68331091D01*
X160671658Y-68331087D01*
X160630260Y-68231142D01*
X160615087Y-68194511D01*
X160615080Y-68194498D01*
X160532952Y-68071585D01*
X160504077Y-68042710D01*
X160428416Y-67967049D01*
X159997446Y-67536079D01*
X159545018Y-67083650D01*
X159511533Y-67022327D01*
X159512923Y-66963878D01*
X159569693Y-66752014D01*
X159600500Y-66518011D01*
X159600500Y-66281989D01*
X159569693Y-66047986D01*
X159508606Y-65820007D01*
X159418284Y-65601951D01*
X159418282Y-65601948D01*
X159418280Y-65601943D01*
X159376118Y-65528918D01*
X159300273Y-65397550D01*
X159211830Y-65282289D01*
X159156593Y-65210302D01*
X159156587Y-65210295D01*
X158989704Y-65043412D01*
X158989697Y-65043406D01*
X158802454Y-64899730D01*
X158802453Y-64899729D01*
X158802450Y-64899727D01*
X158709389Y-64845998D01*
X158598056Y-64781719D01*
X158598045Y-64781714D01*
X158379993Y-64691394D01*
X158152010Y-64630306D01*
X157918020Y-64599501D01*
X157918017Y-64599500D01*
X157918011Y-64599500D01*
X157681989Y-64599500D01*
X157681983Y-64599500D01*
X157681979Y-64599501D01*
X157447989Y-64630306D01*
X157220006Y-64691394D01*
X157001954Y-64781714D01*
X157001943Y-64781719D01*
X156797545Y-64899730D01*
X156610302Y-65043406D01*
X156610295Y-65043412D01*
X156443412Y-65210295D01*
X156443406Y-65210302D01*
X156299730Y-65397545D01*
X156181719Y-65601943D01*
X156181714Y-65601954D01*
X156091394Y-65820006D01*
X156030306Y-66047989D01*
X155999501Y-66281979D01*
X155999500Y-66281995D01*
X155999500Y-66518004D01*
X155999501Y-66518020D01*
X156030246Y-66751557D01*
X156030307Y-66752014D01*
X156041503Y-66793797D01*
X156091394Y-66979993D01*
X156181714Y-67198045D01*
X156181719Y-67198056D01*
X156236735Y-67293345D01*
X156299727Y-67402450D01*
X156299729Y-67402453D01*
X156299730Y-67402454D01*
X156443406Y-67589697D01*
X156443412Y-67589704D01*
X156610295Y-67756587D01*
X156610302Y-67756593D01*
X156626909Y-67769336D01*
X156797550Y-67900273D01*
X156913211Y-67967050D01*
X157001943Y-68018280D01*
X157001948Y-68018282D01*
X157001951Y-68018284D01*
X157220007Y-68108606D01*
X157447986Y-68169693D01*
X157681989Y-68200500D01*
X157681996Y-68200500D01*
X157918004Y-68200500D01*
X157918011Y-68200500D01*
X158152014Y-68169693D01*
X158363877Y-68112924D01*
X158433725Y-68114587D01*
X158483650Y-68145018D01*
X159163181Y-68824548D01*
X159196666Y-68885871D01*
X159199500Y-68912229D01*
X159199500Y-74246042D01*
X159179815Y-74313081D01*
X159140598Y-74351580D01*
X159131344Y-74357287D01*
X159007289Y-74481342D01*
X158915187Y-74630663D01*
X158915185Y-74630668D01*
X158905465Y-74660001D01*
X158860001Y-74797203D01*
X158860001Y-74797204D01*
X158860000Y-74797204D01*
X158849500Y-74899983D01*
X158849500Y-75900001D01*
X158849501Y-75900019D01*
X158860000Y-76002796D01*
X158860001Y-76002799D01*
X158900176Y-76124038D01*
X158915186Y-76169334D01*
X159007288Y-76318656D01*
X159131344Y-76442712D01*
X159140591Y-76448416D01*
X159187318Y-76500360D01*
X159199500Y-76553957D01*
X159199500Y-77417059D01*
X159179815Y-77484098D01*
X159163181Y-77504740D01*
X159128213Y-77539707D01*
X159128210Y-77539711D01*
X159040609Y-77670814D01*
X159040602Y-77670827D01*
X158980264Y-77816498D01*
X158980261Y-77816510D01*
X158949500Y-77971153D01*
X158949500Y-78128846D01*
X158980261Y-78283489D01*
X158980264Y-78283501D01*
X159040602Y-78429172D01*
X159040609Y-78429185D01*
X159128210Y-78560288D01*
X159128213Y-78560292D01*
X159230740Y-78662819D01*
X159264225Y-78724142D01*
X159259241Y-78793834D01*
X159217369Y-78849767D01*
X159151905Y-78874184D01*
X159143059Y-78874500D01*
X157747230Y-78874500D01*
X157680191Y-78854815D01*
X157659549Y-78838181D01*
X155646819Y-76825451D01*
X155613334Y-76764128D01*
X155610500Y-76737770D01*
X155610500Y-75349995D01*
X155610499Y-75349982D01*
X155599999Y-75247203D01*
X155586793Y-75207350D01*
X155544814Y-75080665D01*
X155452712Y-74931344D01*
X155328656Y-74807288D01*
X155179335Y-74715186D01*
X155012798Y-74660001D01*
X155012796Y-74660000D01*
X154910017Y-74649500D01*
X154910010Y-74649500D01*
X154884500Y-74649500D01*
X154817461Y-74629815D01*
X154771706Y-74577011D01*
X154760500Y-74525500D01*
X154760500Y-67536079D01*
X154731659Y-67391092D01*
X154731658Y-67391091D01*
X154731658Y-67391087D01*
X154691302Y-67293659D01*
X154675087Y-67254511D01*
X154675080Y-67254498D01*
X154592951Y-67131584D01*
X154592948Y-67131580D01*
X154545018Y-67083650D01*
X154511533Y-67022327D01*
X154512923Y-66963878D01*
X154569693Y-66752014D01*
X154600500Y-66518011D01*
X154600500Y-66281989D01*
X154569693Y-66047986D01*
X154508606Y-65820007D01*
X154418284Y-65601951D01*
X154418282Y-65601948D01*
X154418280Y-65601943D01*
X154376118Y-65528918D01*
X154300273Y-65397550D01*
X154211830Y-65282289D01*
X154156593Y-65210302D01*
X154156587Y-65210295D01*
X153989704Y-65043412D01*
X153989697Y-65043406D01*
X153802454Y-64899730D01*
X153802453Y-64899729D01*
X153802450Y-64899727D01*
X153709389Y-64845998D01*
X153598056Y-64781719D01*
X153598045Y-64781714D01*
X153379993Y-64691394D01*
X153152010Y-64630306D01*
X152918020Y-64599501D01*
X152918017Y-64599500D01*
X152918011Y-64599500D01*
X152681989Y-64599500D01*
X152681983Y-64599500D01*
X152681979Y-64599501D01*
X152447989Y-64630306D01*
X152220006Y-64691394D01*
X152001954Y-64781714D01*
X152001943Y-64781719D01*
X151797545Y-64899730D01*
X151610302Y-65043406D01*
X151610295Y-65043412D01*
X151443412Y-65210295D01*
X151443406Y-65210302D01*
X151299730Y-65397545D01*
X151181719Y-65601943D01*
X151181714Y-65601954D01*
X151091394Y-65820006D01*
X151030306Y-66047989D01*
X150999501Y-66281979D01*
X150999500Y-66281995D01*
X149600499Y-66281995D01*
X149600499Y-65299992D01*
X149589999Y-65197203D01*
X149534814Y-65030666D01*
X149442712Y-64881344D01*
X149318656Y-64757288D01*
X149169334Y-64665186D01*
X149002797Y-64610001D01*
X149002795Y-64610000D01*
X148900010Y-64599500D01*
X146699998Y-64599500D01*
X146699981Y-64599501D01*
X146597203Y-64610000D01*
X146597200Y-64610001D01*
X146430668Y-64665185D01*
X146430663Y-64665187D01*
X146281342Y-64757289D01*
X146157289Y-64881342D01*
X146065187Y-65030663D01*
X146065185Y-65030668D01*
X146060962Y-65043412D01*
X146010001Y-65197203D01*
X146010001Y-65197204D01*
X146010000Y-65197204D01*
X145999500Y-65299983D01*
X145999500Y-67087769D01*
X145979815Y-67154808D01*
X145963185Y-67175445D01*
X145895009Y-67243623D01*
X145807047Y-67331585D01*
X145767289Y-67391086D01*
X145767290Y-67391087D01*
X145724914Y-67454508D01*
X145668343Y-67591082D01*
X145668340Y-67591092D01*
X145639500Y-67736079D01*
X145639500Y-74760128D01*
X145619815Y-74827167D01*
X145571797Y-74870612D01*
X145551151Y-74881131D01*
X145347350Y-75029201D01*
X145347345Y-75029205D01*
X145169205Y-75207345D01*
X145169201Y-75207350D01*
X145021132Y-75411151D01*
X144906760Y-75635616D01*
X144828910Y-75875214D01*
X144789500Y-76124038D01*
X144789500Y-76375962D01*
X144807074Y-76486918D01*
X144828910Y-76624785D01*
X144906760Y-76864383D01*
X145021132Y-77088848D01*
X145169201Y-77292649D01*
X145169205Y-77292654D01*
X145347345Y-77470794D01*
X145347350Y-77470798D01*
X145525117Y-77599952D01*
X145551155Y-77618870D01*
X145694184Y-77691747D01*
X145775616Y-77733239D01*
X145775618Y-77733239D01*
X145775621Y-77733241D01*
X146015215Y-77811090D01*
X146264038Y-77850500D01*
X146264039Y-77850500D01*
X146515961Y-77850500D01*
X146515962Y-77850500D01*
X146764785Y-77811090D01*
X146786811Y-77803932D01*
X146856650Y-77801934D01*
X146912813Y-77834181D01*
X150863181Y-81784548D01*
X150896666Y-81845871D01*
X150899500Y-81872229D01*
X150899500Y-87413000D01*
X150896949Y-87421685D01*
X150898238Y-87430647D01*
X150887259Y-87454687D01*
X150879815Y-87480039D01*
X150872974Y-87485966D01*
X150869213Y-87494203D01*
X150846978Y-87508492D01*
X150827011Y-87525794D01*
X150816496Y-87528081D01*
X150810435Y-87531977D01*
X150775500Y-87537000D01*
X150574730Y-87537000D01*
X150507691Y-87517315D01*
X150487049Y-87500681D01*
X149936819Y-86950451D01*
X149903334Y-86889128D01*
X149900500Y-86862770D01*
X149900500Y-85904604D01*
X149909939Y-85857151D01*
X149919737Y-85833497D01*
X149950500Y-85678842D01*
X149950500Y-85521158D01*
X149950500Y-85521155D01*
X149950499Y-85521153D01*
X149938298Y-85459815D01*
X149919737Y-85366503D01*
X149919735Y-85366498D01*
X149859397Y-85220827D01*
X149859390Y-85220814D01*
X149771789Y-85089711D01*
X149771786Y-85089707D01*
X149660292Y-84978213D01*
X149660288Y-84978210D01*
X149529185Y-84890609D01*
X149529172Y-84890602D01*
X149383501Y-84830264D01*
X149383489Y-84830261D01*
X149228845Y-84799500D01*
X149228842Y-84799500D01*
X149071158Y-84799500D01*
X149071155Y-84799500D01*
X148916510Y-84830261D01*
X148916498Y-84830264D01*
X148770827Y-84890602D01*
X148770814Y-84890609D01*
X148639711Y-84978210D01*
X148639707Y-84978213D01*
X148528213Y-85089707D01*
X148528210Y-85089711D01*
X148440609Y-85220814D01*
X148440602Y-85220827D01*
X148380264Y-85366498D01*
X148380261Y-85366510D01*
X148349500Y-85521153D01*
X148349500Y-85678846D01*
X148380261Y-85833489D01*
X148380263Y-85833497D01*
X148390061Y-85857151D01*
X148399500Y-85904604D01*
X148399500Y-87298918D01*
X148399500Y-87298920D01*
X148399499Y-87298920D01*
X148428340Y-87443907D01*
X148428343Y-87443917D01*
X148484912Y-87580488D01*
X148484918Y-87580499D01*
X148495797Y-87596779D01*
X148495799Y-87596784D01*
X148567046Y-87703414D01*
X148567052Y-87703421D01*
X149863181Y-88999549D01*
X149877884Y-89026476D01*
X149894477Y-89052295D01*
X149895368Y-89058495D01*
X149896666Y-89060872D01*
X149899500Y-89087230D01*
X149899500Y-89288000D01*
X149879815Y-89355039D01*
X149827011Y-89400794D01*
X149775500Y-89412000D01*
X149534298Y-89412000D01*
X149497432Y-89414901D01*
X149497426Y-89414902D01*
X149339606Y-89460754D01*
X149339603Y-89460755D01*
X149198137Y-89544417D01*
X149198129Y-89544423D01*
X149081923Y-89660629D01*
X149081917Y-89660637D01*
X148998255Y-89802103D01*
X148998254Y-89802106D01*
X148952354Y-89960095D01*
X148914748Y-90018981D01*
X148851275Y-90048187D01*
X148833278Y-90049500D01*
X148430301Y-90049500D01*
X148363262Y-90029815D01*
X148317507Y-89977011D01*
X148312595Y-89964504D01*
X148311078Y-89959926D01*
X148284814Y-89880666D01*
X148192712Y-89731344D01*
X148068656Y-89607288D01*
X147919334Y-89515186D01*
X147752797Y-89460001D01*
X147752795Y-89460000D01*
X147650010Y-89449500D01*
X146849998Y-89449500D01*
X146849980Y-89449501D01*
X146747203Y-89460000D01*
X146747200Y-89460001D01*
X146580668Y-89515185D01*
X146580663Y-89515187D01*
X146431342Y-89607289D01*
X146337681Y-89700951D01*
X146276358Y-89734436D01*
X146206666Y-89729452D01*
X146162319Y-89700951D01*
X146068657Y-89607289D01*
X146068656Y-89607288D01*
X145919334Y-89515186D01*
X145752797Y-89460001D01*
X145752795Y-89460000D01*
X145650010Y-89449500D01*
X144849998Y-89449500D01*
X144849980Y-89449501D01*
X144747203Y-89460000D01*
X144747200Y-89460001D01*
X144580668Y-89515185D01*
X144580663Y-89515187D01*
X144431342Y-89607289D01*
X144307289Y-89731342D01*
X144215187Y-89880663D01*
X144215185Y-89880668D01*
X144201770Y-89921153D01*
X144160001Y-90047203D01*
X144160001Y-90047204D01*
X144160000Y-90047204D01*
X144149500Y-90149983D01*
X144149500Y-91150001D01*
X144149501Y-91150019D01*
X144160000Y-91252796D01*
X144160001Y-91252799D01*
X144215185Y-91419331D01*
X144215187Y-91419336D01*
X144307289Y-91568657D01*
X144329798Y-91591166D01*
X144363283Y-91652489D01*
X144358299Y-91722181D01*
X144316427Y-91778114D01*
X144266309Y-91800464D01*
X144116508Y-91830261D01*
X144116498Y-91830264D01*
X143970827Y-91890602D01*
X143970814Y-91890609D01*
X143839711Y-91978210D01*
X143839707Y-91978213D01*
X143728213Y-92089707D01*
X143728210Y-92089711D01*
X143640609Y-92220814D01*
X143640602Y-92220827D01*
X143580264Y-92366498D01*
X143580261Y-92366510D01*
X143549500Y-92521153D01*
X142680500Y-92521153D01*
X142680500Y-63085575D01*
X142700185Y-63018536D01*
X142748205Y-62975090D01*
X142772816Y-62962551D01*
X142884893Y-62881123D01*
X142944786Y-62837609D01*
X142944788Y-62837606D01*
X142944792Y-62837604D01*
X143095104Y-62687292D01*
X143095106Y-62687288D01*
X143095109Y-62687286D01*
X143220048Y-62515320D01*
X143220047Y-62515320D01*
X143220051Y-62515316D01*
X143316557Y-62325912D01*
X143382246Y-62123743D01*
X143415500Y-61913787D01*
X143415500Y-61701213D01*
X143382246Y-61491257D01*
X143316557Y-61289088D01*
X143220051Y-61099684D01*
X143220049Y-61099681D01*
X143220048Y-61099679D01*
X143095109Y-60927713D01*
X142944786Y-60777390D01*
X142772820Y-60652451D01*
X142583414Y-60555944D01*
X142583413Y-60555943D01*
X142583412Y-60555943D01*
X142503354Y-60529930D01*
X142445679Y-60490493D01*
X142418481Y-60426135D01*
X142430396Y-60357288D01*
X142477640Y-60305813D01*
X142541673Y-60288000D01*
X180434108Y-60288000D01*
X180497294Y-60288000D01*
X180502702Y-60288117D01*
G37*
%TD.AperFunction*%
%TA.AperFunction,Conductor*%
G36*
X77844755Y-82384353D02*
G01*
X77911898Y-82500647D01*
X78006853Y-82595602D01*
X78123147Y-82662745D01*
X78182425Y-82678628D01*
X77619134Y-83241917D01*
X77656994Y-83269424D01*
X77808722Y-83346734D01*
X77859518Y-83394709D01*
X77876313Y-83462530D01*
X77853776Y-83528665D01*
X77808723Y-83567703D01*
X77656735Y-83645145D01*
X77543997Y-83727055D01*
X77495582Y-83762231D01*
X77495580Y-83762233D01*
X77495579Y-83762233D01*
X77354732Y-83903080D01*
X77324818Y-83944254D01*
X77269487Y-83986919D01*
X77199874Y-83992898D01*
X77138079Y-83960292D01*
X77103722Y-83899453D01*
X77100500Y-83871368D01*
X77100500Y-83009514D01*
X77120185Y-82942475D01*
X77172989Y-82896720D01*
X77234230Y-82885896D01*
X77265581Y-82888363D01*
X77828871Y-82325074D01*
X77844755Y-82384353D01*
G37*
%TD.AperFunction*%
%TA.AperFunction,Conductor*%
G36*
X77298810Y-80845921D02*
G01*
X77312669Y-80856296D01*
X77312670Y-80856296D01*
X77312671Y-80856297D01*
X77447517Y-80906591D01*
X77447516Y-80906591D01*
X77454444Y-80907335D01*
X77507127Y-80913000D01*
X77540417Y-80912999D01*
X77607454Y-80932682D01*
X77653210Y-80985484D01*
X77663155Y-81054643D01*
X77634132Y-81118199D01*
X77619230Y-81131876D01*
X77619135Y-81133081D01*
X78182425Y-81696371D01*
X78123147Y-81712255D01*
X78006853Y-81779398D01*
X77911898Y-81874353D01*
X77844755Y-81990647D01*
X77828871Y-82049925D01*
X77265581Y-81486635D01*
X77234230Y-81489103D01*
X77165852Y-81474739D01*
X77116095Y-81425688D01*
X77100500Y-81365485D01*
X77100500Y-80945188D01*
X77120185Y-80878149D01*
X77172989Y-80832394D01*
X77242147Y-80822450D01*
X77298810Y-80845921D01*
G37*
%TD.AperFunction*%
%TA.AperFunction,Conductor*%
G36*
X101016981Y-60307685D02*
G01*
X101062736Y-60360489D01*
X101072680Y-60429647D01*
X101043655Y-60493203D01*
X100988260Y-60529931D01*
X100906782Y-60556404D01*
X100717439Y-60652880D01*
X100663282Y-60692227D01*
X100663282Y-60692228D01*
X101295591Y-61324537D01*
X101232007Y-61341575D01*
X101117993Y-61407401D01*
X101024901Y-61500493D01*
X100959075Y-61614507D01*
X100942037Y-61678091D01*
X100272642Y-61008696D01*
X100239157Y-60947373D01*
X100240077Y-60932666D01*
X100237501Y-60932944D01*
X100228596Y-60850119D01*
X100178354Y-60715413D01*
X100178350Y-60715406D01*
X100092190Y-60600312D01*
X99973241Y-60511266D01*
X99931371Y-60455332D01*
X99926387Y-60385641D01*
X99959873Y-60324318D01*
X100021196Y-60290834D01*
X100047553Y-60288000D01*
X100949942Y-60288000D01*
X101016981Y-60307685D01*
G37*
%TD.AperFunction*%
%TA.AperFunction,Conductor*%
G36*
X108636981Y-60307685D02*
G01*
X108682736Y-60360489D01*
X108692680Y-60429647D01*
X108663655Y-60493203D01*
X108608260Y-60529931D01*
X108526782Y-60556404D01*
X108337439Y-60652880D01*
X108283282Y-60692227D01*
X108283282Y-60692228D01*
X108915591Y-61324537D01*
X108852007Y-61341575D01*
X108737993Y-61407401D01*
X108644901Y-61500493D01*
X108579075Y-61614507D01*
X108562037Y-61678091D01*
X107929728Y-61045782D01*
X107929727Y-61045782D01*
X107890380Y-61099940D01*
X107890376Y-61099946D01*
X107885760Y-61109005D01*
X107837781Y-61159797D01*
X107769959Y-61176587D01*
X107703826Y-61154043D01*
X107664794Y-61108993D01*
X107660051Y-61099684D01*
X107660049Y-61099681D01*
X107660048Y-61099679D01*
X107535109Y-60927713D01*
X107384786Y-60777390D01*
X107212820Y-60652451D01*
X107023414Y-60555944D01*
X107023413Y-60555943D01*
X107023412Y-60555943D01*
X106943354Y-60529930D01*
X106885679Y-60490493D01*
X106858481Y-60426135D01*
X106870396Y-60357288D01*
X106917640Y-60305813D01*
X106981673Y-60288000D01*
X108569942Y-60288000D01*
X108636981Y-60307685D01*
G37*
%TD.AperFunction*%
%TA.AperFunction,Conductor*%
G36*
X113665381Y-60292533D02*
G01*
X113681465Y-60292074D01*
X113698215Y-60302174D01*
X113716981Y-60307685D01*
X113727516Y-60319843D01*
X113741298Y-60328154D01*
X113749929Y-60345709D01*
X113762736Y-60360489D01*
X113765025Y-60376413D01*
X113772126Y-60390855D01*
X113769896Y-60410286D01*
X113772680Y-60429647D01*
X113765995Y-60444284D01*
X113764161Y-60460270D01*
X113751780Y-60475411D01*
X113743655Y-60493203D01*
X113729626Y-60502504D01*
X113719933Y-60514359D01*
X113688260Y-60529931D01*
X113606782Y-60556404D01*
X113417439Y-60652880D01*
X113363282Y-60692227D01*
X113363282Y-60692228D01*
X113995591Y-61324537D01*
X113932007Y-61341575D01*
X113817993Y-61407401D01*
X113724901Y-61500493D01*
X113659075Y-61614507D01*
X113642037Y-61678091D01*
X113009728Y-61045782D01*
X113009727Y-61045782D01*
X112970380Y-61099940D01*
X112970376Y-61099946D01*
X112965760Y-61109005D01*
X112917781Y-61159797D01*
X112849959Y-61176587D01*
X112783826Y-61154043D01*
X112744794Y-61108993D01*
X112740051Y-61099684D01*
X112740049Y-61099681D01*
X112740048Y-61099679D01*
X112615109Y-60927713D01*
X112464786Y-60777390D01*
X112292820Y-60652451D01*
X112103414Y-60555944D01*
X112103413Y-60555943D01*
X112103412Y-60555943D01*
X112023354Y-60529930D01*
X111965679Y-60490493D01*
X111938481Y-60426135D01*
X111950396Y-60357288D01*
X111997640Y-60305813D01*
X112061673Y-60288000D01*
X113649942Y-60288000D01*
X113665381Y-60292533D01*
G37*
%TD.AperFunction*%
%TA.AperFunction,Conductor*%
G36*
X118796981Y-60307685D02*
G01*
X118842736Y-60360489D01*
X118852680Y-60429647D01*
X118823655Y-60493203D01*
X118768260Y-60529931D01*
X118686782Y-60556404D01*
X118497439Y-60652880D01*
X118443282Y-60692227D01*
X118443282Y-60692228D01*
X119075591Y-61324537D01*
X119012007Y-61341575D01*
X118897993Y-61407401D01*
X118804901Y-61500493D01*
X118739075Y-61614507D01*
X118722037Y-61678091D01*
X118089728Y-61045782D01*
X118089727Y-61045782D01*
X118050380Y-61099940D01*
X118050376Y-61099946D01*
X118045760Y-61109005D01*
X117997781Y-61159797D01*
X117929959Y-61176587D01*
X117863826Y-61154043D01*
X117824794Y-61108993D01*
X117820051Y-61099684D01*
X117820049Y-61099681D01*
X117820048Y-61099679D01*
X117695109Y-60927713D01*
X117544786Y-60777390D01*
X117372820Y-60652451D01*
X117183414Y-60555944D01*
X117183413Y-60555943D01*
X117183412Y-60555943D01*
X117103354Y-60529930D01*
X117045679Y-60490493D01*
X117018481Y-60426135D01*
X117030396Y-60357288D01*
X117077640Y-60305813D01*
X117141673Y-60288000D01*
X118729942Y-60288000D01*
X118796981Y-60307685D01*
G37*
%TD.AperFunction*%
%TA.AperFunction,Conductor*%
G36*
X123825381Y-60292533D02*
G01*
X123841465Y-60292074D01*
X123858215Y-60302174D01*
X123876981Y-60307685D01*
X123887516Y-60319843D01*
X123901298Y-60328154D01*
X123909929Y-60345709D01*
X123922736Y-60360489D01*
X123925025Y-60376413D01*
X123932126Y-60390855D01*
X123929896Y-60410286D01*
X123932680Y-60429647D01*
X123925995Y-60444284D01*
X123924161Y-60460270D01*
X123911780Y-60475411D01*
X123903655Y-60493203D01*
X123889626Y-60502504D01*
X123879933Y-60514359D01*
X123848260Y-60529931D01*
X123766782Y-60556404D01*
X123577439Y-60652880D01*
X123523282Y-60692227D01*
X123523282Y-60692228D01*
X124155591Y-61324537D01*
X124092007Y-61341575D01*
X123977993Y-61407401D01*
X123884901Y-61500493D01*
X123819075Y-61614507D01*
X123802037Y-61678091D01*
X123169728Y-61045782D01*
X123169727Y-61045782D01*
X123130380Y-61099940D01*
X123130376Y-61099946D01*
X123125760Y-61109005D01*
X123077781Y-61159797D01*
X123009959Y-61176587D01*
X122943826Y-61154043D01*
X122904794Y-61108993D01*
X122900051Y-61099684D01*
X122900049Y-61099681D01*
X122900048Y-61099679D01*
X122775109Y-60927713D01*
X122624786Y-60777390D01*
X122452820Y-60652451D01*
X122263414Y-60555944D01*
X122263413Y-60555943D01*
X122263412Y-60555943D01*
X122183354Y-60529930D01*
X122125679Y-60490493D01*
X122098481Y-60426135D01*
X122110396Y-60357288D01*
X122157640Y-60305813D01*
X122221673Y-60288000D01*
X123809942Y-60288000D01*
X123825381Y-60292533D01*
G37*
%TD.AperFunction*%
%TA.AperFunction,Conductor*%
G36*
X128956981Y-60307685D02*
G01*
X129002736Y-60360489D01*
X129012680Y-60429647D01*
X128983655Y-60493203D01*
X128928260Y-60529931D01*
X128846782Y-60556404D01*
X128657439Y-60652880D01*
X128603282Y-60692227D01*
X128603282Y-60692228D01*
X129235591Y-61324537D01*
X129172007Y-61341575D01*
X129057993Y-61407401D01*
X128964901Y-61500493D01*
X128899075Y-61614507D01*
X128882037Y-61678091D01*
X128249728Y-61045782D01*
X128249727Y-61045782D01*
X128210380Y-61099940D01*
X128210376Y-61099946D01*
X128205760Y-61109005D01*
X128157781Y-61159797D01*
X128089959Y-61176587D01*
X128023826Y-61154043D01*
X127984794Y-61108993D01*
X127980051Y-61099684D01*
X127980049Y-61099681D01*
X127980048Y-61099679D01*
X127855109Y-60927713D01*
X127704786Y-60777390D01*
X127532820Y-60652451D01*
X127343414Y-60555944D01*
X127343413Y-60555943D01*
X127343412Y-60555943D01*
X127263354Y-60529930D01*
X127205679Y-60490493D01*
X127178481Y-60426135D01*
X127190396Y-60357288D01*
X127237640Y-60305813D01*
X127301673Y-60288000D01*
X128889942Y-60288000D01*
X128956981Y-60307685D01*
G37*
%TD.AperFunction*%
%TA.AperFunction,Conductor*%
G36*
X103555366Y-60307685D02*
G01*
X103601121Y-60360489D01*
X103611065Y-60429647D01*
X103582040Y-60493203D01*
X103526645Y-60529930D01*
X103446588Y-60555943D01*
X103446585Y-60555944D01*
X103257179Y-60652451D01*
X103085213Y-60777390D01*
X102934890Y-60927713D01*
X102809949Y-61099682D01*
X102805202Y-61108999D01*
X102757227Y-61159793D01*
X102689405Y-61176587D01*
X102623271Y-61154048D01*
X102584234Y-61108995D01*
X102579626Y-61099952D01*
X102540270Y-61045782D01*
X101907962Y-61678090D01*
X101890925Y-61614507D01*
X101825099Y-61500493D01*
X101732007Y-61407401D01*
X101617993Y-61341575D01*
X101554409Y-61324537D01*
X102186716Y-60692228D01*
X102132550Y-60652875D01*
X101943217Y-60556404D01*
X101861740Y-60529931D01*
X101804065Y-60490494D01*
X101776866Y-60426135D01*
X101788781Y-60357289D01*
X101836025Y-60305813D01*
X101900058Y-60288000D01*
X103488327Y-60288000D01*
X103555366Y-60307685D01*
G37*
%TD.AperFunction*%
%TA.AperFunction,Conductor*%
G36*
X111175366Y-60307685D02*
G01*
X111221121Y-60360489D01*
X111231065Y-60429647D01*
X111202040Y-60493203D01*
X111146645Y-60529930D01*
X111066588Y-60555943D01*
X111066585Y-60555944D01*
X110877179Y-60652451D01*
X110705213Y-60777390D01*
X110554890Y-60927713D01*
X110429949Y-61099682D01*
X110425202Y-61108999D01*
X110377227Y-61159793D01*
X110309405Y-61176587D01*
X110243271Y-61154048D01*
X110204234Y-61108995D01*
X110199626Y-61099952D01*
X110160270Y-61045782D01*
X110160269Y-61045782D01*
X109527962Y-61678090D01*
X109510925Y-61614507D01*
X109445099Y-61500493D01*
X109352007Y-61407401D01*
X109237993Y-61341575D01*
X109174409Y-61324537D01*
X109806716Y-60692228D01*
X109752550Y-60652875D01*
X109563217Y-60556404D01*
X109481740Y-60529931D01*
X109424065Y-60490494D01*
X109396866Y-60426135D01*
X109408781Y-60357289D01*
X109456025Y-60305813D01*
X109520058Y-60288000D01*
X111108327Y-60288000D01*
X111175366Y-60307685D01*
G37*
%TD.AperFunction*%
%TA.AperFunction,Conductor*%
G36*
X116255366Y-60307685D02*
G01*
X116301121Y-60360489D01*
X116311065Y-60429647D01*
X116282040Y-60493203D01*
X116226645Y-60529930D01*
X116146588Y-60555943D01*
X116146585Y-60555944D01*
X115957179Y-60652451D01*
X115785213Y-60777390D01*
X115634890Y-60927713D01*
X115509949Y-61099682D01*
X115505202Y-61108999D01*
X115457227Y-61159793D01*
X115389405Y-61176587D01*
X115323271Y-61154048D01*
X115284234Y-61108995D01*
X115279626Y-61099952D01*
X115240270Y-61045782D01*
X115240269Y-61045782D01*
X114607962Y-61678090D01*
X114590925Y-61614507D01*
X114525099Y-61500493D01*
X114432007Y-61407401D01*
X114317993Y-61341575D01*
X114254409Y-61324537D01*
X114886716Y-60692228D01*
X114832550Y-60652875D01*
X114643217Y-60556404D01*
X114561740Y-60529931D01*
X114504065Y-60490494D01*
X114476866Y-60426135D01*
X114488781Y-60357289D01*
X114536025Y-60305813D01*
X114600058Y-60288000D01*
X116188327Y-60288000D01*
X116255366Y-60307685D01*
G37*
%TD.AperFunction*%
%TA.AperFunction,Conductor*%
G36*
X121335366Y-60307685D02*
G01*
X121381121Y-60360489D01*
X121391065Y-60429647D01*
X121362040Y-60493203D01*
X121306645Y-60529930D01*
X121226588Y-60555943D01*
X121226585Y-60555944D01*
X121037179Y-60652451D01*
X120865213Y-60777390D01*
X120714890Y-60927713D01*
X120589949Y-61099682D01*
X120585202Y-61108999D01*
X120537227Y-61159793D01*
X120469405Y-61176587D01*
X120403271Y-61154048D01*
X120364234Y-61108995D01*
X120359626Y-61099952D01*
X120320270Y-61045782D01*
X120320269Y-61045782D01*
X119687962Y-61678090D01*
X119670925Y-61614507D01*
X119605099Y-61500493D01*
X119512007Y-61407401D01*
X119397993Y-61341575D01*
X119334409Y-61324537D01*
X119966716Y-60692228D01*
X119912550Y-60652875D01*
X119723217Y-60556404D01*
X119641740Y-60529931D01*
X119584065Y-60490494D01*
X119556866Y-60426135D01*
X119568781Y-60357289D01*
X119616025Y-60305813D01*
X119680058Y-60288000D01*
X121268327Y-60288000D01*
X121335366Y-60307685D01*
G37*
%TD.AperFunction*%
%TA.AperFunction,Conductor*%
G36*
X126415366Y-60307685D02*
G01*
X126461121Y-60360489D01*
X126471065Y-60429647D01*
X126442040Y-60493203D01*
X126386645Y-60529930D01*
X126306588Y-60555943D01*
X126306585Y-60555944D01*
X126117179Y-60652451D01*
X125945213Y-60777390D01*
X125794890Y-60927713D01*
X125669949Y-61099682D01*
X125665202Y-61108999D01*
X125617227Y-61159793D01*
X125549405Y-61176587D01*
X125483271Y-61154048D01*
X125444234Y-61108995D01*
X125439626Y-61099952D01*
X125400270Y-61045782D01*
X124767962Y-61678090D01*
X124750925Y-61614507D01*
X124685099Y-61500493D01*
X124592007Y-61407401D01*
X124477993Y-61341575D01*
X124414409Y-61324537D01*
X125046716Y-60692228D01*
X124992550Y-60652875D01*
X124803217Y-60556404D01*
X124721740Y-60529931D01*
X124664065Y-60490494D01*
X124636866Y-60426135D01*
X124648781Y-60357289D01*
X124696025Y-60305813D01*
X124760058Y-60288000D01*
X126348327Y-60288000D01*
X126415366Y-60307685D01*
G37*
%TD.AperFunction*%
%TA.AperFunction,Conductor*%
G36*
X131495366Y-60307685D02*
G01*
X131541121Y-60360489D01*
X131551065Y-60429647D01*
X131522040Y-60493203D01*
X131466645Y-60529930D01*
X131386588Y-60555943D01*
X131386585Y-60555944D01*
X131197179Y-60652451D01*
X131025213Y-60777390D01*
X130874890Y-60927713D01*
X130749949Y-61099682D01*
X130745202Y-61108999D01*
X130697227Y-61159793D01*
X130629405Y-61176587D01*
X130563271Y-61154048D01*
X130524234Y-61108995D01*
X130519626Y-61099952D01*
X130480270Y-61045782D01*
X129847962Y-61678090D01*
X129830925Y-61614507D01*
X129765099Y-61500493D01*
X129672007Y-61407401D01*
X129557993Y-61341575D01*
X129494409Y-61324537D01*
X130126716Y-60692228D01*
X130072550Y-60652875D01*
X129883217Y-60556404D01*
X129801740Y-60529931D01*
X129744065Y-60490494D01*
X129716866Y-60426135D01*
X129728781Y-60357289D01*
X129776025Y-60305813D01*
X129840058Y-60288000D01*
X131428327Y-60288000D01*
X131495366Y-60307685D01*
G37*
%TD.AperFunction*%
%TD*%
M02*
