M48
; DRILL file {KiCad 9.0.7} date 2026-02-26T22:16:53-0500
; FORMAT={-:-/ absolute / metric / decimal}
; #@! TF.CreationDate,2026-02-26T22:16:53-05:00
; #@! TF.GenerationSoftware,Kicad,Pcbnew,9.0.7
; #@! TF.FileFunction,Plated,1,2,PTH
FMAT,2
METRIC
; #@! TA.AperFunction,Plated,PTH,ViaDrill
T1C0.300
; #@! TA.AperFunction,Plated,PTH,ComponentDrill
T2C1.000
; #@! TA.AperFunction,Plated,PTH,ComponentDrill
T3C1.020
; #@! TA.AperFunction,Plated,PTH,ComponentDrill
T4C1.100
; #@! TA.AperFunction,Plated,PTH,ComponentDrill
T5C1.300
%
G90
G05
T1
X60.25Y-102.8
X60.75Y-99.95
X63.0Y-123.0
X64.5Y-122.5
X65.5Y-121.9
X66.5Y-121.0
X67.5Y-120.0
X73.85Y-100.1
X82.25Y-99.95
X83.0Y-90.0
X83.1Y-85.7
X86.5Y-95.0
X86.5Y-97.5
X106.5Y-125.0
X111.6Y-95.0
X116.68Y-97.5
X121.76Y-90.0
X126.84Y-85.5
X131.905Y-120.0
X134.445Y-121.0
X136.985Y-121.9
X139.525Y-122.5
X142.08Y-123.5
X144.35Y-92.6
X149.15Y-85.6
X159.75Y-78.05
X167.2Y-87.5
T2
X62.11Y-65.5
X64.65Y-65.5
X67.19Y-65.5
X69.73Y-65.5
X72.27Y-65.5
X74.81Y-65.5
X77.35Y-65.5
X79.89Y-65.5
X98.885Y-61.807
X101.425Y-61.807
X103.965Y-61.807
X106.505Y-61.807
X109.045Y-61.807
X111.585Y-61.807
X114.125Y-61.807
X116.665Y-61.807
X119.205Y-61.807
X121.745Y-61.807
X124.285Y-61.807
X126.825Y-61.807
X129.365Y-61.807
X131.905Y-61.807
X134.445Y-61.807
X136.985Y-61.807
X139.525Y-61.807
X142.065Y-61.807
X181.0Y-78.46
X181.0Y-81.0
X181.0Y-83.54
X181.0Y-86.08
X181.0Y-97.92
X181.0Y-100.46
X181.0Y-103.0
X181.0Y-105.54
X181.0Y-117.38
X181.0Y-119.92
X181.0Y-122.46
X181.0Y-125.0
T3
X63.08Y-79.647
X63.08Y-82.188
X63.08Y-84.727
X63.08Y-87.267
X63.08Y-89.807
X63.08Y-92.347
X63.08Y-94.887
X63.08Y-97.427
X63.08Y-99.968
X63.08Y-102.507
X63.08Y-105.047
X63.08Y-107.587
X63.08Y-110.127
X63.08Y-112.667
X63.08Y-115.207
X78.32Y-79.647
X78.32Y-82.188
X78.32Y-84.727
X78.32Y-87.267
X78.32Y-89.807
X78.32Y-92.347
X78.32Y-94.887
X78.32Y-97.427
X78.32Y-99.968
X78.32Y-102.507
X78.32Y-105.047
X78.32Y-107.587
X78.32Y-110.127
X78.32Y-112.667
X78.32Y-115.207
T4
X146.39Y-76.25
X154.01Y-76.25
T5
X147.8Y-66.4
X152.8Y-66.4
X157.8Y-66.4
X162.8Y-66.4
M30
