%TF.GenerationSoftware,KiCad,Pcbnew,9.0.7*%
%TF.CreationDate,2026-02-26T22:16:59-05:00*%
%TF.ProjectId,EE4737_Actutation_Slice,45453437-3337-45f4-9163-747574617469,rev?*%
%TF.SameCoordinates,Original*%
%TF.FileFunction,Soldermask,Top*%
%TF.FilePolarity,Negative*%
%FSLAX46Y46*%
G04 Gerber Fmt 4.6, Leading zero omitted, Abs format (unit mm)*
G04 Created by KiCad (PCBNEW 9.0.7) date 2026-02-26 22:16:59*
%MOMM*%
%LPD*%
G01*
G04 APERTURE LIST*
G04 Aperture macros list*
%AMRoundRect*
0 Rectangle with rounded corners*
0 $1 Rounding radius*
0 $2 $3 $4 $5 $6 $7 $8 $9 X,Y pos of 4 corners*
0 Add a 4 corners polygon primitive as box body*
4,1,4,$2,$3,$4,$5,$6,$7,$8,$9,$2,$3,0*
0 Add four circle primitives for the rounded corners*
1,1,$1+$1,$2,$3*
1,1,$1+$1,$4,$5*
1,1,$1+$1,$6,$7*
1,1,$1+$1,$8,$9*
0 Add four rect primitives between the rounded corners*
20,1,$1+$1,$2,$3,$4,$5,0*
20,1,$1+$1,$4,$5,$6,$7,0*
20,1,$1+$1,$6,$7,$8,$9,0*
20,1,$1+$1,$8,$9,$2,$3,0*%
G04 Aperture macros list end*
%ADD10C,0.100000*%
%ADD11RoundRect,0.190500X0.444500X-3.809500X0.444500X3.809500X-0.444500X3.809500X-0.444500X-3.809500X0*%
%ADD12C,1.700000*%
%ADD13R,1.700000X1.700000*%
%ADD14R,1.530000X1.530000*%
%ADD15C,1.530000*%
%ADD16C,2.600000*%
%ADD17RoundRect,0.250000X-1.050000X-1.050000X1.050000X-1.050000X1.050000X1.050000X-1.050000X1.050000X0*%
%ADD18RoundRect,0.150000X-0.150000X0.825000X-0.150000X-0.825000X0.150000X-0.825000X0.150000X0.825000X0*%
%ADD19RoundRect,0.250000X-0.350000X-0.450000X0.350000X-0.450000X0.350000X0.450000X-0.350000X0.450000X0*%
%ADD20RoundRect,0.250000X-0.450000X0.350000X-0.450000X-0.350000X0.450000X-0.350000X0.450000X0.350000X0*%
%ADD21RoundRect,0.150000X0.150000X-0.587500X0.150000X0.587500X-0.150000X0.587500X-0.150000X-0.587500X0*%
%ADD22RoundRect,0.249999X0.850001X0.850001X-0.850001X0.850001X-0.850001X-0.850001X0.850001X-0.850001X0*%
%ADD23C,2.200000*%
%ADD24RoundRect,0.250000X-0.337500X-0.475000X0.337500X-0.475000X0.337500X0.475000X-0.337500X0.475000X0*%
%ADD25RoundRect,0.250000X-0.475000X0.337500X-0.475000X-0.337500X0.475000X-0.337500X0.475000X0.337500X0*%
%ADD26RoundRect,0.250000X0.337500X0.475000X-0.337500X0.475000X-0.337500X-0.475000X0.337500X-0.475000X0*%
G04 APERTURE END LIST*
D10*
%TO.C,J1*%
X144600000Y-142987500D02*
X96400000Y-142987500D01*
X96400000Y-135187500D01*
X144600000Y-135187500D01*
X144600000Y-142987500D01*
G36*
X144600000Y-142987500D02*
G01*
X96400000Y-142987500D01*
X96400000Y-135187500D01*
X144600000Y-135187500D01*
X144600000Y-142987500D01*
G37*
%TD*%
D11*
%TO.C,J1*%
X142080000Y-139087500D03*
D12*
X142065000Y-61807500D03*
D11*
X139540000Y-139087500D03*
D12*
X139525000Y-61807500D03*
D11*
X137000000Y-139087500D03*
D12*
X136985000Y-61807500D03*
D11*
X134460000Y-139087500D03*
D12*
X134445000Y-61807500D03*
D11*
X131920000Y-139087500D03*
D12*
X131905000Y-61807500D03*
D11*
X129380000Y-139087500D03*
D12*
X129365000Y-61807500D03*
D11*
X126840000Y-139087500D03*
D12*
X126825000Y-61807500D03*
D11*
X124300000Y-139087500D03*
D12*
X124285000Y-61807500D03*
D11*
X121760000Y-139087500D03*
D12*
X121745000Y-61807500D03*
D11*
X119220000Y-139087500D03*
D12*
X119205000Y-61807500D03*
D11*
X116680000Y-139087500D03*
D12*
X116665000Y-61807500D03*
D11*
X114140000Y-139087500D03*
D12*
X114125000Y-61807500D03*
D11*
X111600000Y-139087500D03*
D12*
X111585000Y-61807500D03*
D11*
X109060000Y-139087500D03*
D12*
X109045000Y-61807500D03*
D11*
X106520000Y-139087500D03*
D12*
X106505000Y-61807500D03*
D11*
X103980000Y-139087500D03*
D12*
X103965000Y-61807500D03*
D11*
X101440000Y-139087500D03*
D12*
X101425000Y-61807500D03*
D11*
X98900000Y-139087500D03*
D13*
X98885000Y-61807500D03*
%TD*%
D14*
%TO.C,A1*%
X63080000Y-79647500D03*
D15*
X63080000Y-82187500D03*
X63080000Y-84727500D03*
X63080000Y-87267500D03*
X63080000Y-89807500D03*
X63080000Y-92347500D03*
X63080000Y-94887500D03*
X63080000Y-97427500D03*
X63080000Y-99967500D03*
X63080000Y-102507500D03*
X63080000Y-105047500D03*
X63080000Y-107587500D03*
X63080000Y-110127500D03*
X63080000Y-112667500D03*
X63080000Y-115207500D03*
D14*
X78320000Y-79647500D03*
D15*
X78320000Y-82187500D03*
X78320000Y-84727500D03*
X78320000Y-87267500D03*
X78320000Y-89807500D03*
X78320000Y-92347500D03*
X78320000Y-94887500D03*
X78320000Y-97427500D03*
X78320000Y-99967500D03*
X78320000Y-102507500D03*
X78320000Y-105047500D03*
X78320000Y-107587500D03*
X78320000Y-110127500D03*
X78320000Y-112667500D03*
X78320000Y-115207500D03*
%TD*%
D16*
%TO.C,J_motor1*%
X162800000Y-66400000D03*
X157800000Y-66400000D03*
X152800000Y-66400000D03*
D17*
X147800000Y-66400000D03*
%TD*%
D18*
%TO.C,U1*%
X168605000Y-79625000D03*
X167335000Y-79625000D03*
X166065000Y-79625000D03*
X164795000Y-79625000D03*
X164795000Y-84575000D03*
X166065000Y-84575000D03*
X167335000Y-84575000D03*
X168605000Y-84575000D03*
%TD*%
D19*
%TO.C,R_MPD2*%
X159950000Y-75400000D03*
X161950000Y-75400000D03*
%TD*%
D20*
%TO.C,100K*%
X147150000Y-93850000D03*
X147150000Y-95850000D03*
%TD*%
D19*
%TO.C,33*%
X145250000Y-90650000D03*
X147250000Y-90650000D03*
%TD*%
D21*
%TO.C,Q_Motor1*%
X149750000Y-90650000D03*
X151650000Y-90650000D03*
X150700000Y-88775000D03*
%TD*%
D22*
%TO.C,D_FLYBACK1*%
X154010000Y-76250000D03*
D23*
X146390000Y-76250000D03*
%TD*%
D24*
%TO.C,C_Motor1*%
X167000000Y-66350000D03*
X169075000Y-66350000D03*
%TD*%
D25*
%TO.C,C4*%
X170700000Y-85625000D03*
X170700000Y-87700000D03*
%TD*%
D26*
%TO.C,C3*%
X165475000Y-87500000D03*
X163400000Y-87500000D03*
%TD*%
D24*
%TO.C,C1*%
X83425000Y-112500000D03*
X85500000Y-112500000D03*
%TD*%
D13*
%TO.C,J3*%
X181000000Y-97920000D03*
D12*
X181000000Y-100460000D03*
X181000000Y-103000000D03*
X181000000Y-105540000D03*
%TD*%
D13*
%TO.C,J5*%
X79890000Y-65500000D03*
D12*
X77350000Y-65500000D03*
X74810000Y-65500000D03*
X72270000Y-65500000D03*
X69730000Y-65500000D03*
X67190000Y-65500000D03*
X64650000Y-65500000D03*
X62110000Y-65500000D03*
%TD*%
D13*
%TO.C,J2*%
X181000000Y-78460000D03*
D12*
X181000000Y-81000000D03*
X181000000Y-83540000D03*
X181000000Y-86080000D03*
%TD*%
D13*
%TO.C,J4*%
X181000000Y-117380000D03*
D12*
X181000000Y-119920000D03*
X181000000Y-122460000D03*
X181000000Y-125000000D03*
%TD*%
D24*
%TO.C,C2*%
X82925000Y-87000000D03*
X85000000Y-87000000D03*
%TD*%
M02*
