%TF.GenerationSoftware,KiCad,Pcbnew,9.0.7*%
%TF.CreationDate,2026-02-26T22:16:59-05:00*%
%TF.ProjectId,EE4737_Actutation_Slice,45453437-3337-45f4-9163-747574617469,rev?*%
%TF.SameCoordinates,Original*%
%TF.FileFunction,Legend,Top*%
%TF.FilePolarity,Positive*%
%FSLAX46Y46*%
G04 Gerber Fmt 4.6, Leading zero omitted, Abs format (unit mm)*
G04 Created by KiCad (PCBNEW 9.0.7) date 2026-02-26 22:16:59*
%MOMM*%
%LPD*%
G01*
G04 APERTURE LIST*
%ADD10C,0.100000*%
%ADD11C,0.125000*%
%ADD12C,0.015000*%
%ADD13C,0.150000*%
%ADD14C,0.120000*%
%ADD15C,0.127000*%
G04 APERTURE END LIST*
D10*
X79492419Y-69651502D02*
X80492419Y-69318169D01*
X80492419Y-69318169D02*
X79492419Y-68984836D01*
X80492419Y-68651502D02*
X79492419Y-68651502D01*
X80492419Y-68175312D02*
X79492419Y-68175312D01*
X79492419Y-68175312D02*
X80492419Y-67603884D01*
X80492419Y-67603884D02*
X79492419Y-67603884D01*
X77992419Y-69937217D02*
X76992419Y-69937217D01*
X76992419Y-69937217D02*
X76992419Y-69556265D01*
X76992419Y-69556265D02*
X77040038Y-69461027D01*
X77040038Y-69461027D02*
X77087657Y-69413408D01*
X77087657Y-69413408D02*
X77182895Y-69365789D01*
X77182895Y-69365789D02*
X77325752Y-69365789D01*
X77325752Y-69365789D02*
X77420990Y-69413408D01*
X77420990Y-69413408D02*
X77468609Y-69461027D01*
X77468609Y-69461027D02*
X77516228Y-69556265D01*
X77516228Y-69556265D02*
X77516228Y-69937217D01*
X77706704Y-68984836D02*
X77706704Y-68508646D01*
X77992419Y-69080074D02*
X76992419Y-68746741D01*
X76992419Y-68746741D02*
X77992419Y-68413408D01*
X76992419Y-68175312D02*
X76992419Y-67508646D01*
X76992419Y-67508646D02*
X77992419Y-67937217D01*
X75392419Y-69937217D02*
X74392419Y-69937217D01*
X74392419Y-69937217D02*
X74392419Y-69556265D01*
X74392419Y-69556265D02*
X74440038Y-69461027D01*
X74440038Y-69461027D02*
X74487657Y-69413408D01*
X74487657Y-69413408D02*
X74582895Y-69365789D01*
X74582895Y-69365789D02*
X74725752Y-69365789D01*
X74725752Y-69365789D02*
X74820990Y-69413408D01*
X74820990Y-69413408D02*
X74868609Y-69461027D01*
X74868609Y-69461027D02*
X74916228Y-69556265D01*
X74916228Y-69556265D02*
X74916228Y-69937217D01*
X74868609Y-68603884D02*
X74868609Y-68937217D01*
X75392419Y-68937217D02*
X74392419Y-68937217D01*
X74392419Y-68937217D02*
X74392419Y-68461027D01*
X74392419Y-67889598D02*
X74392419Y-67794360D01*
X74392419Y-67794360D02*
X74440038Y-67699122D01*
X74440038Y-67699122D02*
X74487657Y-67651503D01*
X74487657Y-67651503D02*
X74582895Y-67603884D01*
X74582895Y-67603884D02*
X74773371Y-67556265D01*
X74773371Y-67556265D02*
X75011466Y-67556265D01*
X75011466Y-67556265D02*
X75201942Y-67603884D01*
X75201942Y-67603884D02*
X75297180Y-67651503D01*
X75297180Y-67651503D02*
X75344800Y-67699122D01*
X75344800Y-67699122D02*
X75392419Y-67794360D01*
X75392419Y-67794360D02*
X75392419Y-67889598D01*
X75392419Y-67889598D02*
X75344800Y-67984836D01*
X75344800Y-67984836D02*
X75297180Y-68032455D01*
X75297180Y-68032455D02*
X75201942Y-68080074D01*
X75201942Y-68080074D02*
X75011466Y-68127693D01*
X75011466Y-68127693D02*
X74773371Y-68127693D01*
X74773371Y-68127693D02*
X74582895Y-68080074D01*
X74582895Y-68080074D02*
X74487657Y-68032455D01*
X74487657Y-68032455D02*
X74440038Y-67984836D01*
X74440038Y-67984836D02*
X74392419Y-67889598D01*
X71942419Y-70984836D02*
X72942419Y-70651503D01*
X72942419Y-70651503D02*
X71942419Y-70318170D01*
X72942419Y-69984836D02*
X71942419Y-69984836D01*
X71942419Y-69984836D02*
X71942419Y-69746741D01*
X71942419Y-69746741D02*
X71990038Y-69603884D01*
X71990038Y-69603884D02*
X72085276Y-69508646D01*
X72085276Y-69508646D02*
X72180514Y-69461027D01*
X72180514Y-69461027D02*
X72370990Y-69413408D01*
X72370990Y-69413408D02*
X72513847Y-69413408D01*
X72513847Y-69413408D02*
X72704323Y-69461027D01*
X72704323Y-69461027D02*
X72799561Y-69508646D01*
X72799561Y-69508646D02*
X72894800Y-69603884D01*
X72894800Y-69603884D02*
X72942419Y-69746741D01*
X72942419Y-69746741D02*
X72942419Y-69984836D01*
X72942419Y-68984836D02*
X71942419Y-68984836D01*
X71942419Y-68984836D02*
X71942419Y-68746741D01*
X71942419Y-68746741D02*
X71990038Y-68603884D01*
X71990038Y-68603884D02*
X72085276Y-68508646D01*
X72085276Y-68508646D02*
X72180514Y-68461027D01*
X72180514Y-68461027D02*
X72370990Y-68413408D01*
X72370990Y-68413408D02*
X72513847Y-68413408D01*
X72513847Y-68413408D02*
X72704323Y-68461027D01*
X72704323Y-68461027D02*
X72799561Y-68508646D01*
X72799561Y-68508646D02*
X72894800Y-68603884D01*
X72894800Y-68603884D02*
X72942419Y-68746741D01*
X72942419Y-68746741D02*
X72942419Y-68984836D01*
X72656704Y-68032455D02*
X72656704Y-67556265D01*
X72942419Y-68127693D02*
X71942419Y-67794360D01*
X71942419Y-67794360D02*
X72942419Y-67461027D01*
X70492419Y-70080074D02*
X69492419Y-70080074D01*
X69492419Y-70080074D02*
X69492419Y-69699122D01*
X69492419Y-69699122D02*
X69540038Y-69603884D01*
X69540038Y-69603884D02*
X69587657Y-69556265D01*
X69587657Y-69556265D02*
X69682895Y-69508646D01*
X69682895Y-69508646D02*
X69825752Y-69508646D01*
X69825752Y-69508646D02*
X69920990Y-69556265D01*
X69920990Y-69556265D02*
X69968609Y-69603884D01*
X69968609Y-69603884D02*
X70016228Y-69699122D01*
X70016228Y-69699122D02*
X70016228Y-70080074D01*
X69968609Y-68746741D02*
X70016228Y-68603884D01*
X70016228Y-68603884D02*
X70063847Y-68556265D01*
X70063847Y-68556265D02*
X70159085Y-68508646D01*
X70159085Y-68508646D02*
X70301942Y-68508646D01*
X70301942Y-68508646D02*
X70397180Y-68556265D01*
X70397180Y-68556265D02*
X70444800Y-68603884D01*
X70444800Y-68603884D02*
X70492419Y-68699122D01*
X70492419Y-68699122D02*
X70492419Y-69080074D01*
X70492419Y-69080074D02*
X69492419Y-69080074D01*
X69492419Y-69080074D02*
X69492419Y-68746741D01*
X69492419Y-68746741D02*
X69540038Y-68651503D01*
X69540038Y-68651503D02*
X69587657Y-68603884D01*
X69587657Y-68603884D02*
X69682895Y-68556265D01*
X69682895Y-68556265D02*
X69778133Y-68556265D01*
X69778133Y-68556265D02*
X69873371Y-68603884D01*
X69873371Y-68603884D02*
X69920990Y-68651503D01*
X69920990Y-68651503D02*
X69968609Y-68746741D01*
X69968609Y-68746741D02*
X69968609Y-69080074D01*
X69492419Y-68175312D02*
X69492419Y-67556265D01*
X69492419Y-67556265D02*
X69873371Y-67889598D01*
X69873371Y-67889598D02*
X69873371Y-67746741D01*
X69873371Y-67746741D02*
X69920990Y-67651503D01*
X69920990Y-67651503D02*
X69968609Y-67603884D01*
X69968609Y-67603884D02*
X70063847Y-67556265D01*
X70063847Y-67556265D02*
X70301942Y-67556265D01*
X70301942Y-67556265D02*
X70397180Y-67603884D01*
X70397180Y-67603884D02*
X70444800Y-67651503D01*
X70444800Y-67651503D02*
X70492419Y-67746741D01*
X70492419Y-67746741D02*
X70492419Y-68032455D01*
X70492419Y-68032455D02*
X70444800Y-68127693D01*
X70444800Y-68127693D02*
X70397180Y-68175312D01*
X67692419Y-70889598D02*
X66692419Y-70889598D01*
X66692419Y-70889598D02*
X67692419Y-70318170D01*
X67692419Y-70318170D02*
X66692419Y-70318170D01*
X67692419Y-69270551D02*
X67216228Y-69603884D01*
X67692419Y-69841979D02*
X66692419Y-69841979D01*
X66692419Y-69841979D02*
X66692419Y-69461027D01*
X66692419Y-69461027D02*
X66740038Y-69365789D01*
X66740038Y-69365789D02*
X66787657Y-69318170D01*
X66787657Y-69318170D02*
X66882895Y-69270551D01*
X66882895Y-69270551D02*
X67025752Y-69270551D01*
X67025752Y-69270551D02*
X67120990Y-69318170D01*
X67120990Y-69318170D02*
X67168609Y-69365789D01*
X67168609Y-69365789D02*
X67216228Y-69461027D01*
X67216228Y-69461027D02*
X67216228Y-69841979D01*
X67644800Y-68889598D02*
X67692419Y-68746741D01*
X67692419Y-68746741D02*
X67692419Y-68508646D01*
X67692419Y-68508646D02*
X67644800Y-68413408D01*
X67644800Y-68413408D02*
X67597180Y-68365789D01*
X67597180Y-68365789D02*
X67501942Y-68318170D01*
X67501942Y-68318170D02*
X67406704Y-68318170D01*
X67406704Y-68318170D02*
X67311466Y-68365789D01*
X67311466Y-68365789D02*
X67263847Y-68413408D01*
X67263847Y-68413408D02*
X67216228Y-68508646D01*
X67216228Y-68508646D02*
X67168609Y-68699122D01*
X67168609Y-68699122D02*
X67120990Y-68794360D01*
X67120990Y-68794360D02*
X67073371Y-68841979D01*
X67073371Y-68841979D02*
X66978133Y-68889598D01*
X66978133Y-68889598D02*
X66882895Y-68889598D01*
X66882895Y-68889598D02*
X66787657Y-68841979D01*
X66787657Y-68841979D02*
X66740038Y-68794360D01*
X66740038Y-68794360D02*
X66692419Y-68699122D01*
X66692419Y-68699122D02*
X66692419Y-68461027D01*
X66692419Y-68461027D02*
X66740038Y-68318170D01*
X66692419Y-68032455D02*
X66692419Y-67461027D01*
X67692419Y-67746741D02*
X66692419Y-67746741D01*
X65192419Y-70889598D02*
X64192419Y-70889598D01*
X64192419Y-70889598D02*
X64192419Y-70508646D01*
X64192419Y-70508646D02*
X64240038Y-70413408D01*
X64240038Y-70413408D02*
X64287657Y-70365789D01*
X64287657Y-70365789D02*
X64382895Y-70318170D01*
X64382895Y-70318170D02*
X64525752Y-70318170D01*
X64525752Y-70318170D02*
X64620990Y-70365789D01*
X64620990Y-70365789D02*
X64668609Y-70413408D01*
X64668609Y-70413408D02*
X64716228Y-70508646D01*
X64716228Y-70508646D02*
X64716228Y-70889598D01*
X64906704Y-69937217D02*
X64906704Y-69461027D01*
X65192419Y-70032455D02*
X64192419Y-69699122D01*
X64192419Y-69699122D02*
X65192419Y-69365789D01*
X65192419Y-68508646D02*
X65192419Y-69080074D01*
X65192419Y-68794360D02*
X64192419Y-68794360D01*
X64192419Y-68794360D02*
X64335276Y-68889598D01*
X64335276Y-68889598D02*
X64430514Y-68984836D01*
X64430514Y-68984836D02*
X64478133Y-69080074D01*
X64192419Y-67889598D02*
X64192419Y-67794360D01*
X64192419Y-67794360D02*
X64240038Y-67699122D01*
X64240038Y-67699122D02*
X64287657Y-67651503D01*
X64287657Y-67651503D02*
X64382895Y-67603884D01*
X64382895Y-67603884D02*
X64573371Y-67556265D01*
X64573371Y-67556265D02*
X64811466Y-67556265D01*
X64811466Y-67556265D02*
X65001942Y-67603884D01*
X65001942Y-67603884D02*
X65097180Y-67651503D01*
X65097180Y-67651503D02*
X65144800Y-67699122D01*
X65144800Y-67699122D02*
X65192419Y-67794360D01*
X65192419Y-67794360D02*
X65192419Y-67889598D01*
X65192419Y-67889598D02*
X65144800Y-67984836D01*
X65144800Y-67984836D02*
X65097180Y-68032455D01*
X65097180Y-68032455D02*
X65001942Y-68080074D01*
X65001942Y-68080074D02*
X64811466Y-68127693D01*
X64811466Y-68127693D02*
X64573371Y-68127693D01*
X64573371Y-68127693D02*
X64382895Y-68080074D01*
X64382895Y-68080074D02*
X64287657Y-68032455D01*
X64287657Y-68032455D02*
X64240038Y-67984836D01*
X64240038Y-67984836D02*
X64192419Y-67889598D01*
X62542419Y-69937217D02*
X61542419Y-69937217D01*
X61542419Y-69937217D02*
X61542419Y-69556265D01*
X61542419Y-69556265D02*
X61590038Y-69461027D01*
X61590038Y-69461027D02*
X61637657Y-69413408D01*
X61637657Y-69413408D02*
X61732895Y-69365789D01*
X61732895Y-69365789D02*
X61875752Y-69365789D01*
X61875752Y-69365789D02*
X61970990Y-69413408D01*
X61970990Y-69413408D02*
X62018609Y-69461027D01*
X62018609Y-69461027D02*
X62066228Y-69556265D01*
X62066228Y-69556265D02*
X62066228Y-69937217D01*
X62256704Y-68984836D02*
X62256704Y-68508646D01*
X62542419Y-69080074D02*
X61542419Y-68746741D01*
X61542419Y-68746741D02*
X62542419Y-68413408D01*
X62542419Y-68032455D02*
X62542419Y-67841979D01*
X62542419Y-67841979D02*
X62494800Y-67746741D01*
X62494800Y-67746741D02*
X62447180Y-67699122D01*
X62447180Y-67699122D02*
X62304323Y-67603884D01*
X62304323Y-67603884D02*
X62113847Y-67556265D01*
X62113847Y-67556265D02*
X61732895Y-67556265D01*
X61732895Y-67556265D02*
X61637657Y-67603884D01*
X61637657Y-67603884D02*
X61590038Y-67651503D01*
X61590038Y-67651503D02*
X61542419Y-67746741D01*
X61542419Y-67746741D02*
X61542419Y-67937217D01*
X61542419Y-67937217D02*
X61590038Y-68032455D01*
X61590038Y-68032455D02*
X61637657Y-68080074D01*
X61637657Y-68080074D02*
X61732895Y-68127693D01*
X61732895Y-68127693D02*
X61970990Y-68127693D01*
X61970990Y-68127693D02*
X62066228Y-68080074D01*
X62066228Y-68080074D02*
X62113847Y-68032455D01*
X62113847Y-68032455D02*
X62161466Y-67937217D01*
X62161466Y-67937217D02*
X62161466Y-67746741D01*
X62161466Y-67746741D02*
X62113847Y-67651503D01*
X62113847Y-67651503D02*
X62066228Y-67603884D01*
X62066228Y-67603884D02*
X61970990Y-67556265D01*
X145303884Y-72822419D02*
X145303884Y-71822419D01*
X145303884Y-71822419D02*
X145637217Y-72536704D01*
X145637217Y-72536704D02*
X145970550Y-71822419D01*
X145970550Y-71822419D02*
X145970550Y-72822419D01*
X146303884Y-71822419D02*
X146875312Y-71822419D01*
X146589598Y-72822419D02*
X146589598Y-71822419D01*
X147780074Y-72822419D02*
X147446741Y-72346228D01*
X147208646Y-72822419D02*
X147208646Y-71822419D01*
X147208646Y-71822419D02*
X147589598Y-71822419D01*
X147589598Y-71822419D02*
X147684836Y-71870038D01*
X147684836Y-71870038D02*
X147732455Y-71917657D01*
X147732455Y-71917657D02*
X147780074Y-72012895D01*
X147780074Y-72012895D02*
X147780074Y-72155752D01*
X147780074Y-72155752D02*
X147732455Y-72250990D01*
X147732455Y-72250990D02*
X147684836Y-72298609D01*
X147684836Y-72298609D02*
X147589598Y-72346228D01*
X147589598Y-72346228D02*
X147208646Y-72346228D01*
X147970551Y-72917657D02*
X148732455Y-72917657D01*
X148970551Y-72441466D02*
X149732456Y-72441466D01*
X151732456Y-72822419D02*
X151732456Y-71822419D01*
X151732456Y-71822419D02*
X152065789Y-72536704D01*
X152065789Y-72536704D02*
X152399122Y-71822419D01*
X152399122Y-71822419D02*
X152399122Y-72822419D01*
X152732456Y-71822419D02*
X153303884Y-71822419D01*
X153018170Y-72822419D02*
X153018170Y-71822419D01*
X154208646Y-72822419D02*
X153875313Y-72346228D01*
X153637218Y-72822419D02*
X153637218Y-71822419D01*
X153637218Y-71822419D02*
X154018170Y-71822419D01*
X154018170Y-71822419D02*
X154113408Y-71870038D01*
X154113408Y-71870038D02*
X154161027Y-71917657D01*
X154161027Y-71917657D02*
X154208646Y-72012895D01*
X154208646Y-72012895D02*
X154208646Y-72155752D01*
X154208646Y-72155752D02*
X154161027Y-72250990D01*
X154161027Y-72250990D02*
X154113408Y-72298609D01*
X154113408Y-72298609D02*
X154018170Y-72346228D01*
X154018170Y-72346228D02*
X153637218Y-72346228D01*
X154399123Y-72917657D02*
X155161027Y-72917657D01*
X155399123Y-72441466D02*
X156161028Y-72441466D01*
X155780075Y-72822419D02*
X155780075Y-72060514D01*
X158161028Y-72822419D02*
X158161028Y-71822419D01*
X158637218Y-72822419D02*
X158637218Y-71822419D01*
X158637218Y-71822419D02*
X159208646Y-72822419D01*
X159208646Y-72822419D02*
X159208646Y-71822419D01*
X159446742Y-72917657D02*
X160208646Y-72917657D01*
X160446742Y-72441466D02*
X161208647Y-72441466D01*
X163208647Y-72822419D02*
X163208647Y-71822419D01*
X163684837Y-72822419D02*
X163684837Y-71822419D01*
X163684837Y-71822419D02*
X164256265Y-72822419D01*
X164256265Y-72822419D02*
X164256265Y-71822419D01*
X164494361Y-72917657D02*
X165256265Y-72917657D01*
X165494361Y-72441466D02*
X166256266Y-72441466D01*
X165875313Y-72822419D02*
X165875313Y-72060514D01*
D11*
X176070145Y-77791567D02*
X176070145Y-76791567D01*
X176070145Y-76791567D02*
X176451097Y-76791567D01*
X176451097Y-76791567D02*
X176546335Y-76839186D01*
X176546335Y-76839186D02*
X176593954Y-76886805D01*
X176593954Y-76886805D02*
X176641573Y-76982043D01*
X176641573Y-76982043D02*
X176641573Y-77124900D01*
X176641573Y-77124900D02*
X176593954Y-77220138D01*
X176593954Y-77220138D02*
X176546335Y-77267757D01*
X176546335Y-77267757D02*
X176451097Y-77315376D01*
X176451097Y-77315376D02*
X176070145Y-77315376D01*
X176974907Y-76791567D02*
X177213002Y-77791567D01*
X177213002Y-77791567D02*
X177403478Y-77077281D01*
X177403478Y-77077281D02*
X177593954Y-77791567D01*
X177593954Y-77791567D02*
X177832050Y-76791567D01*
X178213002Y-77791567D02*
X178213002Y-76791567D01*
X178213002Y-76791567D02*
X178546335Y-77505852D01*
X178546335Y-77505852D02*
X178879668Y-76791567D01*
X178879668Y-76791567D02*
X178879668Y-77791567D01*
X177308240Y-80011455D02*
X177974906Y-80011455D01*
X177974906Y-80011455D02*
X177308240Y-81011455D01*
X177308240Y-81011455D02*
X177974906Y-81011455D01*
X178927287Y-80916216D02*
X178879668Y-80963836D01*
X178879668Y-80963836D02*
X178736811Y-81011455D01*
X178736811Y-81011455D02*
X178641573Y-81011455D01*
X178641573Y-81011455D02*
X178498716Y-80963836D01*
X178498716Y-80963836D02*
X178403478Y-80868597D01*
X178403478Y-80868597D02*
X178355859Y-80773359D01*
X178355859Y-80773359D02*
X178308240Y-80582883D01*
X178308240Y-80582883D02*
X178308240Y-80440026D01*
X178308240Y-80440026D02*
X178355859Y-80249550D01*
X178355859Y-80249550D02*
X178403478Y-80154312D01*
X178403478Y-80154312D02*
X178498716Y-80059074D01*
X178498716Y-80059074D02*
X178641573Y-80011455D01*
X178641573Y-80011455D02*
X178736811Y-80011455D01*
X178736811Y-80011455D02*
X178879668Y-80059074D01*
X178879668Y-80059074D02*
X178927287Y-80106693D01*
X176832049Y-83278962D02*
X176736811Y-83231343D01*
X176736811Y-83231343D02*
X176593954Y-83231343D01*
X176593954Y-83231343D02*
X176451097Y-83278962D01*
X176451097Y-83278962D02*
X176355859Y-83374200D01*
X176355859Y-83374200D02*
X176308240Y-83469438D01*
X176308240Y-83469438D02*
X176260621Y-83659914D01*
X176260621Y-83659914D02*
X176260621Y-83802771D01*
X176260621Y-83802771D02*
X176308240Y-83993247D01*
X176308240Y-83993247D02*
X176355859Y-84088485D01*
X176355859Y-84088485D02*
X176451097Y-84183724D01*
X176451097Y-84183724D02*
X176593954Y-84231343D01*
X176593954Y-84231343D02*
X176689192Y-84231343D01*
X176689192Y-84231343D02*
X176832049Y-84183724D01*
X176832049Y-84183724D02*
X176879668Y-84136104D01*
X176879668Y-84136104D02*
X176879668Y-83802771D01*
X176879668Y-83802771D02*
X176689192Y-83802771D01*
X177308240Y-84231343D02*
X177308240Y-83231343D01*
X177308240Y-83231343D02*
X177879668Y-84231343D01*
X177879668Y-84231343D02*
X177879668Y-83231343D01*
X178355859Y-84231343D02*
X178355859Y-83231343D01*
X178355859Y-83231343D02*
X178593954Y-83231343D01*
X178593954Y-83231343D02*
X178736811Y-83278962D01*
X178736811Y-83278962D02*
X178832049Y-83374200D01*
X178832049Y-83374200D02*
X178879668Y-83469438D01*
X178879668Y-83469438D02*
X178927287Y-83659914D01*
X178927287Y-83659914D02*
X178927287Y-83802771D01*
X178927287Y-83802771D02*
X178879668Y-83993247D01*
X178879668Y-83993247D02*
X178832049Y-84088485D01*
X178832049Y-84088485D02*
X178736811Y-84183724D01*
X178736811Y-84183724D02*
X178593954Y-84231343D01*
X178593954Y-84231343D02*
X178355859Y-84231343D01*
X176498716Y-86451231D02*
X177117763Y-86451231D01*
X177117763Y-86451231D02*
X176784430Y-86832183D01*
X176784430Y-86832183D02*
X176927287Y-86832183D01*
X176927287Y-86832183D02*
X177022525Y-86879802D01*
X177022525Y-86879802D02*
X177070144Y-86927421D01*
X177070144Y-86927421D02*
X177117763Y-87022659D01*
X177117763Y-87022659D02*
X177117763Y-87260754D01*
X177117763Y-87260754D02*
X177070144Y-87355992D01*
X177070144Y-87355992D02*
X177022525Y-87403612D01*
X177022525Y-87403612D02*
X176927287Y-87451231D01*
X176927287Y-87451231D02*
X176641573Y-87451231D01*
X176641573Y-87451231D02*
X176546335Y-87403612D01*
X176546335Y-87403612D02*
X176498716Y-87355992D01*
X177403478Y-86451231D02*
X177736811Y-87451231D01*
X177736811Y-87451231D02*
X178070144Y-86451231D01*
X178308240Y-86451231D02*
X178927287Y-86451231D01*
X178927287Y-86451231D02*
X178593954Y-86832183D01*
X178593954Y-86832183D02*
X178736811Y-86832183D01*
X178736811Y-86832183D02*
X178832049Y-86879802D01*
X178832049Y-86879802D02*
X178879668Y-86927421D01*
X178879668Y-86927421D02*
X178927287Y-87022659D01*
X178927287Y-87022659D02*
X178927287Y-87260754D01*
X178927287Y-87260754D02*
X178879668Y-87355992D01*
X178879668Y-87355992D02*
X178832049Y-87403612D01*
X178832049Y-87403612D02*
X178736811Y-87451231D01*
X178736811Y-87451231D02*
X178451097Y-87451231D01*
X178451097Y-87451231D02*
X178355859Y-87403612D01*
X178355859Y-87403612D02*
X178308240Y-87355992D01*
X175970145Y-116541567D02*
X175970145Y-115541567D01*
X175970145Y-115541567D02*
X176351097Y-115541567D01*
X176351097Y-115541567D02*
X176446335Y-115589186D01*
X176446335Y-115589186D02*
X176493954Y-115636805D01*
X176493954Y-115636805D02*
X176541573Y-115732043D01*
X176541573Y-115732043D02*
X176541573Y-115874900D01*
X176541573Y-115874900D02*
X176493954Y-115970138D01*
X176493954Y-115970138D02*
X176446335Y-116017757D01*
X176446335Y-116017757D02*
X176351097Y-116065376D01*
X176351097Y-116065376D02*
X175970145Y-116065376D01*
X176874907Y-115541567D02*
X177113002Y-116541567D01*
X177113002Y-116541567D02*
X177303478Y-115827281D01*
X177303478Y-115827281D02*
X177493954Y-116541567D01*
X177493954Y-116541567D02*
X177732050Y-115541567D01*
X178113002Y-116541567D02*
X178113002Y-115541567D01*
X178113002Y-115541567D02*
X178446335Y-116255852D01*
X178446335Y-116255852D02*
X178779668Y-115541567D01*
X178779668Y-115541567D02*
X178779668Y-116541567D01*
X177208240Y-118761455D02*
X177874906Y-118761455D01*
X177874906Y-118761455D02*
X177208240Y-119761455D01*
X177208240Y-119761455D02*
X177874906Y-119761455D01*
X178827287Y-119666216D02*
X178779668Y-119713836D01*
X178779668Y-119713836D02*
X178636811Y-119761455D01*
X178636811Y-119761455D02*
X178541573Y-119761455D01*
X178541573Y-119761455D02*
X178398716Y-119713836D01*
X178398716Y-119713836D02*
X178303478Y-119618597D01*
X178303478Y-119618597D02*
X178255859Y-119523359D01*
X178255859Y-119523359D02*
X178208240Y-119332883D01*
X178208240Y-119332883D02*
X178208240Y-119190026D01*
X178208240Y-119190026D02*
X178255859Y-118999550D01*
X178255859Y-118999550D02*
X178303478Y-118904312D01*
X178303478Y-118904312D02*
X178398716Y-118809074D01*
X178398716Y-118809074D02*
X178541573Y-118761455D01*
X178541573Y-118761455D02*
X178636811Y-118761455D01*
X178636811Y-118761455D02*
X178779668Y-118809074D01*
X178779668Y-118809074D02*
X178827287Y-118856693D01*
X176732049Y-122028962D02*
X176636811Y-121981343D01*
X176636811Y-121981343D02*
X176493954Y-121981343D01*
X176493954Y-121981343D02*
X176351097Y-122028962D01*
X176351097Y-122028962D02*
X176255859Y-122124200D01*
X176255859Y-122124200D02*
X176208240Y-122219438D01*
X176208240Y-122219438D02*
X176160621Y-122409914D01*
X176160621Y-122409914D02*
X176160621Y-122552771D01*
X176160621Y-122552771D02*
X176208240Y-122743247D01*
X176208240Y-122743247D02*
X176255859Y-122838485D01*
X176255859Y-122838485D02*
X176351097Y-122933724D01*
X176351097Y-122933724D02*
X176493954Y-122981343D01*
X176493954Y-122981343D02*
X176589192Y-122981343D01*
X176589192Y-122981343D02*
X176732049Y-122933724D01*
X176732049Y-122933724D02*
X176779668Y-122886104D01*
X176779668Y-122886104D02*
X176779668Y-122552771D01*
X176779668Y-122552771D02*
X176589192Y-122552771D01*
X177208240Y-122981343D02*
X177208240Y-121981343D01*
X177208240Y-121981343D02*
X177779668Y-122981343D01*
X177779668Y-122981343D02*
X177779668Y-121981343D01*
X178255859Y-122981343D02*
X178255859Y-121981343D01*
X178255859Y-121981343D02*
X178493954Y-121981343D01*
X178493954Y-121981343D02*
X178636811Y-122028962D01*
X178636811Y-122028962D02*
X178732049Y-122124200D01*
X178732049Y-122124200D02*
X178779668Y-122219438D01*
X178779668Y-122219438D02*
X178827287Y-122409914D01*
X178827287Y-122409914D02*
X178827287Y-122552771D01*
X178827287Y-122552771D02*
X178779668Y-122743247D01*
X178779668Y-122743247D02*
X178732049Y-122838485D01*
X178732049Y-122838485D02*
X178636811Y-122933724D01*
X178636811Y-122933724D02*
X178493954Y-122981343D01*
X178493954Y-122981343D02*
X178255859Y-122981343D01*
X176398716Y-125201231D02*
X177017763Y-125201231D01*
X177017763Y-125201231D02*
X176684430Y-125582183D01*
X176684430Y-125582183D02*
X176827287Y-125582183D01*
X176827287Y-125582183D02*
X176922525Y-125629802D01*
X176922525Y-125629802D02*
X176970144Y-125677421D01*
X176970144Y-125677421D02*
X177017763Y-125772659D01*
X177017763Y-125772659D02*
X177017763Y-126010754D01*
X177017763Y-126010754D02*
X176970144Y-126105992D01*
X176970144Y-126105992D02*
X176922525Y-126153612D01*
X176922525Y-126153612D02*
X176827287Y-126201231D01*
X176827287Y-126201231D02*
X176541573Y-126201231D01*
X176541573Y-126201231D02*
X176446335Y-126153612D01*
X176446335Y-126153612D02*
X176398716Y-126105992D01*
X177303478Y-125201231D02*
X177636811Y-126201231D01*
X177636811Y-126201231D02*
X177970144Y-125201231D01*
X178208240Y-125201231D02*
X178827287Y-125201231D01*
X178827287Y-125201231D02*
X178493954Y-125582183D01*
X178493954Y-125582183D02*
X178636811Y-125582183D01*
X178636811Y-125582183D02*
X178732049Y-125629802D01*
X178732049Y-125629802D02*
X178779668Y-125677421D01*
X178779668Y-125677421D02*
X178827287Y-125772659D01*
X178827287Y-125772659D02*
X178827287Y-126010754D01*
X178827287Y-126010754D02*
X178779668Y-126105992D01*
X178779668Y-126105992D02*
X178732049Y-126153612D01*
X178732049Y-126153612D02*
X178636811Y-126201231D01*
X178636811Y-126201231D02*
X178351097Y-126201231D01*
X178351097Y-126201231D02*
X178255859Y-126153612D01*
X178255859Y-126153612D02*
X178208240Y-126105992D01*
X175770145Y-97441567D02*
X175770145Y-96441567D01*
X175770145Y-96441567D02*
X176151097Y-96441567D01*
X176151097Y-96441567D02*
X176246335Y-96489186D01*
X176246335Y-96489186D02*
X176293954Y-96536805D01*
X176293954Y-96536805D02*
X176341573Y-96632043D01*
X176341573Y-96632043D02*
X176341573Y-96774900D01*
X176341573Y-96774900D02*
X176293954Y-96870138D01*
X176293954Y-96870138D02*
X176246335Y-96917757D01*
X176246335Y-96917757D02*
X176151097Y-96965376D01*
X176151097Y-96965376D02*
X175770145Y-96965376D01*
X176674907Y-96441567D02*
X176913002Y-97441567D01*
X176913002Y-97441567D02*
X177103478Y-96727281D01*
X177103478Y-96727281D02*
X177293954Y-97441567D01*
X177293954Y-97441567D02*
X177532050Y-96441567D01*
X177913002Y-97441567D02*
X177913002Y-96441567D01*
X177913002Y-96441567D02*
X178246335Y-97155852D01*
X178246335Y-97155852D02*
X178579668Y-96441567D01*
X178579668Y-96441567D02*
X178579668Y-97441567D01*
X177008240Y-99661455D02*
X177674906Y-99661455D01*
X177674906Y-99661455D02*
X177008240Y-100661455D01*
X177008240Y-100661455D02*
X177674906Y-100661455D01*
X178627287Y-100566216D02*
X178579668Y-100613836D01*
X178579668Y-100613836D02*
X178436811Y-100661455D01*
X178436811Y-100661455D02*
X178341573Y-100661455D01*
X178341573Y-100661455D02*
X178198716Y-100613836D01*
X178198716Y-100613836D02*
X178103478Y-100518597D01*
X178103478Y-100518597D02*
X178055859Y-100423359D01*
X178055859Y-100423359D02*
X178008240Y-100232883D01*
X178008240Y-100232883D02*
X178008240Y-100090026D01*
X178008240Y-100090026D02*
X178055859Y-99899550D01*
X178055859Y-99899550D02*
X178103478Y-99804312D01*
X178103478Y-99804312D02*
X178198716Y-99709074D01*
X178198716Y-99709074D02*
X178341573Y-99661455D01*
X178341573Y-99661455D02*
X178436811Y-99661455D01*
X178436811Y-99661455D02*
X178579668Y-99709074D01*
X178579668Y-99709074D02*
X178627287Y-99756693D01*
X176532049Y-102928962D02*
X176436811Y-102881343D01*
X176436811Y-102881343D02*
X176293954Y-102881343D01*
X176293954Y-102881343D02*
X176151097Y-102928962D01*
X176151097Y-102928962D02*
X176055859Y-103024200D01*
X176055859Y-103024200D02*
X176008240Y-103119438D01*
X176008240Y-103119438D02*
X175960621Y-103309914D01*
X175960621Y-103309914D02*
X175960621Y-103452771D01*
X175960621Y-103452771D02*
X176008240Y-103643247D01*
X176008240Y-103643247D02*
X176055859Y-103738485D01*
X176055859Y-103738485D02*
X176151097Y-103833724D01*
X176151097Y-103833724D02*
X176293954Y-103881343D01*
X176293954Y-103881343D02*
X176389192Y-103881343D01*
X176389192Y-103881343D02*
X176532049Y-103833724D01*
X176532049Y-103833724D02*
X176579668Y-103786104D01*
X176579668Y-103786104D02*
X176579668Y-103452771D01*
X176579668Y-103452771D02*
X176389192Y-103452771D01*
X177008240Y-103881343D02*
X177008240Y-102881343D01*
X177008240Y-102881343D02*
X177579668Y-103881343D01*
X177579668Y-103881343D02*
X177579668Y-102881343D01*
X178055859Y-103881343D02*
X178055859Y-102881343D01*
X178055859Y-102881343D02*
X178293954Y-102881343D01*
X178293954Y-102881343D02*
X178436811Y-102928962D01*
X178436811Y-102928962D02*
X178532049Y-103024200D01*
X178532049Y-103024200D02*
X178579668Y-103119438D01*
X178579668Y-103119438D02*
X178627287Y-103309914D01*
X178627287Y-103309914D02*
X178627287Y-103452771D01*
X178627287Y-103452771D02*
X178579668Y-103643247D01*
X178579668Y-103643247D02*
X178532049Y-103738485D01*
X178532049Y-103738485D02*
X178436811Y-103833724D01*
X178436811Y-103833724D02*
X178293954Y-103881343D01*
X178293954Y-103881343D02*
X178055859Y-103881343D01*
X176198716Y-106101231D02*
X176817763Y-106101231D01*
X176817763Y-106101231D02*
X176484430Y-106482183D01*
X176484430Y-106482183D02*
X176627287Y-106482183D01*
X176627287Y-106482183D02*
X176722525Y-106529802D01*
X176722525Y-106529802D02*
X176770144Y-106577421D01*
X176770144Y-106577421D02*
X176817763Y-106672659D01*
X176817763Y-106672659D02*
X176817763Y-106910754D01*
X176817763Y-106910754D02*
X176770144Y-107005992D01*
X176770144Y-107005992D02*
X176722525Y-107053612D01*
X176722525Y-107053612D02*
X176627287Y-107101231D01*
X176627287Y-107101231D02*
X176341573Y-107101231D01*
X176341573Y-107101231D02*
X176246335Y-107053612D01*
X176246335Y-107053612D02*
X176198716Y-107005992D01*
X177103478Y-106101231D02*
X177436811Y-107101231D01*
X177436811Y-107101231D02*
X177770144Y-106101231D01*
X178008240Y-106101231D02*
X178627287Y-106101231D01*
X178627287Y-106101231D02*
X178293954Y-106482183D01*
X178293954Y-106482183D02*
X178436811Y-106482183D01*
X178436811Y-106482183D02*
X178532049Y-106529802D01*
X178532049Y-106529802D02*
X178579668Y-106577421D01*
X178579668Y-106577421D02*
X178627287Y-106672659D01*
X178627287Y-106672659D02*
X178627287Y-106910754D01*
X178627287Y-106910754D02*
X178579668Y-107005992D01*
X178579668Y-107005992D02*
X178532049Y-107053612D01*
X178532049Y-107053612D02*
X178436811Y-107101231D01*
X178436811Y-107101231D02*
X178151097Y-107101231D01*
X178151097Y-107101231D02*
X178055859Y-107053612D01*
X178055859Y-107053612D02*
X178008240Y-107005992D01*
D10*
X120626666Y-144014919D02*
X120626666Y-144729204D01*
X120626666Y-144729204D02*
X120579047Y-144872061D01*
X120579047Y-144872061D02*
X120483809Y-144967300D01*
X120483809Y-144967300D02*
X120340952Y-145014919D01*
X120340952Y-145014919D02*
X120245714Y-145014919D01*
X121626666Y-145014919D02*
X121055238Y-145014919D01*
X121340952Y-145014919D02*
X121340952Y-144014919D01*
X121340952Y-144014919D02*
X121245714Y-144157776D01*
X121245714Y-144157776D02*
X121150476Y-144253014D01*
X121150476Y-144253014D02*
X121055238Y-144300633D01*
X114647580Y-63696146D02*
X114647580Y-64362812D01*
X114647580Y-64362812D02*
X113647580Y-63934241D01*
X114028533Y-64743765D02*
X114028533Y-65505670D01*
X114599961Y-66505669D02*
X114647580Y-66410431D01*
X114647580Y-66410431D02*
X114647580Y-66267574D01*
X114647580Y-66267574D02*
X114599961Y-66124717D01*
X114599961Y-66124717D02*
X114504723Y-66029479D01*
X114504723Y-66029479D02*
X114409485Y-65981860D01*
X114409485Y-65981860D02*
X114219009Y-65934241D01*
X114219009Y-65934241D02*
X114076152Y-65934241D01*
X114076152Y-65934241D02*
X113885676Y-65981860D01*
X113885676Y-65981860D02*
X113790438Y-66029479D01*
X113790438Y-66029479D02*
X113695200Y-66124717D01*
X113695200Y-66124717D02*
X113647580Y-66267574D01*
X113647580Y-66267574D02*
X113647580Y-66362812D01*
X113647580Y-66362812D02*
X113695200Y-66505669D01*
X113695200Y-66505669D02*
X113742819Y-66553288D01*
X113742819Y-66553288D02*
X114076152Y-66553288D01*
X114076152Y-66553288D02*
X114076152Y-66362812D01*
X113647580Y-66981860D02*
X114647580Y-66981860D01*
X114647580Y-66981860D02*
X113647580Y-67553288D01*
X113647580Y-67553288D02*
X114647580Y-67553288D01*
X113647580Y-68029479D02*
X114647580Y-68029479D01*
X114647580Y-68029479D02*
X114647580Y-68267574D01*
X114647580Y-68267574D02*
X114599961Y-68410431D01*
X114599961Y-68410431D02*
X114504723Y-68505669D01*
X114504723Y-68505669D02*
X114409485Y-68553288D01*
X114409485Y-68553288D02*
X114219009Y-68600907D01*
X114219009Y-68600907D02*
X114076152Y-68600907D01*
X114076152Y-68600907D02*
X113885676Y-68553288D01*
X113885676Y-68553288D02*
X113790438Y-68505669D01*
X113790438Y-68505669D02*
X113695200Y-68410431D01*
X113695200Y-68410431D02*
X113647580Y-68267574D01*
X113647580Y-68267574D02*
X113647580Y-68029479D01*
X58437693Y-86547538D02*
X58342455Y-86499919D01*
X58342455Y-86499919D02*
X58199598Y-86499919D01*
X58199598Y-86499919D02*
X58056741Y-86547538D01*
X58056741Y-86547538D02*
X57961503Y-86642776D01*
X57961503Y-86642776D02*
X57913884Y-86738014D01*
X57913884Y-86738014D02*
X57866265Y-86928490D01*
X57866265Y-86928490D02*
X57866265Y-87071347D01*
X57866265Y-87071347D02*
X57913884Y-87261823D01*
X57913884Y-87261823D02*
X57961503Y-87357061D01*
X57961503Y-87357061D02*
X58056741Y-87452300D01*
X58056741Y-87452300D02*
X58199598Y-87499919D01*
X58199598Y-87499919D02*
X58294836Y-87499919D01*
X58294836Y-87499919D02*
X58437693Y-87452300D01*
X58437693Y-87452300D02*
X58485312Y-87404680D01*
X58485312Y-87404680D02*
X58485312Y-87071347D01*
X58485312Y-87071347D02*
X58294836Y-87071347D01*
X58913884Y-87499919D02*
X58913884Y-86499919D01*
X58913884Y-86499919D02*
X59485312Y-87499919D01*
X59485312Y-87499919D02*
X59485312Y-86499919D01*
X59961503Y-87499919D02*
X59961503Y-86499919D01*
X59961503Y-86499919D02*
X60199598Y-86499919D01*
X60199598Y-86499919D02*
X60342455Y-86547538D01*
X60342455Y-86547538D02*
X60437693Y-86642776D01*
X60437693Y-86642776D02*
X60485312Y-86738014D01*
X60485312Y-86738014D02*
X60532931Y-86928490D01*
X60532931Y-86928490D02*
X60532931Y-87071347D01*
X60532931Y-87071347D02*
X60485312Y-87261823D01*
X60485312Y-87261823D02*
X60437693Y-87357061D01*
X60437693Y-87357061D02*
X60342455Y-87452300D01*
X60342455Y-87452300D02*
X60199598Y-87499919D01*
X60199598Y-87499919D02*
X59961503Y-87499919D01*
X80173884Y-115419919D02*
X80173884Y-114419919D01*
X80173884Y-114419919D02*
X80411979Y-114419919D01*
X80411979Y-114419919D02*
X80554836Y-114467538D01*
X80554836Y-114467538D02*
X80650074Y-114562776D01*
X80650074Y-114562776D02*
X80697693Y-114658014D01*
X80697693Y-114658014D02*
X80745312Y-114848490D01*
X80745312Y-114848490D02*
X80745312Y-114991347D01*
X80745312Y-114991347D02*
X80697693Y-115181823D01*
X80697693Y-115181823D02*
X80650074Y-115277061D01*
X80650074Y-115277061D02*
X80554836Y-115372300D01*
X80554836Y-115372300D02*
X80411979Y-115419919D01*
X80411979Y-115419919D02*
X80173884Y-115419919D01*
X81697693Y-115419919D02*
X81126265Y-115419919D01*
X81411979Y-115419919D02*
X81411979Y-114419919D01*
X81411979Y-114419919D02*
X81316741Y-114562776D01*
X81316741Y-114562776D02*
X81221503Y-114658014D01*
X81221503Y-114658014D02*
X81126265Y-114705633D01*
X82031027Y-114419919D02*
X82650074Y-114419919D01*
X82650074Y-114419919D02*
X82316741Y-114800871D01*
X82316741Y-114800871D02*
X82459598Y-114800871D01*
X82459598Y-114800871D02*
X82554836Y-114848490D01*
X82554836Y-114848490D02*
X82602455Y-114896109D01*
X82602455Y-114896109D02*
X82650074Y-114991347D01*
X82650074Y-114991347D02*
X82650074Y-115229442D01*
X82650074Y-115229442D02*
X82602455Y-115324680D01*
X82602455Y-115324680D02*
X82554836Y-115372300D01*
X82554836Y-115372300D02*
X82459598Y-115419919D01*
X82459598Y-115419919D02*
X82173884Y-115419919D01*
X82173884Y-115419919D02*
X82078646Y-115372300D01*
X82078646Y-115372300D02*
X82031027Y-115324680D01*
X80697693Y-81447538D02*
X80602455Y-81399919D01*
X80602455Y-81399919D02*
X80459598Y-81399919D01*
X80459598Y-81399919D02*
X80316741Y-81447538D01*
X80316741Y-81447538D02*
X80221503Y-81542776D01*
X80221503Y-81542776D02*
X80173884Y-81638014D01*
X80173884Y-81638014D02*
X80126265Y-81828490D01*
X80126265Y-81828490D02*
X80126265Y-81971347D01*
X80126265Y-81971347D02*
X80173884Y-82161823D01*
X80173884Y-82161823D02*
X80221503Y-82257061D01*
X80221503Y-82257061D02*
X80316741Y-82352300D01*
X80316741Y-82352300D02*
X80459598Y-82399919D01*
X80459598Y-82399919D02*
X80554836Y-82399919D01*
X80554836Y-82399919D02*
X80697693Y-82352300D01*
X80697693Y-82352300D02*
X80745312Y-82304680D01*
X80745312Y-82304680D02*
X80745312Y-81971347D01*
X80745312Y-81971347D02*
X80554836Y-81971347D01*
X81173884Y-82399919D02*
X81173884Y-81399919D01*
X81173884Y-81399919D02*
X81745312Y-82399919D01*
X81745312Y-82399919D02*
X81745312Y-81399919D01*
X82221503Y-82399919D02*
X82221503Y-81399919D01*
X82221503Y-81399919D02*
X82459598Y-81399919D01*
X82459598Y-81399919D02*
X82602455Y-81447538D01*
X82602455Y-81447538D02*
X82697693Y-81542776D01*
X82697693Y-81542776D02*
X82745312Y-81638014D01*
X82745312Y-81638014D02*
X82792931Y-81828490D01*
X82792931Y-81828490D02*
X82792931Y-81971347D01*
X82792931Y-81971347D02*
X82745312Y-82161823D01*
X82745312Y-82161823D02*
X82697693Y-82257061D01*
X82697693Y-82257061D02*
X82602455Y-82352300D01*
X82602455Y-82352300D02*
X82459598Y-82399919D01*
X82459598Y-82399919D02*
X82221503Y-82399919D01*
X80126265Y-110054204D02*
X80602455Y-110054204D01*
X80031027Y-110339919D02*
X80364360Y-109339919D01*
X80364360Y-109339919D02*
X80697693Y-110339919D01*
X81602455Y-110339919D02*
X81269122Y-109863728D01*
X81031027Y-110339919D02*
X81031027Y-109339919D01*
X81031027Y-109339919D02*
X81411979Y-109339919D01*
X81411979Y-109339919D02*
X81507217Y-109387538D01*
X81507217Y-109387538D02*
X81554836Y-109435157D01*
X81554836Y-109435157D02*
X81602455Y-109530395D01*
X81602455Y-109530395D02*
X81602455Y-109673252D01*
X81602455Y-109673252D02*
X81554836Y-109768490D01*
X81554836Y-109768490D02*
X81507217Y-109816109D01*
X81507217Y-109816109D02*
X81411979Y-109863728D01*
X81411979Y-109863728D02*
X81031027Y-109863728D01*
X82031027Y-109816109D02*
X82364360Y-109816109D01*
X82507217Y-110339919D02*
X82031027Y-110339919D01*
X82031027Y-110339919D02*
X82031027Y-109339919D01*
X82031027Y-109339919D02*
X82507217Y-109339919D01*
X83269122Y-109816109D02*
X82935789Y-109816109D01*
X82935789Y-110339919D02*
X82935789Y-109339919D01*
X82935789Y-109339919D02*
X83411979Y-109339919D01*
X136507580Y-64315193D02*
X136507580Y-63743765D01*
X136507580Y-64029479D02*
X137507580Y-64029479D01*
X137507580Y-64029479D02*
X137364723Y-63934241D01*
X137364723Y-63934241D02*
X137269485Y-63839003D01*
X137269485Y-63839003D02*
X137221866Y-63743765D01*
X137507580Y-65172336D02*
X137507580Y-64981860D01*
X137507580Y-64981860D02*
X137459961Y-64886622D01*
X137459961Y-64886622D02*
X137412342Y-64839003D01*
X137412342Y-64839003D02*
X137269485Y-64743765D01*
X137269485Y-64743765D02*
X137079009Y-64696146D01*
X137079009Y-64696146D02*
X136698057Y-64696146D01*
X136698057Y-64696146D02*
X136602819Y-64743765D01*
X136602819Y-64743765D02*
X136555200Y-64791384D01*
X136555200Y-64791384D02*
X136507580Y-64886622D01*
X136507580Y-64886622D02*
X136507580Y-65077098D01*
X136507580Y-65077098D02*
X136555200Y-65172336D01*
X136555200Y-65172336D02*
X136602819Y-65219955D01*
X136602819Y-65219955D02*
X136698057Y-65267574D01*
X136698057Y-65267574D02*
X136936152Y-65267574D01*
X136936152Y-65267574D02*
X137031390Y-65219955D01*
X137031390Y-65219955D02*
X137079009Y-65172336D01*
X137079009Y-65172336D02*
X137126628Y-65077098D01*
X137126628Y-65077098D02*
X137126628Y-64886622D01*
X137126628Y-64886622D02*
X137079009Y-64791384D01*
X137079009Y-64791384D02*
X137031390Y-64743765D01*
X137031390Y-64743765D02*
X136936152Y-64696146D01*
X136888533Y-65696146D02*
X136888533Y-66458051D01*
X137031390Y-66934241D02*
X137031390Y-67267574D01*
X136507580Y-67410431D02*
X136507580Y-66934241D01*
X136507580Y-66934241D02*
X137507580Y-66934241D01*
X137507580Y-66934241D02*
X137507580Y-67410431D01*
X137507580Y-67743765D02*
X136507580Y-68410431D01*
X137507580Y-68410431D02*
X136507580Y-67743765D01*
X137507580Y-68648527D02*
X137507580Y-69219955D01*
X136507580Y-68934241D02*
X137507580Y-68934241D01*
X137507580Y-69458051D02*
X137507580Y-70077098D01*
X137507580Y-70077098D02*
X137126628Y-69743765D01*
X137126628Y-69743765D02*
X137126628Y-69886622D01*
X137126628Y-69886622D02*
X137079009Y-69981860D01*
X137079009Y-69981860D02*
X137031390Y-70029479D01*
X137031390Y-70029479D02*
X136936152Y-70077098D01*
X136936152Y-70077098D02*
X136698057Y-70077098D01*
X136698057Y-70077098D02*
X136602819Y-70029479D01*
X136602819Y-70029479D02*
X136555200Y-69981860D01*
X136555200Y-69981860D02*
X136507580Y-69886622D01*
X136507580Y-69886622D02*
X136507580Y-69600908D01*
X136507580Y-69600908D02*
X136555200Y-69505670D01*
X136555200Y-69505670D02*
X136602819Y-69458051D01*
X141587580Y-64315193D02*
X141587580Y-63743765D01*
X141587580Y-64029479D02*
X142587580Y-64029479D01*
X142587580Y-64029479D02*
X142444723Y-63934241D01*
X142444723Y-63934241D02*
X142349485Y-63839003D01*
X142349485Y-63839003D02*
X142301866Y-63743765D01*
X142159009Y-64886622D02*
X142206628Y-64791384D01*
X142206628Y-64791384D02*
X142254247Y-64743765D01*
X142254247Y-64743765D02*
X142349485Y-64696146D01*
X142349485Y-64696146D02*
X142397104Y-64696146D01*
X142397104Y-64696146D02*
X142492342Y-64743765D01*
X142492342Y-64743765D02*
X142539961Y-64791384D01*
X142539961Y-64791384D02*
X142587580Y-64886622D01*
X142587580Y-64886622D02*
X142587580Y-65077098D01*
X142587580Y-65077098D02*
X142539961Y-65172336D01*
X142539961Y-65172336D02*
X142492342Y-65219955D01*
X142492342Y-65219955D02*
X142397104Y-65267574D01*
X142397104Y-65267574D02*
X142349485Y-65267574D01*
X142349485Y-65267574D02*
X142254247Y-65219955D01*
X142254247Y-65219955D02*
X142206628Y-65172336D01*
X142206628Y-65172336D02*
X142159009Y-65077098D01*
X142159009Y-65077098D02*
X142159009Y-64886622D01*
X142159009Y-64886622D02*
X142111390Y-64791384D01*
X142111390Y-64791384D02*
X142063771Y-64743765D01*
X142063771Y-64743765D02*
X141968533Y-64696146D01*
X141968533Y-64696146D02*
X141778057Y-64696146D01*
X141778057Y-64696146D02*
X141682819Y-64743765D01*
X141682819Y-64743765D02*
X141635200Y-64791384D01*
X141635200Y-64791384D02*
X141587580Y-64886622D01*
X141587580Y-64886622D02*
X141587580Y-65077098D01*
X141587580Y-65077098D02*
X141635200Y-65172336D01*
X141635200Y-65172336D02*
X141682819Y-65219955D01*
X141682819Y-65219955D02*
X141778057Y-65267574D01*
X141778057Y-65267574D02*
X141968533Y-65267574D01*
X141968533Y-65267574D02*
X142063771Y-65219955D01*
X142063771Y-65219955D02*
X142111390Y-65172336D01*
X142111390Y-65172336D02*
X142159009Y-65077098D01*
X141968533Y-65696146D02*
X141968533Y-66458051D01*
X142111390Y-66934241D02*
X142111390Y-67267574D01*
X141587580Y-67410431D02*
X141587580Y-66934241D01*
X141587580Y-66934241D02*
X142587580Y-66934241D01*
X142587580Y-66934241D02*
X142587580Y-67410431D01*
X142587580Y-67743765D02*
X141587580Y-68410431D01*
X142587580Y-68410431D02*
X141587580Y-67743765D01*
X142587580Y-68648527D02*
X142587580Y-69219955D01*
X141587580Y-68934241D02*
X142587580Y-68934241D01*
X142587580Y-70029479D02*
X142587580Y-69553289D01*
X142587580Y-69553289D02*
X142111390Y-69505670D01*
X142111390Y-69505670D02*
X142159009Y-69553289D01*
X142159009Y-69553289D02*
X142206628Y-69648527D01*
X142206628Y-69648527D02*
X142206628Y-69886622D01*
X142206628Y-69886622D02*
X142159009Y-69981860D01*
X142159009Y-69981860D02*
X142111390Y-70029479D01*
X142111390Y-70029479D02*
X142016152Y-70077098D01*
X142016152Y-70077098D02*
X141778057Y-70077098D01*
X141778057Y-70077098D02*
X141682819Y-70029479D01*
X141682819Y-70029479D02*
X141635200Y-69981860D01*
X141635200Y-69981860D02*
X141587580Y-69886622D01*
X141587580Y-69886622D02*
X141587580Y-69648527D01*
X141587580Y-69648527D02*
X141635200Y-69553289D01*
X141635200Y-69553289D02*
X141682819Y-69505670D01*
X132392419Y-133659806D02*
X132392419Y-134231234D01*
X132392419Y-133945520D02*
X131392419Y-133945520D01*
X131392419Y-133945520D02*
X131535276Y-134040758D01*
X131535276Y-134040758D02*
X131630514Y-134135996D01*
X131630514Y-134135996D02*
X131678133Y-134231234D01*
X131725752Y-132802663D02*
X132392419Y-132802663D01*
X131344800Y-133040758D02*
X132059085Y-133278853D01*
X132059085Y-133278853D02*
X132059085Y-132659806D01*
X132011466Y-132278853D02*
X132011466Y-131516949D01*
X131868609Y-131040758D02*
X131868609Y-130707425D01*
X132392419Y-130564568D02*
X132392419Y-131040758D01*
X132392419Y-131040758D02*
X131392419Y-131040758D01*
X131392419Y-131040758D02*
X131392419Y-130564568D01*
X131392419Y-130231234D02*
X132392419Y-129564568D01*
X131392419Y-129564568D02*
X132392419Y-130231234D01*
X131392419Y-129326472D02*
X131392419Y-128755044D01*
X132392419Y-129040758D02*
X131392419Y-129040758D01*
X132392419Y-127897901D02*
X132392419Y-128469329D01*
X132392419Y-128183615D02*
X131392419Y-128183615D01*
X131392419Y-128183615D02*
X131535276Y-128278853D01*
X131535276Y-128278853D02*
X131630514Y-128374091D01*
X131630514Y-128374091D02*
X131678133Y-128469329D01*
X57913884Y-115439919D02*
X57913884Y-114439919D01*
X57913884Y-114439919D02*
X58151979Y-114439919D01*
X58151979Y-114439919D02*
X58294836Y-114487538D01*
X58294836Y-114487538D02*
X58390074Y-114582776D01*
X58390074Y-114582776D02*
X58437693Y-114678014D01*
X58437693Y-114678014D02*
X58485312Y-114868490D01*
X58485312Y-114868490D02*
X58485312Y-115011347D01*
X58485312Y-115011347D02*
X58437693Y-115201823D01*
X58437693Y-115201823D02*
X58390074Y-115297061D01*
X58390074Y-115297061D02*
X58294836Y-115392300D01*
X58294836Y-115392300D02*
X58151979Y-115439919D01*
X58151979Y-115439919D02*
X57913884Y-115439919D01*
X59437693Y-115439919D02*
X58866265Y-115439919D01*
X59151979Y-115439919D02*
X59151979Y-114439919D01*
X59151979Y-114439919D02*
X59056741Y-114582776D01*
X59056741Y-114582776D02*
X58961503Y-114678014D01*
X58961503Y-114678014D02*
X58866265Y-114725633D01*
X59818646Y-114535157D02*
X59866265Y-114487538D01*
X59866265Y-114487538D02*
X59961503Y-114439919D01*
X59961503Y-114439919D02*
X60199598Y-114439919D01*
X60199598Y-114439919D02*
X60294836Y-114487538D01*
X60294836Y-114487538D02*
X60342455Y-114535157D01*
X60342455Y-114535157D02*
X60390074Y-114630395D01*
X60390074Y-114630395D02*
X60390074Y-114725633D01*
X60390074Y-114725633D02*
X60342455Y-114868490D01*
X60342455Y-114868490D02*
X59771027Y-115439919D01*
X59771027Y-115439919D02*
X60390074Y-115439919D01*
X104487580Y-63696146D02*
X104487580Y-64315193D01*
X104487580Y-64315193D02*
X104106628Y-63981860D01*
X104106628Y-63981860D02*
X104106628Y-64124717D01*
X104106628Y-64124717D02*
X104059009Y-64219955D01*
X104059009Y-64219955D02*
X104011390Y-64267574D01*
X104011390Y-64267574D02*
X103916152Y-64315193D01*
X103916152Y-64315193D02*
X103678057Y-64315193D01*
X103678057Y-64315193D02*
X103582819Y-64267574D01*
X103582819Y-64267574D02*
X103535200Y-64219955D01*
X103535200Y-64219955D02*
X103487580Y-64124717D01*
X103487580Y-64124717D02*
X103487580Y-63839003D01*
X103487580Y-63839003D02*
X103535200Y-63743765D01*
X103535200Y-63743765D02*
X103582819Y-63696146D01*
X103868533Y-64743765D02*
X103868533Y-65505670D01*
X104487580Y-65886622D02*
X104487580Y-66505669D01*
X104487580Y-66505669D02*
X104106628Y-66172336D01*
X104106628Y-66172336D02*
X104106628Y-66315193D01*
X104106628Y-66315193D02*
X104059009Y-66410431D01*
X104059009Y-66410431D02*
X104011390Y-66458050D01*
X104011390Y-66458050D02*
X103916152Y-66505669D01*
X103916152Y-66505669D02*
X103678057Y-66505669D01*
X103678057Y-66505669D02*
X103582819Y-66458050D01*
X103582819Y-66458050D02*
X103535200Y-66410431D01*
X103535200Y-66410431D02*
X103487580Y-66315193D01*
X103487580Y-66315193D02*
X103487580Y-66029479D01*
X103487580Y-66029479D02*
X103535200Y-65934241D01*
X103535200Y-65934241D02*
X103582819Y-65886622D01*
X104487580Y-66791384D02*
X103487580Y-67124717D01*
X103487580Y-67124717D02*
X104487580Y-67458050D01*
X104487580Y-67696146D02*
X104487580Y-68315193D01*
X104487580Y-68315193D02*
X104106628Y-67981860D01*
X104106628Y-67981860D02*
X104106628Y-68124717D01*
X104106628Y-68124717D02*
X104059009Y-68219955D01*
X104059009Y-68219955D02*
X104011390Y-68267574D01*
X104011390Y-68267574D02*
X103916152Y-68315193D01*
X103916152Y-68315193D02*
X103678057Y-68315193D01*
X103678057Y-68315193D02*
X103582819Y-68267574D01*
X103582819Y-68267574D02*
X103535200Y-68219955D01*
X103535200Y-68219955D02*
X103487580Y-68124717D01*
X103487580Y-68124717D02*
X103487580Y-67839003D01*
X103487580Y-67839003D02*
X103535200Y-67743765D01*
X103535200Y-67743765D02*
X103582819Y-67696146D01*
X80126265Y-102434204D02*
X80602455Y-102434204D01*
X80031027Y-102719919D02*
X80364360Y-101719919D01*
X80364360Y-101719919D02*
X80697693Y-102719919D01*
X80983408Y-101815157D02*
X81031027Y-101767538D01*
X81031027Y-101767538D02*
X81126265Y-101719919D01*
X81126265Y-101719919D02*
X81364360Y-101719919D01*
X81364360Y-101719919D02*
X81459598Y-101767538D01*
X81459598Y-101767538D02*
X81507217Y-101815157D01*
X81507217Y-101815157D02*
X81554836Y-101910395D01*
X81554836Y-101910395D02*
X81554836Y-102005633D01*
X81554836Y-102005633D02*
X81507217Y-102148490D01*
X81507217Y-102148490D02*
X80935789Y-102719919D01*
X80935789Y-102719919D02*
X81554836Y-102719919D01*
X57913884Y-102739919D02*
X57913884Y-101739919D01*
X57913884Y-101739919D02*
X58151979Y-101739919D01*
X58151979Y-101739919D02*
X58294836Y-101787538D01*
X58294836Y-101787538D02*
X58390074Y-101882776D01*
X58390074Y-101882776D02*
X58437693Y-101978014D01*
X58437693Y-101978014D02*
X58485312Y-102168490D01*
X58485312Y-102168490D02*
X58485312Y-102311347D01*
X58485312Y-102311347D02*
X58437693Y-102501823D01*
X58437693Y-102501823D02*
X58390074Y-102597061D01*
X58390074Y-102597061D02*
X58294836Y-102692300D01*
X58294836Y-102692300D02*
X58151979Y-102739919D01*
X58151979Y-102739919D02*
X57913884Y-102739919D01*
X58818646Y-101739919D02*
X59485312Y-101739919D01*
X59485312Y-101739919D02*
X59056741Y-102739919D01*
X80126265Y-97354204D02*
X80602455Y-97354204D01*
X80031027Y-97639919D02*
X80364360Y-96639919D01*
X80364360Y-96639919D02*
X80697693Y-97639919D01*
X81459598Y-96973252D02*
X81459598Y-97639919D01*
X81221503Y-96592300D02*
X80983408Y-97306585D01*
X80983408Y-97306585D02*
X81602455Y-97306585D01*
X80031027Y-78859919D02*
X80364360Y-79859919D01*
X80364360Y-79859919D02*
X80697693Y-78859919D01*
X81031027Y-79859919D02*
X81031027Y-78859919D01*
X81507217Y-79859919D02*
X81507217Y-78859919D01*
X81507217Y-78859919D02*
X82078645Y-79859919D01*
X82078645Y-79859919D02*
X82078645Y-78859919D01*
X139047580Y-64315193D02*
X139047580Y-63743765D01*
X139047580Y-64029479D02*
X140047580Y-64029479D01*
X140047580Y-64029479D02*
X139904723Y-63934241D01*
X139904723Y-63934241D02*
X139809485Y-63839003D01*
X139809485Y-63839003D02*
X139761866Y-63743765D01*
X140047580Y-64648527D02*
X140047580Y-65315193D01*
X140047580Y-65315193D02*
X139047580Y-64886622D01*
X139428533Y-65696146D02*
X139428533Y-66458051D01*
X139571390Y-66934241D02*
X139571390Y-67267574D01*
X139047580Y-67410431D02*
X139047580Y-66934241D01*
X139047580Y-66934241D02*
X140047580Y-66934241D01*
X140047580Y-66934241D02*
X140047580Y-67410431D01*
X140047580Y-67743765D02*
X139047580Y-68410431D01*
X140047580Y-68410431D02*
X139047580Y-67743765D01*
X140047580Y-68648527D02*
X140047580Y-69219955D01*
X139047580Y-68934241D02*
X140047580Y-68934241D01*
X139714247Y-69981860D02*
X139047580Y-69981860D01*
X140095200Y-69743765D02*
X139380914Y-69505670D01*
X139380914Y-69505670D02*
X139380914Y-70124717D01*
X80126265Y-107514204D02*
X80602455Y-107514204D01*
X80031027Y-107799919D02*
X80364360Y-106799919D01*
X80364360Y-106799919D02*
X80697693Y-107799919D01*
X81221503Y-106799919D02*
X81316741Y-106799919D01*
X81316741Y-106799919D02*
X81411979Y-106847538D01*
X81411979Y-106847538D02*
X81459598Y-106895157D01*
X81459598Y-106895157D02*
X81507217Y-106990395D01*
X81507217Y-106990395D02*
X81554836Y-107180871D01*
X81554836Y-107180871D02*
X81554836Y-107418966D01*
X81554836Y-107418966D02*
X81507217Y-107609442D01*
X81507217Y-107609442D02*
X81459598Y-107704680D01*
X81459598Y-107704680D02*
X81411979Y-107752300D01*
X81411979Y-107752300D02*
X81316741Y-107799919D01*
X81316741Y-107799919D02*
X81221503Y-107799919D01*
X81221503Y-107799919D02*
X81126265Y-107752300D01*
X81126265Y-107752300D02*
X81078646Y-107704680D01*
X81078646Y-107704680D02*
X81031027Y-107609442D01*
X81031027Y-107609442D02*
X80983408Y-107418966D01*
X80983408Y-107418966D02*
X80983408Y-107180871D01*
X80983408Y-107180871D02*
X81031027Y-106990395D01*
X81031027Y-106990395D02*
X81078646Y-106895157D01*
X81078646Y-106895157D02*
X81126265Y-106847538D01*
X81126265Y-106847538D02*
X81221503Y-106799919D01*
X57913884Y-95119919D02*
X57913884Y-94119919D01*
X57913884Y-94119919D02*
X58151979Y-94119919D01*
X58151979Y-94119919D02*
X58294836Y-94167538D01*
X58294836Y-94167538D02*
X58390074Y-94262776D01*
X58390074Y-94262776D02*
X58437693Y-94358014D01*
X58437693Y-94358014D02*
X58485312Y-94548490D01*
X58485312Y-94548490D02*
X58485312Y-94691347D01*
X58485312Y-94691347D02*
X58437693Y-94881823D01*
X58437693Y-94881823D02*
X58390074Y-94977061D01*
X58390074Y-94977061D02*
X58294836Y-95072300D01*
X58294836Y-95072300D02*
X58151979Y-95119919D01*
X58151979Y-95119919D02*
X57913884Y-95119919D01*
X59342455Y-94453252D02*
X59342455Y-95119919D01*
X59104360Y-94072300D02*
X58866265Y-94786585D01*
X58866265Y-94786585D02*
X59485312Y-94786585D01*
X57913884Y-82419919D02*
X57913884Y-81419919D01*
X57913884Y-81419919D02*
X58151979Y-81419919D01*
X58151979Y-81419919D02*
X58294836Y-81467538D01*
X58294836Y-81467538D02*
X58390074Y-81562776D01*
X58390074Y-81562776D02*
X58437693Y-81658014D01*
X58437693Y-81658014D02*
X58485312Y-81848490D01*
X58485312Y-81848490D02*
X58485312Y-81991347D01*
X58485312Y-81991347D02*
X58437693Y-82181823D01*
X58437693Y-82181823D02*
X58390074Y-82277061D01*
X58390074Y-82277061D02*
X58294836Y-82372300D01*
X58294836Y-82372300D02*
X58151979Y-82419919D01*
X58151979Y-82419919D02*
X57913884Y-82419919D01*
X59104360Y-81419919D02*
X59199598Y-81419919D01*
X59199598Y-81419919D02*
X59294836Y-81467538D01*
X59294836Y-81467538D02*
X59342455Y-81515157D01*
X59342455Y-81515157D02*
X59390074Y-81610395D01*
X59390074Y-81610395D02*
X59437693Y-81800871D01*
X59437693Y-81800871D02*
X59437693Y-82038966D01*
X59437693Y-82038966D02*
X59390074Y-82229442D01*
X59390074Y-82229442D02*
X59342455Y-82324680D01*
X59342455Y-82324680D02*
X59294836Y-82372300D01*
X59294836Y-82372300D02*
X59199598Y-82419919D01*
X59199598Y-82419919D02*
X59104360Y-82419919D01*
X59104360Y-82419919D02*
X59009122Y-82372300D01*
X59009122Y-82372300D02*
X58961503Y-82324680D01*
X58961503Y-82324680D02*
X58913884Y-82229442D01*
X58913884Y-82229442D02*
X58866265Y-82038966D01*
X58866265Y-82038966D02*
X58866265Y-81800871D01*
X58866265Y-81800871D02*
X58913884Y-81610395D01*
X58913884Y-81610395D02*
X58961503Y-81515157D01*
X58961503Y-81515157D02*
X59009122Y-81467538D01*
X59009122Y-81467538D02*
X59104360Y-81419919D01*
X112107580Y-64219955D02*
X112107580Y-64029479D01*
X112107580Y-64029479D02*
X112059961Y-63934241D01*
X112059961Y-63934241D02*
X112012342Y-63886622D01*
X112012342Y-63886622D02*
X111869485Y-63791384D01*
X111869485Y-63791384D02*
X111679009Y-63743765D01*
X111679009Y-63743765D02*
X111298057Y-63743765D01*
X111298057Y-63743765D02*
X111202819Y-63791384D01*
X111202819Y-63791384D02*
X111155200Y-63839003D01*
X111155200Y-63839003D02*
X111107580Y-63934241D01*
X111107580Y-63934241D02*
X111107580Y-64124717D01*
X111107580Y-64124717D02*
X111155200Y-64219955D01*
X111155200Y-64219955D02*
X111202819Y-64267574D01*
X111202819Y-64267574D02*
X111298057Y-64315193D01*
X111298057Y-64315193D02*
X111536152Y-64315193D01*
X111536152Y-64315193D02*
X111631390Y-64267574D01*
X111631390Y-64267574D02*
X111679009Y-64219955D01*
X111679009Y-64219955D02*
X111726628Y-64124717D01*
X111726628Y-64124717D02*
X111726628Y-63934241D01*
X111726628Y-63934241D02*
X111679009Y-63839003D01*
X111679009Y-63839003D02*
X111631390Y-63791384D01*
X111631390Y-63791384D02*
X111536152Y-63743765D01*
X111488533Y-64743765D02*
X111488533Y-65505670D01*
X111155200Y-65934241D02*
X111107580Y-66077098D01*
X111107580Y-66077098D02*
X111107580Y-66315193D01*
X111107580Y-66315193D02*
X111155200Y-66410431D01*
X111155200Y-66410431D02*
X111202819Y-66458050D01*
X111202819Y-66458050D02*
X111298057Y-66505669D01*
X111298057Y-66505669D02*
X111393295Y-66505669D01*
X111393295Y-66505669D02*
X111488533Y-66458050D01*
X111488533Y-66458050D02*
X111536152Y-66410431D01*
X111536152Y-66410431D02*
X111583771Y-66315193D01*
X111583771Y-66315193D02*
X111631390Y-66124717D01*
X111631390Y-66124717D02*
X111679009Y-66029479D01*
X111679009Y-66029479D02*
X111726628Y-65981860D01*
X111726628Y-65981860D02*
X111821866Y-65934241D01*
X111821866Y-65934241D02*
X111917104Y-65934241D01*
X111917104Y-65934241D02*
X112012342Y-65981860D01*
X112012342Y-65981860D02*
X112059961Y-66029479D01*
X112059961Y-66029479D02*
X112107580Y-66124717D01*
X112107580Y-66124717D02*
X112107580Y-66362812D01*
X112107580Y-66362812D02*
X112059961Y-66505669D01*
X111202819Y-67505669D02*
X111155200Y-67458050D01*
X111155200Y-67458050D02*
X111107580Y-67315193D01*
X111107580Y-67315193D02*
X111107580Y-67219955D01*
X111107580Y-67219955D02*
X111155200Y-67077098D01*
X111155200Y-67077098D02*
X111250438Y-66981860D01*
X111250438Y-66981860D02*
X111345676Y-66934241D01*
X111345676Y-66934241D02*
X111536152Y-66886622D01*
X111536152Y-66886622D02*
X111679009Y-66886622D01*
X111679009Y-66886622D02*
X111869485Y-66934241D01*
X111869485Y-66934241D02*
X111964723Y-66981860D01*
X111964723Y-66981860D02*
X112059961Y-67077098D01*
X112059961Y-67077098D02*
X112107580Y-67219955D01*
X112107580Y-67219955D02*
X112107580Y-67315193D01*
X112107580Y-67315193D02*
X112059961Y-67458050D01*
X112059961Y-67458050D02*
X112012342Y-67505669D01*
X111107580Y-68410431D02*
X111107580Y-67934241D01*
X111107580Y-67934241D02*
X112107580Y-67934241D01*
X121267580Y-64315193D02*
X121267580Y-63743765D01*
X121267580Y-64029479D02*
X122267580Y-64029479D01*
X122267580Y-64029479D02*
X122124723Y-63934241D01*
X122124723Y-63934241D02*
X122029485Y-63839003D01*
X122029485Y-63839003D02*
X121981866Y-63743765D01*
X122267580Y-64934241D02*
X122267580Y-65029479D01*
X122267580Y-65029479D02*
X122219961Y-65124717D01*
X122219961Y-65124717D02*
X122172342Y-65172336D01*
X122172342Y-65172336D02*
X122077104Y-65219955D01*
X122077104Y-65219955D02*
X121886628Y-65267574D01*
X121886628Y-65267574D02*
X121648533Y-65267574D01*
X121648533Y-65267574D02*
X121458057Y-65219955D01*
X121458057Y-65219955D02*
X121362819Y-65172336D01*
X121362819Y-65172336D02*
X121315200Y-65124717D01*
X121315200Y-65124717D02*
X121267580Y-65029479D01*
X121267580Y-65029479D02*
X121267580Y-64934241D01*
X121267580Y-64934241D02*
X121315200Y-64839003D01*
X121315200Y-64839003D02*
X121362819Y-64791384D01*
X121362819Y-64791384D02*
X121458057Y-64743765D01*
X121458057Y-64743765D02*
X121648533Y-64696146D01*
X121648533Y-64696146D02*
X121886628Y-64696146D01*
X121886628Y-64696146D02*
X122077104Y-64743765D01*
X122077104Y-64743765D02*
X122172342Y-64791384D01*
X122172342Y-64791384D02*
X122219961Y-64839003D01*
X122219961Y-64839003D02*
X122267580Y-64934241D01*
X121648533Y-65696146D02*
X121648533Y-66458051D01*
X121267580Y-66934241D02*
X122267580Y-66934241D01*
X122267580Y-66934241D02*
X122267580Y-67172336D01*
X122267580Y-67172336D02*
X122219961Y-67315193D01*
X122219961Y-67315193D02*
X122124723Y-67410431D01*
X122124723Y-67410431D02*
X122029485Y-67458050D01*
X122029485Y-67458050D02*
X121839009Y-67505669D01*
X121839009Y-67505669D02*
X121696152Y-67505669D01*
X121696152Y-67505669D02*
X121505676Y-67458050D01*
X121505676Y-67458050D02*
X121410438Y-67410431D01*
X121410438Y-67410431D02*
X121315200Y-67315193D01*
X121315200Y-67315193D02*
X121267580Y-67172336D01*
X121267580Y-67172336D02*
X121267580Y-66934241D01*
X121791390Y-67934241D02*
X121791390Y-68267574D01*
X121267580Y-68410431D02*
X121267580Y-67934241D01*
X121267580Y-67934241D02*
X122267580Y-67934241D01*
X122267580Y-67934241D02*
X122267580Y-68410431D01*
X122267580Y-68696146D02*
X122267580Y-69267574D01*
X121267580Y-68981860D02*
X122267580Y-68981860D01*
X121791390Y-69600908D02*
X121791390Y-69934241D01*
X121267580Y-70077098D02*
X121267580Y-69600908D01*
X121267580Y-69600908D02*
X122267580Y-69600908D01*
X122267580Y-69600908D02*
X122267580Y-70077098D01*
X121362819Y-71077098D02*
X121315200Y-71029479D01*
X121315200Y-71029479D02*
X121267580Y-70886622D01*
X121267580Y-70886622D02*
X121267580Y-70791384D01*
X121267580Y-70791384D02*
X121315200Y-70648527D01*
X121315200Y-70648527D02*
X121410438Y-70553289D01*
X121410438Y-70553289D02*
X121505676Y-70505670D01*
X121505676Y-70505670D02*
X121696152Y-70458051D01*
X121696152Y-70458051D02*
X121839009Y-70458051D01*
X121839009Y-70458051D02*
X122029485Y-70505670D01*
X122029485Y-70505670D02*
X122124723Y-70553289D01*
X122124723Y-70553289D02*
X122219961Y-70648527D01*
X122219961Y-70648527D02*
X122267580Y-70791384D01*
X122267580Y-70791384D02*
X122267580Y-70886622D01*
X122267580Y-70886622D02*
X122219961Y-71029479D01*
X122219961Y-71029479D02*
X122172342Y-71077098D01*
X122267580Y-71362813D02*
X122267580Y-71934241D01*
X121267580Y-71648527D02*
X122267580Y-71648527D01*
X57913884Y-92579919D02*
X57913884Y-91579919D01*
X57913884Y-91579919D02*
X58151979Y-91579919D01*
X58151979Y-91579919D02*
X58294836Y-91627538D01*
X58294836Y-91627538D02*
X58390074Y-91722776D01*
X58390074Y-91722776D02*
X58437693Y-91818014D01*
X58437693Y-91818014D02*
X58485312Y-92008490D01*
X58485312Y-92008490D02*
X58485312Y-92151347D01*
X58485312Y-92151347D02*
X58437693Y-92341823D01*
X58437693Y-92341823D02*
X58390074Y-92437061D01*
X58390074Y-92437061D02*
X58294836Y-92532300D01*
X58294836Y-92532300D02*
X58151979Y-92579919D01*
X58151979Y-92579919D02*
X57913884Y-92579919D01*
X58818646Y-91579919D02*
X59437693Y-91579919D01*
X59437693Y-91579919D02*
X59104360Y-91960871D01*
X59104360Y-91960871D02*
X59247217Y-91960871D01*
X59247217Y-91960871D02*
X59342455Y-92008490D01*
X59342455Y-92008490D02*
X59390074Y-92056109D01*
X59390074Y-92056109D02*
X59437693Y-92151347D01*
X59437693Y-92151347D02*
X59437693Y-92389442D01*
X59437693Y-92389442D02*
X59390074Y-92484680D01*
X59390074Y-92484680D02*
X59342455Y-92532300D01*
X59342455Y-92532300D02*
X59247217Y-92579919D01*
X59247217Y-92579919D02*
X58961503Y-92579919D01*
X58961503Y-92579919D02*
X58866265Y-92532300D01*
X58866265Y-92532300D02*
X58818646Y-92484680D01*
X80126265Y-92274204D02*
X80602455Y-92274204D01*
X80031027Y-92559919D02*
X80364360Y-91559919D01*
X80364360Y-91559919D02*
X80697693Y-92559919D01*
X81459598Y-91559919D02*
X81269122Y-91559919D01*
X81269122Y-91559919D02*
X81173884Y-91607538D01*
X81173884Y-91607538D02*
X81126265Y-91655157D01*
X81126265Y-91655157D02*
X81031027Y-91798014D01*
X81031027Y-91798014D02*
X80983408Y-91988490D01*
X80983408Y-91988490D02*
X80983408Y-92369442D01*
X80983408Y-92369442D02*
X81031027Y-92464680D01*
X81031027Y-92464680D02*
X81078646Y-92512300D01*
X81078646Y-92512300D02*
X81173884Y-92559919D01*
X81173884Y-92559919D02*
X81364360Y-92559919D01*
X81364360Y-92559919D02*
X81459598Y-92512300D01*
X81459598Y-92512300D02*
X81507217Y-92464680D01*
X81507217Y-92464680D02*
X81554836Y-92369442D01*
X81554836Y-92369442D02*
X81554836Y-92131347D01*
X81554836Y-92131347D02*
X81507217Y-92036109D01*
X81507217Y-92036109D02*
X81459598Y-91988490D01*
X81459598Y-91988490D02*
X81364360Y-91940871D01*
X81364360Y-91940871D02*
X81173884Y-91940871D01*
X81173884Y-91940871D02*
X81078646Y-91988490D01*
X81078646Y-91988490D02*
X81031027Y-92036109D01*
X81031027Y-92036109D02*
X80983408Y-92131347D01*
X137472419Y-133659806D02*
X137472419Y-134231234D01*
X137472419Y-133945520D02*
X136472419Y-133945520D01*
X136472419Y-133945520D02*
X136615276Y-134040758D01*
X136615276Y-134040758D02*
X136710514Y-134135996D01*
X136710514Y-134135996D02*
X136758133Y-134231234D01*
X136472419Y-132802663D02*
X136472419Y-132993139D01*
X136472419Y-132993139D02*
X136520038Y-133088377D01*
X136520038Y-133088377D02*
X136567657Y-133135996D01*
X136567657Y-133135996D02*
X136710514Y-133231234D01*
X136710514Y-133231234D02*
X136900990Y-133278853D01*
X136900990Y-133278853D02*
X137281942Y-133278853D01*
X137281942Y-133278853D02*
X137377180Y-133231234D01*
X137377180Y-133231234D02*
X137424800Y-133183615D01*
X137424800Y-133183615D02*
X137472419Y-133088377D01*
X137472419Y-133088377D02*
X137472419Y-132897901D01*
X137472419Y-132897901D02*
X137424800Y-132802663D01*
X137424800Y-132802663D02*
X137377180Y-132755044D01*
X137377180Y-132755044D02*
X137281942Y-132707425D01*
X137281942Y-132707425D02*
X137043847Y-132707425D01*
X137043847Y-132707425D02*
X136948609Y-132755044D01*
X136948609Y-132755044D02*
X136900990Y-132802663D01*
X136900990Y-132802663D02*
X136853371Y-132897901D01*
X136853371Y-132897901D02*
X136853371Y-133088377D01*
X136853371Y-133088377D02*
X136900990Y-133183615D01*
X136900990Y-133183615D02*
X136948609Y-133231234D01*
X136948609Y-133231234D02*
X137043847Y-133278853D01*
X137091466Y-132278853D02*
X137091466Y-131516949D01*
X136948609Y-131040758D02*
X136948609Y-130707425D01*
X137472419Y-130564568D02*
X137472419Y-131040758D01*
X137472419Y-131040758D02*
X136472419Y-131040758D01*
X136472419Y-131040758D02*
X136472419Y-130564568D01*
X136472419Y-130231234D02*
X137472419Y-129564568D01*
X136472419Y-129564568D02*
X137472419Y-130231234D01*
X136472419Y-129326472D02*
X136472419Y-128755044D01*
X137472419Y-129040758D02*
X136472419Y-129040758D01*
X136472419Y-128516948D02*
X136472419Y-127897901D01*
X136472419Y-127897901D02*
X136853371Y-128231234D01*
X136853371Y-128231234D02*
X136853371Y-128088377D01*
X136853371Y-128088377D02*
X136900990Y-127993139D01*
X136900990Y-127993139D02*
X136948609Y-127945520D01*
X136948609Y-127945520D02*
X137043847Y-127897901D01*
X137043847Y-127897901D02*
X137281942Y-127897901D01*
X137281942Y-127897901D02*
X137377180Y-127945520D01*
X137377180Y-127945520D02*
X137424800Y-127993139D01*
X137424800Y-127993139D02*
X137472419Y-128088377D01*
X137472419Y-128088377D02*
X137472419Y-128374091D01*
X137472419Y-128374091D02*
X137424800Y-128469329D01*
X137424800Y-128469329D02*
X137377180Y-128516948D01*
X80650074Y-86479919D02*
X80173884Y-86479919D01*
X80173884Y-86479919D02*
X80126265Y-86956109D01*
X80126265Y-86956109D02*
X80173884Y-86908490D01*
X80173884Y-86908490D02*
X80269122Y-86860871D01*
X80269122Y-86860871D02*
X80507217Y-86860871D01*
X80507217Y-86860871D02*
X80602455Y-86908490D01*
X80602455Y-86908490D02*
X80650074Y-86956109D01*
X80650074Y-86956109D02*
X80697693Y-87051347D01*
X80697693Y-87051347D02*
X80697693Y-87289442D01*
X80697693Y-87289442D02*
X80650074Y-87384680D01*
X80650074Y-87384680D02*
X80602455Y-87432300D01*
X80602455Y-87432300D02*
X80507217Y-87479919D01*
X80507217Y-87479919D02*
X80269122Y-87479919D01*
X80269122Y-87479919D02*
X80173884Y-87432300D01*
X80173884Y-87432300D02*
X80126265Y-87384680D01*
X80983408Y-86479919D02*
X81316741Y-87479919D01*
X81316741Y-87479919D02*
X81650074Y-86479919D01*
X106325752Y-133755044D02*
X106992419Y-133755044D01*
X105944800Y-133993139D02*
X106659085Y-134231234D01*
X106659085Y-134231234D02*
X106659085Y-133612187D01*
X106611466Y-133231234D02*
X106611466Y-132469330D01*
X105992419Y-132088377D02*
X105992419Y-131469330D01*
X105992419Y-131469330D02*
X106373371Y-131802663D01*
X106373371Y-131802663D02*
X106373371Y-131659806D01*
X106373371Y-131659806D02*
X106420990Y-131564568D01*
X106420990Y-131564568D02*
X106468609Y-131516949D01*
X106468609Y-131516949D02*
X106563847Y-131469330D01*
X106563847Y-131469330D02*
X106801942Y-131469330D01*
X106801942Y-131469330D02*
X106897180Y-131516949D01*
X106897180Y-131516949D02*
X106944800Y-131564568D01*
X106944800Y-131564568D02*
X106992419Y-131659806D01*
X106992419Y-131659806D02*
X106992419Y-131945520D01*
X106992419Y-131945520D02*
X106944800Y-132040758D01*
X106944800Y-132040758D02*
X106897180Y-132088377D01*
X105992419Y-131183615D02*
X106992419Y-130850282D01*
X106992419Y-130850282D02*
X105992419Y-130516949D01*
X105992419Y-130278853D02*
X105992419Y-129659806D01*
X105992419Y-129659806D02*
X106373371Y-129993139D01*
X106373371Y-129993139D02*
X106373371Y-129850282D01*
X106373371Y-129850282D02*
X106420990Y-129755044D01*
X106420990Y-129755044D02*
X106468609Y-129707425D01*
X106468609Y-129707425D02*
X106563847Y-129659806D01*
X106563847Y-129659806D02*
X106801942Y-129659806D01*
X106801942Y-129659806D02*
X106897180Y-129707425D01*
X106897180Y-129707425D02*
X106944800Y-129755044D01*
X106944800Y-129755044D02*
X106992419Y-129850282D01*
X106992419Y-129850282D02*
X106992419Y-130135996D01*
X106992419Y-130135996D02*
X106944800Y-130231234D01*
X106944800Y-130231234D02*
X106897180Y-130278853D01*
X111072419Y-133755044D02*
X111072419Y-133945520D01*
X111072419Y-133945520D02*
X111120038Y-134040758D01*
X111120038Y-134040758D02*
X111167657Y-134088377D01*
X111167657Y-134088377D02*
X111310514Y-134183615D01*
X111310514Y-134183615D02*
X111500990Y-134231234D01*
X111500990Y-134231234D02*
X111881942Y-134231234D01*
X111881942Y-134231234D02*
X111977180Y-134183615D01*
X111977180Y-134183615D02*
X112024800Y-134135996D01*
X112024800Y-134135996D02*
X112072419Y-134040758D01*
X112072419Y-134040758D02*
X112072419Y-133850282D01*
X112072419Y-133850282D02*
X112024800Y-133755044D01*
X112024800Y-133755044D02*
X111977180Y-133707425D01*
X111977180Y-133707425D02*
X111881942Y-133659806D01*
X111881942Y-133659806D02*
X111643847Y-133659806D01*
X111643847Y-133659806D02*
X111548609Y-133707425D01*
X111548609Y-133707425D02*
X111500990Y-133755044D01*
X111500990Y-133755044D02*
X111453371Y-133850282D01*
X111453371Y-133850282D02*
X111453371Y-134040758D01*
X111453371Y-134040758D02*
X111500990Y-134135996D01*
X111500990Y-134135996D02*
X111548609Y-134183615D01*
X111548609Y-134183615D02*
X111643847Y-134231234D01*
X111691466Y-133231234D02*
X111691466Y-132469330D01*
X112024800Y-132040758D02*
X112072419Y-131897901D01*
X112072419Y-131897901D02*
X112072419Y-131659806D01*
X112072419Y-131659806D02*
X112024800Y-131564568D01*
X112024800Y-131564568D02*
X111977180Y-131516949D01*
X111977180Y-131516949D02*
X111881942Y-131469330D01*
X111881942Y-131469330D02*
X111786704Y-131469330D01*
X111786704Y-131469330D02*
X111691466Y-131516949D01*
X111691466Y-131516949D02*
X111643847Y-131564568D01*
X111643847Y-131564568D02*
X111596228Y-131659806D01*
X111596228Y-131659806D02*
X111548609Y-131850282D01*
X111548609Y-131850282D02*
X111500990Y-131945520D01*
X111500990Y-131945520D02*
X111453371Y-131993139D01*
X111453371Y-131993139D02*
X111358133Y-132040758D01*
X111358133Y-132040758D02*
X111262895Y-132040758D01*
X111262895Y-132040758D02*
X111167657Y-131993139D01*
X111167657Y-131993139D02*
X111120038Y-131945520D01*
X111120038Y-131945520D02*
X111072419Y-131850282D01*
X111072419Y-131850282D02*
X111072419Y-131612187D01*
X111072419Y-131612187D02*
X111120038Y-131469330D01*
X111977180Y-130469330D02*
X112024800Y-130516949D01*
X112024800Y-130516949D02*
X112072419Y-130659806D01*
X112072419Y-130659806D02*
X112072419Y-130755044D01*
X112072419Y-130755044D02*
X112024800Y-130897901D01*
X112024800Y-130897901D02*
X111929561Y-130993139D01*
X111929561Y-130993139D02*
X111834323Y-131040758D01*
X111834323Y-131040758D02*
X111643847Y-131088377D01*
X111643847Y-131088377D02*
X111500990Y-131088377D01*
X111500990Y-131088377D02*
X111310514Y-131040758D01*
X111310514Y-131040758D02*
X111215276Y-130993139D01*
X111215276Y-130993139D02*
X111120038Y-130897901D01*
X111120038Y-130897901D02*
X111072419Y-130755044D01*
X111072419Y-130755044D02*
X111072419Y-130659806D01*
X111072419Y-130659806D02*
X111120038Y-130516949D01*
X111120038Y-130516949D02*
X111167657Y-130469330D01*
X112072419Y-129564568D02*
X112072419Y-130040758D01*
X112072419Y-130040758D02*
X111072419Y-130040758D01*
X133967580Y-64315193D02*
X133967580Y-63743765D01*
X133967580Y-64029479D02*
X134967580Y-64029479D01*
X134967580Y-64029479D02*
X134824723Y-63934241D01*
X134824723Y-63934241D02*
X134729485Y-63839003D01*
X134729485Y-63839003D02*
X134681866Y-63743765D01*
X134967580Y-65219955D02*
X134967580Y-64743765D01*
X134967580Y-64743765D02*
X134491390Y-64696146D01*
X134491390Y-64696146D02*
X134539009Y-64743765D01*
X134539009Y-64743765D02*
X134586628Y-64839003D01*
X134586628Y-64839003D02*
X134586628Y-65077098D01*
X134586628Y-65077098D02*
X134539009Y-65172336D01*
X134539009Y-65172336D02*
X134491390Y-65219955D01*
X134491390Y-65219955D02*
X134396152Y-65267574D01*
X134396152Y-65267574D02*
X134158057Y-65267574D01*
X134158057Y-65267574D02*
X134062819Y-65219955D01*
X134062819Y-65219955D02*
X134015200Y-65172336D01*
X134015200Y-65172336D02*
X133967580Y-65077098D01*
X133967580Y-65077098D02*
X133967580Y-64839003D01*
X133967580Y-64839003D02*
X134015200Y-64743765D01*
X134015200Y-64743765D02*
X134062819Y-64696146D01*
X134348533Y-65696146D02*
X134348533Y-66458051D01*
X134491390Y-66934241D02*
X134491390Y-67267574D01*
X133967580Y-67410431D02*
X133967580Y-66934241D01*
X133967580Y-66934241D02*
X134967580Y-66934241D01*
X134967580Y-66934241D02*
X134967580Y-67410431D01*
X134967580Y-67743765D02*
X133967580Y-68410431D01*
X134967580Y-68410431D02*
X133967580Y-67743765D01*
X134967580Y-68648527D02*
X134967580Y-69219955D01*
X133967580Y-68934241D02*
X134967580Y-68934241D01*
X134872342Y-69505670D02*
X134919961Y-69553289D01*
X134919961Y-69553289D02*
X134967580Y-69648527D01*
X134967580Y-69648527D02*
X134967580Y-69886622D01*
X134967580Y-69886622D02*
X134919961Y-69981860D01*
X134919961Y-69981860D02*
X134872342Y-70029479D01*
X134872342Y-70029479D02*
X134777104Y-70077098D01*
X134777104Y-70077098D02*
X134681866Y-70077098D01*
X134681866Y-70077098D02*
X134539009Y-70029479D01*
X134539009Y-70029479D02*
X133967580Y-69458051D01*
X133967580Y-69458051D02*
X133967580Y-70077098D01*
X116759009Y-63934241D02*
X116806628Y-63839003D01*
X116806628Y-63839003D02*
X116854247Y-63791384D01*
X116854247Y-63791384D02*
X116949485Y-63743765D01*
X116949485Y-63743765D02*
X116997104Y-63743765D01*
X116997104Y-63743765D02*
X117092342Y-63791384D01*
X117092342Y-63791384D02*
X117139961Y-63839003D01*
X117139961Y-63839003D02*
X117187580Y-63934241D01*
X117187580Y-63934241D02*
X117187580Y-64124717D01*
X117187580Y-64124717D02*
X117139961Y-64219955D01*
X117139961Y-64219955D02*
X117092342Y-64267574D01*
X117092342Y-64267574D02*
X116997104Y-64315193D01*
X116997104Y-64315193D02*
X116949485Y-64315193D01*
X116949485Y-64315193D02*
X116854247Y-64267574D01*
X116854247Y-64267574D02*
X116806628Y-64219955D01*
X116806628Y-64219955D02*
X116759009Y-64124717D01*
X116759009Y-64124717D02*
X116759009Y-63934241D01*
X116759009Y-63934241D02*
X116711390Y-63839003D01*
X116711390Y-63839003D02*
X116663771Y-63791384D01*
X116663771Y-63791384D02*
X116568533Y-63743765D01*
X116568533Y-63743765D02*
X116378057Y-63743765D01*
X116378057Y-63743765D02*
X116282819Y-63791384D01*
X116282819Y-63791384D02*
X116235200Y-63839003D01*
X116235200Y-63839003D02*
X116187580Y-63934241D01*
X116187580Y-63934241D02*
X116187580Y-64124717D01*
X116187580Y-64124717D02*
X116235200Y-64219955D01*
X116235200Y-64219955D02*
X116282819Y-64267574D01*
X116282819Y-64267574D02*
X116378057Y-64315193D01*
X116378057Y-64315193D02*
X116568533Y-64315193D01*
X116568533Y-64315193D02*
X116663771Y-64267574D01*
X116663771Y-64267574D02*
X116711390Y-64219955D01*
X116711390Y-64219955D02*
X116759009Y-64124717D01*
X116568533Y-64743765D02*
X116568533Y-65505670D01*
X116235200Y-65934241D02*
X116187580Y-66077098D01*
X116187580Y-66077098D02*
X116187580Y-66315193D01*
X116187580Y-66315193D02*
X116235200Y-66410431D01*
X116235200Y-66410431D02*
X116282819Y-66458050D01*
X116282819Y-66458050D02*
X116378057Y-66505669D01*
X116378057Y-66505669D02*
X116473295Y-66505669D01*
X116473295Y-66505669D02*
X116568533Y-66458050D01*
X116568533Y-66458050D02*
X116616152Y-66410431D01*
X116616152Y-66410431D02*
X116663771Y-66315193D01*
X116663771Y-66315193D02*
X116711390Y-66124717D01*
X116711390Y-66124717D02*
X116759009Y-66029479D01*
X116759009Y-66029479D02*
X116806628Y-65981860D01*
X116806628Y-65981860D02*
X116901866Y-65934241D01*
X116901866Y-65934241D02*
X116997104Y-65934241D01*
X116997104Y-65934241D02*
X117092342Y-65981860D01*
X117092342Y-65981860D02*
X117139961Y-66029479D01*
X117139961Y-66029479D02*
X117187580Y-66124717D01*
X117187580Y-66124717D02*
X117187580Y-66362812D01*
X117187580Y-66362812D02*
X117139961Y-66505669D01*
X116187580Y-66934241D02*
X117187580Y-66934241D01*
X117187580Y-66934241D02*
X117187580Y-67172336D01*
X117187580Y-67172336D02*
X117139961Y-67315193D01*
X117139961Y-67315193D02*
X117044723Y-67410431D01*
X117044723Y-67410431D02*
X116949485Y-67458050D01*
X116949485Y-67458050D02*
X116759009Y-67505669D01*
X116759009Y-67505669D02*
X116616152Y-67505669D01*
X116616152Y-67505669D02*
X116425676Y-67458050D01*
X116425676Y-67458050D02*
X116330438Y-67410431D01*
X116330438Y-67410431D02*
X116235200Y-67315193D01*
X116235200Y-67315193D02*
X116187580Y-67172336D01*
X116187580Y-67172336D02*
X116187580Y-66934241D01*
X116473295Y-67886622D02*
X116473295Y-68362812D01*
X116187580Y-67791384D02*
X117187580Y-68124717D01*
X117187580Y-68124717D02*
X116187580Y-68458050D01*
X57913884Y-84959919D02*
X57913884Y-83959919D01*
X57913884Y-83959919D02*
X58485312Y-84959919D01*
X58485312Y-84959919D02*
X58485312Y-83959919D01*
X59532931Y-84959919D02*
X59199598Y-84483728D01*
X58961503Y-84959919D02*
X58961503Y-83959919D01*
X58961503Y-83959919D02*
X59342455Y-83959919D01*
X59342455Y-83959919D02*
X59437693Y-84007538D01*
X59437693Y-84007538D02*
X59485312Y-84055157D01*
X59485312Y-84055157D02*
X59532931Y-84150395D01*
X59532931Y-84150395D02*
X59532931Y-84293252D01*
X59532931Y-84293252D02*
X59485312Y-84388490D01*
X59485312Y-84388490D02*
X59437693Y-84436109D01*
X59437693Y-84436109D02*
X59342455Y-84483728D01*
X59342455Y-84483728D02*
X58961503Y-84483728D01*
X59913884Y-84912300D02*
X60056741Y-84959919D01*
X60056741Y-84959919D02*
X60294836Y-84959919D01*
X60294836Y-84959919D02*
X60390074Y-84912300D01*
X60390074Y-84912300D02*
X60437693Y-84864680D01*
X60437693Y-84864680D02*
X60485312Y-84769442D01*
X60485312Y-84769442D02*
X60485312Y-84674204D01*
X60485312Y-84674204D02*
X60437693Y-84578966D01*
X60437693Y-84578966D02*
X60390074Y-84531347D01*
X60390074Y-84531347D02*
X60294836Y-84483728D01*
X60294836Y-84483728D02*
X60104360Y-84436109D01*
X60104360Y-84436109D02*
X60009122Y-84388490D01*
X60009122Y-84388490D02*
X59961503Y-84340871D01*
X59961503Y-84340871D02*
X59913884Y-84245633D01*
X59913884Y-84245633D02*
X59913884Y-84150395D01*
X59913884Y-84150395D02*
X59961503Y-84055157D01*
X59961503Y-84055157D02*
X60009122Y-84007538D01*
X60009122Y-84007538D02*
X60104360Y-83959919D01*
X60104360Y-83959919D02*
X60342455Y-83959919D01*
X60342455Y-83959919D02*
X60485312Y-84007538D01*
X60771027Y-83959919D02*
X61342455Y-83959919D01*
X61056741Y-84959919D02*
X61056741Y-83959919D01*
X134932419Y-133659806D02*
X134932419Y-134231234D01*
X134932419Y-133945520D02*
X133932419Y-133945520D01*
X133932419Y-133945520D02*
X134075276Y-134040758D01*
X134075276Y-134040758D02*
X134170514Y-134135996D01*
X134170514Y-134135996D02*
X134218133Y-134231234D01*
X133932419Y-132755044D02*
X133932419Y-133231234D01*
X133932419Y-133231234D02*
X134408609Y-133278853D01*
X134408609Y-133278853D02*
X134360990Y-133231234D01*
X134360990Y-133231234D02*
X134313371Y-133135996D01*
X134313371Y-133135996D02*
X134313371Y-132897901D01*
X134313371Y-132897901D02*
X134360990Y-132802663D01*
X134360990Y-132802663D02*
X134408609Y-132755044D01*
X134408609Y-132755044D02*
X134503847Y-132707425D01*
X134503847Y-132707425D02*
X134741942Y-132707425D01*
X134741942Y-132707425D02*
X134837180Y-132755044D01*
X134837180Y-132755044D02*
X134884800Y-132802663D01*
X134884800Y-132802663D02*
X134932419Y-132897901D01*
X134932419Y-132897901D02*
X134932419Y-133135996D01*
X134932419Y-133135996D02*
X134884800Y-133231234D01*
X134884800Y-133231234D02*
X134837180Y-133278853D01*
X134551466Y-132278853D02*
X134551466Y-131516949D01*
X134408609Y-131040758D02*
X134408609Y-130707425D01*
X134932419Y-130564568D02*
X134932419Y-131040758D01*
X134932419Y-131040758D02*
X133932419Y-131040758D01*
X133932419Y-131040758D02*
X133932419Y-130564568D01*
X133932419Y-130231234D02*
X134932419Y-129564568D01*
X133932419Y-129564568D02*
X134932419Y-130231234D01*
X133932419Y-129326472D02*
X133932419Y-128755044D01*
X134932419Y-129040758D02*
X133932419Y-129040758D01*
X134027657Y-128469329D02*
X133980038Y-128421710D01*
X133980038Y-128421710D02*
X133932419Y-128326472D01*
X133932419Y-128326472D02*
X133932419Y-128088377D01*
X133932419Y-128088377D02*
X133980038Y-127993139D01*
X133980038Y-127993139D02*
X134027657Y-127945520D01*
X134027657Y-127945520D02*
X134122895Y-127897901D01*
X134122895Y-127897901D02*
X134218133Y-127897901D01*
X134218133Y-127897901D02*
X134360990Y-127945520D01*
X134360990Y-127945520D02*
X134932419Y-128516948D01*
X134932419Y-128516948D02*
X134932419Y-127897901D01*
X80173884Y-84939919D02*
X80173884Y-83939919D01*
X80173884Y-83939919D02*
X80745312Y-84939919D01*
X80745312Y-84939919D02*
X80745312Y-83939919D01*
X81792931Y-84939919D02*
X81459598Y-84463728D01*
X81221503Y-84939919D02*
X81221503Y-83939919D01*
X81221503Y-83939919D02*
X81602455Y-83939919D01*
X81602455Y-83939919D02*
X81697693Y-83987538D01*
X81697693Y-83987538D02*
X81745312Y-84035157D01*
X81745312Y-84035157D02*
X81792931Y-84130395D01*
X81792931Y-84130395D02*
X81792931Y-84273252D01*
X81792931Y-84273252D02*
X81745312Y-84368490D01*
X81745312Y-84368490D02*
X81697693Y-84416109D01*
X81697693Y-84416109D02*
X81602455Y-84463728D01*
X81602455Y-84463728D02*
X81221503Y-84463728D01*
X82173884Y-84892300D02*
X82316741Y-84939919D01*
X82316741Y-84939919D02*
X82554836Y-84939919D01*
X82554836Y-84939919D02*
X82650074Y-84892300D01*
X82650074Y-84892300D02*
X82697693Y-84844680D01*
X82697693Y-84844680D02*
X82745312Y-84749442D01*
X82745312Y-84749442D02*
X82745312Y-84654204D01*
X82745312Y-84654204D02*
X82697693Y-84558966D01*
X82697693Y-84558966D02*
X82650074Y-84511347D01*
X82650074Y-84511347D02*
X82554836Y-84463728D01*
X82554836Y-84463728D02*
X82364360Y-84416109D01*
X82364360Y-84416109D02*
X82269122Y-84368490D01*
X82269122Y-84368490D02*
X82221503Y-84320871D01*
X82221503Y-84320871D02*
X82173884Y-84225633D01*
X82173884Y-84225633D02*
X82173884Y-84130395D01*
X82173884Y-84130395D02*
X82221503Y-84035157D01*
X82221503Y-84035157D02*
X82269122Y-83987538D01*
X82269122Y-83987538D02*
X82364360Y-83939919D01*
X82364360Y-83939919D02*
X82602455Y-83939919D01*
X82602455Y-83939919D02*
X82745312Y-83987538D01*
X83031027Y-83939919D02*
X83602455Y-83939919D01*
X83316741Y-84939919D02*
X83316741Y-83939919D01*
X57913884Y-110359919D02*
X57913884Y-109359919D01*
X57913884Y-109359919D02*
X58151979Y-109359919D01*
X58151979Y-109359919D02*
X58294836Y-109407538D01*
X58294836Y-109407538D02*
X58390074Y-109502776D01*
X58390074Y-109502776D02*
X58437693Y-109598014D01*
X58437693Y-109598014D02*
X58485312Y-109788490D01*
X58485312Y-109788490D02*
X58485312Y-109931347D01*
X58485312Y-109931347D02*
X58437693Y-110121823D01*
X58437693Y-110121823D02*
X58390074Y-110217061D01*
X58390074Y-110217061D02*
X58294836Y-110312300D01*
X58294836Y-110312300D02*
X58151979Y-110359919D01*
X58151979Y-110359919D02*
X57913884Y-110359919D01*
X59437693Y-110359919D02*
X58866265Y-110359919D01*
X59151979Y-110359919D02*
X59151979Y-109359919D01*
X59151979Y-109359919D02*
X59056741Y-109502776D01*
X59056741Y-109502776D02*
X58961503Y-109598014D01*
X58961503Y-109598014D02*
X58866265Y-109645633D01*
X60056741Y-109359919D02*
X60151979Y-109359919D01*
X60151979Y-109359919D02*
X60247217Y-109407538D01*
X60247217Y-109407538D02*
X60294836Y-109455157D01*
X60294836Y-109455157D02*
X60342455Y-109550395D01*
X60342455Y-109550395D02*
X60390074Y-109740871D01*
X60390074Y-109740871D02*
X60390074Y-109978966D01*
X60390074Y-109978966D02*
X60342455Y-110169442D01*
X60342455Y-110169442D02*
X60294836Y-110264680D01*
X60294836Y-110264680D02*
X60247217Y-110312300D01*
X60247217Y-110312300D02*
X60151979Y-110359919D01*
X60151979Y-110359919D02*
X60056741Y-110359919D01*
X60056741Y-110359919D02*
X59961503Y-110312300D01*
X59961503Y-110312300D02*
X59913884Y-110264680D01*
X59913884Y-110264680D02*
X59866265Y-110169442D01*
X59866265Y-110169442D02*
X59818646Y-109978966D01*
X59818646Y-109978966D02*
X59818646Y-109740871D01*
X59818646Y-109740871D02*
X59866265Y-109550395D01*
X59866265Y-109550395D02*
X59913884Y-109455157D01*
X59913884Y-109455157D02*
X59961503Y-109407538D01*
X59961503Y-109407538D02*
X60056741Y-109359919D01*
X99372419Y-133659806D02*
X99372419Y-134231234D01*
X99372419Y-133945520D02*
X98372419Y-133945520D01*
X98372419Y-133945520D02*
X98515276Y-134040758D01*
X98515276Y-134040758D02*
X98610514Y-134135996D01*
X98610514Y-134135996D02*
X98658133Y-134231234D01*
X98991466Y-133231234D02*
X98991466Y-132469330D01*
X98420038Y-131469330D02*
X98372419Y-131564568D01*
X98372419Y-131564568D02*
X98372419Y-131707425D01*
X98372419Y-131707425D02*
X98420038Y-131850282D01*
X98420038Y-131850282D02*
X98515276Y-131945520D01*
X98515276Y-131945520D02*
X98610514Y-131993139D01*
X98610514Y-131993139D02*
X98800990Y-132040758D01*
X98800990Y-132040758D02*
X98943847Y-132040758D01*
X98943847Y-132040758D02*
X99134323Y-131993139D01*
X99134323Y-131993139D02*
X99229561Y-131945520D01*
X99229561Y-131945520D02*
X99324800Y-131850282D01*
X99324800Y-131850282D02*
X99372419Y-131707425D01*
X99372419Y-131707425D02*
X99372419Y-131612187D01*
X99372419Y-131612187D02*
X99324800Y-131469330D01*
X99324800Y-131469330D02*
X99277180Y-131421711D01*
X99277180Y-131421711D02*
X98943847Y-131421711D01*
X98943847Y-131421711D02*
X98943847Y-131612187D01*
X99372419Y-130993139D02*
X98372419Y-130993139D01*
X98372419Y-130993139D02*
X99372419Y-130421711D01*
X99372419Y-130421711D02*
X98372419Y-130421711D01*
X99372419Y-129945520D02*
X98372419Y-129945520D01*
X98372419Y-129945520D02*
X98372419Y-129707425D01*
X98372419Y-129707425D02*
X98420038Y-129564568D01*
X98420038Y-129564568D02*
X98515276Y-129469330D01*
X98515276Y-129469330D02*
X98610514Y-129421711D01*
X98610514Y-129421711D02*
X98800990Y-129374092D01*
X98800990Y-129374092D02*
X98943847Y-129374092D01*
X98943847Y-129374092D02*
X99134323Y-129421711D01*
X99134323Y-129421711D02*
X99229561Y-129469330D01*
X99229561Y-129469330D02*
X99324800Y-129564568D01*
X99324800Y-129564568D02*
X99372419Y-129707425D01*
X99372419Y-129707425D02*
X99372419Y-129945520D01*
X108532419Y-133707425D02*
X108532419Y-134183615D01*
X108532419Y-134183615D02*
X109008609Y-134231234D01*
X109008609Y-134231234D02*
X108960990Y-134183615D01*
X108960990Y-134183615D02*
X108913371Y-134088377D01*
X108913371Y-134088377D02*
X108913371Y-133850282D01*
X108913371Y-133850282D02*
X108960990Y-133755044D01*
X108960990Y-133755044D02*
X109008609Y-133707425D01*
X109008609Y-133707425D02*
X109103847Y-133659806D01*
X109103847Y-133659806D02*
X109341942Y-133659806D01*
X109341942Y-133659806D02*
X109437180Y-133707425D01*
X109437180Y-133707425D02*
X109484800Y-133755044D01*
X109484800Y-133755044D02*
X109532419Y-133850282D01*
X109532419Y-133850282D02*
X109532419Y-134088377D01*
X109532419Y-134088377D02*
X109484800Y-134183615D01*
X109484800Y-134183615D02*
X109437180Y-134231234D01*
X109151466Y-133231234D02*
X109151466Y-132469330D01*
X108580038Y-131469330D02*
X108532419Y-131564568D01*
X108532419Y-131564568D02*
X108532419Y-131707425D01*
X108532419Y-131707425D02*
X108580038Y-131850282D01*
X108580038Y-131850282D02*
X108675276Y-131945520D01*
X108675276Y-131945520D02*
X108770514Y-131993139D01*
X108770514Y-131993139D02*
X108960990Y-132040758D01*
X108960990Y-132040758D02*
X109103847Y-132040758D01*
X109103847Y-132040758D02*
X109294323Y-131993139D01*
X109294323Y-131993139D02*
X109389561Y-131945520D01*
X109389561Y-131945520D02*
X109484800Y-131850282D01*
X109484800Y-131850282D02*
X109532419Y-131707425D01*
X109532419Y-131707425D02*
X109532419Y-131612187D01*
X109532419Y-131612187D02*
X109484800Y-131469330D01*
X109484800Y-131469330D02*
X109437180Y-131421711D01*
X109437180Y-131421711D02*
X109103847Y-131421711D01*
X109103847Y-131421711D02*
X109103847Y-131612187D01*
X109532419Y-130993139D02*
X108532419Y-130993139D01*
X108532419Y-130993139D02*
X109532419Y-130421711D01*
X109532419Y-130421711D02*
X108532419Y-130421711D01*
X109532419Y-129945520D02*
X108532419Y-129945520D01*
X108532419Y-129945520D02*
X108532419Y-129707425D01*
X108532419Y-129707425D02*
X108580038Y-129564568D01*
X108580038Y-129564568D02*
X108675276Y-129469330D01*
X108675276Y-129469330D02*
X108770514Y-129421711D01*
X108770514Y-129421711D02*
X108960990Y-129374092D01*
X108960990Y-129374092D02*
X109103847Y-129374092D01*
X109103847Y-129374092D02*
X109294323Y-129421711D01*
X109294323Y-129421711D02*
X109389561Y-129469330D01*
X109389561Y-129469330D02*
X109484800Y-129564568D01*
X109484800Y-129564568D02*
X109532419Y-129707425D01*
X109532419Y-129707425D02*
X109532419Y-129945520D01*
X128887580Y-64315193D02*
X128887580Y-63743765D01*
X128887580Y-64029479D02*
X129887580Y-64029479D01*
X129887580Y-64029479D02*
X129744723Y-63934241D01*
X129744723Y-63934241D02*
X129649485Y-63839003D01*
X129649485Y-63839003D02*
X129601866Y-63743765D01*
X129887580Y-64648527D02*
X129887580Y-65267574D01*
X129887580Y-65267574D02*
X129506628Y-64934241D01*
X129506628Y-64934241D02*
X129506628Y-65077098D01*
X129506628Y-65077098D02*
X129459009Y-65172336D01*
X129459009Y-65172336D02*
X129411390Y-65219955D01*
X129411390Y-65219955D02*
X129316152Y-65267574D01*
X129316152Y-65267574D02*
X129078057Y-65267574D01*
X129078057Y-65267574D02*
X128982819Y-65219955D01*
X128982819Y-65219955D02*
X128935200Y-65172336D01*
X128935200Y-65172336D02*
X128887580Y-65077098D01*
X128887580Y-65077098D02*
X128887580Y-64791384D01*
X128887580Y-64791384D02*
X128935200Y-64696146D01*
X128935200Y-64696146D02*
X128982819Y-64648527D01*
X129268533Y-65696146D02*
X129268533Y-66458051D01*
X129839961Y-67458050D02*
X129887580Y-67362812D01*
X129887580Y-67362812D02*
X129887580Y-67219955D01*
X129887580Y-67219955D02*
X129839961Y-67077098D01*
X129839961Y-67077098D02*
X129744723Y-66981860D01*
X129744723Y-66981860D02*
X129649485Y-66934241D01*
X129649485Y-66934241D02*
X129459009Y-66886622D01*
X129459009Y-66886622D02*
X129316152Y-66886622D01*
X129316152Y-66886622D02*
X129125676Y-66934241D01*
X129125676Y-66934241D02*
X129030438Y-66981860D01*
X129030438Y-66981860D02*
X128935200Y-67077098D01*
X128935200Y-67077098D02*
X128887580Y-67219955D01*
X128887580Y-67219955D02*
X128887580Y-67315193D01*
X128887580Y-67315193D02*
X128935200Y-67458050D01*
X128935200Y-67458050D02*
X128982819Y-67505669D01*
X128982819Y-67505669D02*
X129316152Y-67505669D01*
X129316152Y-67505669D02*
X129316152Y-67315193D01*
X128887580Y-67934241D02*
X129887580Y-67934241D01*
X129887580Y-67934241D02*
X128887580Y-68505669D01*
X128887580Y-68505669D02*
X129887580Y-68505669D01*
X128887580Y-68981860D02*
X129887580Y-68981860D01*
X129887580Y-68981860D02*
X129887580Y-69219955D01*
X129887580Y-69219955D02*
X129839961Y-69362812D01*
X129839961Y-69362812D02*
X129744723Y-69458050D01*
X129744723Y-69458050D02*
X129649485Y-69505669D01*
X129649485Y-69505669D02*
X129459009Y-69553288D01*
X129459009Y-69553288D02*
X129316152Y-69553288D01*
X129316152Y-69553288D02*
X129125676Y-69505669D01*
X129125676Y-69505669D02*
X129030438Y-69458050D01*
X129030438Y-69458050D02*
X128935200Y-69362812D01*
X128935200Y-69362812D02*
X128887580Y-69219955D01*
X128887580Y-69219955D02*
X128887580Y-68981860D01*
X118727580Y-63839003D02*
X118727580Y-64029479D01*
X118727580Y-64029479D02*
X118775200Y-64124717D01*
X118775200Y-64124717D02*
X118822819Y-64172336D01*
X118822819Y-64172336D02*
X118965676Y-64267574D01*
X118965676Y-64267574D02*
X119156152Y-64315193D01*
X119156152Y-64315193D02*
X119537104Y-64315193D01*
X119537104Y-64315193D02*
X119632342Y-64267574D01*
X119632342Y-64267574D02*
X119679961Y-64219955D01*
X119679961Y-64219955D02*
X119727580Y-64124717D01*
X119727580Y-64124717D02*
X119727580Y-63934241D01*
X119727580Y-63934241D02*
X119679961Y-63839003D01*
X119679961Y-63839003D02*
X119632342Y-63791384D01*
X119632342Y-63791384D02*
X119537104Y-63743765D01*
X119537104Y-63743765D02*
X119299009Y-63743765D01*
X119299009Y-63743765D02*
X119203771Y-63791384D01*
X119203771Y-63791384D02*
X119156152Y-63839003D01*
X119156152Y-63839003D02*
X119108533Y-63934241D01*
X119108533Y-63934241D02*
X119108533Y-64124717D01*
X119108533Y-64124717D02*
X119156152Y-64219955D01*
X119156152Y-64219955D02*
X119203771Y-64267574D01*
X119203771Y-64267574D02*
X119299009Y-64315193D01*
X119108533Y-64743765D02*
X119108533Y-65505670D01*
X119679961Y-66505669D02*
X119727580Y-66410431D01*
X119727580Y-66410431D02*
X119727580Y-66267574D01*
X119727580Y-66267574D02*
X119679961Y-66124717D01*
X119679961Y-66124717D02*
X119584723Y-66029479D01*
X119584723Y-66029479D02*
X119489485Y-65981860D01*
X119489485Y-65981860D02*
X119299009Y-65934241D01*
X119299009Y-65934241D02*
X119156152Y-65934241D01*
X119156152Y-65934241D02*
X118965676Y-65981860D01*
X118965676Y-65981860D02*
X118870438Y-66029479D01*
X118870438Y-66029479D02*
X118775200Y-66124717D01*
X118775200Y-66124717D02*
X118727580Y-66267574D01*
X118727580Y-66267574D02*
X118727580Y-66362812D01*
X118727580Y-66362812D02*
X118775200Y-66505669D01*
X118775200Y-66505669D02*
X118822819Y-66553288D01*
X118822819Y-66553288D02*
X119156152Y-66553288D01*
X119156152Y-66553288D02*
X119156152Y-66362812D01*
X118727580Y-66981860D02*
X119727580Y-66981860D01*
X119727580Y-66981860D02*
X118727580Y-67553288D01*
X118727580Y-67553288D02*
X119727580Y-67553288D01*
X118727580Y-68029479D02*
X119727580Y-68029479D01*
X119727580Y-68029479D02*
X119727580Y-68267574D01*
X119727580Y-68267574D02*
X119679961Y-68410431D01*
X119679961Y-68410431D02*
X119584723Y-68505669D01*
X119584723Y-68505669D02*
X119489485Y-68553288D01*
X119489485Y-68553288D02*
X119299009Y-68600907D01*
X119299009Y-68600907D02*
X119156152Y-68600907D01*
X119156152Y-68600907D02*
X118965676Y-68553288D01*
X118965676Y-68553288D02*
X118870438Y-68505669D01*
X118870438Y-68505669D02*
X118775200Y-68410431D01*
X118775200Y-68410431D02*
X118727580Y-68267574D01*
X118727580Y-68267574D02*
X118727580Y-68029479D01*
X98407580Y-64315193D02*
X98407580Y-63743765D01*
X98407580Y-64029479D02*
X99407580Y-64029479D01*
X99407580Y-64029479D02*
X99264723Y-63934241D01*
X99264723Y-63934241D02*
X99169485Y-63839003D01*
X99169485Y-63839003D02*
X99121866Y-63743765D01*
X98788533Y-64743765D02*
X98788533Y-65505670D01*
X99359961Y-66505669D02*
X99407580Y-66410431D01*
X99407580Y-66410431D02*
X99407580Y-66267574D01*
X99407580Y-66267574D02*
X99359961Y-66124717D01*
X99359961Y-66124717D02*
X99264723Y-66029479D01*
X99264723Y-66029479D02*
X99169485Y-65981860D01*
X99169485Y-65981860D02*
X98979009Y-65934241D01*
X98979009Y-65934241D02*
X98836152Y-65934241D01*
X98836152Y-65934241D02*
X98645676Y-65981860D01*
X98645676Y-65981860D02*
X98550438Y-66029479D01*
X98550438Y-66029479D02*
X98455200Y-66124717D01*
X98455200Y-66124717D02*
X98407580Y-66267574D01*
X98407580Y-66267574D02*
X98407580Y-66362812D01*
X98407580Y-66362812D02*
X98455200Y-66505669D01*
X98455200Y-66505669D02*
X98502819Y-66553288D01*
X98502819Y-66553288D02*
X98836152Y-66553288D01*
X98836152Y-66553288D02*
X98836152Y-66362812D01*
X98407580Y-66981860D02*
X99407580Y-66981860D01*
X99407580Y-66981860D02*
X98407580Y-67553288D01*
X98407580Y-67553288D02*
X99407580Y-67553288D01*
X98407580Y-68029479D02*
X99407580Y-68029479D01*
X99407580Y-68029479D02*
X99407580Y-68267574D01*
X99407580Y-68267574D02*
X99359961Y-68410431D01*
X99359961Y-68410431D02*
X99264723Y-68505669D01*
X99264723Y-68505669D02*
X99169485Y-68553288D01*
X99169485Y-68553288D02*
X98979009Y-68600907D01*
X98979009Y-68600907D02*
X98836152Y-68600907D01*
X98836152Y-68600907D02*
X98645676Y-68553288D01*
X98645676Y-68553288D02*
X98550438Y-68505669D01*
X98550438Y-68505669D02*
X98455200Y-68410431D01*
X98455200Y-68410431D02*
X98407580Y-68267574D01*
X98407580Y-68267574D02*
X98407580Y-68029479D01*
X126347580Y-64315193D02*
X126347580Y-63743765D01*
X126347580Y-64029479D02*
X127347580Y-64029479D01*
X127347580Y-64029479D02*
X127204723Y-63934241D01*
X127204723Y-63934241D02*
X127109485Y-63839003D01*
X127109485Y-63839003D02*
X127061866Y-63743765D01*
X127252342Y-64696146D02*
X127299961Y-64743765D01*
X127299961Y-64743765D02*
X127347580Y-64839003D01*
X127347580Y-64839003D02*
X127347580Y-65077098D01*
X127347580Y-65077098D02*
X127299961Y-65172336D01*
X127299961Y-65172336D02*
X127252342Y-65219955D01*
X127252342Y-65219955D02*
X127157104Y-65267574D01*
X127157104Y-65267574D02*
X127061866Y-65267574D01*
X127061866Y-65267574D02*
X126919009Y-65219955D01*
X126919009Y-65219955D02*
X126347580Y-64648527D01*
X126347580Y-64648527D02*
X126347580Y-65267574D01*
X126728533Y-65696146D02*
X126728533Y-66458051D01*
X127347580Y-67410431D02*
X127347580Y-66934241D01*
X127347580Y-66934241D02*
X126871390Y-66886622D01*
X126871390Y-66886622D02*
X126919009Y-66934241D01*
X126919009Y-66934241D02*
X126966628Y-67029479D01*
X126966628Y-67029479D02*
X126966628Y-67267574D01*
X126966628Y-67267574D02*
X126919009Y-67362812D01*
X126919009Y-67362812D02*
X126871390Y-67410431D01*
X126871390Y-67410431D02*
X126776152Y-67458050D01*
X126776152Y-67458050D02*
X126538057Y-67458050D01*
X126538057Y-67458050D02*
X126442819Y-67410431D01*
X126442819Y-67410431D02*
X126395200Y-67362812D01*
X126395200Y-67362812D02*
X126347580Y-67267574D01*
X126347580Y-67267574D02*
X126347580Y-67029479D01*
X126347580Y-67029479D02*
X126395200Y-66934241D01*
X126395200Y-66934241D02*
X126442819Y-66886622D01*
X127347580Y-67743765D02*
X126347580Y-68077098D01*
X126347580Y-68077098D02*
X127347580Y-68410431D01*
X131427580Y-64315193D02*
X131427580Y-63743765D01*
X131427580Y-64029479D02*
X132427580Y-64029479D01*
X132427580Y-64029479D02*
X132284723Y-63934241D01*
X132284723Y-63934241D02*
X132189485Y-63839003D01*
X132189485Y-63839003D02*
X132141866Y-63743765D01*
X132094247Y-65172336D02*
X131427580Y-65172336D01*
X132475200Y-64934241D02*
X131760914Y-64696146D01*
X131760914Y-64696146D02*
X131760914Y-65315193D01*
X131808533Y-65696146D02*
X131808533Y-66458051D01*
X131951390Y-66934241D02*
X131951390Y-67267574D01*
X131427580Y-67410431D02*
X131427580Y-66934241D01*
X131427580Y-66934241D02*
X132427580Y-66934241D01*
X132427580Y-66934241D02*
X132427580Y-67410431D01*
X132427580Y-67743765D02*
X131427580Y-68410431D01*
X132427580Y-68410431D02*
X131427580Y-67743765D01*
X132427580Y-68648527D02*
X132427580Y-69219955D01*
X131427580Y-68934241D02*
X132427580Y-68934241D01*
X131427580Y-70077098D02*
X131427580Y-69505670D01*
X131427580Y-69791384D02*
X132427580Y-69791384D01*
X132427580Y-69791384D02*
X132284723Y-69696146D01*
X132284723Y-69696146D02*
X132189485Y-69600908D01*
X132189485Y-69600908D02*
X132141866Y-69505670D01*
X109567580Y-64267574D02*
X109567580Y-63791384D01*
X109567580Y-63791384D02*
X109091390Y-63743765D01*
X109091390Y-63743765D02*
X109139009Y-63791384D01*
X109139009Y-63791384D02*
X109186628Y-63886622D01*
X109186628Y-63886622D02*
X109186628Y-64124717D01*
X109186628Y-64124717D02*
X109139009Y-64219955D01*
X109139009Y-64219955D02*
X109091390Y-64267574D01*
X109091390Y-64267574D02*
X108996152Y-64315193D01*
X108996152Y-64315193D02*
X108758057Y-64315193D01*
X108758057Y-64315193D02*
X108662819Y-64267574D01*
X108662819Y-64267574D02*
X108615200Y-64219955D01*
X108615200Y-64219955D02*
X108567580Y-64124717D01*
X108567580Y-64124717D02*
X108567580Y-63886622D01*
X108567580Y-63886622D02*
X108615200Y-63791384D01*
X108615200Y-63791384D02*
X108662819Y-63743765D01*
X108948533Y-64743765D02*
X108948533Y-65505670D01*
X109519961Y-66505669D02*
X109567580Y-66410431D01*
X109567580Y-66410431D02*
X109567580Y-66267574D01*
X109567580Y-66267574D02*
X109519961Y-66124717D01*
X109519961Y-66124717D02*
X109424723Y-66029479D01*
X109424723Y-66029479D02*
X109329485Y-65981860D01*
X109329485Y-65981860D02*
X109139009Y-65934241D01*
X109139009Y-65934241D02*
X108996152Y-65934241D01*
X108996152Y-65934241D02*
X108805676Y-65981860D01*
X108805676Y-65981860D02*
X108710438Y-66029479D01*
X108710438Y-66029479D02*
X108615200Y-66124717D01*
X108615200Y-66124717D02*
X108567580Y-66267574D01*
X108567580Y-66267574D02*
X108567580Y-66362812D01*
X108567580Y-66362812D02*
X108615200Y-66505669D01*
X108615200Y-66505669D02*
X108662819Y-66553288D01*
X108662819Y-66553288D02*
X108996152Y-66553288D01*
X108996152Y-66553288D02*
X108996152Y-66362812D01*
X108567580Y-66981860D02*
X109567580Y-66981860D01*
X109567580Y-66981860D02*
X108567580Y-67553288D01*
X108567580Y-67553288D02*
X109567580Y-67553288D01*
X108567580Y-68029479D02*
X109567580Y-68029479D01*
X109567580Y-68029479D02*
X109567580Y-68267574D01*
X109567580Y-68267574D02*
X109519961Y-68410431D01*
X109519961Y-68410431D02*
X109424723Y-68505669D01*
X109424723Y-68505669D02*
X109329485Y-68553288D01*
X109329485Y-68553288D02*
X109139009Y-68600907D01*
X109139009Y-68600907D02*
X108996152Y-68600907D01*
X108996152Y-68600907D02*
X108805676Y-68553288D01*
X108805676Y-68553288D02*
X108710438Y-68505669D01*
X108710438Y-68505669D02*
X108615200Y-68410431D01*
X108615200Y-68410431D02*
X108567580Y-68267574D01*
X108567580Y-68267574D02*
X108567580Y-68029479D01*
X123807580Y-64315193D02*
X123807580Y-63743765D01*
X123807580Y-64029479D02*
X124807580Y-64029479D01*
X124807580Y-64029479D02*
X124664723Y-63934241D01*
X124664723Y-63934241D02*
X124569485Y-63839003D01*
X124569485Y-63839003D02*
X124521866Y-63743765D01*
X123807580Y-65267574D02*
X123807580Y-64696146D01*
X123807580Y-64981860D02*
X124807580Y-64981860D01*
X124807580Y-64981860D02*
X124664723Y-64886622D01*
X124664723Y-64886622D02*
X124569485Y-64791384D01*
X124569485Y-64791384D02*
X124521866Y-64696146D01*
X124188533Y-65696146D02*
X124188533Y-66458051D01*
X124759961Y-67458050D02*
X124807580Y-67362812D01*
X124807580Y-67362812D02*
X124807580Y-67219955D01*
X124807580Y-67219955D02*
X124759961Y-67077098D01*
X124759961Y-67077098D02*
X124664723Y-66981860D01*
X124664723Y-66981860D02*
X124569485Y-66934241D01*
X124569485Y-66934241D02*
X124379009Y-66886622D01*
X124379009Y-66886622D02*
X124236152Y-66886622D01*
X124236152Y-66886622D02*
X124045676Y-66934241D01*
X124045676Y-66934241D02*
X123950438Y-66981860D01*
X123950438Y-66981860D02*
X123855200Y-67077098D01*
X123855200Y-67077098D02*
X123807580Y-67219955D01*
X123807580Y-67219955D02*
X123807580Y-67315193D01*
X123807580Y-67315193D02*
X123855200Y-67458050D01*
X123855200Y-67458050D02*
X123902819Y-67505669D01*
X123902819Y-67505669D02*
X124236152Y-67505669D01*
X124236152Y-67505669D02*
X124236152Y-67315193D01*
X123807580Y-67934241D02*
X124807580Y-67934241D01*
X124807580Y-67934241D02*
X123807580Y-68505669D01*
X123807580Y-68505669D02*
X124807580Y-68505669D01*
X123807580Y-68981860D02*
X124807580Y-68981860D01*
X124807580Y-68981860D02*
X124807580Y-69219955D01*
X124807580Y-69219955D02*
X124759961Y-69362812D01*
X124759961Y-69362812D02*
X124664723Y-69458050D01*
X124664723Y-69458050D02*
X124569485Y-69505669D01*
X124569485Y-69505669D02*
X124379009Y-69553288D01*
X124379009Y-69553288D02*
X124236152Y-69553288D01*
X124236152Y-69553288D02*
X124045676Y-69505669D01*
X124045676Y-69505669D02*
X123950438Y-69458050D01*
X123950438Y-69458050D02*
X123855200Y-69362812D01*
X123855200Y-69362812D02*
X123807580Y-69219955D01*
X123807580Y-69219955D02*
X123807580Y-68981860D01*
X101852342Y-63743765D02*
X101899961Y-63791384D01*
X101899961Y-63791384D02*
X101947580Y-63886622D01*
X101947580Y-63886622D02*
X101947580Y-64124717D01*
X101947580Y-64124717D02*
X101899961Y-64219955D01*
X101899961Y-64219955D02*
X101852342Y-64267574D01*
X101852342Y-64267574D02*
X101757104Y-64315193D01*
X101757104Y-64315193D02*
X101661866Y-64315193D01*
X101661866Y-64315193D02*
X101519009Y-64267574D01*
X101519009Y-64267574D02*
X100947580Y-63696146D01*
X100947580Y-63696146D02*
X100947580Y-64315193D01*
X101328533Y-64743765D02*
X101328533Y-65505670D01*
X101899961Y-66505669D02*
X101947580Y-66410431D01*
X101947580Y-66410431D02*
X101947580Y-66267574D01*
X101947580Y-66267574D02*
X101899961Y-66124717D01*
X101899961Y-66124717D02*
X101804723Y-66029479D01*
X101804723Y-66029479D02*
X101709485Y-65981860D01*
X101709485Y-65981860D02*
X101519009Y-65934241D01*
X101519009Y-65934241D02*
X101376152Y-65934241D01*
X101376152Y-65934241D02*
X101185676Y-65981860D01*
X101185676Y-65981860D02*
X101090438Y-66029479D01*
X101090438Y-66029479D02*
X100995200Y-66124717D01*
X100995200Y-66124717D02*
X100947580Y-66267574D01*
X100947580Y-66267574D02*
X100947580Y-66362812D01*
X100947580Y-66362812D02*
X100995200Y-66505669D01*
X100995200Y-66505669D02*
X101042819Y-66553288D01*
X101042819Y-66553288D02*
X101376152Y-66553288D01*
X101376152Y-66553288D02*
X101376152Y-66362812D01*
X100947580Y-66981860D02*
X101947580Y-66981860D01*
X101947580Y-66981860D02*
X100947580Y-67553288D01*
X100947580Y-67553288D02*
X101947580Y-67553288D01*
X100947580Y-68029479D02*
X101947580Y-68029479D01*
X101947580Y-68029479D02*
X101947580Y-68267574D01*
X101947580Y-68267574D02*
X101899961Y-68410431D01*
X101899961Y-68410431D02*
X101804723Y-68505669D01*
X101804723Y-68505669D02*
X101709485Y-68553288D01*
X101709485Y-68553288D02*
X101519009Y-68600907D01*
X101519009Y-68600907D02*
X101376152Y-68600907D01*
X101376152Y-68600907D02*
X101185676Y-68553288D01*
X101185676Y-68553288D02*
X101090438Y-68505669D01*
X101090438Y-68505669D02*
X100995200Y-68410431D01*
X100995200Y-68410431D02*
X100947580Y-68267574D01*
X100947580Y-68267574D02*
X100947580Y-68029479D01*
X57913884Y-112899919D02*
X57913884Y-111899919D01*
X57913884Y-111899919D02*
X58151979Y-111899919D01*
X58151979Y-111899919D02*
X58294836Y-111947538D01*
X58294836Y-111947538D02*
X58390074Y-112042776D01*
X58390074Y-112042776D02*
X58437693Y-112138014D01*
X58437693Y-112138014D02*
X58485312Y-112328490D01*
X58485312Y-112328490D02*
X58485312Y-112471347D01*
X58485312Y-112471347D02*
X58437693Y-112661823D01*
X58437693Y-112661823D02*
X58390074Y-112757061D01*
X58390074Y-112757061D02*
X58294836Y-112852300D01*
X58294836Y-112852300D02*
X58151979Y-112899919D01*
X58151979Y-112899919D02*
X57913884Y-112899919D01*
X59437693Y-112899919D02*
X58866265Y-112899919D01*
X59151979Y-112899919D02*
X59151979Y-111899919D01*
X59151979Y-111899919D02*
X59056741Y-112042776D01*
X59056741Y-112042776D02*
X58961503Y-112138014D01*
X58961503Y-112138014D02*
X58866265Y-112185633D01*
X60390074Y-112899919D02*
X59818646Y-112899919D01*
X60104360Y-112899919D02*
X60104360Y-111899919D01*
X60104360Y-111899919D02*
X60009122Y-112042776D01*
X60009122Y-112042776D02*
X59913884Y-112138014D01*
X59913884Y-112138014D02*
X59818646Y-112185633D01*
X129852419Y-133659806D02*
X129852419Y-134231234D01*
X129852419Y-133945520D02*
X128852419Y-133945520D01*
X128852419Y-133945520D02*
X128995276Y-134040758D01*
X128995276Y-134040758D02*
X129090514Y-134135996D01*
X129090514Y-134135996D02*
X129138133Y-134231234D01*
X128852419Y-133326472D02*
X128852419Y-132707425D01*
X128852419Y-132707425D02*
X129233371Y-133040758D01*
X129233371Y-133040758D02*
X129233371Y-132897901D01*
X129233371Y-132897901D02*
X129280990Y-132802663D01*
X129280990Y-132802663D02*
X129328609Y-132755044D01*
X129328609Y-132755044D02*
X129423847Y-132707425D01*
X129423847Y-132707425D02*
X129661942Y-132707425D01*
X129661942Y-132707425D02*
X129757180Y-132755044D01*
X129757180Y-132755044D02*
X129804800Y-132802663D01*
X129804800Y-132802663D02*
X129852419Y-132897901D01*
X129852419Y-132897901D02*
X129852419Y-133183615D01*
X129852419Y-133183615D02*
X129804800Y-133278853D01*
X129804800Y-133278853D02*
X129757180Y-133326472D01*
X129471466Y-132278853D02*
X129471466Y-131516949D01*
X128900038Y-130516949D02*
X128852419Y-130612187D01*
X128852419Y-130612187D02*
X128852419Y-130755044D01*
X128852419Y-130755044D02*
X128900038Y-130897901D01*
X128900038Y-130897901D02*
X128995276Y-130993139D01*
X128995276Y-130993139D02*
X129090514Y-131040758D01*
X129090514Y-131040758D02*
X129280990Y-131088377D01*
X129280990Y-131088377D02*
X129423847Y-131088377D01*
X129423847Y-131088377D02*
X129614323Y-131040758D01*
X129614323Y-131040758D02*
X129709561Y-130993139D01*
X129709561Y-130993139D02*
X129804800Y-130897901D01*
X129804800Y-130897901D02*
X129852419Y-130755044D01*
X129852419Y-130755044D02*
X129852419Y-130659806D01*
X129852419Y-130659806D02*
X129804800Y-130516949D01*
X129804800Y-130516949D02*
X129757180Y-130469330D01*
X129757180Y-130469330D02*
X129423847Y-130469330D01*
X129423847Y-130469330D02*
X129423847Y-130659806D01*
X129852419Y-130040758D02*
X128852419Y-130040758D01*
X128852419Y-130040758D02*
X129852419Y-129469330D01*
X129852419Y-129469330D02*
X128852419Y-129469330D01*
X129852419Y-128993139D02*
X128852419Y-128993139D01*
X128852419Y-128993139D02*
X128852419Y-128755044D01*
X128852419Y-128755044D02*
X128900038Y-128612187D01*
X128900038Y-128612187D02*
X128995276Y-128516949D01*
X128995276Y-128516949D02*
X129090514Y-128469330D01*
X129090514Y-128469330D02*
X129280990Y-128421711D01*
X129280990Y-128421711D02*
X129423847Y-128421711D01*
X129423847Y-128421711D02*
X129614323Y-128469330D01*
X129614323Y-128469330D02*
X129709561Y-128516949D01*
X129709561Y-128516949D02*
X129804800Y-128612187D01*
X129804800Y-128612187D02*
X129852419Y-128755044D01*
X129852419Y-128755044D02*
X129852419Y-128993139D01*
X124772419Y-133659806D02*
X124772419Y-134231234D01*
X124772419Y-133945520D02*
X123772419Y-133945520D01*
X123772419Y-133945520D02*
X123915276Y-134040758D01*
X123915276Y-134040758D02*
X124010514Y-134135996D01*
X124010514Y-134135996D02*
X124058133Y-134231234D01*
X124772419Y-132707425D02*
X124772419Y-133278853D01*
X124772419Y-132993139D02*
X123772419Y-132993139D01*
X123772419Y-132993139D02*
X123915276Y-133088377D01*
X123915276Y-133088377D02*
X124010514Y-133183615D01*
X124010514Y-133183615D02*
X124058133Y-133278853D01*
X124391466Y-132278853D02*
X124391466Y-131516949D01*
X123820038Y-130516949D02*
X123772419Y-130612187D01*
X123772419Y-130612187D02*
X123772419Y-130755044D01*
X123772419Y-130755044D02*
X123820038Y-130897901D01*
X123820038Y-130897901D02*
X123915276Y-130993139D01*
X123915276Y-130993139D02*
X124010514Y-131040758D01*
X124010514Y-131040758D02*
X124200990Y-131088377D01*
X124200990Y-131088377D02*
X124343847Y-131088377D01*
X124343847Y-131088377D02*
X124534323Y-131040758D01*
X124534323Y-131040758D02*
X124629561Y-130993139D01*
X124629561Y-130993139D02*
X124724800Y-130897901D01*
X124724800Y-130897901D02*
X124772419Y-130755044D01*
X124772419Y-130755044D02*
X124772419Y-130659806D01*
X124772419Y-130659806D02*
X124724800Y-130516949D01*
X124724800Y-130516949D02*
X124677180Y-130469330D01*
X124677180Y-130469330D02*
X124343847Y-130469330D01*
X124343847Y-130469330D02*
X124343847Y-130659806D01*
X124772419Y-130040758D02*
X123772419Y-130040758D01*
X123772419Y-130040758D02*
X124772419Y-129469330D01*
X124772419Y-129469330D02*
X123772419Y-129469330D01*
X124772419Y-128993139D02*
X123772419Y-128993139D01*
X123772419Y-128993139D02*
X123772419Y-128755044D01*
X123772419Y-128755044D02*
X123820038Y-128612187D01*
X123820038Y-128612187D02*
X123915276Y-128516949D01*
X123915276Y-128516949D02*
X124010514Y-128469330D01*
X124010514Y-128469330D02*
X124200990Y-128421711D01*
X124200990Y-128421711D02*
X124343847Y-128421711D01*
X124343847Y-128421711D02*
X124534323Y-128469330D01*
X124534323Y-128469330D02*
X124629561Y-128516949D01*
X124629561Y-128516949D02*
X124724800Y-128612187D01*
X124724800Y-128612187D02*
X124772419Y-128755044D01*
X124772419Y-128755044D02*
X124772419Y-128993139D01*
X140012419Y-133659806D02*
X140012419Y-134231234D01*
X140012419Y-133945520D02*
X139012419Y-133945520D01*
X139012419Y-133945520D02*
X139155276Y-134040758D01*
X139155276Y-134040758D02*
X139250514Y-134135996D01*
X139250514Y-134135996D02*
X139298133Y-134231234D01*
X139012419Y-133326472D02*
X139012419Y-132659806D01*
X139012419Y-132659806D02*
X140012419Y-133088377D01*
X139631466Y-132278853D02*
X139631466Y-131516949D01*
X139488609Y-131040758D02*
X139488609Y-130707425D01*
X140012419Y-130564568D02*
X140012419Y-131040758D01*
X140012419Y-131040758D02*
X139012419Y-131040758D01*
X139012419Y-131040758D02*
X139012419Y-130564568D01*
X139012419Y-130231234D02*
X140012419Y-129564568D01*
X139012419Y-129564568D02*
X140012419Y-130231234D01*
X139012419Y-129326472D02*
X139012419Y-128755044D01*
X140012419Y-129040758D02*
X139012419Y-129040758D01*
X139345752Y-127993139D02*
X140012419Y-127993139D01*
X138964800Y-128231234D02*
X139679085Y-128469329D01*
X139679085Y-128469329D02*
X139679085Y-127850282D01*
X80126265Y-104974204D02*
X80602455Y-104974204D01*
X80031027Y-105259919D02*
X80364360Y-104259919D01*
X80364360Y-104259919D02*
X80697693Y-105259919D01*
X81554836Y-105259919D02*
X80983408Y-105259919D01*
X81269122Y-105259919D02*
X81269122Y-104259919D01*
X81269122Y-104259919D02*
X81173884Y-104402776D01*
X81173884Y-104402776D02*
X81078646Y-104498014D01*
X81078646Y-104498014D02*
X80983408Y-104545633D01*
X80126265Y-89734204D02*
X80602455Y-89734204D01*
X80031027Y-90019919D02*
X80364360Y-89019919D01*
X80364360Y-89019919D02*
X80697693Y-90019919D01*
X80935789Y-89019919D02*
X81602455Y-89019919D01*
X81602455Y-89019919D02*
X81173884Y-90019919D01*
X57913884Y-100199919D02*
X57913884Y-99199919D01*
X57913884Y-99199919D02*
X58151979Y-99199919D01*
X58151979Y-99199919D02*
X58294836Y-99247538D01*
X58294836Y-99247538D02*
X58390074Y-99342776D01*
X58390074Y-99342776D02*
X58437693Y-99438014D01*
X58437693Y-99438014D02*
X58485312Y-99628490D01*
X58485312Y-99628490D02*
X58485312Y-99771347D01*
X58485312Y-99771347D02*
X58437693Y-99961823D01*
X58437693Y-99961823D02*
X58390074Y-100057061D01*
X58390074Y-100057061D02*
X58294836Y-100152300D01*
X58294836Y-100152300D02*
X58151979Y-100199919D01*
X58151979Y-100199919D02*
X57913884Y-100199919D01*
X59342455Y-99199919D02*
X59151979Y-99199919D01*
X59151979Y-99199919D02*
X59056741Y-99247538D01*
X59056741Y-99247538D02*
X59009122Y-99295157D01*
X59009122Y-99295157D02*
X58913884Y-99438014D01*
X58913884Y-99438014D02*
X58866265Y-99628490D01*
X58866265Y-99628490D02*
X58866265Y-100009442D01*
X58866265Y-100009442D02*
X58913884Y-100104680D01*
X58913884Y-100104680D02*
X58961503Y-100152300D01*
X58961503Y-100152300D02*
X59056741Y-100199919D01*
X59056741Y-100199919D02*
X59247217Y-100199919D01*
X59247217Y-100199919D02*
X59342455Y-100152300D01*
X59342455Y-100152300D02*
X59390074Y-100104680D01*
X59390074Y-100104680D02*
X59437693Y-100009442D01*
X59437693Y-100009442D02*
X59437693Y-99771347D01*
X59437693Y-99771347D02*
X59390074Y-99676109D01*
X59390074Y-99676109D02*
X59342455Y-99628490D01*
X59342455Y-99628490D02*
X59247217Y-99580871D01*
X59247217Y-99580871D02*
X59056741Y-99580871D01*
X59056741Y-99580871D02*
X58961503Y-99628490D01*
X58961503Y-99628490D02*
X58913884Y-99676109D01*
X58913884Y-99676109D02*
X58866265Y-99771347D01*
X57913884Y-97659919D02*
X57913884Y-96659919D01*
X57913884Y-96659919D02*
X58151979Y-96659919D01*
X58151979Y-96659919D02*
X58294836Y-96707538D01*
X58294836Y-96707538D02*
X58390074Y-96802776D01*
X58390074Y-96802776D02*
X58437693Y-96898014D01*
X58437693Y-96898014D02*
X58485312Y-97088490D01*
X58485312Y-97088490D02*
X58485312Y-97231347D01*
X58485312Y-97231347D02*
X58437693Y-97421823D01*
X58437693Y-97421823D02*
X58390074Y-97517061D01*
X58390074Y-97517061D02*
X58294836Y-97612300D01*
X58294836Y-97612300D02*
X58151979Y-97659919D01*
X58151979Y-97659919D02*
X57913884Y-97659919D01*
X59390074Y-96659919D02*
X58913884Y-96659919D01*
X58913884Y-96659919D02*
X58866265Y-97136109D01*
X58866265Y-97136109D02*
X58913884Y-97088490D01*
X58913884Y-97088490D02*
X59009122Y-97040871D01*
X59009122Y-97040871D02*
X59247217Y-97040871D01*
X59247217Y-97040871D02*
X59342455Y-97088490D01*
X59342455Y-97088490D02*
X59390074Y-97136109D01*
X59390074Y-97136109D02*
X59437693Y-97231347D01*
X59437693Y-97231347D02*
X59437693Y-97469442D01*
X59437693Y-97469442D02*
X59390074Y-97564680D01*
X59390074Y-97564680D02*
X59342455Y-97612300D01*
X59342455Y-97612300D02*
X59247217Y-97659919D01*
X59247217Y-97659919D02*
X59009122Y-97659919D01*
X59009122Y-97659919D02*
X58913884Y-97612300D01*
X58913884Y-97612300D02*
X58866265Y-97564680D01*
X101007657Y-134231234D02*
X100960038Y-134183615D01*
X100960038Y-134183615D02*
X100912419Y-134088377D01*
X100912419Y-134088377D02*
X100912419Y-133850282D01*
X100912419Y-133850282D02*
X100960038Y-133755044D01*
X100960038Y-133755044D02*
X101007657Y-133707425D01*
X101007657Y-133707425D02*
X101102895Y-133659806D01*
X101102895Y-133659806D02*
X101198133Y-133659806D01*
X101198133Y-133659806D02*
X101340990Y-133707425D01*
X101340990Y-133707425D02*
X101912419Y-134278853D01*
X101912419Y-134278853D02*
X101912419Y-133659806D01*
X101531466Y-133231234D02*
X101531466Y-132469330D01*
X100960038Y-131469330D02*
X100912419Y-131564568D01*
X100912419Y-131564568D02*
X100912419Y-131707425D01*
X100912419Y-131707425D02*
X100960038Y-131850282D01*
X100960038Y-131850282D02*
X101055276Y-131945520D01*
X101055276Y-131945520D02*
X101150514Y-131993139D01*
X101150514Y-131993139D02*
X101340990Y-132040758D01*
X101340990Y-132040758D02*
X101483847Y-132040758D01*
X101483847Y-132040758D02*
X101674323Y-131993139D01*
X101674323Y-131993139D02*
X101769561Y-131945520D01*
X101769561Y-131945520D02*
X101864800Y-131850282D01*
X101864800Y-131850282D02*
X101912419Y-131707425D01*
X101912419Y-131707425D02*
X101912419Y-131612187D01*
X101912419Y-131612187D02*
X101864800Y-131469330D01*
X101864800Y-131469330D02*
X101817180Y-131421711D01*
X101817180Y-131421711D02*
X101483847Y-131421711D01*
X101483847Y-131421711D02*
X101483847Y-131612187D01*
X101912419Y-130993139D02*
X100912419Y-130993139D01*
X100912419Y-130993139D02*
X101912419Y-130421711D01*
X101912419Y-130421711D02*
X100912419Y-130421711D01*
X101912419Y-129945520D02*
X100912419Y-129945520D01*
X100912419Y-129945520D02*
X100912419Y-129707425D01*
X100912419Y-129707425D02*
X100960038Y-129564568D01*
X100960038Y-129564568D02*
X101055276Y-129469330D01*
X101055276Y-129469330D02*
X101150514Y-129421711D01*
X101150514Y-129421711D02*
X101340990Y-129374092D01*
X101340990Y-129374092D02*
X101483847Y-129374092D01*
X101483847Y-129374092D02*
X101674323Y-129421711D01*
X101674323Y-129421711D02*
X101769561Y-129469330D01*
X101769561Y-129469330D02*
X101864800Y-129564568D01*
X101864800Y-129564568D02*
X101912419Y-129707425D01*
X101912419Y-129707425D02*
X101912419Y-129945520D01*
X80078646Y-111879919D02*
X80697693Y-111879919D01*
X80697693Y-111879919D02*
X80364360Y-112260871D01*
X80364360Y-112260871D02*
X80507217Y-112260871D01*
X80507217Y-112260871D02*
X80602455Y-112308490D01*
X80602455Y-112308490D02*
X80650074Y-112356109D01*
X80650074Y-112356109D02*
X80697693Y-112451347D01*
X80697693Y-112451347D02*
X80697693Y-112689442D01*
X80697693Y-112689442D02*
X80650074Y-112784680D01*
X80650074Y-112784680D02*
X80602455Y-112832300D01*
X80602455Y-112832300D02*
X80507217Y-112879919D01*
X80507217Y-112879919D02*
X80221503Y-112879919D01*
X80221503Y-112879919D02*
X80126265Y-112832300D01*
X80126265Y-112832300D02*
X80078646Y-112784680D01*
X80983408Y-111879919D02*
X81316741Y-112879919D01*
X81316741Y-112879919D02*
X81650074Y-111879919D01*
X81888170Y-111879919D02*
X82507217Y-111879919D01*
X82507217Y-111879919D02*
X82173884Y-112260871D01*
X82173884Y-112260871D02*
X82316741Y-112260871D01*
X82316741Y-112260871D02*
X82411979Y-112308490D01*
X82411979Y-112308490D02*
X82459598Y-112356109D01*
X82459598Y-112356109D02*
X82507217Y-112451347D01*
X82507217Y-112451347D02*
X82507217Y-112689442D01*
X82507217Y-112689442D02*
X82459598Y-112784680D01*
X82459598Y-112784680D02*
X82411979Y-112832300D01*
X82411979Y-112832300D02*
X82316741Y-112879919D01*
X82316741Y-112879919D02*
X82031027Y-112879919D01*
X82031027Y-112879919D02*
X81935789Y-112832300D01*
X81935789Y-112832300D02*
X81888170Y-112784680D01*
X57913884Y-105279919D02*
X57913884Y-104279919D01*
X57913884Y-104279919D02*
X58151979Y-104279919D01*
X58151979Y-104279919D02*
X58294836Y-104327538D01*
X58294836Y-104327538D02*
X58390074Y-104422776D01*
X58390074Y-104422776D02*
X58437693Y-104518014D01*
X58437693Y-104518014D02*
X58485312Y-104708490D01*
X58485312Y-104708490D02*
X58485312Y-104851347D01*
X58485312Y-104851347D02*
X58437693Y-105041823D01*
X58437693Y-105041823D02*
X58390074Y-105137061D01*
X58390074Y-105137061D02*
X58294836Y-105232300D01*
X58294836Y-105232300D02*
X58151979Y-105279919D01*
X58151979Y-105279919D02*
X57913884Y-105279919D01*
X59056741Y-104708490D02*
X58961503Y-104660871D01*
X58961503Y-104660871D02*
X58913884Y-104613252D01*
X58913884Y-104613252D02*
X58866265Y-104518014D01*
X58866265Y-104518014D02*
X58866265Y-104470395D01*
X58866265Y-104470395D02*
X58913884Y-104375157D01*
X58913884Y-104375157D02*
X58961503Y-104327538D01*
X58961503Y-104327538D02*
X59056741Y-104279919D01*
X59056741Y-104279919D02*
X59247217Y-104279919D01*
X59247217Y-104279919D02*
X59342455Y-104327538D01*
X59342455Y-104327538D02*
X59390074Y-104375157D01*
X59390074Y-104375157D02*
X59437693Y-104470395D01*
X59437693Y-104470395D02*
X59437693Y-104518014D01*
X59437693Y-104518014D02*
X59390074Y-104613252D01*
X59390074Y-104613252D02*
X59342455Y-104660871D01*
X59342455Y-104660871D02*
X59247217Y-104708490D01*
X59247217Y-104708490D02*
X59056741Y-104708490D01*
X59056741Y-104708490D02*
X58961503Y-104756109D01*
X58961503Y-104756109D02*
X58913884Y-104803728D01*
X58913884Y-104803728D02*
X58866265Y-104898966D01*
X58866265Y-104898966D02*
X58866265Y-105089442D01*
X58866265Y-105089442D02*
X58913884Y-105184680D01*
X58913884Y-105184680D02*
X58961503Y-105232300D01*
X58961503Y-105232300D02*
X59056741Y-105279919D01*
X59056741Y-105279919D02*
X59247217Y-105279919D01*
X59247217Y-105279919D02*
X59342455Y-105232300D01*
X59342455Y-105232300D02*
X59390074Y-105184680D01*
X59390074Y-105184680D02*
X59437693Y-105089442D01*
X59437693Y-105089442D02*
X59437693Y-104898966D01*
X59437693Y-104898966D02*
X59390074Y-104803728D01*
X59390074Y-104803728D02*
X59342455Y-104756109D01*
X59342455Y-104756109D02*
X59247217Y-104708490D01*
X80126265Y-99894204D02*
X80602455Y-99894204D01*
X80031027Y-100179919D02*
X80364360Y-99179919D01*
X80364360Y-99179919D02*
X80697693Y-100179919D01*
X80935789Y-99179919D02*
X81554836Y-99179919D01*
X81554836Y-99179919D02*
X81221503Y-99560871D01*
X81221503Y-99560871D02*
X81364360Y-99560871D01*
X81364360Y-99560871D02*
X81459598Y-99608490D01*
X81459598Y-99608490D02*
X81507217Y-99656109D01*
X81507217Y-99656109D02*
X81554836Y-99751347D01*
X81554836Y-99751347D02*
X81554836Y-99989442D01*
X81554836Y-99989442D02*
X81507217Y-100084680D01*
X81507217Y-100084680D02*
X81459598Y-100132300D01*
X81459598Y-100132300D02*
X81364360Y-100179919D01*
X81364360Y-100179919D02*
X81078646Y-100179919D01*
X81078646Y-100179919D02*
X80983408Y-100132300D01*
X80983408Y-100132300D02*
X80935789Y-100084680D01*
X142552419Y-133659806D02*
X142552419Y-134231234D01*
X142552419Y-133945520D02*
X141552419Y-133945520D01*
X141552419Y-133945520D02*
X141695276Y-134040758D01*
X141695276Y-134040758D02*
X141790514Y-134135996D01*
X141790514Y-134135996D02*
X141838133Y-134231234D01*
X141980990Y-133088377D02*
X141933371Y-133183615D01*
X141933371Y-133183615D02*
X141885752Y-133231234D01*
X141885752Y-133231234D02*
X141790514Y-133278853D01*
X141790514Y-133278853D02*
X141742895Y-133278853D01*
X141742895Y-133278853D02*
X141647657Y-133231234D01*
X141647657Y-133231234D02*
X141600038Y-133183615D01*
X141600038Y-133183615D02*
X141552419Y-133088377D01*
X141552419Y-133088377D02*
X141552419Y-132897901D01*
X141552419Y-132897901D02*
X141600038Y-132802663D01*
X141600038Y-132802663D02*
X141647657Y-132755044D01*
X141647657Y-132755044D02*
X141742895Y-132707425D01*
X141742895Y-132707425D02*
X141790514Y-132707425D01*
X141790514Y-132707425D02*
X141885752Y-132755044D01*
X141885752Y-132755044D02*
X141933371Y-132802663D01*
X141933371Y-132802663D02*
X141980990Y-132897901D01*
X141980990Y-132897901D02*
X141980990Y-133088377D01*
X141980990Y-133088377D02*
X142028609Y-133183615D01*
X142028609Y-133183615D02*
X142076228Y-133231234D01*
X142076228Y-133231234D02*
X142171466Y-133278853D01*
X142171466Y-133278853D02*
X142361942Y-133278853D01*
X142361942Y-133278853D02*
X142457180Y-133231234D01*
X142457180Y-133231234D02*
X142504800Y-133183615D01*
X142504800Y-133183615D02*
X142552419Y-133088377D01*
X142552419Y-133088377D02*
X142552419Y-132897901D01*
X142552419Y-132897901D02*
X142504800Y-132802663D01*
X142504800Y-132802663D02*
X142457180Y-132755044D01*
X142457180Y-132755044D02*
X142361942Y-132707425D01*
X142361942Y-132707425D02*
X142171466Y-132707425D01*
X142171466Y-132707425D02*
X142076228Y-132755044D01*
X142076228Y-132755044D02*
X142028609Y-132802663D01*
X142028609Y-132802663D02*
X141980990Y-132897901D01*
X142171466Y-132278853D02*
X142171466Y-131516949D01*
X142028609Y-131040758D02*
X142028609Y-130707425D01*
X142552419Y-130564568D02*
X142552419Y-131040758D01*
X142552419Y-131040758D02*
X141552419Y-131040758D01*
X141552419Y-131040758D02*
X141552419Y-130564568D01*
X141552419Y-130231234D02*
X142552419Y-129564568D01*
X141552419Y-129564568D02*
X142552419Y-130231234D01*
X141552419Y-129326472D02*
X141552419Y-128755044D01*
X142552419Y-129040758D02*
X141552419Y-129040758D01*
X141552419Y-127945520D02*
X141552419Y-128421710D01*
X141552419Y-128421710D02*
X142028609Y-128469329D01*
X142028609Y-128469329D02*
X141980990Y-128421710D01*
X141980990Y-128421710D02*
X141933371Y-128326472D01*
X141933371Y-128326472D02*
X141933371Y-128088377D01*
X141933371Y-128088377D02*
X141980990Y-127993139D01*
X141980990Y-127993139D02*
X142028609Y-127945520D01*
X142028609Y-127945520D02*
X142123847Y-127897901D01*
X142123847Y-127897901D02*
X142361942Y-127897901D01*
X142361942Y-127897901D02*
X142457180Y-127945520D01*
X142457180Y-127945520D02*
X142504800Y-127993139D01*
X142504800Y-127993139D02*
X142552419Y-128088377D01*
X142552419Y-128088377D02*
X142552419Y-128326472D01*
X142552419Y-128326472D02*
X142504800Y-128421710D01*
X142504800Y-128421710D02*
X142457180Y-128469329D01*
X103452419Y-134278853D02*
X103452419Y-133659806D01*
X103452419Y-133659806D02*
X103833371Y-133993139D01*
X103833371Y-133993139D02*
X103833371Y-133850282D01*
X103833371Y-133850282D02*
X103880990Y-133755044D01*
X103880990Y-133755044D02*
X103928609Y-133707425D01*
X103928609Y-133707425D02*
X104023847Y-133659806D01*
X104023847Y-133659806D02*
X104261942Y-133659806D01*
X104261942Y-133659806D02*
X104357180Y-133707425D01*
X104357180Y-133707425D02*
X104404800Y-133755044D01*
X104404800Y-133755044D02*
X104452419Y-133850282D01*
X104452419Y-133850282D02*
X104452419Y-134135996D01*
X104452419Y-134135996D02*
X104404800Y-134231234D01*
X104404800Y-134231234D02*
X104357180Y-134278853D01*
X104071466Y-133231234D02*
X104071466Y-132469330D01*
X103452419Y-132088377D02*
X103452419Y-131469330D01*
X103452419Y-131469330D02*
X103833371Y-131802663D01*
X103833371Y-131802663D02*
X103833371Y-131659806D01*
X103833371Y-131659806D02*
X103880990Y-131564568D01*
X103880990Y-131564568D02*
X103928609Y-131516949D01*
X103928609Y-131516949D02*
X104023847Y-131469330D01*
X104023847Y-131469330D02*
X104261942Y-131469330D01*
X104261942Y-131469330D02*
X104357180Y-131516949D01*
X104357180Y-131516949D02*
X104404800Y-131564568D01*
X104404800Y-131564568D02*
X104452419Y-131659806D01*
X104452419Y-131659806D02*
X104452419Y-131945520D01*
X104452419Y-131945520D02*
X104404800Y-132040758D01*
X104404800Y-132040758D02*
X104357180Y-132088377D01*
X103452419Y-131183615D02*
X104452419Y-130850282D01*
X104452419Y-130850282D02*
X103452419Y-130516949D01*
X103452419Y-130278853D02*
X103452419Y-129659806D01*
X103452419Y-129659806D02*
X103833371Y-129993139D01*
X103833371Y-129993139D02*
X103833371Y-129850282D01*
X103833371Y-129850282D02*
X103880990Y-129755044D01*
X103880990Y-129755044D02*
X103928609Y-129707425D01*
X103928609Y-129707425D02*
X104023847Y-129659806D01*
X104023847Y-129659806D02*
X104261942Y-129659806D01*
X104261942Y-129659806D02*
X104357180Y-129707425D01*
X104357180Y-129707425D02*
X104404800Y-129755044D01*
X104404800Y-129755044D02*
X104452419Y-129850282D01*
X104452419Y-129850282D02*
X104452419Y-130135996D01*
X104452419Y-130135996D02*
X104404800Y-130231234D01*
X104404800Y-130231234D02*
X104357180Y-130278853D01*
X57913884Y-79879919D02*
X57913884Y-78879919D01*
X57913884Y-78879919D02*
X58151979Y-78879919D01*
X58151979Y-78879919D02*
X58294836Y-78927538D01*
X58294836Y-78927538D02*
X58390074Y-79022776D01*
X58390074Y-79022776D02*
X58437693Y-79118014D01*
X58437693Y-79118014D02*
X58485312Y-79308490D01*
X58485312Y-79308490D02*
X58485312Y-79451347D01*
X58485312Y-79451347D02*
X58437693Y-79641823D01*
X58437693Y-79641823D02*
X58390074Y-79737061D01*
X58390074Y-79737061D02*
X58294836Y-79832300D01*
X58294836Y-79832300D02*
X58151979Y-79879919D01*
X58151979Y-79879919D02*
X57913884Y-79879919D01*
X59437693Y-79879919D02*
X58866265Y-79879919D01*
X59151979Y-79879919D02*
X59151979Y-78879919D01*
X59151979Y-78879919D02*
X59056741Y-79022776D01*
X59056741Y-79022776D02*
X58961503Y-79118014D01*
X58961503Y-79118014D02*
X58866265Y-79165633D01*
X113612419Y-134278853D02*
X113612419Y-133612187D01*
X113612419Y-133612187D02*
X114612419Y-134040758D01*
X114231466Y-133231234D02*
X114231466Y-132469330D01*
X113660038Y-131469330D02*
X113612419Y-131564568D01*
X113612419Y-131564568D02*
X113612419Y-131707425D01*
X113612419Y-131707425D02*
X113660038Y-131850282D01*
X113660038Y-131850282D02*
X113755276Y-131945520D01*
X113755276Y-131945520D02*
X113850514Y-131993139D01*
X113850514Y-131993139D02*
X114040990Y-132040758D01*
X114040990Y-132040758D02*
X114183847Y-132040758D01*
X114183847Y-132040758D02*
X114374323Y-131993139D01*
X114374323Y-131993139D02*
X114469561Y-131945520D01*
X114469561Y-131945520D02*
X114564800Y-131850282D01*
X114564800Y-131850282D02*
X114612419Y-131707425D01*
X114612419Y-131707425D02*
X114612419Y-131612187D01*
X114612419Y-131612187D02*
X114564800Y-131469330D01*
X114564800Y-131469330D02*
X114517180Y-131421711D01*
X114517180Y-131421711D02*
X114183847Y-131421711D01*
X114183847Y-131421711D02*
X114183847Y-131612187D01*
X114612419Y-130993139D02*
X113612419Y-130993139D01*
X113612419Y-130993139D02*
X114612419Y-130421711D01*
X114612419Y-130421711D02*
X113612419Y-130421711D01*
X114612419Y-129945520D02*
X113612419Y-129945520D01*
X113612419Y-129945520D02*
X113612419Y-129707425D01*
X113612419Y-129707425D02*
X113660038Y-129564568D01*
X113660038Y-129564568D02*
X113755276Y-129469330D01*
X113755276Y-129469330D02*
X113850514Y-129421711D01*
X113850514Y-129421711D02*
X114040990Y-129374092D01*
X114040990Y-129374092D02*
X114183847Y-129374092D01*
X114183847Y-129374092D02*
X114374323Y-129421711D01*
X114374323Y-129421711D02*
X114469561Y-129469330D01*
X114469561Y-129469330D02*
X114564800Y-129564568D01*
X114564800Y-129564568D02*
X114612419Y-129707425D01*
X114612419Y-129707425D02*
X114612419Y-129945520D01*
X57913884Y-107819919D02*
X57913884Y-106819919D01*
X57913884Y-106819919D02*
X58151979Y-106819919D01*
X58151979Y-106819919D02*
X58294836Y-106867538D01*
X58294836Y-106867538D02*
X58390074Y-106962776D01*
X58390074Y-106962776D02*
X58437693Y-107058014D01*
X58437693Y-107058014D02*
X58485312Y-107248490D01*
X58485312Y-107248490D02*
X58485312Y-107391347D01*
X58485312Y-107391347D02*
X58437693Y-107581823D01*
X58437693Y-107581823D02*
X58390074Y-107677061D01*
X58390074Y-107677061D02*
X58294836Y-107772300D01*
X58294836Y-107772300D02*
X58151979Y-107819919D01*
X58151979Y-107819919D02*
X57913884Y-107819919D01*
X58961503Y-107819919D02*
X59151979Y-107819919D01*
X59151979Y-107819919D02*
X59247217Y-107772300D01*
X59247217Y-107772300D02*
X59294836Y-107724680D01*
X59294836Y-107724680D02*
X59390074Y-107581823D01*
X59390074Y-107581823D02*
X59437693Y-107391347D01*
X59437693Y-107391347D02*
X59437693Y-107010395D01*
X59437693Y-107010395D02*
X59390074Y-106915157D01*
X59390074Y-106915157D02*
X59342455Y-106867538D01*
X59342455Y-106867538D02*
X59247217Y-106819919D01*
X59247217Y-106819919D02*
X59056741Y-106819919D01*
X59056741Y-106819919D02*
X58961503Y-106867538D01*
X58961503Y-106867538D02*
X58913884Y-106915157D01*
X58913884Y-106915157D02*
X58866265Y-107010395D01*
X58866265Y-107010395D02*
X58866265Y-107248490D01*
X58866265Y-107248490D02*
X58913884Y-107343728D01*
X58913884Y-107343728D02*
X58961503Y-107391347D01*
X58961503Y-107391347D02*
X59056741Y-107438966D01*
X59056741Y-107438966D02*
X59247217Y-107438966D01*
X59247217Y-107438966D02*
X59342455Y-107391347D01*
X59342455Y-107391347D02*
X59390074Y-107343728D01*
X59390074Y-107343728D02*
X59437693Y-107248490D01*
X57913884Y-90039919D02*
X57913884Y-89039919D01*
X57913884Y-89039919D02*
X58151979Y-89039919D01*
X58151979Y-89039919D02*
X58294836Y-89087538D01*
X58294836Y-89087538D02*
X58390074Y-89182776D01*
X58390074Y-89182776D02*
X58437693Y-89278014D01*
X58437693Y-89278014D02*
X58485312Y-89468490D01*
X58485312Y-89468490D02*
X58485312Y-89611347D01*
X58485312Y-89611347D02*
X58437693Y-89801823D01*
X58437693Y-89801823D02*
X58390074Y-89897061D01*
X58390074Y-89897061D02*
X58294836Y-89992300D01*
X58294836Y-89992300D02*
X58151979Y-90039919D01*
X58151979Y-90039919D02*
X57913884Y-90039919D01*
X58866265Y-89135157D02*
X58913884Y-89087538D01*
X58913884Y-89087538D02*
X59009122Y-89039919D01*
X59009122Y-89039919D02*
X59247217Y-89039919D01*
X59247217Y-89039919D02*
X59342455Y-89087538D01*
X59342455Y-89087538D02*
X59390074Y-89135157D01*
X59390074Y-89135157D02*
X59437693Y-89230395D01*
X59437693Y-89230395D02*
X59437693Y-89325633D01*
X59437693Y-89325633D02*
X59390074Y-89468490D01*
X59390074Y-89468490D02*
X58818646Y-90039919D01*
X58818646Y-90039919D02*
X59437693Y-90039919D01*
X119692419Y-134135996D02*
X119692419Y-133945520D01*
X119692419Y-133945520D02*
X119644800Y-133850282D01*
X119644800Y-133850282D02*
X119597180Y-133802663D01*
X119597180Y-133802663D02*
X119454323Y-133707425D01*
X119454323Y-133707425D02*
X119263847Y-133659806D01*
X119263847Y-133659806D02*
X118882895Y-133659806D01*
X118882895Y-133659806D02*
X118787657Y-133707425D01*
X118787657Y-133707425D02*
X118740038Y-133755044D01*
X118740038Y-133755044D02*
X118692419Y-133850282D01*
X118692419Y-133850282D02*
X118692419Y-134040758D01*
X118692419Y-134040758D02*
X118740038Y-134135996D01*
X118740038Y-134135996D02*
X118787657Y-134183615D01*
X118787657Y-134183615D02*
X118882895Y-134231234D01*
X118882895Y-134231234D02*
X119120990Y-134231234D01*
X119120990Y-134231234D02*
X119216228Y-134183615D01*
X119216228Y-134183615D02*
X119263847Y-134135996D01*
X119263847Y-134135996D02*
X119311466Y-134040758D01*
X119311466Y-134040758D02*
X119311466Y-133850282D01*
X119311466Y-133850282D02*
X119263847Y-133755044D01*
X119263847Y-133755044D02*
X119216228Y-133707425D01*
X119216228Y-133707425D02*
X119120990Y-133659806D01*
X119311466Y-133231234D02*
X119311466Y-132469330D01*
X118740038Y-131469330D02*
X118692419Y-131564568D01*
X118692419Y-131564568D02*
X118692419Y-131707425D01*
X118692419Y-131707425D02*
X118740038Y-131850282D01*
X118740038Y-131850282D02*
X118835276Y-131945520D01*
X118835276Y-131945520D02*
X118930514Y-131993139D01*
X118930514Y-131993139D02*
X119120990Y-132040758D01*
X119120990Y-132040758D02*
X119263847Y-132040758D01*
X119263847Y-132040758D02*
X119454323Y-131993139D01*
X119454323Y-131993139D02*
X119549561Y-131945520D01*
X119549561Y-131945520D02*
X119644800Y-131850282D01*
X119644800Y-131850282D02*
X119692419Y-131707425D01*
X119692419Y-131707425D02*
X119692419Y-131612187D01*
X119692419Y-131612187D02*
X119644800Y-131469330D01*
X119644800Y-131469330D02*
X119597180Y-131421711D01*
X119597180Y-131421711D02*
X119263847Y-131421711D01*
X119263847Y-131421711D02*
X119263847Y-131612187D01*
X119692419Y-130993139D02*
X118692419Y-130993139D01*
X118692419Y-130993139D02*
X119692419Y-130421711D01*
X119692419Y-130421711D02*
X118692419Y-130421711D01*
X119692419Y-129945520D02*
X118692419Y-129945520D01*
X118692419Y-129945520D02*
X118692419Y-129707425D01*
X118692419Y-129707425D02*
X118740038Y-129564568D01*
X118740038Y-129564568D02*
X118835276Y-129469330D01*
X118835276Y-129469330D02*
X118930514Y-129421711D01*
X118930514Y-129421711D02*
X119120990Y-129374092D01*
X119120990Y-129374092D02*
X119263847Y-129374092D01*
X119263847Y-129374092D02*
X119454323Y-129421711D01*
X119454323Y-129421711D02*
X119549561Y-129469330D01*
X119549561Y-129469330D02*
X119644800Y-129564568D01*
X119644800Y-129564568D02*
X119692419Y-129707425D01*
X119692419Y-129707425D02*
X119692419Y-129945520D01*
X80126265Y-94814204D02*
X80602455Y-94814204D01*
X80031027Y-95099919D02*
X80364360Y-94099919D01*
X80364360Y-94099919D02*
X80697693Y-95099919D01*
X81507217Y-94099919D02*
X81031027Y-94099919D01*
X81031027Y-94099919D02*
X80983408Y-94576109D01*
X80983408Y-94576109D02*
X81031027Y-94528490D01*
X81031027Y-94528490D02*
X81126265Y-94480871D01*
X81126265Y-94480871D02*
X81364360Y-94480871D01*
X81364360Y-94480871D02*
X81459598Y-94528490D01*
X81459598Y-94528490D02*
X81507217Y-94576109D01*
X81507217Y-94576109D02*
X81554836Y-94671347D01*
X81554836Y-94671347D02*
X81554836Y-94909442D01*
X81554836Y-94909442D02*
X81507217Y-95004680D01*
X81507217Y-95004680D02*
X81459598Y-95052300D01*
X81459598Y-95052300D02*
X81364360Y-95099919D01*
X81364360Y-95099919D02*
X81126265Y-95099919D01*
X81126265Y-95099919D02*
X81031027Y-95052300D01*
X81031027Y-95052300D02*
X80983408Y-95004680D01*
X122232419Y-133659806D02*
X122232419Y-134231234D01*
X122232419Y-133945520D02*
X121232419Y-133945520D01*
X121232419Y-133945520D02*
X121375276Y-134040758D01*
X121375276Y-134040758D02*
X121470514Y-134135996D01*
X121470514Y-134135996D02*
X121518133Y-134231234D01*
X121232419Y-133040758D02*
X121232419Y-132945520D01*
X121232419Y-132945520D02*
X121280038Y-132850282D01*
X121280038Y-132850282D02*
X121327657Y-132802663D01*
X121327657Y-132802663D02*
X121422895Y-132755044D01*
X121422895Y-132755044D02*
X121613371Y-132707425D01*
X121613371Y-132707425D02*
X121851466Y-132707425D01*
X121851466Y-132707425D02*
X122041942Y-132755044D01*
X122041942Y-132755044D02*
X122137180Y-132802663D01*
X122137180Y-132802663D02*
X122184800Y-132850282D01*
X122184800Y-132850282D02*
X122232419Y-132945520D01*
X122232419Y-132945520D02*
X122232419Y-133040758D01*
X122232419Y-133040758D02*
X122184800Y-133135996D01*
X122184800Y-133135996D02*
X122137180Y-133183615D01*
X122137180Y-133183615D02*
X122041942Y-133231234D01*
X122041942Y-133231234D02*
X121851466Y-133278853D01*
X121851466Y-133278853D02*
X121613371Y-133278853D01*
X121613371Y-133278853D02*
X121422895Y-133231234D01*
X121422895Y-133231234D02*
X121327657Y-133183615D01*
X121327657Y-133183615D02*
X121280038Y-133135996D01*
X121280038Y-133135996D02*
X121232419Y-133040758D01*
X121851466Y-132278853D02*
X121851466Y-131516949D01*
X122232419Y-131040758D02*
X121232419Y-131040758D01*
X121232419Y-131040758D02*
X121232419Y-130802663D01*
X121232419Y-130802663D02*
X121280038Y-130659806D01*
X121280038Y-130659806D02*
X121375276Y-130564568D01*
X121375276Y-130564568D02*
X121470514Y-130516949D01*
X121470514Y-130516949D02*
X121660990Y-130469330D01*
X121660990Y-130469330D02*
X121803847Y-130469330D01*
X121803847Y-130469330D02*
X121994323Y-130516949D01*
X121994323Y-130516949D02*
X122089561Y-130564568D01*
X122089561Y-130564568D02*
X122184800Y-130659806D01*
X122184800Y-130659806D02*
X122232419Y-130802663D01*
X122232419Y-130802663D02*
X122232419Y-131040758D01*
X121708609Y-130040758D02*
X121708609Y-129707425D01*
X122232419Y-129564568D02*
X122232419Y-130040758D01*
X122232419Y-130040758D02*
X121232419Y-130040758D01*
X121232419Y-130040758D02*
X121232419Y-129564568D01*
X121232419Y-129278853D02*
X121232419Y-128707425D01*
X122232419Y-128993139D02*
X121232419Y-128993139D01*
X121708609Y-128374091D02*
X121708609Y-128040758D01*
X122232419Y-127897901D02*
X122232419Y-128374091D01*
X122232419Y-128374091D02*
X121232419Y-128374091D01*
X121232419Y-128374091D02*
X121232419Y-127897901D01*
X122137180Y-126897901D02*
X122184800Y-126945520D01*
X122184800Y-126945520D02*
X122232419Y-127088377D01*
X122232419Y-127088377D02*
X122232419Y-127183615D01*
X122232419Y-127183615D02*
X122184800Y-127326472D01*
X122184800Y-127326472D02*
X122089561Y-127421710D01*
X122089561Y-127421710D02*
X121994323Y-127469329D01*
X121994323Y-127469329D02*
X121803847Y-127516948D01*
X121803847Y-127516948D02*
X121660990Y-127516948D01*
X121660990Y-127516948D02*
X121470514Y-127469329D01*
X121470514Y-127469329D02*
X121375276Y-127421710D01*
X121375276Y-127421710D02*
X121280038Y-127326472D01*
X121280038Y-127326472D02*
X121232419Y-127183615D01*
X121232419Y-127183615D02*
X121232419Y-127088377D01*
X121232419Y-127088377D02*
X121280038Y-126945520D01*
X121280038Y-126945520D02*
X121327657Y-126897901D01*
X121232419Y-126612186D02*
X121232419Y-126040758D01*
X122232419Y-126326472D02*
X121232419Y-126326472D01*
X127312419Y-133659806D02*
X127312419Y-134231234D01*
X127312419Y-133945520D02*
X126312419Y-133945520D01*
X126312419Y-133945520D02*
X126455276Y-134040758D01*
X126455276Y-134040758D02*
X126550514Y-134135996D01*
X126550514Y-134135996D02*
X126598133Y-134231234D01*
X126407657Y-133278853D02*
X126360038Y-133231234D01*
X126360038Y-133231234D02*
X126312419Y-133135996D01*
X126312419Y-133135996D02*
X126312419Y-132897901D01*
X126312419Y-132897901D02*
X126360038Y-132802663D01*
X126360038Y-132802663D02*
X126407657Y-132755044D01*
X126407657Y-132755044D02*
X126502895Y-132707425D01*
X126502895Y-132707425D02*
X126598133Y-132707425D01*
X126598133Y-132707425D02*
X126740990Y-132755044D01*
X126740990Y-132755044D02*
X127312419Y-133326472D01*
X127312419Y-133326472D02*
X127312419Y-132707425D01*
X126931466Y-132278853D02*
X126931466Y-131516949D01*
X126312419Y-130564568D02*
X126312419Y-131040758D01*
X126312419Y-131040758D02*
X126788609Y-131088377D01*
X126788609Y-131088377D02*
X126740990Y-131040758D01*
X126740990Y-131040758D02*
X126693371Y-130945520D01*
X126693371Y-130945520D02*
X126693371Y-130707425D01*
X126693371Y-130707425D02*
X126740990Y-130612187D01*
X126740990Y-130612187D02*
X126788609Y-130564568D01*
X126788609Y-130564568D02*
X126883847Y-130516949D01*
X126883847Y-130516949D02*
X127121942Y-130516949D01*
X127121942Y-130516949D02*
X127217180Y-130564568D01*
X127217180Y-130564568D02*
X127264800Y-130612187D01*
X127264800Y-130612187D02*
X127312419Y-130707425D01*
X127312419Y-130707425D02*
X127312419Y-130945520D01*
X127312419Y-130945520D02*
X127264800Y-131040758D01*
X127264800Y-131040758D02*
X127217180Y-131088377D01*
X126312419Y-130231234D02*
X127312419Y-129897901D01*
X127312419Y-129897901D02*
X126312419Y-129564568D01*
X106694247Y-64219955D02*
X106027580Y-64219955D01*
X107075200Y-63981860D02*
X106360914Y-63743765D01*
X106360914Y-63743765D02*
X106360914Y-64362812D01*
X106408533Y-64743765D02*
X106408533Y-65505670D01*
X107027580Y-65886622D02*
X107027580Y-66505669D01*
X107027580Y-66505669D02*
X106646628Y-66172336D01*
X106646628Y-66172336D02*
X106646628Y-66315193D01*
X106646628Y-66315193D02*
X106599009Y-66410431D01*
X106599009Y-66410431D02*
X106551390Y-66458050D01*
X106551390Y-66458050D02*
X106456152Y-66505669D01*
X106456152Y-66505669D02*
X106218057Y-66505669D01*
X106218057Y-66505669D02*
X106122819Y-66458050D01*
X106122819Y-66458050D02*
X106075200Y-66410431D01*
X106075200Y-66410431D02*
X106027580Y-66315193D01*
X106027580Y-66315193D02*
X106027580Y-66029479D01*
X106027580Y-66029479D02*
X106075200Y-65934241D01*
X106075200Y-65934241D02*
X106122819Y-65886622D01*
X107027580Y-66791384D02*
X106027580Y-67124717D01*
X106027580Y-67124717D02*
X107027580Y-67458050D01*
X107027580Y-67696146D02*
X107027580Y-68315193D01*
X107027580Y-68315193D02*
X106646628Y-67981860D01*
X106646628Y-67981860D02*
X106646628Y-68124717D01*
X106646628Y-68124717D02*
X106599009Y-68219955D01*
X106599009Y-68219955D02*
X106551390Y-68267574D01*
X106551390Y-68267574D02*
X106456152Y-68315193D01*
X106456152Y-68315193D02*
X106218057Y-68315193D01*
X106218057Y-68315193D02*
X106122819Y-68267574D01*
X106122819Y-68267574D02*
X106075200Y-68219955D01*
X106075200Y-68219955D02*
X106027580Y-68124717D01*
X106027580Y-68124717D02*
X106027580Y-67839003D01*
X106027580Y-67839003D02*
X106075200Y-67743765D01*
X106075200Y-67743765D02*
X106122819Y-67696146D01*
X116580990Y-134040758D02*
X116533371Y-134135996D01*
X116533371Y-134135996D02*
X116485752Y-134183615D01*
X116485752Y-134183615D02*
X116390514Y-134231234D01*
X116390514Y-134231234D02*
X116342895Y-134231234D01*
X116342895Y-134231234D02*
X116247657Y-134183615D01*
X116247657Y-134183615D02*
X116200038Y-134135996D01*
X116200038Y-134135996D02*
X116152419Y-134040758D01*
X116152419Y-134040758D02*
X116152419Y-133850282D01*
X116152419Y-133850282D02*
X116200038Y-133755044D01*
X116200038Y-133755044D02*
X116247657Y-133707425D01*
X116247657Y-133707425D02*
X116342895Y-133659806D01*
X116342895Y-133659806D02*
X116390514Y-133659806D01*
X116390514Y-133659806D02*
X116485752Y-133707425D01*
X116485752Y-133707425D02*
X116533371Y-133755044D01*
X116533371Y-133755044D02*
X116580990Y-133850282D01*
X116580990Y-133850282D02*
X116580990Y-134040758D01*
X116580990Y-134040758D02*
X116628609Y-134135996D01*
X116628609Y-134135996D02*
X116676228Y-134183615D01*
X116676228Y-134183615D02*
X116771466Y-134231234D01*
X116771466Y-134231234D02*
X116961942Y-134231234D01*
X116961942Y-134231234D02*
X117057180Y-134183615D01*
X117057180Y-134183615D02*
X117104800Y-134135996D01*
X117104800Y-134135996D02*
X117152419Y-134040758D01*
X117152419Y-134040758D02*
X117152419Y-133850282D01*
X117152419Y-133850282D02*
X117104800Y-133755044D01*
X117104800Y-133755044D02*
X117057180Y-133707425D01*
X117057180Y-133707425D02*
X116961942Y-133659806D01*
X116961942Y-133659806D02*
X116771466Y-133659806D01*
X116771466Y-133659806D02*
X116676228Y-133707425D01*
X116676228Y-133707425D02*
X116628609Y-133755044D01*
X116628609Y-133755044D02*
X116580990Y-133850282D01*
X116771466Y-133231234D02*
X116771466Y-132469330D01*
X117104800Y-132040758D02*
X117152419Y-131897901D01*
X117152419Y-131897901D02*
X117152419Y-131659806D01*
X117152419Y-131659806D02*
X117104800Y-131564568D01*
X117104800Y-131564568D02*
X117057180Y-131516949D01*
X117057180Y-131516949D02*
X116961942Y-131469330D01*
X116961942Y-131469330D02*
X116866704Y-131469330D01*
X116866704Y-131469330D02*
X116771466Y-131516949D01*
X116771466Y-131516949D02*
X116723847Y-131564568D01*
X116723847Y-131564568D02*
X116676228Y-131659806D01*
X116676228Y-131659806D02*
X116628609Y-131850282D01*
X116628609Y-131850282D02*
X116580990Y-131945520D01*
X116580990Y-131945520D02*
X116533371Y-131993139D01*
X116533371Y-131993139D02*
X116438133Y-132040758D01*
X116438133Y-132040758D02*
X116342895Y-132040758D01*
X116342895Y-132040758D02*
X116247657Y-131993139D01*
X116247657Y-131993139D02*
X116200038Y-131945520D01*
X116200038Y-131945520D02*
X116152419Y-131850282D01*
X116152419Y-131850282D02*
X116152419Y-131612187D01*
X116152419Y-131612187D02*
X116200038Y-131469330D01*
X117152419Y-131040758D02*
X116152419Y-131040758D01*
X116152419Y-131040758D02*
X116152419Y-130802663D01*
X116152419Y-130802663D02*
X116200038Y-130659806D01*
X116200038Y-130659806D02*
X116295276Y-130564568D01*
X116295276Y-130564568D02*
X116390514Y-130516949D01*
X116390514Y-130516949D02*
X116580990Y-130469330D01*
X116580990Y-130469330D02*
X116723847Y-130469330D01*
X116723847Y-130469330D02*
X116914323Y-130516949D01*
X116914323Y-130516949D02*
X117009561Y-130564568D01*
X117009561Y-130564568D02*
X117104800Y-130659806D01*
X117104800Y-130659806D02*
X117152419Y-130802663D01*
X117152419Y-130802663D02*
X117152419Y-131040758D01*
X116866704Y-130088377D02*
X116866704Y-129612187D01*
X117152419Y-130183615D02*
X116152419Y-129850282D01*
X116152419Y-129850282D02*
X117152419Y-129516949D01*
D12*
X64885161Y-70990597D02*
X65552960Y-70990597D01*
X64751601Y-71391276D02*
X65219061Y-69988898D01*
X65219061Y-69988898D02*
X65686520Y-71391276D01*
X66888558Y-71391276D02*
X66087199Y-71391276D01*
X66487879Y-71391276D02*
X66487879Y-69988898D01*
X66487879Y-69988898D02*
X66354319Y-70189238D01*
X66354319Y-70189238D02*
X66220759Y-70322798D01*
X66220759Y-70322798D02*
X66087199Y-70389578D01*
D13*
X169554819Y-82861904D02*
X170364342Y-82861904D01*
X170364342Y-82861904D02*
X170459580Y-82814285D01*
X170459580Y-82814285D02*
X170507200Y-82766666D01*
X170507200Y-82766666D02*
X170554819Y-82671428D01*
X170554819Y-82671428D02*
X170554819Y-82480952D01*
X170554819Y-82480952D02*
X170507200Y-82385714D01*
X170507200Y-82385714D02*
X170459580Y-82338095D01*
X170459580Y-82338095D02*
X170364342Y-82290476D01*
X170364342Y-82290476D02*
X169554819Y-82290476D01*
X170554819Y-81290476D02*
X170554819Y-81861904D01*
X170554819Y-81576190D02*
X169554819Y-81576190D01*
X169554819Y-81576190D02*
X169697676Y-81671428D01*
X169697676Y-81671428D02*
X169792914Y-81766666D01*
X169792914Y-81766666D02*
X169840533Y-81861904D01*
X150604819Y-96966666D02*
X150604819Y-97538094D01*
X150604819Y-97252380D02*
X149604819Y-97252380D01*
X149604819Y-97252380D02*
X149747676Y-97347618D01*
X149747676Y-97347618D02*
X149842914Y-97442856D01*
X149842914Y-97442856D02*
X149890533Y-97538094D01*
X149604819Y-96347618D02*
X149604819Y-96252380D01*
X149604819Y-96252380D02*
X149652438Y-96157142D01*
X149652438Y-96157142D02*
X149700057Y-96109523D01*
X149700057Y-96109523D02*
X149795295Y-96061904D01*
X149795295Y-96061904D02*
X149985771Y-96014285D01*
X149985771Y-96014285D02*
X150223866Y-96014285D01*
X150223866Y-96014285D02*
X150414342Y-96061904D01*
X150414342Y-96061904D02*
X150509580Y-96109523D01*
X150509580Y-96109523D02*
X150557200Y-96157142D01*
X150557200Y-96157142D02*
X150604819Y-96252380D01*
X150604819Y-96252380D02*
X150604819Y-96347618D01*
X150604819Y-96347618D02*
X150557200Y-96442856D01*
X150557200Y-96442856D02*
X150509580Y-96490475D01*
X150509580Y-96490475D02*
X150414342Y-96538094D01*
X150414342Y-96538094D02*
X150223866Y-96585713D01*
X150223866Y-96585713D02*
X149985771Y-96585713D01*
X149985771Y-96585713D02*
X149795295Y-96538094D01*
X149795295Y-96538094D02*
X149700057Y-96490475D01*
X149700057Y-96490475D02*
X149652438Y-96442856D01*
X149652438Y-96442856D02*
X149604819Y-96347618D01*
X149604819Y-95395237D02*
X149604819Y-95299999D01*
X149604819Y-95299999D02*
X149652438Y-95204761D01*
X149652438Y-95204761D02*
X149700057Y-95157142D01*
X149700057Y-95157142D02*
X149795295Y-95109523D01*
X149795295Y-95109523D02*
X149985771Y-95061904D01*
X149985771Y-95061904D02*
X150223866Y-95061904D01*
X150223866Y-95061904D02*
X150414342Y-95109523D01*
X150414342Y-95109523D02*
X150509580Y-95157142D01*
X150509580Y-95157142D02*
X150557200Y-95204761D01*
X150557200Y-95204761D02*
X150604819Y-95299999D01*
X150604819Y-95299999D02*
X150604819Y-95395237D01*
X150604819Y-95395237D02*
X150557200Y-95490475D01*
X150557200Y-95490475D02*
X150509580Y-95538094D01*
X150509580Y-95538094D02*
X150414342Y-95585713D01*
X150414342Y-95585713D02*
X150223866Y-95633332D01*
X150223866Y-95633332D02*
X149985771Y-95633332D01*
X149985771Y-95633332D02*
X149795295Y-95585713D01*
X149795295Y-95585713D02*
X149700057Y-95538094D01*
X149700057Y-95538094D02*
X149652438Y-95490475D01*
X149652438Y-95490475D02*
X149604819Y-95395237D01*
X150604819Y-94633332D02*
X149604819Y-94633332D01*
X150604819Y-94061904D02*
X150033390Y-94490475D01*
X149604819Y-94061904D02*
X150176247Y-94633332D01*
X145040476Y-88404819D02*
X145659523Y-88404819D01*
X145659523Y-88404819D02*
X145326190Y-88785771D01*
X145326190Y-88785771D02*
X145469047Y-88785771D01*
X145469047Y-88785771D02*
X145564285Y-88833390D01*
X145564285Y-88833390D02*
X145611904Y-88881009D01*
X145611904Y-88881009D02*
X145659523Y-88976247D01*
X145659523Y-88976247D02*
X145659523Y-89214342D01*
X145659523Y-89214342D02*
X145611904Y-89309580D01*
X145611904Y-89309580D02*
X145564285Y-89357200D01*
X145564285Y-89357200D02*
X145469047Y-89404819D01*
X145469047Y-89404819D02*
X145183333Y-89404819D01*
X145183333Y-89404819D02*
X145088095Y-89357200D01*
X145088095Y-89357200D02*
X145040476Y-89309580D01*
X145992857Y-88404819D02*
X146611904Y-88404819D01*
X146611904Y-88404819D02*
X146278571Y-88785771D01*
X146278571Y-88785771D02*
X146421428Y-88785771D01*
X146421428Y-88785771D02*
X146516666Y-88833390D01*
X146516666Y-88833390D02*
X146564285Y-88881009D01*
X146564285Y-88881009D02*
X146611904Y-88976247D01*
X146611904Y-88976247D02*
X146611904Y-89214342D01*
X146611904Y-89214342D02*
X146564285Y-89309580D01*
X146564285Y-89309580D02*
X146516666Y-89357200D01*
X146516666Y-89357200D02*
X146421428Y-89404819D01*
X146421428Y-89404819D02*
X146135714Y-89404819D01*
X146135714Y-89404819D02*
X146040476Y-89357200D01*
X146040476Y-89357200D02*
X145992857Y-89309580D01*
X146040476Y-79904819D02*
X146040476Y-78904819D01*
X146040476Y-78904819D02*
X146278571Y-78904819D01*
X146278571Y-78904819D02*
X146421428Y-78952438D01*
X146421428Y-78952438D02*
X146516666Y-79047676D01*
X146516666Y-79047676D02*
X146564285Y-79142914D01*
X146564285Y-79142914D02*
X146611904Y-79333390D01*
X146611904Y-79333390D02*
X146611904Y-79476247D01*
X146611904Y-79476247D02*
X146564285Y-79666723D01*
X146564285Y-79666723D02*
X146516666Y-79761961D01*
X146516666Y-79761961D02*
X146421428Y-79857200D01*
X146421428Y-79857200D02*
X146278571Y-79904819D01*
X146278571Y-79904819D02*
X146040476Y-79904819D01*
X146802381Y-80000057D02*
X147564285Y-80000057D01*
X148135714Y-79381009D02*
X147802381Y-79381009D01*
X147802381Y-79904819D02*
X147802381Y-78904819D01*
X147802381Y-78904819D02*
X148278571Y-78904819D01*
X149135714Y-79904819D02*
X148659524Y-79904819D01*
X148659524Y-79904819D02*
X148659524Y-78904819D01*
X149659524Y-79428628D02*
X149659524Y-79904819D01*
X149326191Y-78904819D02*
X149659524Y-79428628D01*
X149659524Y-79428628D02*
X149992857Y-78904819D01*
X150659524Y-79381009D02*
X150802381Y-79428628D01*
X150802381Y-79428628D02*
X150850000Y-79476247D01*
X150850000Y-79476247D02*
X150897619Y-79571485D01*
X150897619Y-79571485D02*
X150897619Y-79714342D01*
X150897619Y-79714342D02*
X150850000Y-79809580D01*
X150850000Y-79809580D02*
X150802381Y-79857200D01*
X150802381Y-79857200D02*
X150707143Y-79904819D01*
X150707143Y-79904819D02*
X150326191Y-79904819D01*
X150326191Y-79904819D02*
X150326191Y-78904819D01*
X150326191Y-78904819D02*
X150659524Y-78904819D01*
X150659524Y-78904819D02*
X150754762Y-78952438D01*
X150754762Y-78952438D02*
X150802381Y-79000057D01*
X150802381Y-79000057D02*
X150850000Y-79095295D01*
X150850000Y-79095295D02*
X150850000Y-79190533D01*
X150850000Y-79190533D02*
X150802381Y-79285771D01*
X150802381Y-79285771D02*
X150754762Y-79333390D01*
X150754762Y-79333390D02*
X150659524Y-79381009D01*
X150659524Y-79381009D02*
X150326191Y-79381009D01*
X151278572Y-79619104D02*
X151754762Y-79619104D01*
X151183334Y-79904819D02*
X151516667Y-78904819D01*
X151516667Y-78904819D02*
X151850000Y-79904819D01*
X152754762Y-79809580D02*
X152707143Y-79857200D01*
X152707143Y-79857200D02*
X152564286Y-79904819D01*
X152564286Y-79904819D02*
X152469048Y-79904819D01*
X152469048Y-79904819D02*
X152326191Y-79857200D01*
X152326191Y-79857200D02*
X152230953Y-79761961D01*
X152230953Y-79761961D02*
X152183334Y-79666723D01*
X152183334Y-79666723D02*
X152135715Y-79476247D01*
X152135715Y-79476247D02*
X152135715Y-79333390D01*
X152135715Y-79333390D02*
X152183334Y-79142914D01*
X152183334Y-79142914D02*
X152230953Y-79047676D01*
X152230953Y-79047676D02*
X152326191Y-78952438D01*
X152326191Y-78952438D02*
X152469048Y-78904819D01*
X152469048Y-78904819D02*
X152564286Y-78904819D01*
X152564286Y-78904819D02*
X152707143Y-78952438D01*
X152707143Y-78952438D02*
X152754762Y-79000057D01*
X153183334Y-79904819D02*
X153183334Y-78904819D01*
X153754762Y-79904819D02*
X153326191Y-79333390D01*
X153754762Y-78904819D02*
X153183334Y-79476247D01*
X154707143Y-79904819D02*
X154135715Y-79904819D01*
X154421429Y-79904819D02*
X154421429Y-78904819D01*
X154421429Y-78904819D02*
X154326191Y-79047676D01*
X154326191Y-79047676D02*
X154230953Y-79142914D01*
X154230953Y-79142914D02*
X154135715Y-79190533D01*
X172739580Y-86829166D02*
X172787200Y-86876785D01*
X172787200Y-86876785D02*
X172834819Y-87019642D01*
X172834819Y-87019642D02*
X172834819Y-87114880D01*
X172834819Y-87114880D02*
X172787200Y-87257737D01*
X172787200Y-87257737D02*
X172691961Y-87352975D01*
X172691961Y-87352975D02*
X172596723Y-87400594D01*
X172596723Y-87400594D02*
X172406247Y-87448213D01*
X172406247Y-87448213D02*
X172263390Y-87448213D01*
X172263390Y-87448213D02*
X172072914Y-87400594D01*
X172072914Y-87400594D02*
X171977676Y-87352975D01*
X171977676Y-87352975D02*
X171882438Y-87257737D01*
X171882438Y-87257737D02*
X171834819Y-87114880D01*
X171834819Y-87114880D02*
X171834819Y-87019642D01*
X171834819Y-87019642D02*
X171882438Y-86876785D01*
X171882438Y-86876785D02*
X171930057Y-86829166D01*
X172168152Y-85972023D02*
X172834819Y-85972023D01*
X171787200Y-86210118D02*
X172501485Y-86448213D01*
X172501485Y-86448213D02*
X172501485Y-85829166D01*
X164270833Y-89539580D02*
X164223214Y-89587200D01*
X164223214Y-89587200D02*
X164080357Y-89634819D01*
X164080357Y-89634819D02*
X163985119Y-89634819D01*
X163985119Y-89634819D02*
X163842262Y-89587200D01*
X163842262Y-89587200D02*
X163747024Y-89491961D01*
X163747024Y-89491961D02*
X163699405Y-89396723D01*
X163699405Y-89396723D02*
X163651786Y-89206247D01*
X163651786Y-89206247D02*
X163651786Y-89063390D01*
X163651786Y-89063390D02*
X163699405Y-88872914D01*
X163699405Y-88872914D02*
X163747024Y-88777676D01*
X163747024Y-88777676D02*
X163842262Y-88682438D01*
X163842262Y-88682438D02*
X163985119Y-88634819D01*
X163985119Y-88634819D02*
X164080357Y-88634819D01*
X164080357Y-88634819D02*
X164223214Y-88682438D01*
X164223214Y-88682438D02*
X164270833Y-88730057D01*
X164604167Y-88634819D02*
X165223214Y-88634819D01*
X165223214Y-88634819D02*
X164889881Y-89015771D01*
X164889881Y-89015771D02*
X165032738Y-89015771D01*
X165032738Y-89015771D02*
X165127976Y-89063390D01*
X165127976Y-89063390D02*
X165175595Y-89111009D01*
X165175595Y-89111009D02*
X165223214Y-89206247D01*
X165223214Y-89206247D02*
X165223214Y-89444342D01*
X165223214Y-89444342D02*
X165175595Y-89539580D01*
X165175595Y-89539580D02*
X165127976Y-89587200D01*
X165127976Y-89587200D02*
X165032738Y-89634819D01*
X165032738Y-89634819D02*
X164747024Y-89634819D01*
X164747024Y-89634819D02*
X164651786Y-89587200D01*
X164651786Y-89587200D02*
X164604167Y-89539580D01*
X87583333Y-112859580D02*
X87535714Y-112907200D01*
X87535714Y-112907200D02*
X87392857Y-112954819D01*
X87392857Y-112954819D02*
X87297619Y-112954819D01*
X87297619Y-112954819D02*
X87154762Y-112907200D01*
X87154762Y-112907200D02*
X87059524Y-112811961D01*
X87059524Y-112811961D02*
X87011905Y-112716723D01*
X87011905Y-112716723D02*
X86964286Y-112526247D01*
X86964286Y-112526247D02*
X86964286Y-112383390D01*
X86964286Y-112383390D02*
X87011905Y-112192914D01*
X87011905Y-112192914D02*
X87059524Y-112097676D01*
X87059524Y-112097676D02*
X87154762Y-112002438D01*
X87154762Y-112002438D02*
X87297619Y-111954819D01*
X87297619Y-111954819D02*
X87392857Y-111954819D01*
X87392857Y-111954819D02*
X87535714Y-112002438D01*
X87535714Y-112002438D02*
X87583333Y-112050057D01*
X88535714Y-112954819D02*
X87964286Y-112954819D01*
X88250000Y-112954819D02*
X88250000Y-111954819D01*
X88250000Y-111954819D02*
X88154762Y-112097676D01*
X88154762Y-112097676D02*
X88059524Y-112192914D01*
X88059524Y-112192914D02*
X87964286Y-112240533D01*
X180666666Y-94994819D02*
X180666666Y-95709104D01*
X180666666Y-95709104D02*
X180619047Y-95851961D01*
X180619047Y-95851961D02*
X180523809Y-95947200D01*
X180523809Y-95947200D02*
X180380952Y-95994819D01*
X180380952Y-95994819D02*
X180285714Y-95994819D01*
X181047619Y-94994819D02*
X181666666Y-94994819D01*
X181666666Y-94994819D02*
X181333333Y-95375771D01*
X181333333Y-95375771D02*
X181476190Y-95375771D01*
X181476190Y-95375771D02*
X181571428Y-95423390D01*
X181571428Y-95423390D02*
X181619047Y-95471009D01*
X181619047Y-95471009D02*
X181666666Y-95566247D01*
X181666666Y-95566247D02*
X181666666Y-95804342D01*
X181666666Y-95804342D02*
X181619047Y-95899580D01*
X181619047Y-95899580D02*
X181571428Y-95947200D01*
X181571428Y-95947200D02*
X181476190Y-95994819D01*
X181476190Y-95994819D02*
X181190476Y-95994819D01*
X181190476Y-95994819D02*
X181095238Y-95947200D01*
X181095238Y-95947200D02*
X181047619Y-95899580D01*
X81724819Y-65833333D02*
X82439104Y-65833333D01*
X82439104Y-65833333D02*
X82581961Y-65880952D01*
X82581961Y-65880952D02*
X82677200Y-65976190D01*
X82677200Y-65976190D02*
X82724819Y-66119047D01*
X82724819Y-66119047D02*
X82724819Y-66214285D01*
X81724819Y-64880952D02*
X81724819Y-65357142D01*
X81724819Y-65357142D02*
X82201009Y-65404761D01*
X82201009Y-65404761D02*
X82153390Y-65357142D01*
X82153390Y-65357142D02*
X82105771Y-65261904D01*
X82105771Y-65261904D02*
X82105771Y-65023809D01*
X82105771Y-65023809D02*
X82153390Y-64928571D01*
X82153390Y-64928571D02*
X82201009Y-64880952D01*
X82201009Y-64880952D02*
X82296247Y-64833333D01*
X82296247Y-64833333D02*
X82534342Y-64833333D01*
X82534342Y-64833333D02*
X82629580Y-64880952D01*
X82629580Y-64880952D02*
X82677200Y-64928571D01*
X82677200Y-64928571D02*
X82724819Y-65023809D01*
X82724819Y-65023809D02*
X82724819Y-65261904D01*
X82724819Y-65261904D02*
X82677200Y-65357142D01*
X82677200Y-65357142D02*
X82629580Y-65404761D01*
X180666666Y-75534819D02*
X180666666Y-76249104D01*
X180666666Y-76249104D02*
X180619047Y-76391961D01*
X180619047Y-76391961D02*
X180523809Y-76487200D01*
X180523809Y-76487200D02*
X180380952Y-76534819D01*
X180380952Y-76534819D02*
X180285714Y-76534819D01*
X181095238Y-75630057D02*
X181142857Y-75582438D01*
X181142857Y-75582438D02*
X181238095Y-75534819D01*
X181238095Y-75534819D02*
X181476190Y-75534819D01*
X181476190Y-75534819D02*
X181571428Y-75582438D01*
X181571428Y-75582438D02*
X181619047Y-75630057D01*
X181619047Y-75630057D02*
X181666666Y-75725295D01*
X181666666Y-75725295D02*
X181666666Y-75820533D01*
X181666666Y-75820533D02*
X181619047Y-75963390D01*
X181619047Y-75963390D02*
X181047619Y-76534819D01*
X181047619Y-76534819D02*
X181666666Y-76534819D01*
X180666666Y-114454819D02*
X180666666Y-115169104D01*
X180666666Y-115169104D02*
X180619047Y-115311961D01*
X180619047Y-115311961D02*
X180523809Y-115407200D01*
X180523809Y-115407200D02*
X180380952Y-115454819D01*
X180380952Y-115454819D02*
X180285714Y-115454819D01*
X181571428Y-114788152D02*
X181571428Y-115454819D01*
X181333333Y-114407200D02*
X181095238Y-115121485D01*
X181095238Y-115121485D02*
X181714285Y-115121485D01*
X87033333Y-87359580D02*
X86985714Y-87407200D01*
X86985714Y-87407200D02*
X86842857Y-87454819D01*
X86842857Y-87454819D02*
X86747619Y-87454819D01*
X86747619Y-87454819D02*
X86604762Y-87407200D01*
X86604762Y-87407200D02*
X86509524Y-87311961D01*
X86509524Y-87311961D02*
X86461905Y-87216723D01*
X86461905Y-87216723D02*
X86414286Y-87026247D01*
X86414286Y-87026247D02*
X86414286Y-86883390D01*
X86414286Y-86883390D02*
X86461905Y-86692914D01*
X86461905Y-86692914D02*
X86509524Y-86597676D01*
X86509524Y-86597676D02*
X86604762Y-86502438D01*
X86604762Y-86502438D02*
X86747619Y-86454819D01*
X86747619Y-86454819D02*
X86842857Y-86454819D01*
X86842857Y-86454819D02*
X86985714Y-86502438D01*
X86985714Y-86502438D02*
X87033333Y-86550057D01*
X87414286Y-86550057D02*
X87461905Y-86502438D01*
X87461905Y-86502438D02*
X87557143Y-86454819D01*
X87557143Y-86454819D02*
X87795238Y-86454819D01*
X87795238Y-86454819D02*
X87890476Y-86502438D01*
X87890476Y-86502438D02*
X87938095Y-86550057D01*
X87938095Y-86550057D02*
X87985714Y-86645295D01*
X87985714Y-86645295D02*
X87985714Y-86740533D01*
X87985714Y-86740533D02*
X87938095Y-86883390D01*
X87938095Y-86883390D02*
X87366667Y-87454819D01*
X87366667Y-87454819D02*
X87985714Y-87454819D01*
D14*
%TO.C,J1*%
X143445000Y-63187500D02*
X143445000Y-60427500D01*
X100155000Y-63187500D02*
X143445000Y-63187500D01*
X100155000Y-63187500D02*
X100155000Y-60427500D01*
X100155000Y-60427500D02*
X143445000Y-60427500D01*
X98885000Y-63187500D02*
X97505000Y-63187500D01*
X97505000Y-63187500D02*
X97505000Y-61807500D01*
D15*
%TO.C,A1*%
X61426460Y-121576040D02*
X61417060Y-73284040D01*
X62417060Y-72284040D02*
X78968460Y-72287340D01*
X78968460Y-122572740D02*
X62426460Y-122576040D01*
X79968460Y-73287340D02*
X79968460Y-121572740D01*
X61417060Y-73284040D02*
G75*
G02*
X62417060Y-72284040I999999J1D01*
G01*
X62426460Y-122576040D02*
G75*
G02*
X61426460Y-121576040I-1J999999D01*
G01*
X78968460Y-72287340D02*
G75*
G02*
X79968460Y-73287340I0J-1000000D01*
G01*
X79968460Y-121572740D02*
G75*
G02*
X78968460Y-122572740I-1000000J0D01*
G01*
D14*
%TO.C,J_motor1*%
X148240000Y-71730000D02*
X147360000Y-71730000D01*
X147800000Y-71120000D01*
X148240000Y-71730000D01*
G36*
X148240000Y-71730000D02*
G01*
X147360000Y-71730000D01*
X147800000Y-71120000D01*
X148240000Y-71730000D01*
G37*
X165420000Y-71120000D02*
X148100000Y-71120000D01*
X165420000Y-61080000D02*
X165420000Y-71120000D01*
X147500000Y-71120000D02*
X145180000Y-71120000D01*
X145180000Y-71120000D02*
X145180000Y-61080000D01*
X145180000Y-70500000D02*
X165420000Y-70500000D01*
X145180000Y-69000000D02*
X165420000Y-69000000D01*
X145180000Y-64100000D02*
X165420000Y-64100000D01*
X145180000Y-61080000D02*
X165420000Y-61080000D01*
%TO.C,U1*%
X169260000Y-80040000D02*
X169260000Y-84160000D01*
X169165000Y-80040000D02*
X169260000Y-80040000D01*
X164140000Y-80040000D02*
X164235000Y-80040000D01*
X169260000Y-84160000D02*
X169165000Y-84160000D01*
X164235000Y-84160000D02*
X164140000Y-84160000D01*
X164140000Y-84160000D02*
X164140000Y-80040000D01*
X169500000Y-79740000D02*
X169170000Y-79500000D01*
X169500000Y-79260000D01*
X169500000Y-79740000D01*
G36*
X169500000Y-79740000D02*
G01*
X169170000Y-79500000D01*
X169500000Y-79260000D01*
X169500000Y-79740000D01*
G37*
%TO.C,R_MPD2*%
X160722936Y-74665000D02*
X161177064Y-74665000D01*
X160722936Y-76135000D02*
X161177064Y-76135000D01*
%TO.C,100K*%
X147885000Y-94622936D02*
X147885000Y-95077064D01*
X146415000Y-94622936D02*
X146415000Y-95077064D01*
%TO.C,33*%
X146022936Y-89915000D02*
X146477064Y-89915000D01*
X146022936Y-91385000D02*
X146477064Y-91385000D01*
%TO.C,Q_Motor1*%
X149140000Y-90472500D02*
X149140000Y-88952500D01*
X149190000Y-90472500D02*
X149140000Y-90472500D01*
X151090000Y-90472500D02*
X150310000Y-90472500D01*
X152260000Y-90472500D02*
X152210000Y-90472500D01*
X149140000Y-88952500D02*
X150140000Y-88952500D01*
X151260000Y-88952500D02*
X152260000Y-88952500D01*
X152260000Y-88952500D02*
X152260000Y-90472500D01*
X150650000Y-91252500D02*
X150320000Y-91012500D01*
X150650000Y-90772500D01*
X150650000Y-91252500D01*
G36*
X150650000Y-91252500D02*
G01*
X150320000Y-91012500D01*
X150650000Y-90772500D01*
X150650000Y-91252500D01*
G37*
%TO.C,D_FLYBACK1*%
X152920000Y-77720000D02*
X147480000Y-77720000D01*
X152920000Y-77590000D02*
X152920000Y-77720000D01*
X152920000Y-74910000D02*
X152920000Y-74780000D01*
X152920000Y-74780000D02*
X147480000Y-74780000D01*
X152140000Y-77720000D02*
X152140000Y-74780000D01*
X152020000Y-77720000D02*
X152020000Y-74780000D01*
X151900000Y-77720000D02*
X151900000Y-74780000D01*
X147480000Y-77720000D02*
X147480000Y-77590000D01*
X147480000Y-74780000D02*
X147480000Y-74910000D01*
%TO.C,C_Motor1*%
X167776248Y-65615000D02*
X168298752Y-65615000D01*
X167776248Y-67085000D02*
X168298752Y-67085000D01*
%TO.C,C4*%
X171435000Y-86401248D02*
X171435000Y-86923752D01*
X169965000Y-86401248D02*
X169965000Y-86923752D01*
%TO.C,C3*%
X164698752Y-88235000D02*
X164176248Y-88235000D01*
X164698752Y-86765000D02*
X164176248Y-86765000D01*
%TO.C,C1*%
X84201248Y-111765000D02*
X84723752Y-111765000D01*
X84201248Y-113235000D02*
X84723752Y-113235000D01*
%TO.C,J3*%
X179620000Y-96540000D02*
X181000000Y-96540000D01*
X179620000Y-97920000D02*
X179620000Y-96540000D01*
X179620000Y-99190000D02*
X179620000Y-106920000D01*
X179620000Y-99190000D02*
X182380000Y-99190000D01*
X179620000Y-106920000D02*
X182380000Y-106920000D01*
X182380000Y-99190000D02*
X182380000Y-106920000D01*
%TO.C,J5*%
X60730000Y-64120000D02*
X60730000Y-66880000D01*
X78620000Y-64120000D02*
X60730000Y-64120000D01*
X78620000Y-64120000D02*
X78620000Y-66880000D01*
X78620000Y-66880000D02*
X60730000Y-66880000D01*
X79890000Y-64120000D02*
X81270000Y-64120000D01*
X81270000Y-64120000D02*
X81270000Y-65500000D01*
%TO.C,J2*%
X179620000Y-77080000D02*
X181000000Y-77080000D01*
X179620000Y-78460000D02*
X179620000Y-77080000D01*
X179620000Y-79730000D02*
X179620000Y-87460000D01*
X179620000Y-79730000D02*
X182380000Y-79730000D01*
X179620000Y-87460000D02*
X182380000Y-87460000D01*
X182380000Y-79730000D02*
X182380000Y-87460000D01*
%TO.C,J4*%
X179620000Y-116000000D02*
X181000000Y-116000000D01*
X179620000Y-117380000D02*
X179620000Y-116000000D01*
X179620000Y-118650000D02*
X179620000Y-126380000D01*
X179620000Y-118650000D02*
X182380000Y-118650000D01*
X179620000Y-126380000D02*
X182380000Y-126380000D01*
X182380000Y-118650000D02*
X182380000Y-126380000D01*
%TO.C,C2*%
X83701248Y-86265000D02*
X84223752Y-86265000D01*
X83701248Y-87735000D02*
X84223752Y-87735000D01*
%TD*%
M02*
