%TF.GenerationSoftware,KiCad,Pcbnew,9.0.6*%
%TF.CreationDate,2026-02-26T17:30:16-05:00*%
%TF.ProjectId,Power Slice Rev 1,506f7765-7220-4536-9c69-636520526576,rev?*%
%TF.SameCoordinates,Original*%
%TF.FileFunction,Legend,Bot*%
%TF.FilePolarity,Positive*%
%FSLAX46Y46*%
G04 Gerber Fmt 4.6, Leading zero omitted, Abs format (unit mm)*
G04 Created by KiCad (PCBNEW 9.0.6) date 2026-02-26 17:30:16*
%MOMM*%
%LPD*%
G01*
G04 APERTURE LIST*
%ADD10C,1.000000*%
%ADD11C,0.750000*%
%ADD12C,0.100000*%
%ADD13C,0.150000*%
%ADD14C,0.120000*%
G04 APERTURE END LIST*
D10*
X153975051Y-39590000D02*
G75*
G02*
X184879319Y-39590000I15452134J-16484153D01*
G01*
X184789320Y-68730000D02*
G75*
G02*
X182055016Y-71449930I-2710020J-10000D01*
G01*
X187589320Y-44620000D02*
G75*
G02*
X184879311Y-49649988I-7110320J585800D01*
G01*
X182055016Y-71449909D02*
X156799320Y-71449909D01*
X156799320Y-71449909D02*
G75*
G02*
X154065000Y-68730000I-24320J2709909D01*
G01*
X153975016Y-49650000D02*
G75*
G02*
X151264987Y-44620002I4400284J5615800D01*
G01*
X153975016Y-49650000D02*
X154053656Y-68730000D01*
X184879320Y-39590000D02*
G75*
G02*
X187589335Y-44620004I-4400320J-5615800D01*
G01*
X184879320Y-49650000D02*
X184800680Y-68730000D01*
X151265016Y-44620000D02*
G75*
G02*
X153975034Y-39590023I7110284J-585800D01*
G01*
D11*
X175775151Y-47870327D02*
X175346579Y-48108422D01*
X175346579Y-48108422D02*
X175203722Y-48346518D01*
X175203722Y-48346518D02*
X175060865Y-48822708D01*
X175060865Y-48822708D02*
X175060865Y-49536994D01*
X175060865Y-49536994D02*
X175203722Y-50013184D01*
X175203722Y-50013184D02*
X175346579Y-50251280D01*
X175346579Y-50251280D02*
X175632294Y-50489375D01*
X175632294Y-50489375D02*
X176775151Y-50489375D01*
X176775151Y-50489375D02*
X176775151Y-45489375D01*
X176775151Y-45489375D02*
X175775151Y-45489375D01*
X175775151Y-45489375D02*
X175489437Y-45727470D01*
X175489437Y-45727470D02*
X175346579Y-45965565D01*
X175346579Y-45965565D02*
X175203722Y-46441756D01*
X175203722Y-46441756D02*
X175203722Y-46917946D01*
X175203722Y-46917946D02*
X175346579Y-47394137D01*
X175346579Y-47394137D02*
X175489437Y-47632232D01*
X175489437Y-47632232D02*
X175775151Y-47870327D01*
X175775151Y-47870327D02*
X176775151Y-47870327D01*
X172060865Y-50489375D02*
X173060865Y-48108422D01*
X173775151Y-50489375D02*
X173775151Y-45489375D01*
X173775151Y-45489375D02*
X172632294Y-45489375D01*
X172632294Y-45489375D02*
X172346579Y-45727470D01*
X172346579Y-45727470D02*
X172203722Y-45965565D01*
X172203722Y-45965565D02*
X172060865Y-46441756D01*
X172060865Y-46441756D02*
X172060865Y-47156041D01*
X172060865Y-47156041D02*
X172203722Y-47632232D01*
X172203722Y-47632232D02*
X172346579Y-47870327D01*
X172346579Y-47870327D02*
X172632294Y-48108422D01*
X172632294Y-48108422D02*
X173775151Y-48108422D01*
X170775151Y-47870327D02*
X169775151Y-47870327D01*
X169346579Y-50489375D02*
X170775151Y-50489375D01*
X170775151Y-50489375D02*
X170775151Y-45489375D01*
X170775151Y-45489375D02*
X169346579Y-45489375D01*
X168203722Y-49060803D02*
X166775151Y-49060803D01*
X168489436Y-50489375D02*
X167489436Y-45489375D01*
X167489436Y-45489375D02*
X166489436Y-50489375D01*
X165489436Y-50489375D02*
X165489436Y-45489375D01*
X165489436Y-45489375D02*
X164775150Y-45489375D01*
X164775150Y-45489375D02*
X164346579Y-45727470D01*
X164346579Y-45727470D02*
X164060864Y-46203660D01*
X164060864Y-46203660D02*
X163918007Y-46679851D01*
X163918007Y-46679851D02*
X163775150Y-47632232D01*
X163775150Y-47632232D02*
X163775150Y-48346518D01*
X163775150Y-48346518D02*
X163918007Y-49298899D01*
X163918007Y-49298899D02*
X164060864Y-49775089D01*
X164060864Y-49775089D02*
X164346579Y-50251280D01*
X164346579Y-50251280D02*
X164775150Y-50489375D01*
X164775150Y-50489375D02*
X165489436Y-50489375D01*
X183632293Y-58539095D02*
X183632293Y-53539095D01*
X183632293Y-53539095D02*
X182489436Y-53539095D01*
X182489436Y-53539095D02*
X182203721Y-53777190D01*
X182203721Y-53777190D02*
X182060864Y-54015285D01*
X182060864Y-54015285D02*
X181918007Y-54491476D01*
X181918007Y-54491476D02*
X181918007Y-55205761D01*
X181918007Y-55205761D02*
X182060864Y-55681952D01*
X182060864Y-55681952D02*
X182203721Y-55920047D01*
X182203721Y-55920047D02*
X182489436Y-56158142D01*
X182489436Y-56158142D02*
X183632293Y-56158142D01*
X180060864Y-53539095D02*
X179489436Y-53539095D01*
X179489436Y-53539095D02*
X179203721Y-53777190D01*
X179203721Y-53777190D02*
X178918007Y-54253380D01*
X178918007Y-54253380D02*
X178775150Y-55205761D01*
X178775150Y-55205761D02*
X178775150Y-56872428D01*
X178775150Y-56872428D02*
X178918007Y-57824809D01*
X178918007Y-57824809D02*
X179203721Y-58301000D01*
X179203721Y-58301000D02*
X179489436Y-58539095D01*
X179489436Y-58539095D02*
X180060864Y-58539095D01*
X180060864Y-58539095D02*
X180346579Y-58301000D01*
X180346579Y-58301000D02*
X180632293Y-57824809D01*
X180632293Y-57824809D02*
X180775150Y-56872428D01*
X180775150Y-56872428D02*
X180775150Y-55205761D01*
X180775150Y-55205761D02*
X180632293Y-54253380D01*
X180632293Y-54253380D02*
X180346579Y-53777190D01*
X180346579Y-53777190D02*
X180060864Y-53539095D01*
X177775150Y-53539095D02*
X177060864Y-58539095D01*
X177060864Y-58539095D02*
X176489436Y-54967666D01*
X176489436Y-54967666D02*
X175918007Y-58539095D01*
X175918007Y-58539095D02*
X175203722Y-53539095D01*
X174060865Y-55920047D02*
X173060865Y-55920047D01*
X172632293Y-58539095D02*
X174060865Y-58539095D01*
X174060865Y-58539095D02*
X174060865Y-53539095D01*
X174060865Y-53539095D02*
X172632293Y-53539095D01*
X169632293Y-58539095D02*
X170632293Y-56158142D01*
X171346579Y-58539095D02*
X171346579Y-53539095D01*
X171346579Y-53539095D02*
X170203722Y-53539095D01*
X170203722Y-53539095D02*
X169918007Y-53777190D01*
X169918007Y-53777190D02*
X169775150Y-54015285D01*
X169775150Y-54015285D02*
X169632293Y-54491476D01*
X169632293Y-54491476D02*
X169632293Y-55205761D01*
X169632293Y-55205761D02*
X169775150Y-55681952D01*
X169775150Y-55681952D02*
X169918007Y-55920047D01*
X169918007Y-55920047D02*
X170203722Y-56158142D01*
X170203722Y-56158142D02*
X171346579Y-56158142D01*
X166203722Y-58301000D02*
X165775151Y-58539095D01*
X165775151Y-58539095D02*
X165060865Y-58539095D01*
X165060865Y-58539095D02*
X164775151Y-58301000D01*
X164775151Y-58301000D02*
X164632293Y-58062904D01*
X164632293Y-58062904D02*
X164489436Y-57586714D01*
X164489436Y-57586714D02*
X164489436Y-57110523D01*
X164489436Y-57110523D02*
X164632293Y-56634333D01*
X164632293Y-56634333D02*
X164775151Y-56396238D01*
X164775151Y-56396238D02*
X165060865Y-56158142D01*
X165060865Y-56158142D02*
X165632293Y-55920047D01*
X165632293Y-55920047D02*
X165918008Y-55681952D01*
X165918008Y-55681952D02*
X166060865Y-55443857D01*
X166060865Y-55443857D02*
X166203722Y-54967666D01*
X166203722Y-54967666D02*
X166203722Y-54491476D01*
X166203722Y-54491476D02*
X166060865Y-54015285D01*
X166060865Y-54015285D02*
X165918008Y-53777190D01*
X165918008Y-53777190D02*
X165632293Y-53539095D01*
X165632293Y-53539095D02*
X164918008Y-53539095D01*
X164918008Y-53539095D02*
X164489436Y-53777190D01*
X161775150Y-58539095D02*
X163203722Y-58539095D01*
X163203722Y-58539095D02*
X163203722Y-53539095D01*
X160775151Y-58539095D02*
X160775151Y-53539095D01*
X157632294Y-58062904D02*
X157775151Y-58301000D01*
X157775151Y-58301000D02*
X158203723Y-58539095D01*
X158203723Y-58539095D02*
X158489437Y-58539095D01*
X158489437Y-58539095D02*
X158918008Y-58301000D01*
X158918008Y-58301000D02*
X159203723Y-57824809D01*
X159203723Y-57824809D02*
X159346580Y-57348619D01*
X159346580Y-57348619D02*
X159489437Y-56396238D01*
X159489437Y-56396238D02*
X159489437Y-55681952D01*
X159489437Y-55681952D02*
X159346580Y-54729571D01*
X159346580Y-54729571D02*
X159203723Y-54253380D01*
X159203723Y-54253380D02*
X158918008Y-53777190D01*
X158918008Y-53777190D02*
X158489437Y-53539095D01*
X158489437Y-53539095D02*
X158203723Y-53539095D01*
X158203723Y-53539095D02*
X157775151Y-53777190D01*
X157775151Y-53777190D02*
X157632294Y-54015285D01*
X156346580Y-55920047D02*
X155346580Y-55920047D01*
X154918008Y-58539095D02*
X156346580Y-58539095D01*
X156346580Y-58539095D02*
X156346580Y-53539095D01*
X156346580Y-53539095D02*
X154918008Y-53539095D01*
D12*
X108742419Y-97552693D02*
X108742419Y-96981265D01*
X108742419Y-97266979D02*
X107742419Y-97266979D01*
X107742419Y-97266979D02*
X107885276Y-97171741D01*
X107885276Y-97171741D02*
X107980514Y-97076503D01*
X107980514Y-97076503D02*
X108028133Y-96981265D01*
X108742419Y-98028884D02*
X108742419Y-98219360D01*
X108742419Y-98219360D02*
X108694800Y-98314598D01*
X108694800Y-98314598D02*
X108647180Y-98362217D01*
X108647180Y-98362217D02*
X108504323Y-98457455D01*
X108504323Y-98457455D02*
X108313847Y-98505074D01*
X108313847Y-98505074D02*
X107932895Y-98505074D01*
X107932895Y-98505074D02*
X107837657Y-98457455D01*
X107837657Y-98457455D02*
X107790038Y-98409836D01*
X107790038Y-98409836D02*
X107742419Y-98314598D01*
X107742419Y-98314598D02*
X107742419Y-98124122D01*
X107742419Y-98124122D02*
X107790038Y-98028884D01*
X107790038Y-98028884D02*
X107837657Y-97981265D01*
X107837657Y-97981265D02*
X107932895Y-97933646D01*
X107932895Y-97933646D02*
X108170990Y-97933646D01*
X108170990Y-97933646D02*
X108266228Y-97981265D01*
X108266228Y-97981265D02*
X108313847Y-98028884D01*
X108313847Y-98028884D02*
X108361466Y-98124122D01*
X108361466Y-98124122D02*
X108361466Y-98314598D01*
X108361466Y-98314598D02*
X108313847Y-98409836D01*
X108313847Y-98409836D02*
X108266228Y-98457455D01*
X108266228Y-98457455D02*
X108170990Y-98505074D01*
X150942419Y-96933646D02*
X150942419Y-97552693D01*
X150942419Y-97552693D02*
X151323371Y-97219360D01*
X151323371Y-97219360D02*
X151323371Y-97362217D01*
X151323371Y-97362217D02*
X151370990Y-97457455D01*
X151370990Y-97457455D02*
X151418609Y-97505074D01*
X151418609Y-97505074D02*
X151513847Y-97552693D01*
X151513847Y-97552693D02*
X151751942Y-97552693D01*
X151751942Y-97552693D02*
X151847180Y-97505074D01*
X151847180Y-97505074D02*
X151894800Y-97457455D01*
X151894800Y-97457455D02*
X151942419Y-97362217D01*
X151942419Y-97362217D02*
X151942419Y-97076503D01*
X151942419Y-97076503D02*
X151894800Y-96981265D01*
X151894800Y-96981265D02*
X151847180Y-96933646D01*
X150942419Y-98409836D02*
X150942419Y-98219360D01*
X150942419Y-98219360D02*
X150990038Y-98124122D01*
X150990038Y-98124122D02*
X151037657Y-98076503D01*
X151037657Y-98076503D02*
X151180514Y-97981265D01*
X151180514Y-97981265D02*
X151370990Y-97933646D01*
X151370990Y-97933646D02*
X151751942Y-97933646D01*
X151751942Y-97933646D02*
X151847180Y-97981265D01*
X151847180Y-97981265D02*
X151894800Y-98028884D01*
X151894800Y-98028884D02*
X151942419Y-98124122D01*
X151942419Y-98124122D02*
X151942419Y-98314598D01*
X151942419Y-98314598D02*
X151894800Y-98409836D01*
X151894800Y-98409836D02*
X151847180Y-98457455D01*
X151847180Y-98457455D02*
X151751942Y-98505074D01*
X151751942Y-98505074D02*
X151513847Y-98505074D01*
X151513847Y-98505074D02*
X151418609Y-98457455D01*
X151418609Y-98457455D02*
X151370990Y-98409836D01*
X151370990Y-98409836D02*
X151323371Y-98314598D01*
X151323371Y-98314598D02*
X151323371Y-98124122D01*
X151323371Y-98124122D02*
X151370990Y-98028884D01*
X151370990Y-98028884D02*
X151418609Y-97981265D01*
X151418609Y-97981265D02*
X151513847Y-97933646D01*
D13*
X154215238Y-77016819D02*
X153596191Y-77016819D01*
X153596191Y-77016819D02*
X153929524Y-77397771D01*
X153929524Y-77397771D02*
X153786667Y-77397771D01*
X153786667Y-77397771D02*
X153691429Y-77445390D01*
X153691429Y-77445390D02*
X153643810Y-77493009D01*
X153643810Y-77493009D02*
X153596191Y-77588247D01*
X153596191Y-77588247D02*
X153596191Y-77826342D01*
X153596191Y-77826342D02*
X153643810Y-77921580D01*
X153643810Y-77921580D02*
X153691429Y-77969200D01*
X153691429Y-77969200D02*
X153786667Y-78016819D01*
X153786667Y-78016819D02*
X154072381Y-78016819D01*
X154072381Y-78016819D02*
X154167619Y-77969200D01*
X154167619Y-77969200D02*
X154215238Y-77921580D01*
X153310476Y-77016819D02*
X152977143Y-78016819D01*
X152977143Y-78016819D02*
X152643810Y-77016819D01*
X152405714Y-77016819D02*
X151786667Y-77016819D01*
X151786667Y-77016819D02*
X152120000Y-77397771D01*
X152120000Y-77397771D02*
X151977143Y-77397771D01*
X151977143Y-77397771D02*
X151881905Y-77445390D01*
X151881905Y-77445390D02*
X151834286Y-77493009D01*
X151834286Y-77493009D02*
X151786667Y-77588247D01*
X151786667Y-77588247D02*
X151786667Y-77826342D01*
X151786667Y-77826342D02*
X151834286Y-77921580D01*
X151834286Y-77921580D02*
X151881905Y-77969200D01*
X151881905Y-77969200D02*
X151977143Y-78016819D01*
X151977143Y-78016819D02*
X152262857Y-78016819D01*
X152262857Y-78016819D02*
X152358095Y-77969200D01*
X152358095Y-77969200D02*
X152405714Y-77921580D01*
X151596191Y-78112057D02*
X150834286Y-78112057D01*
X150739047Y-77016819D02*
X150167619Y-77016819D01*
X150453333Y-78016819D02*
X150453333Y-77016819D01*
X149453333Y-77969200D02*
X149548571Y-78016819D01*
X149548571Y-78016819D02*
X149739047Y-78016819D01*
X149739047Y-78016819D02*
X149834285Y-77969200D01*
X149834285Y-77969200D02*
X149881904Y-77873961D01*
X149881904Y-77873961D02*
X149881904Y-77493009D01*
X149881904Y-77493009D02*
X149834285Y-77397771D01*
X149834285Y-77397771D02*
X149739047Y-77350152D01*
X149739047Y-77350152D02*
X149548571Y-77350152D01*
X149548571Y-77350152D02*
X149453333Y-77397771D01*
X149453333Y-77397771D02*
X149405714Y-77493009D01*
X149405714Y-77493009D02*
X149405714Y-77588247D01*
X149405714Y-77588247D02*
X149881904Y-77683485D01*
X149024761Y-77969200D02*
X148929523Y-78016819D01*
X148929523Y-78016819D02*
X148739047Y-78016819D01*
X148739047Y-78016819D02*
X148643809Y-77969200D01*
X148643809Y-77969200D02*
X148596190Y-77873961D01*
X148596190Y-77873961D02*
X148596190Y-77826342D01*
X148596190Y-77826342D02*
X148643809Y-77731104D01*
X148643809Y-77731104D02*
X148739047Y-77683485D01*
X148739047Y-77683485D02*
X148881904Y-77683485D01*
X148881904Y-77683485D02*
X148977142Y-77635866D01*
X148977142Y-77635866D02*
X149024761Y-77540628D01*
X149024761Y-77540628D02*
X149024761Y-77493009D01*
X149024761Y-77493009D02*
X148977142Y-77397771D01*
X148977142Y-77397771D02*
X148881904Y-77350152D01*
X148881904Y-77350152D02*
X148739047Y-77350152D01*
X148739047Y-77350152D02*
X148643809Y-77397771D01*
X148310475Y-77350152D02*
X147929523Y-77350152D01*
X148167618Y-77016819D02*
X148167618Y-77873961D01*
X148167618Y-77873961D02*
X148119999Y-77969200D01*
X148119999Y-77969200D02*
X148024761Y-78016819D01*
X148024761Y-78016819D02*
X147929523Y-78016819D01*
X147072380Y-78016819D02*
X147643808Y-78016819D01*
X147358094Y-78016819D02*
X147358094Y-77016819D01*
X147358094Y-77016819D02*
X147453332Y-77159676D01*
X147453332Y-77159676D02*
X147548570Y-77254914D01*
X147548570Y-77254914D02*
X147643808Y-77302533D01*
X80806904Y-51119819D02*
X80806904Y-51929342D01*
X80806904Y-51929342D02*
X80759285Y-52024580D01*
X80759285Y-52024580D02*
X80711666Y-52072200D01*
X80711666Y-52072200D02*
X80616428Y-52119819D01*
X80616428Y-52119819D02*
X80425952Y-52119819D01*
X80425952Y-52119819D02*
X80330714Y-52072200D01*
X80330714Y-52072200D02*
X80283095Y-52024580D01*
X80283095Y-52024580D02*
X80235476Y-51929342D01*
X80235476Y-51929342D02*
X80235476Y-51119819D01*
X79854523Y-51119819D02*
X79235476Y-51119819D01*
X79235476Y-51119819D02*
X79568809Y-51500771D01*
X79568809Y-51500771D02*
X79425952Y-51500771D01*
X79425952Y-51500771D02*
X79330714Y-51548390D01*
X79330714Y-51548390D02*
X79283095Y-51596009D01*
X79283095Y-51596009D02*
X79235476Y-51691247D01*
X79235476Y-51691247D02*
X79235476Y-51929342D01*
X79235476Y-51929342D02*
X79283095Y-52024580D01*
X79283095Y-52024580D02*
X79330714Y-52072200D01*
X79330714Y-52072200D02*
X79425952Y-52119819D01*
X79425952Y-52119819D02*
X79711666Y-52119819D01*
X79711666Y-52119819D02*
X79806904Y-52072200D01*
X79806904Y-52072200D02*
X79854523Y-52024580D01*
X109901904Y-36774819D02*
X109901904Y-37584342D01*
X109901904Y-37584342D02*
X109854285Y-37679580D01*
X109854285Y-37679580D02*
X109806666Y-37727200D01*
X109806666Y-37727200D02*
X109711428Y-37774819D01*
X109711428Y-37774819D02*
X109520952Y-37774819D01*
X109520952Y-37774819D02*
X109425714Y-37727200D01*
X109425714Y-37727200D02*
X109378095Y-37679580D01*
X109378095Y-37679580D02*
X109330476Y-37584342D01*
X109330476Y-37584342D02*
X109330476Y-36774819D01*
X108425714Y-36774819D02*
X108616190Y-36774819D01*
X108616190Y-36774819D02*
X108711428Y-36822438D01*
X108711428Y-36822438D02*
X108759047Y-36870057D01*
X108759047Y-36870057D02*
X108854285Y-37012914D01*
X108854285Y-37012914D02*
X108901904Y-37203390D01*
X108901904Y-37203390D02*
X108901904Y-37584342D01*
X108901904Y-37584342D02*
X108854285Y-37679580D01*
X108854285Y-37679580D02*
X108806666Y-37727200D01*
X108806666Y-37727200D02*
X108711428Y-37774819D01*
X108711428Y-37774819D02*
X108520952Y-37774819D01*
X108520952Y-37774819D02*
X108425714Y-37727200D01*
X108425714Y-37727200D02*
X108378095Y-37679580D01*
X108378095Y-37679580D02*
X108330476Y-37584342D01*
X108330476Y-37584342D02*
X108330476Y-37346247D01*
X108330476Y-37346247D02*
X108378095Y-37251009D01*
X108378095Y-37251009D02*
X108425714Y-37203390D01*
X108425714Y-37203390D02*
X108520952Y-37155771D01*
X108520952Y-37155771D02*
X108711428Y-37155771D01*
X108711428Y-37155771D02*
X108806666Y-37203390D01*
X108806666Y-37203390D02*
X108854285Y-37251009D01*
X108854285Y-37251009D02*
X108901904Y-37346247D01*
X150582819Y-50742380D02*
X150582819Y-50266190D01*
X150582819Y-50266190D02*
X151059009Y-50218571D01*
X151059009Y-50218571D02*
X151011390Y-50266190D01*
X151011390Y-50266190D02*
X150963771Y-50361428D01*
X150963771Y-50361428D02*
X150963771Y-50599523D01*
X150963771Y-50599523D02*
X151011390Y-50694761D01*
X151011390Y-50694761D02*
X151059009Y-50742380D01*
X151059009Y-50742380D02*
X151154247Y-50789999D01*
X151154247Y-50789999D02*
X151392342Y-50789999D01*
X151392342Y-50789999D02*
X151487580Y-50742380D01*
X151487580Y-50742380D02*
X151535200Y-50694761D01*
X151535200Y-50694761D02*
X151582819Y-50599523D01*
X151582819Y-50599523D02*
X151582819Y-50361428D01*
X151582819Y-50361428D02*
X151535200Y-50266190D01*
X151535200Y-50266190D02*
X151487580Y-50218571D01*
X150582819Y-51075714D02*
X151582819Y-51409047D01*
X151582819Y-51409047D02*
X150582819Y-51742380D01*
X151678057Y-51837619D02*
X151678057Y-52599523D01*
X150582819Y-52694762D02*
X150582819Y-53266190D01*
X151582819Y-52980476D02*
X150582819Y-52980476D01*
X151535200Y-53980476D02*
X151582819Y-53885238D01*
X151582819Y-53885238D02*
X151582819Y-53694762D01*
X151582819Y-53694762D02*
X151535200Y-53599524D01*
X151535200Y-53599524D02*
X151439961Y-53551905D01*
X151439961Y-53551905D02*
X151059009Y-53551905D01*
X151059009Y-53551905D02*
X150963771Y-53599524D01*
X150963771Y-53599524D02*
X150916152Y-53694762D01*
X150916152Y-53694762D02*
X150916152Y-53885238D01*
X150916152Y-53885238D02*
X150963771Y-53980476D01*
X150963771Y-53980476D02*
X151059009Y-54028095D01*
X151059009Y-54028095D02*
X151154247Y-54028095D01*
X151154247Y-54028095D02*
X151249485Y-53551905D01*
X151535200Y-54409048D02*
X151582819Y-54504286D01*
X151582819Y-54504286D02*
X151582819Y-54694762D01*
X151582819Y-54694762D02*
X151535200Y-54790000D01*
X151535200Y-54790000D02*
X151439961Y-54837619D01*
X151439961Y-54837619D02*
X151392342Y-54837619D01*
X151392342Y-54837619D02*
X151297104Y-54790000D01*
X151297104Y-54790000D02*
X151249485Y-54694762D01*
X151249485Y-54694762D02*
X151249485Y-54551905D01*
X151249485Y-54551905D02*
X151201866Y-54456667D01*
X151201866Y-54456667D02*
X151106628Y-54409048D01*
X151106628Y-54409048D02*
X151059009Y-54409048D01*
X151059009Y-54409048D02*
X150963771Y-54456667D01*
X150963771Y-54456667D02*
X150916152Y-54551905D01*
X150916152Y-54551905D02*
X150916152Y-54694762D01*
X150916152Y-54694762D02*
X150963771Y-54790000D01*
X150916152Y-55123334D02*
X150916152Y-55504286D01*
X150582819Y-55266191D02*
X151439961Y-55266191D01*
X151439961Y-55266191D02*
X151535200Y-55313810D01*
X151535200Y-55313810D02*
X151582819Y-55409048D01*
X151582819Y-55409048D02*
X151582819Y-55504286D01*
X151582819Y-56361429D02*
X151582819Y-55790001D01*
X151582819Y-56075715D02*
X150582819Y-56075715D01*
X150582819Y-56075715D02*
X150725676Y-55980477D01*
X150725676Y-55980477D02*
X150820914Y-55885239D01*
X150820914Y-55885239D02*
X150868533Y-55790001D01*
D14*
%TO.C,3V3_Test1*%
X149935000Y-78635000D02*
X149935000Y-80035000D01*
X149935000Y-80035000D02*
X151335000Y-80035000D01*
X151335000Y-78635000D02*
X149935000Y-78635000D01*
X151335000Y-80035000D02*
X151335000Y-78635000D01*
%TO.C,U3*%
X77985000Y-52505000D02*
X77985000Y-52560000D01*
X77985000Y-62570000D02*
X77985000Y-62625000D01*
X77985000Y-62625000D02*
X82105000Y-62625000D01*
X82105000Y-52505000D02*
X77985000Y-52505000D01*
X82105000Y-52560000D02*
X82105000Y-52505000D01*
X82105000Y-62625000D02*
X82105000Y-62570000D01*
X82645000Y-52555000D02*
X82405000Y-52225000D01*
X82885000Y-52225000D01*
X82645000Y-52555000D01*
G36*
X82645000Y-52555000D02*
G01*
X82405000Y-52225000D01*
X82885000Y-52225000D01*
X82645000Y-52555000D01*
G37*
%TO.C,U6*%
X101610000Y-40110000D02*
X101610000Y-44230000D01*
X101610000Y-44230000D02*
X101665000Y-44230000D01*
X101665000Y-40110000D02*
X101610000Y-40110000D01*
X111675000Y-44230000D02*
X111730000Y-44230000D01*
X111730000Y-40110000D02*
X111675000Y-40110000D01*
X111730000Y-44230000D02*
X111730000Y-40110000D01*
X112010000Y-45010000D02*
X111680000Y-44770000D01*
X112010000Y-44530000D01*
X112010000Y-45010000D01*
G36*
X112010000Y-45010000D02*
G01*
X111680000Y-44770000D01*
X112010000Y-44530000D01*
X112010000Y-45010000D01*
G37*
%TO.C,5V_Test1*%
X148980000Y-52590000D02*
X148980000Y-53990000D01*
X148980000Y-53990000D02*
X150380000Y-53990000D01*
X150380000Y-52590000D02*
X148980000Y-52590000D01*
X150380000Y-53990000D02*
X150380000Y-52590000D01*
%TD*%
M02*
