%TF.GenerationSoftware,KiCad,Pcbnew,9.0.6*%
%TF.CreationDate,2026-02-26T17:30:14-05:00*%
%TF.ProjectId,Power Slice Rev 1,506f7765-7220-4536-9c69-636520526576,rev?*%
%TF.SameCoordinates,Original*%
%TF.FileFunction,Plated,1,4,PTH,Mixed*%
%TF.FilePolarity,Positive*%
%FSLAX46Y46*%
G04 Gerber Fmt 4.6, Leading zero omitted, Abs format (unit mm)*
G04 Created by KiCad (PCBNEW 9.0.6) date 2026-02-26 17:30:14*
%MOMM*%
%LPD*%
G01*
G04 APERTURE LIST*
%TA.AperFunction,ViaDrill*%
%ADD10C,0.300000*%
%TD*%
%TA.AperFunction,ViaDrill*%
%ADD11C,0.500000*%
%TD*%
%TA.AperFunction,ViaDrill*%
%ADD12C,0.600000*%
%TD*%
%TA.AperFunction,ViaDrill*%
%ADD13C,0.700000*%
%TD*%
%TA.AperFunction,ComponentDrill*%
%ADD14C,0.800000*%
%TD*%
%TA.AperFunction,ViaDrill*%
%ADD15C,1.000000*%
%TD*%
%TA.AperFunction,ComponentDrill*%
%ADD16C,1.000000*%
%TD*%
G04 aperture for slot hole*
%TA.AperFunction,ComponentDrill*%
%ADD17C,1.000000*%
%TD*%
%TA.AperFunction,ComponentDrill*%
%ADD18C,1.020000*%
%TD*%
%TA.AperFunction,ComponentDrill*%
%ADD19C,1.300000*%
%TD*%
G04 APERTURE END LIST*
D10*
X68190000Y-53910000D03*
X70340000Y-50030000D03*
X70430000Y-25950000D03*
X74450000Y-57280000D03*
X75480000Y-53740000D03*
X77520000Y-43310000D03*
X79110000Y-56945000D03*
X79180000Y-58210000D03*
X79320000Y-59350000D03*
X79340000Y-55560000D03*
X79370000Y-74660000D03*
X79680000Y-61100000D03*
X79960000Y-85380000D03*
X80040000Y-63590000D03*
X80840000Y-91790000D03*
X81160000Y-55660000D03*
X83650000Y-92830000D03*
X85540000Y-95420000D03*
X86570000Y-87960000D03*
X86620000Y-86530000D03*
X87030000Y-93460000D03*
X87710000Y-90390000D03*
X88270000Y-82840000D03*
X88870000Y-92490000D03*
X90930000Y-61420000D03*
X91030000Y-70010000D03*
X92559000Y-70170000D03*
X93640000Y-85930000D03*
X94050000Y-50780000D03*
X94370000Y-59060000D03*
X95140000Y-51280000D03*
X95520000Y-69180000D03*
X95850000Y-52680000D03*
X96810000Y-46320000D03*
X96810000Y-53160000D03*
X99010000Y-35420000D03*
X101490000Y-57900000D03*
X102220000Y-41550000D03*
X102240000Y-46360000D03*
X103610000Y-42490000D03*
X103840000Y-41510000D03*
X104630000Y-94560000D03*
X104780000Y-41180000D03*
X105190000Y-70700000D03*
X106040000Y-41660000D03*
X107080000Y-47620000D03*
X107300000Y-41730000D03*
X107700000Y-71850000D03*
X108060000Y-41140000D03*
X108940000Y-41520000D03*
X109480000Y-56230000D03*
X110170000Y-49110000D03*
X110960000Y-61600000D03*
X111010000Y-48700000D03*
X111390000Y-54750000D03*
X111720000Y-56320000D03*
X112235000Y-42045000D03*
X116790000Y-63240000D03*
X117470000Y-60920000D03*
X126580000Y-97360000D03*
X126780000Y-28160000D03*
X136860000Y-50640000D03*
X146060000Y-90040000D03*
X148870000Y-61270000D03*
D11*
X90500000Y-69080000D03*
X91590000Y-67180000D03*
X96730000Y-89600000D03*
X100700000Y-89430000D03*
X100990000Y-70330000D03*
X108660000Y-85560000D03*
X109260000Y-76535000D03*
X136230000Y-95070000D03*
X140130000Y-61660000D03*
X140800000Y-57130000D03*
X144610000Y-52820000D03*
X145810000Y-57320000D03*
X148400000Y-53290000D03*
X149100000Y-79280000D03*
X150240000Y-50990000D03*
X156790000Y-59790000D03*
X158650000Y-47320000D03*
X162060000Y-59930000D03*
X162590000Y-64890000D03*
X164610000Y-49820000D03*
X164670000Y-60420000D03*
X168112927Y-45798155D03*
X171020000Y-64140000D03*
X171575000Y-52960000D03*
X171590000Y-48060000D03*
X171700000Y-41070000D03*
X173500000Y-40060000D03*
X173870000Y-54710000D03*
X174230000Y-62810000D03*
X175650000Y-45030000D03*
X175820000Y-64060000D03*
X176990000Y-61300000D03*
X177700000Y-51400000D03*
X178740000Y-52830000D03*
D12*
X67710000Y-94060000D03*
X67800000Y-86820000D03*
X74950000Y-37530000D03*
X82110000Y-95310000D03*
X82320000Y-66580000D03*
X83850000Y-74590000D03*
X87140000Y-37130000D03*
X99450000Y-78770000D03*
X102200000Y-73750000D03*
X104190000Y-26700000D03*
X107110000Y-31370000D03*
X110517500Y-74945000D03*
X111630000Y-82410000D03*
X118270000Y-81510000D03*
X118400000Y-97930000D03*
X119990000Y-65420000D03*
X121000000Y-43360000D03*
X129060000Y-80790000D03*
X129990000Y-27900000D03*
X131570000Y-32760000D03*
X133550000Y-73630000D03*
X134720000Y-56480000D03*
X138100000Y-59550000D03*
X140440000Y-85370000D03*
X148210000Y-95950000D03*
X151470000Y-59260000D03*
X153712500Y-73256602D03*
X153990000Y-52570000D03*
X157390000Y-64450000D03*
X161710000Y-32850000D03*
X161800000Y-71980000D03*
X168060000Y-54990000D03*
X176460000Y-41360000D03*
X177340000Y-57940000D03*
X184510000Y-38700000D03*
X184820000Y-82510000D03*
X185410000Y-55210000D03*
X185500000Y-70900000D03*
X191660000Y-27860000D03*
D13*
X77520000Y-51820000D03*
X77960000Y-46950000D03*
X127530000Y-79570000D03*
X132270000Y-75150000D03*
D14*
%TO.C,Y1*%
X76540000Y-86910000D03*
X76540000Y-91790000D03*
%TO.C,U5*%
X99242500Y-38670000D03*
X99242500Y-41210000D03*
X99242500Y-43750000D03*
X99242500Y-46290000D03*
X99242500Y-48830000D03*
X99242500Y-51370000D03*
X99242500Y-53910000D03*
X99242500Y-56450000D03*
X99242500Y-58990000D03*
X114482500Y-38670000D03*
X114482500Y-41210000D03*
X114482500Y-43750000D03*
X114482500Y-46290000D03*
X114482500Y-48830000D03*
X114482500Y-51370000D03*
X114482500Y-53910000D03*
X114482500Y-56450000D03*
X114482500Y-58990000D03*
%TO.C,C7*%
X121940000Y-55310000D03*
X121940000Y-58810000D03*
%TO.C,C8*%
X123200000Y-80290000D03*
X123200000Y-83790000D03*
%TD*%
D15*
X90930000Y-48890000D03*
X91610000Y-37080000D03*
X114800000Y-97540000D03*
X130780000Y-51600000D03*
X134590000Y-48790000D03*
D16*
%TO.C,U9*%
X108255000Y-26045000D03*
X110795000Y-26045000D03*
X113335000Y-26045000D03*
X115875000Y-26045000D03*
X118415000Y-26045000D03*
X120955000Y-26045000D03*
X123495000Y-26045000D03*
X126035000Y-26045000D03*
X128575000Y-26045000D03*
X131115000Y-26045000D03*
X133655000Y-26045000D03*
X136195000Y-26045000D03*
X138735000Y-26045000D03*
X141275000Y-26045000D03*
X143815000Y-26045000D03*
X146355000Y-26045000D03*
X148895000Y-26045000D03*
X151435000Y-26045000D03*
%TO.C,BT1*%
X159170000Y-87330000D03*
X159170000Y-90430000D03*
X179970000Y-87330000D03*
X179970000Y-90430000D03*
D17*
%TO.C,J7*%
X181070000Y-34310000D02*
X181070000Y-31810000D01*
X185070000Y-28360000D02*
X183070000Y-28360000D01*
X187070000Y-34060000D02*
X187070000Y-32060000D01*
D18*
%TO.C,U9*%
X72350000Y-43595000D03*
X72350000Y-46135000D03*
X72350000Y-48675000D03*
X72350000Y-51215000D03*
X72350000Y-53755000D03*
X72350000Y-56295000D03*
X72350000Y-58835000D03*
X72350000Y-61375000D03*
X72350000Y-63915000D03*
X72350000Y-66455000D03*
X72350000Y-68995000D03*
X72350000Y-71535000D03*
X72350000Y-74075000D03*
X72350000Y-76615000D03*
X72350000Y-79155000D03*
X87590000Y-43595000D03*
X87590000Y-46135000D03*
X87590000Y-48675000D03*
X87590000Y-51215000D03*
X87590000Y-53755000D03*
X87590000Y-56295000D03*
X87590000Y-58835000D03*
X87590000Y-61375000D03*
X87590000Y-63915000D03*
X87590000Y-66455000D03*
X87590000Y-68995000D03*
X87590000Y-71535000D03*
X87590000Y-74075000D03*
X87590000Y-76615000D03*
X87590000Y-79155000D03*
D19*
%TO.C,J1*%
X72160000Y-28587500D03*
X77160000Y-28587500D03*
X82160000Y-28587500D03*
X87160000Y-28587500D03*
%TO.C,J3*%
X93350000Y-28507500D03*
X98350000Y-28507500D03*
%TO.C,J4*%
X157610000Y-28580000D03*
X162610000Y-28580000D03*
X167610000Y-28580000D03*
X172610000Y-28580000D03*
%TO.C,J2*%
X190270000Y-52790000D03*
X190270000Y-57790000D03*
X190270000Y-62790000D03*
X190270000Y-67790000D03*
%TO.C,J5*%
X190270000Y-74250000D03*
X190270000Y-79250000D03*
X190270000Y-84250000D03*
X190270000Y-89250000D03*
%TO.C,J6*%
X190340000Y-41530000D03*
X190340000Y-46530000D03*
M02*
