%TF.GenerationSoftware,KiCad,Pcbnew,9.0.6*%
%TF.CreationDate,2026-02-26T17:30:16-05:00*%
%TF.ProjectId,Power Slice Rev 1,506f7765-7220-4536-9c69-636520526576,rev?*%
%TF.SameCoordinates,Original*%
%TF.FileFunction,Soldermask,Bot*%
%TF.FilePolarity,Negative*%
%FSLAX46Y46*%
G04 Gerber Fmt 4.6, Leading zero omitted, Abs format (unit mm)*
G04 Created by KiCad (PCBNEW 9.0.6) date 2026-02-26 17:30:16*
%MOMM*%
%LPD*%
G01*
G04 APERTURE LIST*
G04 Aperture macros list*
%AMRoundRect*
0 Rectangle with rounded corners*
0 $1 Rounding radius*
0 $2 $3 $4 $5 $6 $7 $8 $9 X,Y pos of 4 corners*
0 Add a 4 corners polygon primitive as box body*
4,1,4,$2,$3,$4,$5,$6,$7,$8,$9,$2,$3,0*
0 Add four circle primitives for the rounded corners*
1,1,$1+$1,$2,$3*
1,1,$1+$1,$4,$5*
1,1,$1+$1,$6,$7*
1,1,$1+$1,$8,$9*
0 Add four rect primitives between the rounded corners*
20,1,$1+$1,$2,$3,$4,$5,0*
20,1,$1+$1,$4,$5,$6,$7,0*
20,1,$1+$1,$6,$7,$8,$9,0*
20,1,$1+$1,$8,$9,$2,$3,0*%
G04 Aperture macros list end*
%ADD10C,0.100000*%
%ADD11O,1.270000X7.000000*%
%ADD12RoundRect,0.250000X0.550000X-0.550000X0.550000X0.550000X-0.550000X0.550000X-0.550000X-0.550000X0*%
%ADD13C,1.600000*%
%ADD14R,1.700000X1.700000*%
%ADD15C,1.700000*%
%ADD16RoundRect,0.102000X-0.765000X-0.765000X0.765000X-0.765000X0.765000X0.765000X-0.765000X0.765000X0*%
%ADD17C,1.734000*%
%ADD18RoundRect,0.190500X0.444500X-3.809500X0.444500X3.809500X-0.444500X3.809500X-0.444500X-3.809500X0*%
%ADD19RoundRect,0.250000X-1.050000X1.050000X-1.050000X-1.050000X1.050000X-1.050000X1.050000X1.050000X0*%
%ADD20C,2.600000*%
%ADD21RoundRect,0.250000X-1.050000X-1.050000X1.050000X-1.050000X1.050000X1.050000X-1.050000X1.050000X0*%
%ADD22RoundRect,0.250000X-0.950000X-0.550000X0.950000X-0.550000X0.950000X0.550000X-0.950000X0.550000X0*%
%ADD23O,2.400000X1.600000*%
%ADD24C,2.504000*%
%ADD25O,2.704000X5.204000*%
%ADD26O,2.454000X4.704000*%
%ADD27O,4.704000X2.454000*%
%ADD28C,1.500000*%
%ADD29R,1.000000X1.000000*%
%ADD30RoundRect,0.150000X0.825000X0.150000X-0.825000X0.150000X-0.825000X-0.150000X0.825000X-0.150000X0*%
%ADD31RoundRect,0.150000X0.150000X-0.825000X0.150000X0.825000X-0.150000X0.825000X-0.150000X-0.825000X0*%
G04 APERTURE END LIST*
D10*
%TO.C,U9*%
X153970000Y-107225000D02*
X105770000Y-107225000D01*
X105770000Y-99425000D01*
X153970000Y-99425000D01*
X153970000Y-107225000D01*
G36*
X153970000Y-107225000D02*
G01*
X105770000Y-107225000D01*
X105770000Y-99425000D01*
X153970000Y-99425000D01*
X153970000Y-107225000D01*
G37*
%TD*%
D11*
%TO.C,U10*%
X104030000Y-86280000D03*
%TD*%
%TO.C,U8*%
X103780000Y-67025000D03*
%TD*%
%TO.C,U4*%
X103980000Y-76850000D03*
%TD*%
D12*
%TO.C,C7*%
X121940000Y-58810000D03*
D13*
X121940000Y-55310000D03*
%TD*%
D14*
%TO.C,U9*%
X108255000Y-26045000D03*
D15*
X110795000Y-26045000D03*
X113335000Y-26045000D03*
D16*
X72350000Y-43595000D03*
D17*
X72350000Y-46135000D03*
X72350000Y-48675000D03*
X72350000Y-51215000D03*
X72350000Y-53755000D03*
X72350000Y-56295000D03*
X72350000Y-58835000D03*
X72350000Y-61375000D03*
X72350000Y-63915000D03*
X72350000Y-66455000D03*
X72350000Y-68995000D03*
X72350000Y-71535000D03*
X72350000Y-74075000D03*
X72350000Y-76615000D03*
X72350000Y-79155000D03*
D15*
X115875000Y-26045000D03*
D16*
X87590000Y-43595000D03*
D17*
X87590000Y-46135000D03*
X87590000Y-48675000D03*
X87590000Y-51215000D03*
X87590000Y-53755000D03*
X87590000Y-56295000D03*
X87590000Y-58835000D03*
X87590000Y-61375000D03*
X87590000Y-63915000D03*
X87590000Y-66455000D03*
X87590000Y-68995000D03*
X87590000Y-71535000D03*
X87590000Y-74075000D03*
X87590000Y-76615000D03*
X87590000Y-79155000D03*
D15*
X118415000Y-26045000D03*
X120955000Y-26045000D03*
X123495000Y-26045000D03*
X126035000Y-26045000D03*
X128575000Y-26045000D03*
X131115000Y-26045000D03*
X133655000Y-26045000D03*
X136195000Y-26045000D03*
X138735000Y-26045000D03*
X141275000Y-26045000D03*
X143815000Y-26045000D03*
X146355000Y-26045000D03*
X148895000Y-26045000D03*
X151435000Y-26045000D03*
D18*
X108270000Y-103325000D03*
X110810000Y-103325000D03*
X113350000Y-103325000D03*
X115890000Y-103325000D03*
X118430000Y-103325000D03*
X120970000Y-103325000D03*
X123510000Y-103325000D03*
X126050000Y-103325000D03*
X128590000Y-103325000D03*
X131130000Y-103325000D03*
X133670000Y-103325000D03*
X136210000Y-103325000D03*
X138750000Y-103325000D03*
X141290000Y-103325000D03*
X143830000Y-103325000D03*
X146370000Y-103325000D03*
X148910000Y-103325000D03*
X151450000Y-103325000D03*
%TD*%
D19*
%TO.C,J2*%
X190270000Y-52790000D03*
D20*
X190270000Y-57790000D03*
X190270000Y-62790000D03*
X190270000Y-67790000D03*
%TD*%
D21*
%TO.C,J1*%
X72160000Y-28587500D03*
D20*
X77160000Y-28587500D03*
X82160000Y-28587500D03*
X87160000Y-28587500D03*
%TD*%
D22*
%TO.C,U5*%
X99242500Y-38670000D03*
D23*
X99242500Y-41210000D03*
X99242500Y-43750000D03*
X99242500Y-46290000D03*
X99242500Y-48830000D03*
X99242500Y-51370000D03*
X99242500Y-53910000D03*
X99242500Y-56450000D03*
X99242500Y-58990000D03*
X114482500Y-58990000D03*
X114482500Y-56450000D03*
X114482500Y-53910000D03*
X114482500Y-51370000D03*
X114482500Y-48830000D03*
X114482500Y-46290000D03*
X114482500Y-43750000D03*
X114482500Y-41210000D03*
X114482500Y-38670000D03*
%TD*%
D24*
%TO.C,BT1*%
X159170000Y-87330000D03*
X159170000Y-90430000D03*
X179970000Y-87330000D03*
X179970000Y-90430000D03*
%TD*%
D25*
%TO.C,J7*%
X181070000Y-33060000D03*
D26*
X187070000Y-33060000D03*
D27*
X184070000Y-28360000D03*
%TD*%
D28*
%TO.C,Y1*%
X76540000Y-91790000D03*
X76540000Y-86910000D03*
%TD*%
D21*
%TO.C,J3*%
X93350000Y-28507500D03*
D20*
X98350000Y-28507500D03*
%TD*%
D19*
%TO.C,J6*%
X190340000Y-41530000D03*
D20*
X190340000Y-46530000D03*
%TD*%
D19*
%TO.C,J5*%
X190270000Y-74250000D03*
D20*
X190270000Y-79250000D03*
X190270000Y-84250000D03*
X190270000Y-89250000D03*
%TD*%
D12*
%TO.C,C8*%
X123200000Y-83790000D03*
D13*
X123200000Y-80290000D03*
%TD*%
D21*
%TO.C,J4*%
X157610000Y-28580000D03*
D20*
X162610000Y-28580000D03*
X167610000Y-28580000D03*
X172610000Y-28580000D03*
%TD*%
D29*
%TO.C,3V3_Test1*%
X150635000Y-79335000D03*
%TD*%
D30*
%TO.C,U3*%
X82520000Y-53120000D03*
X82520000Y-54390000D03*
X82520000Y-55660000D03*
X82520000Y-56930000D03*
X82520000Y-58200000D03*
X82520000Y-59470000D03*
X82520000Y-60740000D03*
X82520000Y-62010000D03*
X77570000Y-62010000D03*
X77570000Y-60740000D03*
X77570000Y-59470000D03*
X77570000Y-58200000D03*
X77570000Y-56930000D03*
X77570000Y-55660000D03*
X77570000Y-54390000D03*
X77570000Y-53120000D03*
%TD*%
D31*
%TO.C,U6*%
X111115000Y-44645000D03*
X109845000Y-44645000D03*
X108575000Y-44645000D03*
X107305000Y-44645000D03*
X106035000Y-44645000D03*
X104765000Y-44645000D03*
X103495000Y-44645000D03*
X102225000Y-44645000D03*
X102225000Y-39695000D03*
X103495000Y-39695000D03*
X104765000Y-39695000D03*
X106035000Y-39695000D03*
X107305000Y-39695000D03*
X108575000Y-39695000D03*
X109845000Y-39695000D03*
X111115000Y-39695000D03*
%TD*%
D29*
%TO.C,5V_Test1*%
X149680000Y-53290000D03*
%TD*%
M02*
