%TF.GenerationSoftware,KiCad,Pcbnew,9.0.6*%
%TF.CreationDate,2026-02-26T17:30:14-05:00*%
%TF.ProjectId,Power Slice Rev 1,506f7765-7220-4536-9c69-636520526576,rev?*%
%TF.SameCoordinates,Original*%
%TF.FileFunction,Drillmap*%
%TF.FilePolarity,Positive*%
%FSLAX45Y45*%
G04 Gerber Fmt 4.5, Leading zero omitted, Abs format (unit mm)*
G04 Created by KiCad (PCBNEW 9.0.6) date 2026-02-26 17:30:14*
%MOMM*%
%LPD*%
G01*
G04 APERTURE LIST*
%ADD10C,0.050000*%
%ADD11C,0.200000*%
%ADD12C,0.127000*%
%ADD13C,0.100000*%
G04 APERTURE END LIST*
D10*
X6487000Y-9402500D02*
X6487000Y-2902500D01*
X10574000Y-9902500D02*
X6987000Y-9902500D01*
X10574000Y-10722500D02*
X10574000Y-9902500D01*
X10574000Y-10722500D02*
X15400000Y-10722500D01*
X15400000Y-9902500D02*
X18987000Y-9902500D01*
X15400000Y-10722500D02*
X15400000Y-9902500D01*
X18987000Y-2402500D02*
X6987000Y-2402500D01*
X19487000Y-9402500D02*
X19487000Y-2902500D01*
X6487000Y-2902500D02*
G75*
G02*
X6987000Y-2402500I500000J0D01*
G01*
X6987000Y-9902500D02*
G75*
G02*
X6487000Y-9402500I0J500000D01*
G01*
X18987000Y-2402500D02*
G75*
G02*
X19487000Y-2902500I0J-500000D01*
G01*
X19487000Y-9402500D02*
G75*
G02*
X18987000Y-9902500I-500000J0D01*
G01*
D11*
D12*
X10314500Y-6639000D02*
X10441500Y-6766000D01*
X10441500Y-6639000D02*
X10314500Y-6766000D01*
D13*
X10314500Y-6416000D02*
X10314500Y-6989000D01*
X10441500Y-6989000D02*
G75*
G02*
X10314500Y-6989000I-63500J0D01*
G01*
X10441500Y-6989000D02*
X10441500Y-6416000D01*
X10441500Y-6416000D02*
G75*
G03*
X10314500Y-6416000I-63500J0D01*
G01*
D12*
X10334500Y-7621500D02*
X10461500Y-7748500D01*
X10461500Y-7621500D02*
X10334500Y-7748500D01*
D13*
X10334500Y-7398500D02*
X10334500Y-7971500D01*
X10461500Y-7971500D02*
G75*
G02*
X10334500Y-7971500I-63500J0D01*
G01*
X10461500Y-7971500D02*
X10461500Y-7398500D01*
X10461500Y-7398500D02*
G75*
G03*
X10334500Y-7398500I-63500J0D01*
G01*
D12*
X10339500Y-8564500D02*
X10466500Y-8691500D01*
X10466500Y-8564500D02*
X10339500Y-8691500D01*
D13*
X10339500Y-8341500D02*
X10339500Y-8914500D01*
X10466500Y-8914500D02*
G75*
G02*
X10339500Y-8914500I-63500J0D01*
G01*
X10466500Y-8914500D02*
X10466500Y-8341500D01*
X10466500Y-8341500D02*
G75*
G03*
X10339500Y-8341500I-63500J0D01*
G01*
D11*
X6745277Y-11036484D02*
X6745277Y-10836484D01*
X6745277Y-10836484D02*
X6792896Y-10836484D01*
X6792896Y-10836484D02*
X6821467Y-10846008D01*
X6821467Y-10846008D02*
X6840515Y-10865055D01*
X6840515Y-10865055D02*
X6850039Y-10884103D01*
X6850039Y-10884103D02*
X6859562Y-10922198D01*
X6859562Y-10922198D02*
X6859562Y-10950770D01*
X6859562Y-10950770D02*
X6850039Y-10988865D01*
X6850039Y-10988865D02*
X6840515Y-11007912D01*
X6840515Y-11007912D02*
X6821467Y-11026960D01*
X6821467Y-11026960D02*
X6792896Y-11036484D01*
X6792896Y-11036484D02*
X6745277Y-11036484D01*
X6945277Y-11036484D02*
X6945277Y-10903150D01*
X6945277Y-10941246D02*
X6954801Y-10922198D01*
X6954801Y-10922198D02*
X6964324Y-10912674D01*
X6964324Y-10912674D02*
X6983372Y-10903150D01*
X6983372Y-10903150D02*
X7002420Y-10903150D01*
X7069086Y-11036484D02*
X7069086Y-10903150D01*
X7069086Y-10836484D02*
X7059562Y-10846008D01*
X7059562Y-10846008D02*
X7069086Y-10855531D01*
X7069086Y-10855531D02*
X7078610Y-10846008D01*
X7078610Y-10846008D02*
X7069086Y-10836484D01*
X7069086Y-10836484D02*
X7069086Y-10855531D01*
X7192896Y-11036484D02*
X7173848Y-11026960D01*
X7173848Y-11026960D02*
X7164324Y-11007912D01*
X7164324Y-11007912D02*
X7164324Y-10836484D01*
X7297658Y-11036484D02*
X7278610Y-11026960D01*
X7278610Y-11026960D02*
X7269086Y-11007912D01*
X7269086Y-11007912D02*
X7269086Y-10836484D01*
X7526229Y-11036484D02*
X7526229Y-10836484D01*
X7526229Y-10836484D02*
X7592896Y-10979341D01*
X7592896Y-10979341D02*
X7659562Y-10836484D01*
X7659562Y-10836484D02*
X7659562Y-11036484D01*
X7840515Y-11036484D02*
X7840515Y-10931722D01*
X7840515Y-10931722D02*
X7830991Y-10912674D01*
X7830991Y-10912674D02*
X7811943Y-10903150D01*
X7811943Y-10903150D02*
X7773848Y-10903150D01*
X7773848Y-10903150D02*
X7754801Y-10912674D01*
X7840515Y-11026960D02*
X7821467Y-11036484D01*
X7821467Y-11036484D02*
X7773848Y-11036484D01*
X7773848Y-11036484D02*
X7754801Y-11026960D01*
X7754801Y-11026960D02*
X7745277Y-11007912D01*
X7745277Y-11007912D02*
X7745277Y-10988865D01*
X7745277Y-10988865D02*
X7754801Y-10969817D01*
X7754801Y-10969817D02*
X7773848Y-10960293D01*
X7773848Y-10960293D02*
X7821467Y-10960293D01*
X7821467Y-10960293D02*
X7840515Y-10950770D01*
X7935753Y-10903150D02*
X7935753Y-11103150D01*
X7935753Y-10912674D02*
X7954801Y-10903150D01*
X7954801Y-10903150D02*
X7992896Y-10903150D01*
X7992896Y-10903150D02*
X8011943Y-10912674D01*
X8011943Y-10912674D02*
X8021467Y-10922198D01*
X8021467Y-10922198D02*
X8030991Y-10941246D01*
X8030991Y-10941246D02*
X8030991Y-10998389D01*
X8030991Y-10998389D02*
X8021467Y-11017436D01*
X8021467Y-11017436D02*
X8011943Y-11026960D01*
X8011943Y-11026960D02*
X7992896Y-11036484D01*
X7992896Y-11036484D02*
X7954801Y-11036484D01*
X7954801Y-11036484D02*
X7935753Y-11026960D01*
X8116705Y-11017436D02*
X8126229Y-11026960D01*
X8126229Y-11026960D02*
X8116705Y-11036484D01*
X8116705Y-11036484D02*
X8107182Y-11026960D01*
X8107182Y-11026960D02*
X8116705Y-11017436D01*
X8116705Y-11017436D02*
X8116705Y-11036484D01*
X8116705Y-10912674D02*
X8126229Y-10922198D01*
X8126229Y-10922198D02*
X8116705Y-10931722D01*
X8116705Y-10931722D02*
X8107182Y-10922198D01*
X8107182Y-10922198D02*
X8116705Y-10912674D01*
X8116705Y-10912674D02*
X8116705Y-10931722D01*
D12*
X6357500Y-11301500D02*
X6484500Y-11428500D01*
X6484500Y-11301500D02*
X6357500Y-11428500D01*
D11*
X6850039Y-11456484D02*
X6735753Y-11456484D01*
X6792896Y-11456484D02*
X6792896Y-11256484D01*
X6792896Y-11256484D02*
X6773848Y-11285055D01*
X6773848Y-11285055D02*
X6754801Y-11304103D01*
X6754801Y-11304103D02*
X6735753Y-11313627D01*
X6935753Y-11437436D02*
X6945277Y-11446960D01*
X6945277Y-11446960D02*
X6935753Y-11456484D01*
X6935753Y-11456484D02*
X6926229Y-11446960D01*
X6926229Y-11446960D02*
X6935753Y-11437436D01*
X6935753Y-11437436D02*
X6935753Y-11456484D01*
X7021467Y-11275531D02*
X7030991Y-11266008D01*
X7030991Y-11266008D02*
X7050039Y-11256484D01*
X7050039Y-11256484D02*
X7097658Y-11256484D01*
X7097658Y-11256484D02*
X7116705Y-11266008D01*
X7116705Y-11266008D02*
X7126229Y-11275531D01*
X7126229Y-11275531D02*
X7135753Y-11294579D01*
X7135753Y-11294579D02*
X7135753Y-11313627D01*
X7135753Y-11313627D02*
X7126229Y-11342198D01*
X7126229Y-11342198D02*
X7011943Y-11456484D01*
X7011943Y-11456484D02*
X7135753Y-11456484D01*
X7202420Y-11256484D02*
X7335753Y-11256484D01*
X7335753Y-11256484D02*
X7250039Y-11456484D01*
X7450039Y-11256484D02*
X7469086Y-11256484D01*
X7469086Y-11256484D02*
X7488134Y-11266008D01*
X7488134Y-11266008D02*
X7497658Y-11275531D01*
X7497658Y-11275531D02*
X7507182Y-11294579D01*
X7507182Y-11294579D02*
X7516705Y-11332674D01*
X7516705Y-11332674D02*
X7516705Y-11380293D01*
X7516705Y-11380293D02*
X7507182Y-11418388D01*
X7507182Y-11418388D02*
X7497658Y-11437436D01*
X7497658Y-11437436D02*
X7488134Y-11446960D01*
X7488134Y-11446960D02*
X7469086Y-11456484D01*
X7469086Y-11456484D02*
X7450039Y-11456484D01*
X7450039Y-11456484D02*
X7430991Y-11446960D01*
X7430991Y-11446960D02*
X7421467Y-11437436D01*
X7421467Y-11437436D02*
X7411943Y-11418388D01*
X7411943Y-11418388D02*
X7402420Y-11380293D01*
X7402420Y-11380293D02*
X7402420Y-11332674D01*
X7402420Y-11332674D02*
X7411943Y-11294579D01*
X7411943Y-11294579D02*
X7421467Y-11275531D01*
X7421467Y-11275531D02*
X7430991Y-11266008D01*
X7430991Y-11266008D02*
X7450039Y-11256484D01*
X7602420Y-11456484D02*
X7602420Y-11323150D01*
X7602420Y-11342198D02*
X7611943Y-11332674D01*
X7611943Y-11332674D02*
X7630991Y-11323150D01*
X7630991Y-11323150D02*
X7659563Y-11323150D01*
X7659563Y-11323150D02*
X7678610Y-11332674D01*
X7678610Y-11332674D02*
X7688134Y-11351722D01*
X7688134Y-11351722D02*
X7688134Y-11456484D01*
X7688134Y-11351722D02*
X7697658Y-11332674D01*
X7697658Y-11332674D02*
X7716705Y-11323150D01*
X7716705Y-11323150D02*
X7745277Y-11323150D01*
X7745277Y-11323150D02*
X7764324Y-11332674D01*
X7764324Y-11332674D02*
X7773848Y-11351722D01*
X7773848Y-11351722D02*
X7773848Y-11456484D01*
X7869086Y-11456484D02*
X7869086Y-11323150D01*
X7869086Y-11342198D02*
X7878610Y-11332674D01*
X7878610Y-11332674D02*
X7897658Y-11323150D01*
X7897658Y-11323150D02*
X7926229Y-11323150D01*
X7926229Y-11323150D02*
X7945277Y-11332674D01*
X7945277Y-11332674D02*
X7954801Y-11351722D01*
X7954801Y-11351722D02*
X7954801Y-11456484D01*
X7954801Y-11351722D02*
X7964324Y-11332674D01*
X7964324Y-11332674D02*
X7983372Y-11323150D01*
X7983372Y-11323150D02*
X8011943Y-11323150D01*
X8011943Y-11323150D02*
X8030991Y-11332674D01*
X8030991Y-11332674D02*
X8040515Y-11351722D01*
X8040515Y-11351722D02*
X8040515Y-11456484D01*
X8430991Y-11246960D02*
X8259563Y-11504103D01*
X8688134Y-11256484D02*
X8707182Y-11256484D01*
X8707182Y-11256484D02*
X8726229Y-11266008D01*
X8726229Y-11266008D02*
X8735753Y-11275531D01*
X8735753Y-11275531D02*
X8745277Y-11294579D01*
X8745277Y-11294579D02*
X8754801Y-11332674D01*
X8754801Y-11332674D02*
X8754801Y-11380293D01*
X8754801Y-11380293D02*
X8745277Y-11418388D01*
X8745277Y-11418388D02*
X8735753Y-11437436D01*
X8735753Y-11437436D02*
X8726229Y-11446960D01*
X8726229Y-11446960D02*
X8707182Y-11456484D01*
X8707182Y-11456484D02*
X8688134Y-11456484D01*
X8688134Y-11456484D02*
X8669087Y-11446960D01*
X8669087Y-11446960D02*
X8659563Y-11437436D01*
X8659563Y-11437436D02*
X8650039Y-11418388D01*
X8650039Y-11418388D02*
X8640515Y-11380293D01*
X8640515Y-11380293D02*
X8640515Y-11332674D01*
X8640515Y-11332674D02*
X8650039Y-11294579D01*
X8650039Y-11294579D02*
X8659563Y-11275531D01*
X8659563Y-11275531D02*
X8669087Y-11266008D01*
X8669087Y-11266008D02*
X8688134Y-11256484D01*
X8840515Y-11437436D02*
X8850039Y-11446960D01*
X8850039Y-11446960D02*
X8840515Y-11456484D01*
X8840515Y-11456484D02*
X8830991Y-11446960D01*
X8830991Y-11446960D02*
X8840515Y-11437436D01*
X8840515Y-11437436D02*
X8840515Y-11456484D01*
X8973848Y-11256484D02*
X8992896Y-11256484D01*
X8992896Y-11256484D02*
X9011944Y-11266008D01*
X9011944Y-11266008D02*
X9021468Y-11275531D01*
X9021468Y-11275531D02*
X9030991Y-11294579D01*
X9030991Y-11294579D02*
X9040515Y-11332674D01*
X9040515Y-11332674D02*
X9040515Y-11380293D01*
X9040515Y-11380293D02*
X9030991Y-11418388D01*
X9030991Y-11418388D02*
X9021468Y-11437436D01*
X9021468Y-11437436D02*
X9011944Y-11446960D01*
X9011944Y-11446960D02*
X8992896Y-11456484D01*
X8992896Y-11456484D02*
X8973848Y-11456484D01*
X8973848Y-11456484D02*
X8954801Y-11446960D01*
X8954801Y-11446960D02*
X8945277Y-11437436D01*
X8945277Y-11437436D02*
X8935753Y-11418388D01*
X8935753Y-11418388D02*
X8926229Y-11380293D01*
X8926229Y-11380293D02*
X8926229Y-11332674D01*
X8926229Y-11332674D02*
X8935753Y-11294579D01*
X8935753Y-11294579D02*
X8945277Y-11275531D01*
X8945277Y-11275531D02*
X8954801Y-11266008D01*
X8954801Y-11266008D02*
X8973848Y-11256484D01*
X9221468Y-11256484D02*
X9126229Y-11256484D01*
X9126229Y-11256484D02*
X9116706Y-11351722D01*
X9116706Y-11351722D02*
X9126229Y-11342198D01*
X9126229Y-11342198D02*
X9145277Y-11332674D01*
X9145277Y-11332674D02*
X9192896Y-11332674D01*
X9192896Y-11332674D02*
X9211944Y-11342198D01*
X9211944Y-11342198D02*
X9221468Y-11351722D01*
X9221468Y-11351722D02*
X9230991Y-11370769D01*
X9230991Y-11370769D02*
X9230991Y-11418388D01*
X9230991Y-11418388D02*
X9221468Y-11437436D01*
X9221468Y-11437436D02*
X9211944Y-11446960D01*
X9211944Y-11446960D02*
X9192896Y-11456484D01*
X9192896Y-11456484D02*
X9145277Y-11456484D01*
X9145277Y-11456484D02*
X9126229Y-11446960D01*
X9126229Y-11446960D02*
X9116706Y-11437436D01*
X9354801Y-11256484D02*
X9373849Y-11256484D01*
X9373849Y-11256484D02*
X9392896Y-11266008D01*
X9392896Y-11266008D02*
X9402420Y-11275531D01*
X9402420Y-11275531D02*
X9411944Y-11294579D01*
X9411944Y-11294579D02*
X9421468Y-11332674D01*
X9421468Y-11332674D02*
X9421468Y-11380293D01*
X9421468Y-11380293D02*
X9411944Y-11418388D01*
X9411944Y-11418388D02*
X9402420Y-11437436D01*
X9402420Y-11437436D02*
X9392896Y-11446960D01*
X9392896Y-11446960D02*
X9373849Y-11456484D01*
X9373849Y-11456484D02*
X9354801Y-11456484D01*
X9354801Y-11456484D02*
X9335753Y-11446960D01*
X9335753Y-11446960D02*
X9326229Y-11437436D01*
X9326229Y-11437436D02*
X9316706Y-11418388D01*
X9316706Y-11418388D02*
X9307182Y-11380293D01*
X9307182Y-11380293D02*
X9307182Y-11332674D01*
X9307182Y-11332674D02*
X9316706Y-11294579D01*
X9316706Y-11294579D02*
X9326229Y-11275531D01*
X9326229Y-11275531D02*
X9335753Y-11266008D01*
X9335753Y-11266008D02*
X9354801Y-11256484D01*
X9545277Y-11256484D02*
X9564325Y-11256484D01*
X9564325Y-11256484D02*
X9583372Y-11266008D01*
X9583372Y-11266008D02*
X9592896Y-11275531D01*
X9592896Y-11275531D02*
X9602420Y-11294579D01*
X9602420Y-11294579D02*
X9611944Y-11332674D01*
X9611944Y-11332674D02*
X9611944Y-11380293D01*
X9611944Y-11380293D02*
X9602420Y-11418388D01*
X9602420Y-11418388D02*
X9592896Y-11437436D01*
X9592896Y-11437436D02*
X9583372Y-11446960D01*
X9583372Y-11446960D02*
X9564325Y-11456484D01*
X9564325Y-11456484D02*
X9545277Y-11456484D01*
X9545277Y-11456484D02*
X9526229Y-11446960D01*
X9526229Y-11446960D02*
X9516706Y-11437436D01*
X9516706Y-11437436D02*
X9507182Y-11418388D01*
X9507182Y-11418388D02*
X9497658Y-11380293D01*
X9497658Y-11380293D02*
X9497658Y-11332674D01*
X9497658Y-11332674D02*
X9507182Y-11294579D01*
X9507182Y-11294579D02*
X9516706Y-11275531D01*
X9516706Y-11275531D02*
X9526229Y-11266008D01*
X9526229Y-11266008D02*
X9545277Y-11256484D01*
X9688134Y-11256484D02*
X9688134Y-11294579D01*
X9764325Y-11256484D02*
X9764325Y-11294579D01*
X10059563Y-11532674D02*
X10050039Y-11523150D01*
X10050039Y-11523150D02*
X10030991Y-11494579D01*
X10030991Y-11494579D02*
X10021468Y-11475531D01*
X10021468Y-11475531D02*
X10011944Y-11446960D01*
X10011944Y-11446960D02*
X10002420Y-11399341D01*
X10002420Y-11399341D02*
X10002420Y-11361246D01*
X10002420Y-11361246D02*
X10011944Y-11313627D01*
X10011944Y-11313627D02*
X10021468Y-11285055D01*
X10021468Y-11285055D02*
X10030991Y-11266008D01*
X10030991Y-11266008D02*
X10050039Y-11237436D01*
X10050039Y-11237436D02*
X10059563Y-11227912D01*
X10173849Y-11256484D02*
X10192896Y-11256484D01*
X10192896Y-11256484D02*
X10211944Y-11266008D01*
X10211944Y-11266008D02*
X10221468Y-11275531D01*
X10221468Y-11275531D02*
X10230991Y-11294579D01*
X10230991Y-11294579D02*
X10240515Y-11332674D01*
X10240515Y-11332674D02*
X10240515Y-11380293D01*
X10240515Y-11380293D02*
X10230991Y-11418388D01*
X10230991Y-11418388D02*
X10221468Y-11437436D01*
X10221468Y-11437436D02*
X10211944Y-11446960D01*
X10211944Y-11446960D02*
X10192896Y-11456484D01*
X10192896Y-11456484D02*
X10173849Y-11456484D01*
X10173849Y-11456484D02*
X10154801Y-11446960D01*
X10154801Y-11446960D02*
X10145277Y-11437436D01*
X10145277Y-11437436D02*
X10135753Y-11418388D01*
X10135753Y-11418388D02*
X10126230Y-11380293D01*
X10126230Y-11380293D02*
X10126230Y-11332674D01*
X10126230Y-11332674D02*
X10135753Y-11294579D01*
X10135753Y-11294579D02*
X10145277Y-11275531D01*
X10145277Y-11275531D02*
X10154801Y-11266008D01*
X10154801Y-11266008D02*
X10173849Y-11256484D01*
X10478611Y-11456484D02*
X10478611Y-11256484D01*
X10564325Y-11456484D02*
X10564325Y-11351722D01*
X10564325Y-11351722D02*
X10554801Y-11332674D01*
X10554801Y-11332674D02*
X10535753Y-11323150D01*
X10535753Y-11323150D02*
X10507182Y-11323150D01*
X10507182Y-11323150D02*
X10488134Y-11332674D01*
X10488134Y-11332674D02*
X10478611Y-11342198D01*
X10688134Y-11456484D02*
X10669087Y-11446960D01*
X10669087Y-11446960D02*
X10659563Y-11437436D01*
X10659563Y-11437436D02*
X10650039Y-11418388D01*
X10650039Y-11418388D02*
X10650039Y-11361246D01*
X10650039Y-11361246D02*
X10659563Y-11342198D01*
X10659563Y-11342198D02*
X10669087Y-11332674D01*
X10669087Y-11332674D02*
X10688134Y-11323150D01*
X10688134Y-11323150D02*
X10716706Y-11323150D01*
X10716706Y-11323150D02*
X10735753Y-11332674D01*
X10735753Y-11332674D02*
X10745277Y-11342198D01*
X10745277Y-11342198D02*
X10754801Y-11361246D01*
X10754801Y-11361246D02*
X10754801Y-11418388D01*
X10754801Y-11418388D02*
X10745277Y-11437436D01*
X10745277Y-11437436D02*
X10735753Y-11446960D01*
X10735753Y-11446960D02*
X10716706Y-11456484D01*
X10716706Y-11456484D02*
X10688134Y-11456484D01*
X10869087Y-11456484D02*
X10850039Y-11446960D01*
X10850039Y-11446960D02*
X10840515Y-11427912D01*
X10840515Y-11427912D02*
X10840515Y-11256484D01*
X11021468Y-11446960D02*
X11002420Y-11456484D01*
X11002420Y-11456484D02*
X10964325Y-11456484D01*
X10964325Y-11456484D02*
X10945277Y-11446960D01*
X10945277Y-11446960D02*
X10935753Y-11427912D01*
X10935753Y-11427912D02*
X10935753Y-11351722D01*
X10935753Y-11351722D02*
X10945277Y-11332674D01*
X10945277Y-11332674D02*
X10964325Y-11323150D01*
X10964325Y-11323150D02*
X11002420Y-11323150D01*
X11002420Y-11323150D02*
X11021468Y-11332674D01*
X11021468Y-11332674D02*
X11030992Y-11351722D01*
X11030992Y-11351722D02*
X11030992Y-11370769D01*
X11030992Y-11370769D02*
X10935753Y-11389817D01*
X11107182Y-11446960D02*
X11126230Y-11456484D01*
X11126230Y-11456484D02*
X11164325Y-11456484D01*
X11164325Y-11456484D02*
X11183373Y-11446960D01*
X11183373Y-11446960D02*
X11192896Y-11427912D01*
X11192896Y-11427912D02*
X11192896Y-11418388D01*
X11192896Y-11418388D02*
X11183373Y-11399341D01*
X11183373Y-11399341D02*
X11164325Y-11389817D01*
X11164325Y-11389817D02*
X11135753Y-11389817D01*
X11135753Y-11389817D02*
X11116706Y-11380293D01*
X11116706Y-11380293D02*
X11107182Y-11361246D01*
X11107182Y-11361246D02*
X11107182Y-11351722D01*
X11107182Y-11351722D02*
X11116706Y-11332674D01*
X11116706Y-11332674D02*
X11135753Y-11323150D01*
X11135753Y-11323150D02*
X11164325Y-11323150D01*
X11164325Y-11323150D02*
X11183373Y-11332674D01*
X11430992Y-11380293D02*
X11583373Y-11380293D01*
X11507182Y-11456484D02*
X11507182Y-11304103D01*
X11811944Y-11256484D02*
X11935753Y-11256484D01*
X11935753Y-11256484D02*
X11869087Y-11332674D01*
X11869087Y-11332674D02*
X11897658Y-11332674D01*
X11897658Y-11332674D02*
X11916706Y-11342198D01*
X11916706Y-11342198D02*
X11926230Y-11351722D01*
X11926230Y-11351722D02*
X11935753Y-11370769D01*
X11935753Y-11370769D02*
X11935753Y-11418388D01*
X11935753Y-11418388D02*
X11926230Y-11437436D01*
X11926230Y-11437436D02*
X11916706Y-11446960D01*
X11916706Y-11446960D02*
X11897658Y-11456484D01*
X11897658Y-11456484D02*
X11840515Y-11456484D01*
X11840515Y-11456484D02*
X11821468Y-11446960D01*
X11821468Y-11446960D02*
X11811944Y-11437436D01*
X12164325Y-11446960D02*
X12183373Y-11456484D01*
X12183373Y-11456484D02*
X12221468Y-11456484D01*
X12221468Y-11456484D02*
X12240515Y-11446960D01*
X12240515Y-11446960D02*
X12250039Y-11427912D01*
X12250039Y-11427912D02*
X12250039Y-11418388D01*
X12250039Y-11418388D02*
X12240515Y-11399341D01*
X12240515Y-11399341D02*
X12221468Y-11389817D01*
X12221468Y-11389817D02*
X12192896Y-11389817D01*
X12192896Y-11389817D02*
X12173849Y-11380293D01*
X12173849Y-11380293D02*
X12164325Y-11361246D01*
X12164325Y-11361246D02*
X12164325Y-11351722D01*
X12164325Y-11351722D02*
X12173849Y-11332674D01*
X12173849Y-11332674D02*
X12192896Y-11323150D01*
X12192896Y-11323150D02*
X12221468Y-11323150D01*
X12221468Y-11323150D02*
X12240515Y-11332674D01*
X12364325Y-11456484D02*
X12345277Y-11446960D01*
X12345277Y-11446960D02*
X12335754Y-11427912D01*
X12335754Y-11427912D02*
X12335754Y-11256484D01*
X12469087Y-11456484D02*
X12450039Y-11446960D01*
X12450039Y-11446960D02*
X12440515Y-11437436D01*
X12440515Y-11437436D02*
X12430992Y-11418388D01*
X12430992Y-11418388D02*
X12430992Y-11361246D01*
X12430992Y-11361246D02*
X12440515Y-11342198D01*
X12440515Y-11342198D02*
X12450039Y-11332674D01*
X12450039Y-11332674D02*
X12469087Y-11323150D01*
X12469087Y-11323150D02*
X12497658Y-11323150D01*
X12497658Y-11323150D02*
X12516706Y-11332674D01*
X12516706Y-11332674D02*
X12526230Y-11342198D01*
X12526230Y-11342198D02*
X12535754Y-11361246D01*
X12535754Y-11361246D02*
X12535754Y-11418388D01*
X12535754Y-11418388D02*
X12526230Y-11437436D01*
X12526230Y-11437436D02*
X12516706Y-11446960D01*
X12516706Y-11446960D02*
X12497658Y-11456484D01*
X12497658Y-11456484D02*
X12469087Y-11456484D01*
X12592896Y-11323150D02*
X12669087Y-11323150D01*
X12621468Y-11256484D02*
X12621468Y-11427912D01*
X12621468Y-11427912D02*
X12630992Y-11446960D01*
X12630992Y-11446960D02*
X12650039Y-11456484D01*
X12650039Y-11456484D02*
X12669087Y-11456484D01*
X12726230Y-11446960D02*
X12745277Y-11456484D01*
X12745277Y-11456484D02*
X12783373Y-11456484D01*
X12783373Y-11456484D02*
X12802420Y-11446960D01*
X12802420Y-11446960D02*
X12811944Y-11427912D01*
X12811944Y-11427912D02*
X12811944Y-11418388D01*
X12811944Y-11418388D02*
X12802420Y-11399341D01*
X12802420Y-11399341D02*
X12783373Y-11389817D01*
X12783373Y-11389817D02*
X12754801Y-11389817D01*
X12754801Y-11389817D02*
X12735754Y-11380293D01*
X12735754Y-11380293D02*
X12726230Y-11361246D01*
X12726230Y-11361246D02*
X12726230Y-11351722D01*
X12726230Y-11351722D02*
X12735754Y-11332674D01*
X12735754Y-11332674D02*
X12754801Y-11323150D01*
X12754801Y-11323150D02*
X12783373Y-11323150D01*
X12783373Y-11323150D02*
X12802420Y-11332674D01*
X12878611Y-11532674D02*
X12888135Y-11523150D01*
X12888135Y-11523150D02*
X12907182Y-11494579D01*
X12907182Y-11494579D02*
X12916706Y-11475531D01*
X12916706Y-11475531D02*
X12926230Y-11446960D01*
X12926230Y-11446960D02*
X12935754Y-11399341D01*
X12935754Y-11399341D02*
X12935754Y-11361246D01*
X12935754Y-11361246D02*
X12926230Y-11313627D01*
X12926230Y-11313627D02*
X12916706Y-11285055D01*
X12916706Y-11285055D02*
X12907182Y-11266008D01*
X12907182Y-11266008D02*
X12888135Y-11237436D01*
X12888135Y-11237436D02*
X12878611Y-11227912D01*
X13240516Y-11532674D02*
X13230992Y-11523150D01*
X13230992Y-11523150D02*
X13211944Y-11494579D01*
X13211944Y-11494579D02*
X13202420Y-11475531D01*
X13202420Y-11475531D02*
X13192896Y-11446960D01*
X13192896Y-11446960D02*
X13183373Y-11399341D01*
X13183373Y-11399341D02*
X13183373Y-11361246D01*
X13183373Y-11361246D02*
X13192896Y-11313627D01*
X13192896Y-11313627D02*
X13202420Y-11285055D01*
X13202420Y-11285055D02*
X13211944Y-11266008D01*
X13211944Y-11266008D02*
X13230992Y-11237436D01*
X13230992Y-11237436D02*
X13240516Y-11227912D01*
X13316706Y-11323150D02*
X13316706Y-11456484D01*
X13316706Y-11342198D02*
X13326230Y-11332674D01*
X13326230Y-11332674D02*
X13345277Y-11323150D01*
X13345277Y-11323150D02*
X13373849Y-11323150D01*
X13373849Y-11323150D02*
X13392896Y-11332674D01*
X13392896Y-11332674D02*
X13402420Y-11351722D01*
X13402420Y-11351722D02*
X13402420Y-11456484D01*
X13526230Y-11456484D02*
X13507182Y-11446960D01*
X13507182Y-11446960D02*
X13497658Y-11437436D01*
X13497658Y-11437436D02*
X13488135Y-11418388D01*
X13488135Y-11418388D02*
X13488135Y-11361246D01*
X13488135Y-11361246D02*
X13497658Y-11342198D01*
X13497658Y-11342198D02*
X13507182Y-11332674D01*
X13507182Y-11332674D02*
X13526230Y-11323150D01*
X13526230Y-11323150D02*
X13554801Y-11323150D01*
X13554801Y-11323150D02*
X13573849Y-11332674D01*
X13573849Y-11332674D02*
X13583373Y-11342198D01*
X13583373Y-11342198D02*
X13592896Y-11361246D01*
X13592896Y-11361246D02*
X13592896Y-11418388D01*
X13592896Y-11418388D02*
X13583373Y-11437436D01*
X13583373Y-11437436D02*
X13573849Y-11446960D01*
X13573849Y-11446960D02*
X13554801Y-11456484D01*
X13554801Y-11456484D02*
X13526230Y-11456484D01*
X13650039Y-11323150D02*
X13726230Y-11323150D01*
X13678611Y-11256484D02*
X13678611Y-11427912D01*
X13678611Y-11427912D02*
X13688135Y-11446960D01*
X13688135Y-11446960D02*
X13707182Y-11456484D01*
X13707182Y-11456484D02*
X13726230Y-11456484D01*
X13945277Y-11323150D02*
X13945277Y-11523150D01*
X13945277Y-11332674D02*
X13964325Y-11323150D01*
X13964325Y-11323150D02*
X14002420Y-11323150D01*
X14002420Y-11323150D02*
X14021468Y-11332674D01*
X14021468Y-11332674D02*
X14030992Y-11342198D01*
X14030992Y-11342198D02*
X14040516Y-11361246D01*
X14040516Y-11361246D02*
X14040516Y-11418388D01*
X14040516Y-11418388D02*
X14030992Y-11437436D01*
X14030992Y-11437436D02*
X14021468Y-11446960D01*
X14021468Y-11446960D02*
X14002420Y-11456484D01*
X14002420Y-11456484D02*
X13964325Y-11456484D01*
X13964325Y-11456484D02*
X13945277Y-11446960D01*
X14154801Y-11456484D02*
X14135754Y-11446960D01*
X14135754Y-11446960D02*
X14126230Y-11427912D01*
X14126230Y-11427912D02*
X14126230Y-11256484D01*
X14316706Y-11456484D02*
X14316706Y-11351722D01*
X14316706Y-11351722D02*
X14307182Y-11332674D01*
X14307182Y-11332674D02*
X14288135Y-11323150D01*
X14288135Y-11323150D02*
X14250039Y-11323150D01*
X14250039Y-11323150D02*
X14230992Y-11332674D01*
X14316706Y-11446960D02*
X14297658Y-11456484D01*
X14297658Y-11456484D02*
X14250039Y-11456484D01*
X14250039Y-11456484D02*
X14230992Y-11446960D01*
X14230992Y-11446960D02*
X14221468Y-11427912D01*
X14221468Y-11427912D02*
X14221468Y-11408865D01*
X14221468Y-11408865D02*
X14230992Y-11389817D01*
X14230992Y-11389817D02*
X14250039Y-11380293D01*
X14250039Y-11380293D02*
X14297658Y-11380293D01*
X14297658Y-11380293D02*
X14316706Y-11370769D01*
X14383373Y-11323150D02*
X14459563Y-11323150D01*
X14411944Y-11256484D02*
X14411944Y-11427912D01*
X14411944Y-11427912D02*
X14421468Y-11446960D01*
X14421468Y-11446960D02*
X14440516Y-11456484D01*
X14440516Y-11456484D02*
X14459563Y-11456484D01*
X14602420Y-11446960D02*
X14583373Y-11456484D01*
X14583373Y-11456484D02*
X14545277Y-11456484D01*
X14545277Y-11456484D02*
X14526230Y-11446960D01*
X14526230Y-11446960D02*
X14516706Y-11427912D01*
X14516706Y-11427912D02*
X14516706Y-11351722D01*
X14516706Y-11351722D02*
X14526230Y-11332674D01*
X14526230Y-11332674D02*
X14545277Y-11323150D01*
X14545277Y-11323150D02*
X14583373Y-11323150D01*
X14583373Y-11323150D02*
X14602420Y-11332674D01*
X14602420Y-11332674D02*
X14611944Y-11351722D01*
X14611944Y-11351722D02*
X14611944Y-11370769D01*
X14611944Y-11370769D02*
X14516706Y-11389817D01*
X14783373Y-11456484D02*
X14783373Y-11256484D01*
X14783373Y-11446960D02*
X14764325Y-11456484D01*
X14764325Y-11456484D02*
X14726230Y-11456484D01*
X14726230Y-11456484D02*
X14707182Y-11446960D01*
X14707182Y-11446960D02*
X14697658Y-11437436D01*
X14697658Y-11437436D02*
X14688135Y-11418388D01*
X14688135Y-11418388D02*
X14688135Y-11361246D01*
X14688135Y-11361246D02*
X14697658Y-11342198D01*
X14697658Y-11342198D02*
X14707182Y-11332674D01*
X14707182Y-11332674D02*
X14726230Y-11323150D01*
X14726230Y-11323150D02*
X14764325Y-11323150D01*
X14764325Y-11323150D02*
X14783373Y-11332674D01*
X14859563Y-11532674D02*
X14869087Y-11523150D01*
X14869087Y-11523150D02*
X14888135Y-11494579D01*
X14888135Y-11494579D02*
X14897658Y-11475531D01*
X14897658Y-11475531D02*
X14907182Y-11446960D01*
X14907182Y-11446960D02*
X14916706Y-11399341D01*
X14916706Y-11399341D02*
X14916706Y-11361246D01*
X14916706Y-11361246D02*
X14907182Y-11313627D01*
X14907182Y-11313627D02*
X14897658Y-11285055D01*
X14897658Y-11285055D02*
X14888135Y-11266008D01*
X14888135Y-11266008D02*
X14869087Y-11237436D01*
X14869087Y-11237436D02*
X14859563Y-11227912D01*
M02*
