%TF.GenerationSoftware,KiCad,Pcbnew,9.0.6*%
%TF.CreationDate,2026-02-26T17:30:16-05:00*%
%TF.ProjectId,Power Slice Rev 1,506f7765-7220-4536-9c69-636520526576,rev?*%
%TF.SameCoordinates,Original*%
%TF.FileFunction,Paste,Top*%
%TF.FilePolarity,Positive*%
%FSLAX46Y46*%
G04 Gerber Fmt 4.6, Leading zero omitted, Abs format (unit mm)*
G04 Created by KiCad (PCBNEW 9.0.6) date 2026-02-26 17:30:16*
%MOMM*%
%LPD*%
G01*
G04 APERTURE LIST*
G04 Aperture macros list*
%AMRoundRect*
0 Rectangle with rounded corners*
0 $1 Rounding radius*
0 $2 $3 $4 $5 $6 $7 $8 $9 X,Y pos of 4 corners*
0 Add a 4 corners polygon primitive as box body*
4,1,4,$2,$3,$4,$5,$6,$7,$8,$9,$2,$3,0*
0 Add four circle primitives for the rounded corners*
1,1,$1+$1,$2,$3*
1,1,$1+$1,$4,$5*
1,1,$1+$1,$6,$7*
1,1,$1+$1,$8,$9*
0 Add four rect primitives between the rounded corners*
20,1,$1+$1,$2,$3,$4,$5,0*
20,1,$1+$1,$4,$5,$6,$7,0*
20,1,$1+$1,$6,$7,$8,$9,0*
20,1,$1+$1,$8,$9,$2,$3,0*%
G04 Aperture macros list end*
%ADD10RoundRect,0.162500X-0.812500X-0.162500X0.812500X-0.162500X0.812500X0.162500X-0.812500X0.162500X0*%
%ADD11RoundRect,0.218750X-0.218750X-0.256250X0.218750X-0.256250X0.218750X0.256250X-0.218750X0.256250X0*%
%ADD12RoundRect,0.250000X0.375000X0.625000X-0.375000X0.625000X-0.375000X-0.625000X0.375000X-0.625000X0*%
%ADD13RoundRect,0.250000X-0.375000X-0.625000X0.375000X-0.625000X0.375000X0.625000X-0.375000X0.625000X0*%
%ADD14RoundRect,0.250000X-0.337500X-0.475000X0.337500X-0.475000X0.337500X0.475000X-0.337500X0.475000X0*%
%ADD15RoundRect,0.250000X-0.412500X-0.650000X0.412500X-0.650000X0.412500X0.650000X-0.412500X0.650000X0*%
%ADD16RoundRect,0.150000X-0.825000X-0.150000X0.825000X-0.150000X0.825000X0.150000X-0.825000X0.150000X0*%
%ADD17RoundRect,0.375000X-1.375000X0.875000X-1.375000X-0.875000X1.375000X-0.875000X1.375000X0.875000X0*%
%ADD18R,1.600000X0.300000*%
%ADD19RoundRect,0.250000X0.262500X0.450000X-0.262500X0.450000X-0.262500X-0.450000X0.262500X-0.450000X0*%
%ADD20RoundRect,0.250000X-0.450000X0.325000X-0.450000X-0.325000X0.450000X-0.325000X0.450000X0.325000X0*%
%ADD21RoundRect,0.375000X0.875000X-1.625000X0.875000X1.625000X-0.875000X1.625000X-0.875000X-1.625000X0*%
%ADD22RoundRect,0.250000X-0.262500X-0.450000X0.262500X-0.450000X0.262500X0.450000X-0.262500X0.450000X0*%
%ADD23RoundRect,0.250000X-0.475000X0.337500X-0.475000X-0.337500X0.475000X-0.337500X0.475000X0.337500X0*%
%ADD24RoundRect,0.250000X0.450000X-0.325000X0.450000X0.325000X-0.450000X0.325000X-0.450000X-0.325000X0*%
%ADD25RoundRect,0.250000X0.450000X-0.262500X0.450000X0.262500X-0.450000X0.262500X-0.450000X-0.262500X0*%
%ADD26RoundRect,0.150000X-0.512500X-0.150000X0.512500X-0.150000X0.512500X0.150000X-0.512500X0.150000X0*%
%ADD27R,3.000000X1.500000*%
%ADD28RoundRect,0.250000X0.312500X0.625000X-0.312500X0.625000X-0.312500X-0.625000X0.312500X-0.625000X0*%
%ADD29RoundRect,0.250000X-0.450000X0.262500X-0.450000X-0.262500X0.450000X-0.262500X0.450000X0.262500X0*%
%ADD30RoundRect,0.150000X-0.150000X0.512500X-0.150000X-0.512500X0.150000X-0.512500X0.150000X0.512500X0*%
%ADD31RoundRect,0.250000X0.325000X0.450000X-0.325000X0.450000X-0.325000X-0.450000X0.325000X-0.450000X0*%
%ADD32RoundRect,0.150000X0.150000X-0.512500X0.150000X0.512500X-0.150000X0.512500X-0.150000X-0.512500X0*%
%ADD33RoundRect,0.250000X-0.625000X0.312500X-0.625000X-0.312500X0.625000X-0.312500X0.625000X0.312500X0*%
%ADD34RoundRect,0.250000X-0.650000X0.412500X-0.650000X-0.412500X0.650000X-0.412500X0.650000X0.412500X0*%
%ADD35RoundRect,0.250000X0.650000X-0.412500X0.650000X0.412500X-0.650000X0.412500X-0.650000X-0.412500X0*%
%ADD36RoundRect,0.250000X0.475000X-0.337500X0.475000X0.337500X-0.475000X0.337500X-0.475000X-0.337500X0*%
%ADD37RoundRect,0.250000X-0.312500X-0.625000X0.312500X-0.625000X0.312500X0.625000X-0.312500X0.625000X0*%
G04 APERTURE END LIST*
D10*
%TO.C,U10*%
X101230000Y-84375000D03*
X101230000Y-85645000D03*
X101230000Y-86915000D03*
X101230000Y-88185000D03*
X106830000Y-88185000D03*
X106830000Y-86915000D03*
X106830000Y-85645000D03*
X106830000Y-84375000D03*
%TD*%
%TO.C,U8*%
X100980000Y-65120000D03*
X100980000Y-66390000D03*
X100980000Y-67660000D03*
X100980000Y-68930000D03*
X106580000Y-68930000D03*
X106580000Y-67660000D03*
X106580000Y-66390000D03*
X106580000Y-65120000D03*
%TD*%
%TO.C,U4*%
X101180000Y-74945000D03*
X101180000Y-76215000D03*
X101180000Y-77485000D03*
X101180000Y-78755000D03*
X106780000Y-78755000D03*
X106780000Y-77485000D03*
X106780000Y-76215000D03*
X106780000Y-74945000D03*
%TD*%
D11*
%TO.C,F5*%
X96122500Y-91680000D03*
X97697500Y-91680000D03*
%TD*%
D12*
%TO.C,F2*%
X139485000Y-75110000D03*
X136685000Y-75110000D03*
%TD*%
D13*
%TO.C,F1*%
X136310000Y-48780000D03*
X139110000Y-48780000D03*
%TD*%
D14*
%TO.C,C10*%
X111767500Y-76195000D03*
X113842500Y-76195000D03*
%TD*%
D15*
%TO.C,C2*%
X150367500Y-76740000D03*
X153492500Y-76740000D03*
%TD*%
D16*
%TO.C,U1*%
X141885000Y-50745000D03*
X141885000Y-52015000D03*
X141885000Y-53285000D03*
X141885000Y-54555000D03*
X146835000Y-54555000D03*
X146835000Y-53285000D03*
X146835000Y-52015000D03*
X146835000Y-50745000D03*
%TD*%
D17*
%TO.C,L1*%
X125385000Y-39007500D03*
X125385000Y-49007500D03*
%TD*%
D18*
%TO.C,U7*%
X81325300Y-88649999D03*
X81325300Y-89150001D03*
X81325300Y-89650000D03*
X81325300Y-90149999D03*
X81325300Y-90650001D03*
X85414700Y-90650001D03*
X85414700Y-90149999D03*
X85414700Y-89650000D03*
X85414700Y-89150001D03*
X85414700Y-88649999D03*
%TD*%
D19*
%TO.C,R4*%
X168982500Y-42550000D03*
X167157500Y-42550000D03*
%TD*%
%TO.C,R31*%
X97492500Y-85580000D03*
X95667500Y-85580000D03*
%TD*%
D14*
%TO.C,C11*%
X112702500Y-67717500D03*
X114777500Y-67717500D03*
%TD*%
D19*
%TO.C,R13*%
X165530000Y-57830000D03*
X163705000Y-57830000D03*
%TD*%
D20*
%TO.C,F4*%
X176520000Y-66255000D03*
X176520000Y-68305000D03*
%TD*%
D21*
%TO.C,D2*%
X133922500Y-44247500D03*
X142672500Y-44247500D03*
%TD*%
D22*
%TO.C,R17*%
X135637500Y-87772500D03*
X137462500Y-87772500D03*
%TD*%
D14*
%TO.C,C16*%
X110112500Y-84190000D03*
X112187500Y-84190000D03*
%TD*%
D23*
%TO.C,C5*%
X139080000Y-54705000D03*
X139080000Y-56780000D03*
%TD*%
D24*
%TO.C,D4*%
X66850000Y-38312500D03*
X66850000Y-36262500D03*
%TD*%
D25*
%TO.C,R26*%
X150140000Y-60330000D03*
X150140000Y-58505000D03*
%TD*%
D22*
%TO.C,R1*%
X179685000Y-62860000D03*
X181510000Y-62860000D03*
%TD*%
D23*
%TO.C,C4*%
X137850000Y-81325000D03*
X137850000Y-83400000D03*
%TD*%
D14*
%TO.C,C14*%
X112692500Y-65257500D03*
X114767500Y-65257500D03*
%TD*%
D25*
%TO.C,R28*%
X152610000Y-60302500D03*
X152610000Y-58477500D03*
%TD*%
D26*
%TO.C,Q4*%
X153802500Y-61980000D03*
X153802500Y-63880000D03*
X156077500Y-62930000D03*
%TD*%
D27*
%TO.C,PWR_Toggle1*%
X160640000Y-44910000D03*
X155140000Y-42410000D03*
X160640000Y-39910000D03*
%TD*%
D28*
%TO.C,R18*%
X135632500Y-52500000D03*
X132707500Y-52500000D03*
%TD*%
D22*
%TO.C,R6*%
X170832500Y-54560000D03*
X172657500Y-54560000D03*
%TD*%
%TO.C,R9*%
X167087500Y-44780000D03*
X168912500Y-44780000D03*
%TD*%
%TO.C,R8*%
X167165000Y-40340000D03*
X168990000Y-40340000D03*
%TD*%
D25*
%TO.C,R2*%
X181360000Y-60122500D03*
X181360000Y-58297500D03*
%TD*%
D19*
%TO.C,R16*%
X138482500Y-61720000D03*
X136657500Y-61720000D03*
%TD*%
D29*
%TO.C,R11*%
X159220000Y-63957500D03*
X159220000Y-65782500D03*
%TD*%
D30*
%TO.C,Q2*%
X172765000Y-57862500D03*
X170865000Y-57862500D03*
X171815000Y-60137500D03*
%TD*%
D25*
%TO.C,R30*%
X88110000Y-88422500D03*
X88110000Y-86597500D03*
%TD*%
%TO.C,R27*%
X130180000Y-57662500D03*
X130180000Y-55837500D03*
%TD*%
D19*
%TO.C,R15*%
X154802500Y-71980000D03*
X152977500Y-71980000D03*
%TD*%
D31*
%TO.C,3.3_PWR1*%
X154812500Y-74390000D03*
X152762500Y-74390000D03*
%TD*%
D14*
%TO.C,C9*%
X111737500Y-78345000D03*
X113812500Y-78345000D03*
%TD*%
D31*
%TO.C,F3*%
X179920000Y-40440000D03*
X177870000Y-40440000D03*
%TD*%
D29*
%TO.C,R29*%
X128670000Y-82597500D03*
X128670000Y-84422500D03*
%TD*%
D32*
%TO.C,Q5*%
X163852500Y-64217500D03*
X165752500Y-64217500D03*
X164802500Y-61942500D03*
%TD*%
D23*
%TO.C,C6*%
X135610000Y-81335000D03*
X135610000Y-83410000D03*
%TD*%
D33*
%TO.C,R22*%
X133260000Y-81050000D03*
X133260000Y-83975000D03*
%TD*%
D21*
%TO.C,D3*%
X133827500Y-70512500D03*
X142577500Y-70512500D03*
%TD*%
D32*
%TO.C,Q6*%
X163647500Y-54537500D03*
X165547500Y-54537500D03*
X164597500Y-52262500D03*
%TD*%
D25*
%TO.C,R14*%
X144350000Y-60375000D03*
X144350000Y-58550000D03*
%TD*%
D33*
%TO.C,R20*%
X132620000Y-55327500D03*
X132620000Y-58252500D03*
%TD*%
D34*
%TO.C,C19*%
X175630000Y-54807500D03*
X175630000Y-57932500D03*
%TD*%
D24*
%TO.C,5V_PWR1*%
X146770000Y-60312500D03*
X146770000Y-58262500D03*
%TD*%
D23*
%TO.C,C13*%
X72120000Y-91832500D03*
X72120000Y-93907500D03*
%TD*%
D19*
%TO.C,R12*%
X163792500Y-66730000D03*
X161967500Y-66730000D03*
%TD*%
%TO.C,R3*%
X181282500Y-55710000D03*
X179457500Y-55710000D03*
%TD*%
D14*
%TO.C,C15*%
X110092500Y-86970000D03*
X112167500Y-86970000D03*
%TD*%
D16*
%TO.C,U2*%
X142285000Y-76775000D03*
X142285000Y-78045000D03*
X142285000Y-79315000D03*
X142285000Y-80585000D03*
X147235000Y-80585000D03*
X147235000Y-79315000D03*
X147235000Y-78045000D03*
X147235000Y-76775000D03*
%TD*%
D22*
%TO.C,R32*%
X95815000Y-88110000D03*
X97640000Y-88110000D03*
%TD*%
D30*
%TO.C,Q1*%
X181040000Y-49625000D03*
X179140000Y-49625000D03*
X180090000Y-51900000D03*
%TD*%
D34*
%TO.C,C17*%
X127520000Y-58827500D03*
X127520000Y-61952500D03*
%TD*%
D28*
%TO.C,R23*%
X133312500Y-87562500D03*
X130387500Y-87562500D03*
%TD*%
D35*
%TO.C,C1*%
X146860000Y-45442500D03*
X146860000Y-42317500D03*
%TD*%
D30*
%TO.C,Q3*%
X172525000Y-49192500D03*
X170625000Y-49192500D03*
X171575000Y-51467500D03*
%TD*%
D23*
%TO.C,C3*%
X136865000Y-54675000D03*
X136865000Y-56750000D03*
%TD*%
D22*
%TO.C,R7*%
X157572500Y-56060000D03*
X159397500Y-56060000D03*
%TD*%
D25*
%TO.C,R25*%
X93050000Y-68552500D03*
X93050000Y-66727500D03*
%TD*%
D36*
%TO.C,C12*%
X72180000Y-86830000D03*
X72180000Y-84755000D03*
%TD*%
D28*
%TO.C,R19*%
X135852500Y-78755000D03*
X132927500Y-78755000D03*
%TD*%
D17*
%TO.C,L2*%
X125240000Y-65522500D03*
X125240000Y-75522500D03*
%TD*%
D30*
%TO.C,D1*%
X172955000Y-62712500D03*
X171055000Y-62712500D03*
X172005000Y-64987500D03*
%TD*%
D22*
%TO.C,R5*%
X172730000Y-46650000D03*
X174555000Y-46650000D03*
%TD*%
D34*
%TO.C,C18*%
X130830000Y-78557500D03*
X130830000Y-81682500D03*
%TD*%
D37*
%TO.C,R21*%
X130417500Y-61880000D03*
X133342500Y-61880000D03*
%TD*%
D29*
%TO.C,R10*%
X159120000Y-60065000D03*
X159120000Y-61890000D03*
%TD*%
D25*
%TO.C,R24*%
X69470000Y-38102500D03*
X69470000Y-36277500D03*
%TD*%
M02*
